<svg xmlns="http://www.w3.org/2000/svg" viewBox="0 0 29.29 29.29"><defs><style>.cls-1{fill:#e8c230;}</style></defs><g id="Capa_2" data-name="Capa 2"><g id="Capa_1-2" data-name="Capa 1"><path class="cls-1" d="M28.56,12.36H17.67a.73.73,0,0,1-.73-.74V.73A.74.74,0,0,0,16.2,0H13.09a.73.73,0,0,0-.73.73V11.62a.74.74,0,0,1-.73.74H.73a.73.73,0,0,0-.73.73V16.2a.74.74,0,0,0,.73.74h10.9a.73.73,0,0,1,.73.73V28.56a.73.73,0,0,0,.73.73H16.2a.73.73,0,0,0,.74-.73V17.67a.72.72,0,0,1,.73-.73H28.56a.73.73,0,0,0,.73-.74V13.09A.73.73,0,0,0,28.56,12.36Z"/></g></g></svg>