<svg xmlns="http://www.w3.org/2000/svg" viewBox="0 0 17.04 33.98"><defs><style>.cls-1{fill:#1c3180;}</style></defs><g id="Capa_2" data-name="Capa 2"><g id="Capa_1-2" data-name="Capa 1"><path class="cls-1" d="M4.91,26.38c0-2.25,0-4.49,0-6.74,0-.63-.2-.8-.8-.78-1.14,0-2.29,0-3.43,0-.52,0-.7-.19-.69-.7q0-2.42,0-4.83c0-.49.19-.65.66-.64,1.21,0,2.43,0,3.64,0,.46,0,.62-.15.61-.61,0-1.59-.06-3.18,0-4.76A7.41,7.41,0,0,1,7.7,1.44,7,7,0,0,1,11.82,0a34.62,34.62,0,0,1,4.55.12c.45,0,.68.18.67.67,0,1.44,0,2.87,0,4.3,0,.49-.17.68-.65.67-.93,0-1.85,0-2.78,0a2.25,2.25,0,0,0-2.52,2.48c0,1.28,0,2.56,0,3.84,0,.46.16.62.62.61,1.38,0,2.77,0,4.16,0,.54,0,.7.2.63.71-.21,1.61-.44,3.23-.62,4.84,0,.5-.28.63-.73.62-1.08,0-2.16,0-3.24,0-.62,0-.83.16-.83.81,0,4.41,0,8.82,0,13.22C11.08,34,11.08,34,10,34c-1.45,0-2.91,0-4.36,0-.54,0-.74-.17-.73-.72C4.92,31,4.91,28.67,4.91,26.38Z"/></g></g></svg>