<svg xmlns="http://www.w3.org/2000/svg" viewBox="0 0 39.05 39.03"><defs><style>.cls-1{fill:#1c3180;}</style></defs><g id="Capa_2" data-name="Capa 2"><g id="Capa_1-2" data-name="Capa 1"><path class="cls-1" d="M19.52,39A19.51,19.51,0,1,1,39.05,19.55,19.54,19.54,0,0,1,19.52,39ZM37.57,19.56a18,18,0,1,0-18.1,18A18,18,0,0,0,37.57,19.56Z"/><path class="cls-1" d="M15.91,26.32c0-1.63,0-3.26,0-4.89,0-.45-.15-.58-.58-.56-.83,0-1.66,0-2.49,0-.38,0-.51-.14-.5-.51,0-1.17,0-2.33,0-3.5,0-.36.13-.47.48-.47.88,0,1.76,0,2.63,0,.34,0,.46-.11.45-.44,0-1.15,0-2.3,0-3.45a5.37,5.37,0,0,1,2-4.28,5.05,5.05,0,0,1,3-1,24.26,24.26,0,0,1,3.3.09c.32,0,.49.12.48.49,0,1,0,2.07,0,3.11,0,.35-.12.49-.47.48-.67,0-1.34,0-2,0a1.63,1.63,0,0,0-1.83,1.8c0,.92,0,1.85,0,2.78,0,.33.12.45.45.44,1,0,2,0,3,0,.39,0,.51.15.46.52-.16,1.17-.32,2.34-.45,3.51,0,.36-.21.45-.53.45-.78,0-1.57,0-2.35,0-.45,0-.6.12-.6.59,0,3.19,0,6.39,0,9.58,0,.78,0,.78-.79.78-1.05,0-2.11,0-3.16,0-.39,0-.53-.13-.53-.52C15.92,29.65,15.91,28,15.91,26.32Z"/></g></g></svg>