<svg xmlns="http://www.w3.org/2000/svg" viewBox="0 0 33.92 33.92"><defs><style>.cls-1{fill:#1c3180;}</style></defs><g id="Capa_2" data-name="Capa 2"><g id="Capa_1-2" data-name="Capa 1"><path class="cls-1" d="M33.91,17c0,3.23,0,6.47,0,9.7a7,7,0,0,1-7.14,7.18H7.16A7,7,0,0,1,.07,27.26C0,26.54,0,25.81,0,25.09V8A8.35,8.35,0,0,1,1,3.56,7.26,7.26,0,0,1,7.69,0C13.9,0,20.1,0,26.31,0c3.48,0,6,1.7,7.14,4.58a6.89,6.89,0,0,1,.47,2.46Q33.9,12.06,33.91,17ZM17,6.92a9.85,9.85,0,0,0-10.1,10A10.08,10.08,0,0,0,17,27.08,9.93,9.93,0,0,0,27.07,17,10.08,10.08,0,0,0,17,6.92Zm11.59-.3a1.23,1.23,0,0,0-1.17-1.24,1.21,1.21,0,0,0-1.26,1.21,1.26,1.26,0,0,0,1.2,1.22A1.29,1.29,0,0,0,28.61,6.62Z"/><path class="cls-1" d="M25.26,17A8.29,8.29,0,1,1,17,8.7,8.33,8.33,0,0,1,25.26,17Z"/></g></g></svg>