<svg xmlns="http://www.w3.org/2000/svg" viewBox="0 0 25.63 39.03"><defs><style>.cls-1{fill:#1c3180;}</style></defs><g id="Capa_2" data-name="Capa 2"><g id="Capa_1-2" data-name="Capa 1"><path class="cls-1" d="M12.7,0A12.79,12.79,0,0,1,25.61,13.44a19.5,19.5,0,0,1-1.85,6.31,130.21,130.21,0,0,1-9,17c-.34.56-.68,1.13-1,1.68-.56.85-1.27.88-1.79,0C8,31.88,4,25.33,1.27,18.15a15.42,15.42,0,0,1-1.27-6A13,13,0,0,1,10.62.16,12.41,12.41,0,0,1,12.7,0Zm0,1.76a10.25,10.25,0,0,0-1.81.16,11.14,11.14,0,0,0-9.1,10.43,16.2,16.2,0,0,0,1.62,6.42,129.1,129.1,0,0,0,9,17.09c.36.6.55.4.81,0,.87-1.49,1.78-3,2.63-4.44A99.78,99.78,0,0,0,22.56,18a14.56,14.56,0,0,0,1.3-5A11,11,0,0,0,12.68,1.76Z"/><path class="cls-1" d="M12.8,17.89A6,6,0,0,1,6.71,12a6.12,6.12,0,0,1,12.23,0A6,6,0,0,1,12.8,17.89Zm.07-10.07a4.24,4.24,0,0,0-4.4,4.09,4.25,4.25,0,0,0,4.28,4.22A4.25,4.25,0,0,0,17.18,12,4.22,4.22,0,0,0,12.87,7.82Z"/></g></g></svg>