<svg xmlns="http://www.w3.org/2000/svg" viewBox="0 0 156.49 166.88"><defs><style>.cls-1{font-size:53.96px;font-family:AvenirNextCondensed-Medium, AvenirNextCondensed Medium;font-weight:500;letter-spacing:-0.01em;}.cls-1,.cls-2,.cls-4,.cls-5,.cls-8{fill:#1c3180;}.cls-2{font-size:29.5px;letter-spacing:0.02em;}.cls-2,.cls-7{font-family:AvenirNextCondensed-Regular, AvenirNextCondensed Regular;}.cls-3{letter-spacing:0.02em;}.cls-5{font-size:38.69px;font-family:AvenirNextCondensed-DemiBold, AvenirNextCondensed DemiBold;font-weight:300;letter-spacing:-0.01em;}.cls-6{letter-spacing:-0.02em;}.cls-7{font-size:18.8px;fill:#fff;letter-spacing:-0.02em;}.cls-8{font-size:21.52px;font-family:AvenirNext-Regular, AvenirNext Regular;letter-spacing:-0.11em;}.cls-9{letter-spacing:-0.06em;}</style></defs><g id="Capa_2" data-name="Capa 2"><g id="Capa_1-2" data-name="Capa 1"><text class="cls-1" transform="translate(41.2 125.42) scale(0.86 1)">Ideas</text><text class="cls-2" transform="translate(57.51 48.04) scale(0.8 1)">M<tspan class="cls-3" x="24.4" y="0">undo </tspan></text><circle class="cls-4" cx="111.83" cy="144.94" r="9.17"/><circle class="cls-4" cx="104.73" cy="159.23" r="3.99"/><circle class="cls-4" cx="98.28" cy="165.07" r="1.81"/><text class="cls-5" transform="translate(19.83 79.81)">Ne<tspan class="cls-6" x="43.84" y="0">c</tspan><tspan x="60.44" y="0">esita</tspan></text><circle class="cls-4" cx="40.42" cy="38.18" r="13.03"/><text class="cls-7" transform="translate(34.36 43.94) scale(0.83 1)">El </text><text class="cls-8" transform="translate(21.62 99.4) scale(0.73 1)">T<tspan class="cls-9" x="8.44" y="0">us</tspan></text><path class="cls-4" d="M78.25,156.49a78.24,78.24,0,1,1,50.07-18.12,2.5,2.5,0,1,1-3.2-3.84,73.25,73.25,0,1,0-46.87,17,74,74,0,0,0,17.14-2,2.5,2.5,0,1,1,1.16,4.86A78.54,78.54,0,0,1,78.25,156.49Z"/></g></g></svg>