<svg xmlns="http://www.w3.org/2000/svg" viewBox="0 0 194.42 207.68"><defs><style>.cls-1{fill:#333;}</style></defs><g id="Capa_2" data-name="Capa 2"><g id="Capa_1-2" data-name="Capa 1"><path class="cls-1" d="M96.15,16.37c0,.52-.51,1.34-1.13,1.34s-1.13-.82-1.13-1.34S94.4,15,95,15s1.13.81,1.13,1.35m7,1.94c.45.05.87-.49.91-.87s-.26-1-.7-1-.86.48-.9.86.25,1,.69,1M86.69,16.4a1,1,0,0,0-.7,1c.05.38.47.92.91.87s.74-.67.7-1-.46-.91-.91-.87M59.3,122.1c0-.32-.26-.88-.76-.88a1.08,1.08,0,0,0-.7.26,1,1,0,0,0-.22.62.89.89,0,0,0,.27.64,1.06,1.06,0,0,0,.57.22.93.93,0,0,0,.84-.86m19.82,0c0-.32-.27-.88-.76-.88a1,1,0,0,0-.7.26,1,1,0,0,0-.22.62.89.89,0,0,0,.27.64,1,1,0,0,0,.57.22.93.93,0,0,0,.84-.86m5.13,8.39a2,2,0,0,1-.86.26,1,1,0,0,1-1-1c0-.42.14-.53.33-.64a4.36,4.36,0,0,1,1.67-.51s.13.09.13.14c0,.39,0,1,0,1.35,0,0-.09.35-.2.41m30.08-8.39c0-.32-.27-.88-.76-.88a.83.83,0,0,0-.93.88.93.93,0,0,0,.27.64,1.06,1.06,0,0,0,.58.22.94.94,0,0,0,.84-.86m29.16,0c0-.32-.27-.88-.76-.88a1.09,1.09,0,0,0-.71.26,1,1,0,0,0-.21.62.92.92,0,0,0,.26.64,1.06,1.06,0,0,0,.57.22.94.94,0,0,0,.85-.86m13.63,8.39a2,2,0,0,1-.86.26,1,1,0,0,1-1-1c0-.42.13-.53.32-.64a4.46,4.46,0,0,1,1.68-.51s.11.09.11.14c0,.39,0,1,0,1.35,0,0-.11.35-.21.41M29.83,121.05a1,1,0,0,0-.49.15,1.22,1.22,0,0,0-.14.65c0,.35,0,2.46,0,4.38,0,1.54,0,2.89,0,3.31,0,1.07.13,1.25,1,1.5.32.08.44.18.44.34s-.3.2-.54.2c-.44,0-1.12-.07-1.85-.07-.49,0-1.22.07-1.72.07-.33,0-.52-.08-.52-.25s.19-.22.37-.27c.91-.21,1.11-.53,1.14-1.24s.09-2.14.09-3c0-.55,0-4.17-.06-4.69s0-.86-1-1c-.32,0-.48-.15-.48-.25s.14-.2.37-.22a4.7,4.7,0,0,1,.55,0c.77,0,2.09-.13,2.9-.13a4.43,4.43,0,0,1,3.21,1,3.33,3.33,0,0,1-.17,4.88,3.38,3.38,0,0,1-2,.75,3.62,3.62,0,0,1-.91-.12c-.18-.08-.29-.19-.29-.29s.09-.15.23-.15h.37c.85,0,2.07-.81,2.07-2.7a2.76,2.76,0,0,0-2.67-2.85m7.26,4.59a1.71,1.71,0,0,1,1-.46,2.11,2.11,0,0,1,1.39.66,4.16,4.16,0,0,1,.79,2.59,3.93,3.93,0,0,1-.72,2.24,1.51,1.51,0,0,1-1,.52,2.4,2.4,0,0,1-2.12-1.84,4.71,4.71,0,0,1-.2-1.52,3.19,3.19,0,0,1,.78-2.19m4.8,2.48a3.44,3.44,0,0,0-3.43-3.46,3.79,3.79,0,0,0-2.53.94,3.28,3.28,0,0,0-1.19,2.64,3.6,3.6,0,0,0,3.51,3.45,3.55,3.55,0,0,0,3.64-3.57m1.63-3a7.87,7.87,0,0,0,1.18-.49,1.05,1.05,0,0,1,.46-.2c.06,0,.14.18.14.25,0,.26,0,.68,0,.83s.1,0,.1,0a4.51,4.51,0,0,1,2.25-.92,1.93,1.93,0,0,1,1.53.64,3.2,3.2,0,0,1,.59,2.06c0,.34,0,2.83.05,3.07s.21.47.63.59.42.18.42.29-.23.2-.49.2-.84,0-1.32,0-1,0-1.19,0-.43-.05-.43-.2.19-.22.41-.29c.38-.16.49-.31.52-.86s0-2.6,0-3.09a1.82,1.82,0,0,0-.45-1.2,2.18,2.18,0,0,0-1.06-.32,2,2,0,0,0-1.42.49.7.7,0,0,0-.17.41c0,.22,0,3.84,0,4s.08.37.61.53c.17.05.3.16.3.27s-.18.2-.44.2H44.66c-.62,0-1.14.05-1.43.05s-.44-.09-.44-.24.17-.2.35-.25c.56-.18.64-.34.7-.95s.1-2,.1-3.66c0-.18-.07-.35-.42-.66s-.29-.23-.29-.28a.47.47,0,0,1,.29-.34m12.3-.34s.18.08.19.16a4.91,4.91,0,0,1,.06.63c0,.17-.32.21-.45.21h-1.8a.19.19,0,0,0-.14.12c0,.43,0,2.73,0,3.57a1.06,1.06,0,0,0,.3.83,1.43,1.43,0,0,0,1,.32,1.77,1.77,0,0,0,.81-.26.55.55,0,0,1,.27-.1s.08,0,.08.19a.76.76,0,0,1-.23.44,2.5,2.5,0,0,1-1.83.75,1.86,1.86,0,0,1-1.51-.77,1.93,1.93,0,0,1-.22-1.13c0-.62.06-3.15.06-3.75,0-.11-.3-.23-.65-.31-.13-.06-.23-.16-.23-.22a.24.24,0,0,1,.11-.19,8.86,8.86,0,0,0,1.43-1.2c.2-.22.32-.37.39-.37a.42.42,0,0,1,.26.2v.81a.2.2,0,0,0,.15.14c.37,0,1.94-.07,2-.07m1.47.35c-.18,0-.35.19-.35.31s.06.11.15.2c.48.34.66.49.68.61s0,2.29,0,2.39a15.49,15.49,0,0,1-.08,1.92c0,.17-.28.38-.67.5s-.4.14-.4.25.18.2.44.2.93-.06,1.48-.06c.35,0,1.2.05,1.32.05s.42-.07.42-.19-.1-.2-.37-.28-.76-.2-.78-.72,0-1.26,0-2.12.08-3.19.1-3.44c0,0-.09-.19-.17-.19a15.34,15.34,0,0,1-1.76.57m7.9-.28a5.85,5.85,0,0,0,2.13-.22,2.15,2.15,0,0,1,.52-.1c.12,0,.07.45.07,1.43,0,3.06,0,3.77,0,4.46,0,.35.22.43.71.59.34.12.37.16.37.28s-.2.21-.4.21c-.37,0-.92-.05-1.34-.05-.57,0-1.07.06-1.45.06-.18,0-.33-.05-.33-.2s.09-.17.37-.28.59-.33.61-.61c0-1.07.06-3.78.06-4.51a.35.35,0,0,0-.2-.25,20.64,20.64,0,0,0-2.73,0,.27.27,0,0,0-.18.22c0,.48,0,3.37.06,4.28,0,.54.1.63.86.87.26.08.35.16.35.26s-.12.21-.37.21-1-.05-1.59-.05-1.21.08-1.43.08-.34-.1-.34-.2.12-.2.34-.26c.57-.17.66-.28.73-.86,0-.36,0-3,0-4.29a.34.34,0,0,0-.17-.21l-.61-.07a.16.16,0,0,1-.13-.18c0-.16.24-.31.76-.58.08-.07.17-.15.17-.23a6.53,6.53,0,0,1,.46-2.52,5,5,0,0,1,1.51-1.9,3.63,3.63,0,0,1,2.18-.8,2.1,2.1,0,0,1,1.79.74.69.69,0,0,1,.14.43c0,.4-.66.84-.87.84a1.86,1.86,0,0,1-.66-.5,2.11,2.11,0,0,0-1.41-.65,1.19,1.19,0,0,0-1,.48c-.4.45-.76,1.62-.76,3.9a.22.22,0,0,0,.21.16c.26,0,1.38,0,1.52,0m10.15.2a.76.76,0,0,1,.26.54c0,.28-.51.69-.58.69a1.41,1.41,0,0,1-.67-.33c-.54-.4-.85-.68-1.42-.68a1.61,1.61,0,0,0-1,.52,3.08,3.08,0,0,0-.69,2,2.78,2.78,0,0,0,.48,1.69,2.34,2.34,0,0,0,2.05,1.08,2.57,2.57,0,0,0,1.52-.51c.16-.11.31-.07.31,0a.68.68,0,0,1-.24.5,3.45,3.45,0,0,1-2.46,1.07,3,3,0,0,1-2.52-1.35,4.06,4.06,0,0,1-.53-2,3.48,3.48,0,0,1,1.64-2.92,4.87,4.87,0,0,1,2.23-.71,3.26,3.26,0,0,1,1.6.37m1.78.08c-.19,0-.36.19-.36.31s0,.11.15.2c.48.34.66.49.68.61s0,2.29,0,2.39a19,19,0,0,1-.06,1.92,1,1,0,0,1-.68.5c-.29.07-.4.14-.4.25s.19.2.43.2.94-.06,1.5-.06c.34,0,1.19.05,1.31.05s.42-.07.42-.19-.11-.2-.37-.28c-.42-.14-.76-.2-.77-.72s0-1.26,0-2.12.08-3.19.1-3.44c0,0-.08-.19-.17-.19a16.46,16.46,0,0,1-1.75.57m8.35.31a1.78,1.78,0,0,0-1.57-.83,3.72,3.72,0,0,0-1.59.64c-.84.56-1.3,1-1.3,1.5a.27.27,0,0,0,.21.24,6.11,6.11,0,0,0,1.17-.59.43.43,0,0,0,.09-.16c0-.4,0-.67.12-.72a1.2,1.2,0,0,1,.65-.16,1.26,1.26,0,0,1,1.29,1.11c0,.2,0,1.22,0,1.37s-.11.18-.46.3-1.76.49-2,.61a1.47,1.47,0,0,0-.67.41,1.45,1.45,0,0,0-.32.87,1.48,1.48,0,0,0,1.21,1.58,2.72,2.72,0,0,0,.68-.1,7.6,7.6,0,0,0,1.48-.76s.11,0,.12.07a1.11,1.11,0,0,0,1.1.82,1.76,1.76,0,0,0,1.57-1.05.47.47,0,0,0,0-.19s-.06-.07-.11,0a2.78,2.78,0,0,1-.64.25c-.17,0-.66-.1-.66-.81,0-.19.07-2.28.07-2.94a2.24,2.24,0,0,0-.35-1.41m6.09-4.86c.7,0,1.18.05,1.8.05s1.32,0,1.69,0,.5.06.5.2-.17.23-.49.3c-.6.12-.9.31-1,1S94,124.41,94,126.8c0,1.93.42,2.62,1,3.21a3.58,3.58,0,0,0,2.34.87,3,3,0,0,0,3.12-2.32,20.63,20.63,0,0,0,.36-4.3c0-1.1,0-1.89-.07-2.07,0-.63-.2-.87-1.11-1.08-.17,0-.39-.17-.39-.29s.11-.19.42-.19.9.05,1.45.05,1.06,0,1.53,0c.28,0,.42.06.42.2s-.14.2-.38.28c-.75.23-1.08.52-1.1,1.55,0,.77-.11,2.66-.15,3.54-.1,2.93-.92,4.33-2.11,5a4.9,4.9,0,0,1-2.41.52,4.7,4.7,0,0,1-3.07-1c-.94-.9-1.37-2.09-1.37-4.9,0-2.18,0-3.79,0-4s-.28-.59-.92-.73c-.2,0-.39-.14-.39-.3s.2-.2.48-.2m11.93,4.54a7.58,7.58,0,0,0,1.19-.49,1.13,1.13,0,0,1,.45-.2c.07,0,.16.18.16.25,0,.26-.05.68-.05.83s.09,0,.09,0a4.51,4.51,0,0,1,2.25-.92,1.93,1.93,0,0,1,1.53.64,3.2,3.2,0,0,1,.6,2.06c0,.34,0,2.83,0,3.07s.21.47.63.59.42.18.42.29-.24.2-.49.2c-.41,0-.84,0-1.31,0s-1,0-1.19,0-.43-.05-.43-.2.19-.22.4-.29c.39-.16.49-.31.53-.86s0-2.6,0-3.09a1.77,1.77,0,0,0-.46-1.2,2.18,2.18,0,0,0-1.06-.32,2,2,0,0,0-1.41.49.64.64,0,0,0-.17.41c0,.22,0,3.84,0,4s.07.37.6.53c.17.05.3.16.3.27s-.18.2-.44.2h-1.08c-.62,0-1.15.05-1.43.05s-.44-.09-.44-.24.17-.2.36-.25c.56-.18.64-.34.69-.95s.1-2,.1-3.66c0-.18-.07-.35-.43-.66-.21-.17-.28-.23-.28-.28a.5.5,0,0,1,.28-.34m8.83,0c-.18,0-.35.19-.35.31s0,.11.15.2c.47.34.66.49.67.61s0,2.29,0,2.39c0,.65,0,1.69-.06,1.92a1,1,0,0,1-.68.5c-.29.07-.4.14-.4.25s.18.2.44.2.92-.06,1.48-.06c.34,0,1.2.05,1.31.05s.42-.07.42-.19-.09-.2-.37-.28-.75-.2-.77-.72,0-1.26,0-2.12.09-3.19.1-3.44c0,0-.08-.19-.16-.19a16.8,16.8,0,0,1-1.76.57m3.51-.37c.29,0,1.28.09,1.47.09.44,0,.87,0,1.07,0s.4.07.4.19-.16.2-.38.27c-.47.14-.43.35-.36.57a24.46,24.46,0,0,0,1.46,3.46c.05.05.1,0,.13-.06.22-.48,1.1-2.77,1.27-3.29s0-.54-.53-.73c-.14,0-.27-.12-.27-.24s.11-.18.33-.18.52.05.92.05.83-.09,1.16-.09c.14,0,.32.09.32.19s-.09.17-.36.27a1.83,1.83,0,0,0-.85.69c-.28.45-.87,2-1.38,3.17s-.49,1.37-.77,2.25c-.09.25-.27.43-.41.43s-.18-.12-.23-.3c-.17-.52-.24-.76-.63-1.73a36,36,0,0,0-1.72-3.92,1.08,1.08,0,0,0-.73-.57c-.25-.11-.33-.17-.33-.29s.25-.19.42-.19m8.8,1.6a1.84,1.84,0,0,1,1.67-1.29,1.12,1.12,0,0,1,1.08,1c0,.35-.2.45-.57.45-.85,0-1.65,0-2.09,0,0,0-.12-.1-.09-.19m3.55-1.07a2.49,2.49,0,0,0-1.71-.64,3.36,3.36,0,0,0-1.31.29,3.62,3.62,0,0,0-2,3.31,3.05,3.05,0,0,0,3,3.36,3,3,0,0,0,2.52-1.3,1.29,1.29,0,0,0,.13-.42c0-.07-.05-.2-.15-.2s-.15.11-.22.2a1.7,1.7,0,0,1-1.52.61,2.42,2.42,0,0,1-1.9-.91,3.37,3.37,0,0,1-.61-1.84,2.14,2.14,0,0,1,.06-.59.23.23,0,0,1,.15-.13h3.82a.39.39,0,0,0,.34-.32,2,2,0,0,0-.59-1.43m1.93,0a10.61,10.61,0,0,0,1.35-.57,1,1,0,0,1,.36-.19c.08,0,.16.13.16.19,0,.3,0,.6,0,.92,0,.07.08.11.1.07a3.3,3.3,0,0,1,1.9-1c.71,0,.88.44.88.59a.66.66,0,0,1-.11.26,4.3,4.3,0,0,1-.71.82.61.61,0,0,1-.26,0,1.72,1.72,0,0,0-1-.4.85.85,0,0,0-.66.21.52.52,0,0,0-.17.37c0,.33.07,3.35.09,3.61,0,.49.15.81.43.87s.53.12.77.19.31.2.31.27-.15.17-.41.17c-.44,0-1.1-.08-2.08-.08-.48,0-.71.06-1.11.06-.19,0-.36-.06-.36-.22s.22-.16.33-.22c.65-.22.7-.39.71-1.4v-3.13c0-.21,0-.43-.16-.55-.38-.28-.6-.42-.6-.48a.33.33,0,0,1,.22-.27m8.81-.53c.19,0,.51.17.55.18a.64.64,0,0,1,.15.26c0,.29,0,.9,0,1s-.08.31-.19.31-.21-.13-.3-.31c-.37-.78-.81-1.12-1.37-1.12a1,1,0,0,0-1,1c0,.59.56,1,1.63,1.6s1.37,1.18,1.37,1.94a2,2,0,0,1-1,1.65,3,3,0,0,1-1.46.4,3.4,3.4,0,0,1-1.66-.37,4.1,4.1,0,0,1-.27-1.3c0-.21.06-.37.13-.37s.27.2.38.4c.49.89,1,1.21,1.55,1.21a1.16,1.16,0,0,0,.68-.25,1.22,1.22,0,0,0,.38-.9,1.3,1.3,0,0,0-.74-1.08,11.09,11.09,0,0,0-1.07-.7,2.15,2.15,0,0,1-1.07-1.74,1.78,1.78,0,0,1,1-1.57,2.58,2.58,0,0,1,1.39-.36,4.87,4.87,0,0,1,.88.1m2.57.42c-.19,0-.36.19-.36.31s.05.11.15.2c.48.34.66.49.68.61s0,2.29,0,2.39a19,19,0,0,1-.06,1.92,1,1,0,0,1-.67.5c-.29.07-.41.14-.41.25s.18.2.44.2.92-.06,1.48-.06c.35,0,1.2.05,1.32.05s.42-.07.42-.19-.1-.2-.37-.28c-.42-.14-.77-.2-.78-.72s0-1.26,0-2.12.08-3.19.1-3.44c0,0-.08-.19-.17-.19a16.46,16.46,0,0,1-1.75.57m5.93.63a1.86,1.86,0,0,1,1.25-.56,2.23,2.23,0,0,1,1.44.67,1.61,1.61,0,0,1,.35.65c.06.76.06,1.84,0,2.81a2.68,2.68,0,0,1-.27,1.05,1.78,1.78,0,0,1-1.15.37c-1.42,0-2.36-1.51-2.36-2.88a3.39,3.39,0,0,1,.69-2.11m2.92-1.08a7.46,7.46,0,0,0-1,0,4.69,4.69,0,0,0-2.23.64,3.48,3.48,0,0,0-1.81,3.11,3.41,3.41,0,0,0,.85,2.32,2.85,2.85,0,0,0,2.09.89,3.4,3.4,0,0,0,2.16-.82.12.12,0,0,1,.1.12c0,.24,0,.52,0,.67s.12.22.18.22a2.07,2.07,0,0,0,.65-.17c.32-.11,1.24-.28,1.57-.34a.74.74,0,0,0,.31-.43s0-.11-.11-.11-.71.12-.89.12-.24-.08-.27-.79c0-.32-.05-.32-.05-3.73,0-4.87.08-5.76.15-6.61a.32.32,0,0,0-.12-.27.55.55,0,0,0-.24,0,13.35,13.35,0,0,1-1.82.49c-.1,0-.28.2-.28.27s0,.08.18.17c.76.39.76.59.78.69a29.41,29.41,0,0,1,0,3.39c0,.07-.07.18-.14.17m8,.76a1.8,1.8,0,0,0-1.57-.83,3.72,3.72,0,0,0-1.59.64c-.84.56-1.29,1-1.29,1.5,0,.1.1.24.19.24a6.47,6.47,0,0,0,1.18-.59.33.33,0,0,0,.09-.16c0-.4,0-.67.12-.72a1.21,1.21,0,0,1,.66-.16,1.25,1.25,0,0,1,1.28,1.11c0,.2,0,1.22,0,1.37s-.11.18-.47.3-1.75.49-2,.61a1.3,1.3,0,0,0-1,1.28c0,.86.6,1.58,1.19,1.58a2.74,2.74,0,0,0,.7-.1,7.6,7.6,0,0,0,1.48-.76s.11,0,.12.07a1.11,1.11,0,0,0,1.1.82,1.76,1.76,0,0,0,1.57-1.05.47.47,0,0,0,0-.19c-.05,0-.06-.07-.1,0a3.17,3.17,0,0,1-.64.25c-.18,0-.67-.1-.67-.81,0-.19.07-2.28.07-2.94a2.24,2.24,0,0,0-.35-1.41m4.35.32a1.82,1.82,0,0,1,1.25-.56,2.23,2.23,0,0,1,1.43.67,1.53,1.53,0,0,1,.36.65c.06.76.06,1.84.05,2.81a2.62,2.62,0,0,1-.28,1.05,1.75,1.75,0,0,1-1.14.37c-1.42,0-2.36-1.51-2.36-2.88a3.39,3.39,0,0,1,.69-2.11m2.92-1.08a7.53,7.53,0,0,0-1.05,0,4.66,4.66,0,0,0-2.22.64,3.48,3.48,0,0,0-1.81,3.11,3.4,3.4,0,0,0,.84,2.32,2.86,2.86,0,0,0,2.09.89,3.42,3.42,0,0,0,2.17-.82.12.12,0,0,1,.1.12c0,.24,0,.52,0,.67s.12.22.19.22a2.15,2.15,0,0,0,.63-.17c.33-.11,1.23-.28,1.58-.34a.77.77,0,0,0,.3-.43s0-.11-.1-.11-.71.12-.9.12-.23-.08-.27-.79c0-.32-.05-.32-.05-3.73,0-4.87.09-5.76.16-6.61,0-.13-.09-.27-.13-.27a.48.48,0,0,0-.23,0,14.62,14.62,0,0,1-1.82.49c-.1,0-.29.2-.29.27s0,.08.19.17c.76.39.76.59.78.69a27.35,27.35,0,0,1,0,3.39c0,.07-.07.18-.13.17m-150.24,36a2,2,0,0,1,.83-.43,2,2,0,0,1,.87.31,3.92,3.92,0,0,0,1.8.82.84.84,0,0,0,.76-.34,3.59,3.59,0,0,0,.57-1.85c.12-1.62.09-5.32.09-9.41s-.09-6.92-.15-8.11c0-.55-.3-1.14-1.59-1.46-.62-.14-.9-.39-.9-.62s.22-.4.87-.4c.88,0,2,.12,3.25.12,1.57,0,2.58-.09,3.47-.09.43,0,.8.11.8.35s-.17.44-.86.62c-1,.22-1.34.59-1.36,2,0,2.33-.14,9.82-.2,12.23A9.79,9.79,0,0,1,20,162a7,7,0,0,1-3.5,1.45c-.88,0-2.05-.49-2.05-1.28a3.36,3.36,0,0,1,.89-1.42m22.69-11.58a.22.22,0,0,1-.11.22c-.91,0-3,0-4.12.06a.24.24,0,0,1-.21-.28c.18-.69,1.54-4.27,2.05-5.65.09-.22.26-.28.32-.08.4.94,1.65,4.39,2.07,5.73M38,139.49c-.23-.57-.35-.63-.49-.63a.7.7,0,0,0-.51.37A17.33,17.33,0,0,1,35.53,141c-.09.06-.05.14-.05.23a2,2,0,0,1-.15.5c-1.2,2.82-4.26,10.93-4.95,12.3-.82,1.67-1.14,2.13-2.59,2.53-.6.17-.71.37-.71.57s.17.34.83.34c.42,0,1.7-.12,2.82-.12s1.75.06,2.26.06.86-.14.86-.36-.25-.43-.82-.57c-1.06-.29-1.34-.69-1.34-1.25a14.19,14.19,0,0,1,1.22-4.13c.06-.09.24-.29.32-.29.39,0,1.76-.11,4.78-.09a.86.86,0,0,1,.68.44A25.47,25.47,0,0,1,40,155.31c0,.45,0,.9-1.14,1.19-.54.12-.74.34-.74.49s.34.42.91.42c.74,0,1.84-.06,2.78-.06s3,.12,3.74.12.94-.23.94-.42-.26-.37-.74-.52c-1-.28-1.6-.57-2.53-2.88-.58-1.42-2.51-6.56-4.08-11-.36-1-.88-2.5-1.13-3.18m7.27-.29c.58,0,2,.15,3.4.15,1,0,2.72-.06,3.38-.06.37,0,.68.14.68.34s-.19.46-.71.6c-1.28.34-1.25.74-1,1.54.44,1.39,3.47,8.95,4.16,10.35a.16.16,0,0,0,.26,0c.23-.46,3.24-7.48,4.09-9.73.64-1.68-.14-1.79-1.28-2.22-.31-.12-.63-.31-.63-.48s.32-.43.78-.43c.88,0,1.47.09,2.41.09s2-.12,2.56-.12.85.17.85.4-.27.46-.76.54c-1.28.31-1.88.91-2.59,2.39s-2.38,4.84-4.1,9.05c-.93,2.25-1.56,3.84-2.13,5.58-.11.31-.48.74-.77.74s-.56-.49-.62-.69a36.58,36.58,0,0,0-1.49-4.35c-1-2.59-3.15-7.82-4.23-10.42-.6-1.33-1-2-2.31-2.33-.34-.09-.74-.19-.74-.51s.4-.43.82-.43m31.85.15a23.82,23.82,0,0,0,2.51-.17c.11,0,.31.17.34.37,0,.5,0,2.47,0,3,0,.4-.2.8-.46.8s-.48-.43-.54-.72c-.37-1.59-1.16-2-1.82-2.13a26.05,26.05,0,0,0-4-.17c-.12,0-.35.11-.37.79s-.14,4.67-.12,6.24a.34.34,0,0,0,.29.29h2.27c2,0,2-.12,2.51-1.37.17-.43.37-.74.62-.74s.32.48.28.79c0,.8-.1,1.32-.1,2s0,1.22.1,1.93c0,.52-.13.85-.37.85s-.45-.33-.53-.62c-.37-1.25-.74-1.45-1.85-1.53-.91-.09-2-.09-2.85-.09-.11,0-.37.28-.37.34a36.56,36.56,0,0,0-.06,3.95,21.66,21.66,0,0,0,.12,2.34,1.06,1.06,0,0,0,.63.68,13.48,13.48,0,0,0,2.3.17,8.75,8.75,0,0,0,2.61-.25A4.39,4.39,0,0,0,80.6,154c.4-.74.66-1,.89-1s.25.6.23.83a23.7,23.7,0,0,1-1.08,3.3,1.08,1.08,0,0,1-.69.37c-.31,0-7.34-.15-9.47-.15-1.91,0-2.22.15-3.24.15-.55,0-1-.09-1-.37s.38-.45.86-.57c1.45-.35,1.82-.62,1.93-2.17.09-1.19.23-3.35.23-6.88,0-3.36,0-4.66,0-5.49,0-1-.29-1.59-1.51-1.82-.59-.11-.91-.23-.91-.51s.49-.43.89-.43c1.33,0,3.66.09,5.15.09ZM94,141.14a4.49,4.49,0,0,1,1.22,3,3.87,3.87,0,0,1-1.59,3.19,7.34,7.34,0,0,1-3.08.63.43.43,0,0,1-.36-.34c-.12-.74,0-5.72.08-6.69a1.21,1.21,0,0,1,.34-.59,4.23,4.23,0,0,1,1.08-.21,3.24,3.24,0,0,1,2.31,1m2.76,6.31a4.47,4.47,0,0,0,2-3.63,4.61,4.61,0,0,0-1.53-3.39c-1.37-1.14-3.65-1.25-5-1.25-1.53,0-3.9.14-5,.14H85.25c-.48,0-.82.2-.82.39s.31.43.71.54c1.33.32,1.59.75,1.65,1.43s.15,3.19.15,6.23c0,2.42,0,4.81-.18,7-.08.91-.4,1.25-1.7,1.65-.37.12-.69.28-.69.45s.21.46.91.46c.32,0,1.73-.12,2.73-.12,1.4,0,2.65.18,3.64.18.35,0,.89-.12.89-.43s-.2-.4-.68-.54c-1.31-.35-1.52-.62-1.6-1.85s-.14-5.09-.08-5.66a.4.4,0,0,1,.31-.28,2.68,2.68,0,0,1,1.37.37,5.12,5.12,0,0,1,.91,1.19c1.19,2,2.65,4.38,3.44,5.46.6.83,1.71,1.85,4.3,1.85a7.69,7.69,0,0,0,1.9-.23c.2-.06.46-.25.46-.42s-.23-.35-.51-.41a3.94,3.94,0,0,1-2.45-1.41,45,45,0,0,1-4.3-6.72c-.06-.11-.08-.34.06-.4.4-.2,1-.51,1.11-.6m10.9-5.09c-.08-1.36-.08-1.79-1.47-2.13-.69-.18-.86-.37-.86-.57s.4-.4.91-.4c.83,0,2.31.09,3.25.09,1.39,0,2.39-.09,3.39-.09.48,0,.87.11.87.4s-.39.48-.87.57c-1.43.25-1.51,1-1.57,1.73s-.12,1.71-.12,6.6c0,3.45,0,4.67.09,5.52.11,1.68.28,2,1.87,2.45.52.11.81.31.81.6s-.55.37-.89.37c-1.14,0-3.07-.18-4.27-.15-.82,0-1.68.09-2.73.09-.68,0-.88-.2-.88-.49s.26-.39.85-.53c1.31-.31,1.51-.91,1.56-2.14s.15-4,.15-6.43c0-1.45,0-4.4-.09-5.49m19.81,6.78a.21.21,0,0,1-.12.22c-.91,0-3,0-4.12.06a.24.24,0,0,1-.2-.28c.17-.69,1.54-4.27,2-5.65.08-.22.26-.28.31-.08.4.94,1.65,4.39,2.08,5.73m-.06-9.65c-.23-.57-.34-.63-.48-.63a.7.7,0,0,0-.51.37A17.33,17.33,0,0,1,125,141c-.09.06-.07.14-.07.23a2,2,0,0,1-.14.5c-1.19,2.82-4.26,10.93-5,12.3-.82,1.67-1.13,2.13-2.58,2.53-.6.17-.72.37-.72.57s.18.34.83.34c.43,0,1.71-.12,2.81-.12s1.77.06,2.28.06.85-.14.85-.36-.24-.43-.82-.57c-1-.29-1.34-.69-1.34-1.25a14.36,14.36,0,0,1,1.23-4.13c0-.09.23-.29.32-.29.39,0,1.76-.11,4.77-.09a.82.82,0,0,1,.68.44,24.79,24.79,0,0,1,1.32,4.15c0,.45,0,.9-1.15,1.19-.53.12-.73.34-.73.49s.34.42.91.42c.74,0,1.85-.06,2.78-.06s3,.12,3.73.12.94-.23.94-.42-.26-.37-.74-.52c-1-.28-1.6-.57-2.53-2.88-.57-1.42-2.5-6.56-4.06-11-.38-1-.89-2.5-1.15-3.18m12.1-.26c.62,0,2.87.12,4.32.12a1.67,1.67,0,0,1,.63.37c.43.51,1.22,1.39,2.39,2.75,1.39,1.71,7,7.49,8.48,9.08.13.14.25-.11.25-.17.14-.82.06-4,.06-6.43a27.19,27.19,0,0,0-.18-3c0-.57-.33-1.22-1.75-1.59-.57-.15-.94-.32-.94-.66s.31-.34.82-.34c.72,0,1.37,0,1.94,0,1.36,0,2.53-.15,3.27-.15.48,0,.68.17.68.37s-.2.43-.71.57c-1.47.49-1.63,1-1.76,2.14s-.29,8.22-.29,10.64c0,1.19.17,3.7.17,4.43a.66.66,0,0,1-.45.55c-.59,0-1.28-.74-1.54-1.08-.54-.71-1.07-1.37-1.85-2.31-2.67-3.27-7.31-8.16-9.84-11.15-.14-.17-.32,0-.32.13,0,.78-.11,1.44-.14,3.68,0,4-.08,6.12.06,7.51.12.92.42,1.4,1.79,1.82.6.18.81.37.81.54s-.42.43-1,.43c-.82,0-1.48-.12-2.48-.12-.62,0-2.22.09-2.69.09s-.75-.14-.75-.37.34-.43.63-.51c1.31-.4,2-.63,2.08-2.76.14-3.19.51-8.65.51-10.7,0-1.14-.09-1.48-.17-1.59a3,3,0,0,0-2.19-1.37c-.32,0-.75-.28-.75-.48s.35-.43.86-.43m32,9.91c0,.11-.09.22-.11.22-.91,0-3,0-4.13.06a.23.23,0,0,1-.19-.28c.16-.69,1.53-4.27,2-5.65.08-.22.25-.28.31-.08.4.94,1.65,4.39,2.08,5.73m-.06-9.65c-.22-.57-.34-.63-.48-.63a.66.66,0,0,0-.51.37A18.74,18.74,0,0,1,169,141c-.09.06-.06.14-.06.23a1.64,1.64,0,0,1-.15.5c-1.18,2.82-4.26,10.93-4.94,12.3-.83,1.67-1.14,2.13-2.6,2.53-.59.17-.7.37-.7.57s.16.34.82.34c.43,0,1.71-.12,2.82-.12s1.76.06,2.27.06.86-.14.86-.36-.26-.43-.83-.57c-1.05-.29-1.34-.69-1.34-1.25a14.36,14.36,0,0,1,1.23-4.13c0-.09.23-.29.31-.29.41,0,1.77-.11,4.78-.09a.82.82,0,0,1,.68.44,24.79,24.79,0,0,1,1.32,4.15c.05.45,0,.9-1.14,1.19-.55.12-.74.34-.74.49s.34.42.91.42c.74,0,1.85-.06,2.79-.06s3,.12,3.72.12.94-.23.94-.42-.26-.37-.73-.52c-1-.28-1.6-.57-2.54-2.88-.57-1.42-2.51-6.56-4.07-11-.37-1-.88-2.5-1.14-3.18M78.11,87.15c.33.07.47.17.47.29s-.28.29-.57.29c-1,0-2.56-.14-3.81-.14s-2.52.18-3.59.18c-.36,0-.61-.22-.61-.3s.25-.25.57-.32c1.18-.29,1.43-.8,1.47-2.3s0-8.74,0-9.44c0-1.38,0-2.5-.07-3-.14-.84-.68-1.1-1.43-1.27-.22-.07-.54-.26-.54-.37s.22-.25.61-.25c.68,0,2.47.15,3.34.15.62,0,2.88-.15,3.82-.15.43,0,.61.07.61.22s-.22.33-.58.4c-1.15.29-1.3.69-1.33,1.82v5.43c0,4.11,0,6.88.11,7.46.11.77.57,1.06,1.5,1.28m39.05-9.07c1.32.94,2.9,2.22,2.9,4.81,0,3.27-3.08,5.28-6.76,5.28a15.81,15.81,0,0,1-4.2-.87.56.56,0,0,1-.32-.41c-.11-.51-.14-1.63-.33-2.69-.14-.55.08-.77.19-.77s.25.26.39.66a5.41,5.41,0,0,0,1.66,2.4,4.29,4.29,0,0,0,2.73,1.1,2.75,2.75,0,0,0,3-2.85c0-1.34-1.15-2.51-3.14-3.75-3-2-4.27-3.57-4.27-5.86a4.51,4.51,0,0,1,2.2-4.08,7.87,7.87,0,0,1,3.74-.91,14,14,0,0,1,3.62.47.39.39,0,0,1,.29.36,15,15,0,0,0,.25,2.48c.07.36,0,.55-.18.55s-.25-.19-.36-.48a5.86,5.86,0,0,0-1.25-2,3.65,3.65,0,0,0-2.27-.91,2.54,2.54,0,0,0-2.62,2.69c0,1,.43,1.75,1.76,2.77,1.11.84,2.26,1.49,3,2m-12.72,9.07c.33.07.58.15.58.32s-.25.3-.61.3c-1.08,0-2.45-.18-3.6-.18s-2.84.14-3.81.14c-.29,0-.57-.07-.57-.29s.14-.22.46-.29c.94-.22,1.41-.51,1.51-1.28.07-.51.1-2.67.11-5.93,0-.23-.07-.41-.25-.44s-8.14,0-8.46,0c0,0-.07.08-.11.18,0,3.39,0,5.65.11,6.16.1.77.57,1.06,1.51,1.28.32.07.46.17.46.29s-.29.29-.57.29c-1,0-2.55-.14-3.82-.14s-2.51.18-3.59.18a.63.63,0,0,1-.6-.3c0-.17.24-.25.57-.32,1.18-.29,1.43-.8,1.47-2.3s0-8.74,0-9.44c0-1.38,0-2.5-.08-3-.14-.84-.68-1.1-1.43-1.27-.21-.07-.54-.26-.54-.37s.21-.25.61-.25c.68,0,2.48.15,3.34.15.62,0,2.88-.15,3.81-.15.44,0,.62.07.62.22s-.22.33-.58.4c-1.15.29-1.29.69-1.33,1.82v4.73c0,.52,0,.7.18.73s1.51,0,3.17,0V68.34H89.85V66.2H93V63.36h2.12V66.2h3.2v2.14h-3.2V78.46c1.67,0,3.09,0,3.14,0s.2-.08.21-.29V73c0-1.13-.18-1.53-1.33-1.82-.36-.07-.57-.3-.57-.4s.18-.22.61-.22c.94,0,3.19.15,3.81.15.87,0,2.66-.15,3.34-.15.4,0,.61.15.61.25s-.33.3-.54.37c-.75.17-1.29.43-1.44,1.27,0,.48-.06,1.6-.06,3,0,.7,0,7.91,0,9.44s.28,2,1.47,2.3m9-29.91a1,1,0,0,0,.51,1.35,1.23,1.23,0,0,0,.36.06,3.73,3.73,0,0,0,1.16-.27.26.26,0,0,0,.16-.15.28.28,0,0,0,0-.22c-.1-.25-.44-1.09-.88-1.28a.83.83,0,0,0-.4-.09,1,1,0,0,0-.92.6m2.38,2.8a2.6,2.6,0,0,0-1.47.45,1,1,0,0,0,.07,1.43,1,1,0,0,0,.67.26,1,1,0,0,0,.75-.33,2.69,2.69,0,0,0,.28-1.54.31.31,0,0,0-.09-.2.32.32,0,0,0-.2-.07Zm.53-1.49a.83.83,0,0,0,.41,1.1.81.81,0,0,0,.34.08h.16l.11,0,0,0,.11,0h0l.11-.09,0,0s0,0,.07-.08l0,0s0,0,0,0h0a.31.31,0,0,0,0-.1.85.85,0,0,0-.42-1.11l-.16,0h0l-.11,0-.15,0h0l-.1,0,0,0h0l-.16.1h0l-.07.05s0,0,0,0l-.07.08,0,0-.07.13m.08-2.8a2.62,2.62,0,0,0,.66,1.41.26.26,0,0,0,.19.1h0a.32.32,0,0,0,.19-.07c.2-.17.88-.75.93-1.24a1,1,0,0,0-.89-1.12h-.1a1,1,0,0,0-1,.92m2.3,2.59a.31.31,0,0,0,0,.21.3.3,0,0,0,.12.19,3,3,0,0,0,1.31.53.34.34,0,0,0,.14,0,1,1,0,0,0-.21-2l-.21,0c-.46.1-1,.84-1.12,1.07m.39,4.08a1,1,0,0,0,.37-1.38c-.24-.42-1.1-.68-1.36-.75H118a.32.32,0,0,0-.14,0,.3.3,0,0,0-.13.18,2.64,2.64,0,0,0,0,1.56,1,1,0,0,0,.88.51.92.92,0,0,0,.49-.14m-5.57-2.94a2,2,0,0,1-1-1.11,2,2,0,0,1,1.84-2.71,2.05,2.05,0,0,1,.8.17,1.49,1.49,0,0,1,.31.2,1.7,1.7,0,0,1,0-.39,2,2,0,0,1,2-1.77h.2a2,2,0,0,1,1.76,2.19,1.54,1.54,0,0,1-.09.37,2.09,2.09,0,0,1,.35-.13l.41,0a2,2,0,0,1,1.65,3.08,1.93,1.93,0,0,1-1.24.86,1.27,1.27,0,0,1-.34,0h0a1.66,1.66,0,0,1,.22.3,2,2,0,0,1-.72,2.72,2,2,0,0,1-1,.27,2,2,0,0,1-1.71-1,1.14,1.14,0,0,1-.15-.36,1.07,1.07,0,0,1-.22.32,1.94,1.94,0,0,1-2.77.15,2,2,0,0,1-.15-2.81,1.16,1.16,0,0,1,.29-.25,1.79,1.79,0,0,1-.37-.11m-11.88-6.77a.87.87,0,0,1-.45-1,.85.85,0,0,1,1-.29.88.88,0,0,1,.46,1,.87.87,0,0,1-1,.29M69.07,58.05a1,1,0,0,0,.77,1.2.32.32,0,0,0,.14,0,3.06,3.06,0,0,0,1.31-.53.31.31,0,0,0,.13-.19.27.27,0,0,0,0-.21c-.13-.23-.65-1-1.11-1.07l-.21,0a1,1,0,0,0-1,.81m3.51-3.2A1,1,0,0,0,71.69,56c0,.49.72,1.07.94,1.25a.32.32,0,0,0,.17.06h0a.3.3,0,0,0,.19-.1,2.7,2.7,0,0,0,.67-1.41,1,1,0,0,0-1-.92l-.1,0m1.18,3.7a.83.83,0,0,0-.07-.13s0,0,0,0l-.08-.09,0,0-.06-.05h0l-.16-.1h0l0,0-.11,0h0l-.15,0-.11,0h0l-.17,0a.85.85,0,0,0-.41,1.11l0,.1h0s0,0,0,0,0,0,0,0a.27.27,0,0,0,.07.08l0,0,.11.09h0l.11,0,0,0,.1,0H73a.84.84,0,0,0,.74-1.18M74,60.31a2.69,2.69,0,0,0,.28,1.54,1,1,0,0,0,.75.33,1,1,0,0,0,.67-.26,1,1,0,0,0,.08-1.43A2.63,2.63,0,0,0,74.29,60h0a.34.34,0,0,0-.19.07.37.37,0,0,0-.09.2m.49-2.3a.28.28,0,0,0,0,.22.26.26,0,0,0,.16.15,3.73,3.73,0,0,0,1.16.27,1.23,1.23,0,0,0,.36-.06,1,1,0,0,0,.51-1.35,1,1,0,0,0-.92-.6.86.86,0,0,0-.4.09c-.44.19-.78,1-.87,1.28m-2.12,4a2.64,2.64,0,0,0,0-1.56.29.29,0,0,0-.12-.18.4.4,0,0,0-.15,0H72c-.26.07-1.12.33-1.36.75A1,1,0,0,0,71,62.42a.93.93,0,0,0,.5.14,1,1,0,0,0,.87-.51m-2.72-1.84a1.88,1.88,0,0,1-1.24-.87,2,2,0,0,1-.28-1.49,2,2,0,0,1,1.93-1.58,1.9,1.9,0,0,1,.41,0,1.45,1.45,0,0,1,.35.12,1.53,1.53,0,0,1-.08-.37,2,2,0,0,1,1.75-2.19h.2a2,2,0,0,1,2,1.78,1.22,1.22,0,0,1,0,.38,1.61,1.61,0,0,1,.33-.2,2,2,0,0,1,.79-.17,2,2,0,0,1,1.8,1.18,2,2,0,0,1,0,1.53,1.92,1.92,0,0,1-1,1.1,1.52,1.52,0,0,1-.36.12,1.32,1.32,0,0,1,.28.25,2,2,0,0,1-.15,2.81,1.91,1.91,0,0,1-1.31.51,2,2,0,0,1-1.46-.65,1.4,1.4,0,0,1-.22-.32,1.51,1.51,0,0,1-.14.35,2,2,0,0,1-3.41-2,1.54,1.54,0,0,1,.22-.3h0a2,2,0,0,1-.34,0m18.8-7.5a.87.87,0,0,1-1-.29.88.88,0,0,1,.46-1,.85.85,0,0,1,1,.29.87.87,0,0,1-.45,1M96,25.82c0,.44-.42,1.12-.93,1.12s-1-.68-1-1.12.41-1.11,1-1.11.93.67.93,1.11m5.8,1.68c-.35-.07-.56-.6-.5-.91s.44-.73.81-.65a.83.83,0,0,1,.5.91c-.06.3-.44.73-.81.65M88,25.94c.37-.07.75.34.82.65s-.15.84-.51.91-.75-.34-.82-.65.15-.84.51-.91m7.78,7.78c0,.34-.33.88-.74.88s-.75-.54-.75-.88.33-.88.75-.88.74.53.74.88M100.35,35a.66.66,0,0,1-.4-.72c0-.24.35-.57.63-.51a.66.66,0,0,1,.41.72c0,.24-.36.57-.64.51M89.47,33.81c.29-.06.6.27.64.51a.66.66,0,0,1-.4.72c-.28.06-.59-.27-.64-.51a.68.68,0,0,1,.4-.72m50,57.57A18,18,0,0,0,149,88.19c-.79,0-1.79.07-3,.07a68.7,68.7,0,0,1-7.44-.41,18.1,18.1,0,0,0-2-.12,11.18,11.18,0,0,0-2.13.19,6.67,6.67,0,0,1,1.51,2.6,8.59,8.59,0,0,1,3.09.85h.39m3.39,5.27c-1.16-2.18-3.23-4.74-6.64-5.13a8.15,8.15,0,0,1-.1,2.87,6.56,6.56,0,0,0,1.95.75,26.61,26.61,0,0,1,4.79,1.51m-7.76-2.14c.23-.73,1.47-5.57-4.42-7.94a2.18,2.18,0,0,0-.72-.13,2,2,0,0,0-1.1.32,35.43,35.43,0,0,1-7.9,4.6,6.11,6.11,0,0,1,4.19,3.32,6.44,6.44,0,0,1,.73,5.28c0,.15-.11.28-.16.41a41.31,41.31,0,0,0,5.17-2.73,20.49,20.49,0,0,0,4.21-3.13m-11,6.43c.29-.26,1.67-1.66.75-4.44-1.1.56-1.83.88-2.93,1.33a2,2,0,0,0-.16,1.91,2.09,2.09,0,0,0,1,1.22,1.78,1.78,0,0,0,1.38,0m-7.6-4.67a48.09,48.09,0,0,0,6.6-2.68,5,5,0,0,0-1.27-.89,56,56,0,0,1-16,4.61,6.34,6.34,0,0,0-.25,1.41l.47-.07a12.82,12.82,0,0,1,6.39-1.92,33.66,33.66,0,0,0,4-.46m-5.43,4.56a10.33,10.33,0,0,0,8.64-4.42h0a24.12,24.12,0,0,1-7.12,1.28,12.49,12.49,0,0,0-5.36,1.43,8,8,0,0,0-1.11.75,14.5,14.5,0,0,0,5,1h0m7,1a13.86,13.86,0,0,0-2.06-1.06,11.56,11.56,0,0,1-4.9,1.06,14.67,14.67,0,0,1-3.81-.52c1.47,1.24,4.3,2.61,9.6,2.61a40.85,40.85,0,0,0,5.29-.39,12.66,12.66,0,0,1-4.12-1.7M116.64,109a10.16,10.16,0,0,0-2.14-4.25,14.56,14.56,0,0,1-7.26-2.26,14.48,14.48,0,0,0,5.56,4,13.1,13.1,0,0,1,3.84,2.5m-14.85-3.26a23.65,23.65,0,0,0,6.4-.77,6.42,6.42,0,0,1-3.53-5c-.21-3,.85-4.6,2.08-5.6h0a53,53,0,0,1-11.64,1.22H95a53.17,53.17,0,0,1-11.64-1.22h0c1.25,1,2.3,2.64,2.08,5.6a6.41,6.41,0,0,1-3.52,5,23.7,23.7,0,0,0,6.4.77c1.11,0,2.49-2,2.88-2.68a.49.49,0,0,1,.42-.24h.1a.5.5,0,0,1,.39.43c.3,2.79-.06,5-1,6.49h0a4.21,4.21,0,0,1-.44.58,4.35,4.35,0,0,1-1.17,1,6.27,6.27,0,0,0,1.68-.56,6.78,6.78,0,0,0,3.5-4.17.46.46,0,0,1,.46-.36.48.48,0,0,1,.47.36A6.72,6.72,0,0,0,99,110.77a6.46,6.46,0,0,0,1.69.56,4.51,4.51,0,0,1-1.17-1c-1.34-1.51-1.84-3.89-1.49-7.07a.48.48,0,0,1,.38-.43.47.47,0,0,1,.51.23c.4.7,1.79,2.68,2.89,2.68m.13,4a7.1,7.1,0,0,1-1.4.27,4.57,4.57,0,0,0,3,1.1h.3a.73.73,0,0,0-.13-1,2.25,2.25,0,0,0-1.24-.49l-.57.15m-15.43,1.37a4.58,4.58,0,0,0,3.05-1.1,7,7,0,0,1-1.4-.27l-.57-.15a2.28,2.28,0,0,0-1.25.49.75.75,0,0,0-.12,1h.29m-9.27-4.59a14.48,14.48,0,0,0,5.56-4,14.59,14.59,0,0,1-7.29,2.26A10,10,0,0,0,73.37,109a13.38,13.38,0,0,1,3.85-2.51m-4.07-2.63c5.42,0,8.24-1.41,9.69-2.66a14.61,14.61,0,0,1-3.75.5,11.85,11.85,0,0,1-4.9-1,11.64,11.64,0,0,0-2.2,1.11,12.61,12.61,0,0,1-4.13,1.7,41,41,0,0,0,5.29.39h0m-2.71-7.44a10.55,10.55,0,0,0,8.65,4.3,14.45,14.45,0,0,0,4.85-.89,7.65,7.65,0,0,0-1.1-.74,12.49,12.49,0,0,0-5.36-1.43,23.93,23.93,0,0,1-7-1.24M67,93.59a45.91,45.91,0,0,0,6.65,2.69,30.71,30.71,0,0,0,3.93.45,12.67,12.67,0,0,1,6.37,1.92l.53.07a6.34,6.34,0,0,0-.25-1.41,55.82,55.82,0,0,1-16-4.61,4.94,4.94,0,0,0-1.28.89m-2,1.09a6.11,6.11,0,0,1,4.2-3.32,35.48,35.48,0,0,1-7.91-4.6,2,2,0,0,0-1.1-.32,2.08,2.08,0,0,0-.71.13c-5.9,2.37-4.65,7.21-4.42,7.94a20,20,0,0,0,4.2,3.13,39.24,39.24,0,0,0,5.19,2.73c-.54-1.16-.84-3.05.55-5.69m3.19,3.15c-1.1-.45-1.83-.77-2.92-1.32,0,.12-.08.26-.12.38a4.17,4.17,0,0,0,.51,3.65,2.24,2.24,0,0,0,.36.4,1.78,1.78,0,0,0,1.38,0,2.11,2.11,0,0,0,1-1.22,2,2,0,0,0-.16-1.91m-14-7.31a6.67,6.67,0,0,1,1.51-2.6,11.18,11.18,0,0,0-2.13-.19,17.79,17.79,0,0,0-2,.12,69,69,0,0,1-7.45.41h0c-1.19,0-2.2,0-3-.07a18,18,0,0,0,9.56,3.19H51a8.64,8.64,0,0,1,3.1-.85M52,95.14A6.46,6.46,0,0,0,54,94.39a8,8,0,0,1-.09-2.87c-3.42.39-5.49,3-6.65,5.13A26.34,26.34,0,0,1,52,95.14M46.8,82.85a13.87,13.87,0,0,0,4.92,4q.95-.09,1.77-.09a10.26,10.26,0,0,1,3,.37,10.13,10.13,0,0,1,1.68-1.06A5.6,5.6,0,0,0,53.76,84a40.36,40.36,0,0,1-7-1.1m-1.15-1.38A30.94,30.94,0,0,0,53.83,83a6.74,6.74,0,0,1,.83.1,12.31,12.31,0,0,1-.8-4.35,13,13,0,0,1,1.79-6.46,13,13,0,0,1-2.73.8v1a.5.5,0,0,1-.08.27,4.12,4.12,0,0,1-4.27,3.46,3.66,3.66,0,0,1-4-3h0a1.28,1.28,0,0,1,0-.21V71a5,5,0,0,0-2,2.44,5.46,5.46,0,0,0-.29,1.19,8.1,8.1,0,0,0,2.78,7v0a.47.47,0,0,1,.56-.15M42.14,46.4c-1.25,5.39-.37,8.75.74,10.72a7.34,7.34,0,0,1,2.58-1.43,9.23,9.23,0,0,0-.72-2.33,45.42,45.42,0,0,1-2.6-7m5.32-5.68a21.14,21.14,0,0,0-2.83,9.93c.28.72.61,1.48,1,2.3a10,10,0,0,1,.78,2.53c.23,0,.46,0,.71,0a7.35,7.35,0,0,1,1.37.12,9.94,9.94,0,0,0-.14-5.07,31.16,31.16,0,0,1-.88-9.77M45.58,72.86a4,4,0,0,1,1.09-.54,3.59,3.59,0,0,1,1.39-.18V70a6.71,6.71,0,0,0-2.48.51v2.35m1.39.39c-1.19.39-1.37,1-1.39,1.28v.1a2.72,2.72,0,0,0,3,2.18A3.19,3.19,0,0,0,52,73.53a3.53,3.53,0,0,0-2.52-3.33,1.68,1.68,0,0,0-.4-.11v2.64a.48.48,0,0,1-.66.45,2.28,2.28,0,0,0-1.4.07m5-15a7.52,7.52,0,0,0-4.84-1.88c-2.61,0-4.45,2.23-4.85,2.77V72a7,7,0,0,1,2.36-2.13v0l.21-.1a6.29,6.29,0,0,1,4-.7,3.73,3.73,0,0,1,.93.21A5.21,5.21,0,0,1,52,70.78V58.3m-2.27-5.52a8.93,8.93,0,0,1-.25,3,8.41,8.41,0,0,1,1.56.66c.92-1.56,1.57-4,.35-7.44a26,26,0,0,1-1.66,3.77m3.24,19.29a10.77,10.77,0,0,0,5.94-3.18,9.74,9.74,0,0,0,2.34-6.15,13.19,13.19,0,0,1-5.68,4.51,6.52,6.52,0,0,0-2.6,1.82Zm0-4.38a8.6,8.6,0,0,1,2.24-1.34,14,14,0,0,0,1.45-.73,6.62,6.62,0,0,0,1-2.36,16.51,16.51,0,0,1,2.56-6.34A11.92,11.92,0,0,0,53.49,64a12.45,12.45,0,0,0-.57,2.48Zm0-4.86a12.69,12.69,0,0,1,3.83-5,17.8,17.8,0,0,0-.68-6.75A19.78,19.78,0,0,1,53,59.74l-.08.13Zm12.3,2a29.67,29.67,0,0,0-4.4,3,9.06,9.06,0,0,1-1.25,1.76,10.3,10.3,0,0,1-2.19,1.84,12.43,12.43,0,0,0-2.55,7.34,11.47,11.47,0,0,0,1,4.61,6.42,6.42,0,0,1,2.08,1.06,10.6,10.6,0,0,1-1.72-5.67c0-4.57,3.22-8.92,9.11-12.41a.49.49,0,0,1-.23-.48,8.69,8.69,0,0,1,.17-1m-.6-2.12A4.85,4.85,0,0,0,66,63a.71.71,0,0,0,.27,0,.92.92,0,0,0,.46-.49.89.89,0,0,0-.82-1.21.9.9,0,0,0-.36.08,3.44,3.44,0,0,0-.92,1.38m-1.05-2.94a3.81,3.81,0,0,0,1.48.66h0a.89.89,0,0,0,.57-.35.94.94,0,0,0,.16-.67.9.9,0,0,0-1-.74,3.69,3.69,0,0,0-1.24,1.1m1.76-5.18a2.66,2.66,0,0,0-.06,3.12l.08,0a3.67,3.67,0,0,1,1-2.82,3.37,3.37,0,0,1,1.7-.91,3.24,3.24,0,0,0-1-.17,2,2,0,0,0-1.69.76m4.08.35a3.37,3.37,0,0,0-.56,0,2.54,2.54,0,0,0-1.81.72,3.07,3.07,0,0,0-.68,2.75,1.82,1.82,0,0,1,.41.9,1.89,1.89,0,0,1-.19,1.15,1.86,1.86,0,0,1,1,1,1.89,1.89,0,0,1,0,1.4A1.82,1.82,0,0,1,69,64.28a3,3,0,0,0,2.47,1.32,2.71,2.71,0,0,0,2.09-1.32.75.75,0,0,1,.15-.2.54.54,0,0,1,.41-.18l.33,0a5.8,5.8,0,0,0,1.13.12,4,4,0,0,0,2.87-1.18,4.93,4.93,0,0,0,1.06-5.32h0v0s0,0,0-.05a.26.26,0,0,1,0-.1l-1-2.29a.93.93,0,0,1-.05-.1.06.06,0,0,0,0-.05v0a1.15,1.15,0,0,1-.06-.17,4.8,4.8,0,0,0-4.55-2.61,4.24,4.24,0,0,0-3.45,2.3c-.16.26-.29.47-.59.47h-.26m1.18-3.4A3.28,3.28,0,0,0,70,53.1a5,5,0,0,1,3.65-1.93,6,6,0,0,1,4,1.34,3.87,3.87,0,0,0-3.62-2.72h-.32a4.32,4.32,0,0,0-3.17,1.7m8.6,2.3a.9.9,0,0,0,0,.72l1.15,2.63a.94.94,0,0,0,.86.56,1,1,0,0,0,.38-.08,1,1,0,0,0,.42-.38l0,0-1.72-3.94s0,0,0,0l-.17,0a1,1,0,0,0-.39.08.91.91,0,0,0-.49.53m1.94-1.66a.9.9,0,0,0,0,.72l1.73,3.94a.92.92,0,0,0,.85.56,1,1,0,0,0,.39-.08A.95.95,0,0,0,84.58,56l-1.73-3.94a.93.93,0,0,0-.85-.56,1,1,0,0,0-.38.08.88.88,0,0,0-.49.53m3-.87a.86.86,0,0,0-.42.38.05.05,0,0,0,0,0l1.73,3.94s0,0,0,0l.19,0a.85.85,0,0,0,.38-.09,1,1,0,0,0,.47-1.25l-1.16-2.63a.92.92,0,0,0-.85-.56.85.85,0,0,0-.38.09m.53-2.39a10.49,10.49,0,0,0,2.49-.58L81,45.53a3,3,0,0,1-.43-.06,8.77,8.77,0,0,0,4.06,3.41m-8.53-1.42c.82.52,2.75,1.38,6.51,1.46A10.22,10.22,0,0,1,79,44.59a46.84,46.84,0,0,1-2.21-7.14c0-.19-.09-.36-.13-.56l-1.79.37L75.27,39l-1.51.32-.35-1.75L71.69,38c.57,3.44,1.49,7.63,4.44,9.51m-3-11.41-.36-1.75L74.24,34l.37,1.76,1.76-.38a.69.69,0,0,0,0-.13c-.11-.58-.22-1.24-.33-1.94-.61-3.74-1.43-8.85-4.75-10.44a8,8,0,0,0-4-.86h-.69a9.86,9.86,0,0,1,3.16,5.05,79.32,79.32,0,0,1,1.56,8.47c0,.32.1.6.14.88Zm-2,3.93c-.22-1-.38-2.07-.53-3,0-.3-.09-.62-.14-1l-12.3-5.54-.61,1.38-.73,1.66Zm-.32.92L57,34.66l-1.06,2.43.61.26a.5.5,0,0,1,.24.65l-.94,2.13a.47.47,0,0,1-.63.24l-.61-.27-1,2.2L59,44.72l1-2.2-.61-.27a.43.43,0,0,1-.26-.28.48.48,0,0,1,0-.37l.93-2.1a.47.47,0,0,1,.63-.25l.61.27.27-.62a.49.49,0,0,1,.64-.26l2.11,1a.51.51,0,0,1,.25.27.5.5,0,0,1,0,.38l-.27.61.61.28a.47.47,0,0,1,.24.64l-.93,2.13a.48.48,0,0,1-.63.25L63,43.87l-1,2.2,5.42,2.43,1-2.2L67.77,46a.5.5,0,0,1-.23-.65l.92-2.11a.47.47,0,0,1,.26-.26.52.52,0,0,1,.37,0l.61.28ZM57.43,29.63a.93.93,0,0,0,0-.73.9.9,0,0,0-.49-.52.85.85,0,0,0-.38-.09.94.94,0,0,0-.85.57L54,32.8a1,1,0,0,0,0,.72.88.88,0,0,0,.49.53,1,1,0,0,0,.38.08,1,1,0,0,0,.86-.56Zm-2.59-1.17s0,0,0-.05a1,1,0,0,0-.42-.38,1,1,0,0,0-.38-.08.94.94,0,0,0-.86.56l-1.15,2.63a1,1,0,0,0,.47,1.25.87.87,0,0,0,.38.08h.19a.19.19,0,0,1,0-.07Zm-2.58-.21h-.08a1.37,1.37,0,0,0-1.24.83,1.39,1.39,0,0,0,.29,1.54Zm15.92-1.42h.32a17.34,17.34,0,0,0-2-3.64c-.42-.4-.8-.67-1.08-.9l-.19-.16a3.47,3.47,0,0,0-1.81.67l-.51.38a5.53,5.53,0,0,1-1.39.86,3.62,3.62,0,0,0,.5,0,4.25,4.25,0,0,0,1.46-.29,5.77,5.77,0,0,1,1.33-.18.55.55,0,0,1,.62.41.55.55,0,0,1-.35.59,4.73,4.73,0,0,0-.9.58,5.49,5.49,0,0,1-1,.68,2.06,2.06,0,0,0,.36,0,4.9,4.9,0,0,0,1.66-.32,5.79,5.79,0,0,1,1.29-.17c.45,0,.59.22.63.41a.52.52,0,0,1-.33.58,3.46,3.46,0,0,0-.85.61,4.5,4.5,0,0,1-1.25.85,1.71,1.71,0,0,0,.58.11,2.72,2.72,0,0,0,1.51-.55l.07,0a2.48,2.48,0,0,1,1.4-.52m10.21,12.8a42.06,42.06,0,0,0,1.41,4.28l10,4.51,4-1.82Zm10.73-.16a7.92,7.92,0,0,1-1.66,3.18L92,44.7a12.43,12.43,0,0,0,2-3.89,17.82,17.82,0,0,0,.49-2.21,29.92,29.92,0,0,0-5.36.51l0,.36m-1.51-1,.71-.18h0a34,34,0,0,1,13.51,0h0l.63.16h0a.64.64,0,0,0,.26-.27,1.32,1.32,0,0,0,0-.79,26.43,26.43,0,0,0-7.69-1,26.75,26.75,0,0,0-7.69,1,1.28,1.28,0,0,0,0,.8.49.49,0,0,0,.26.26h0m-.67-2.64c.1.19.21.39.29.58a28.26,28.26,0,0,1,7.8-1,27.79,27.79,0,0,1,7.79,1c.1-.2.19-.4.29-.58a.53.53,0,0,1-.19,0l-.23,0a1.5,1.5,0,0,1-1.18-.62.5.5,0,0,1,0-.65.41.41,0,0,0-.14-.67.51.51,0,0,1-.28-.28.51.51,0,0,1,0-.4.43.43,0,0,0-.28-.61.42.42,0,0,0-.49.34.24.24,0,0,0,0,.12.55.55,0,0,1-.13.38.5.5,0,0,1-.36.16.43.43,0,0,0-.41.34.5.5,0,0,0,0,.21.51.51,0,0,1-.2.57l-.06,0a2.11,2.11,0,0,1-.93.21,2.06,2.06,0,0,1-1.46-.61.49.49,0,0,1-.12-.51,2.06,2.06,0,0,0,.1-.4.79.79,0,0,0-.63-.79.46.46,0,0,1-.32-.22.49.49,0,0,1,0-.39.91.91,0,0,0,0-.23.79.79,0,1,0-1.58,0,.62.62,0,0,0,0,.23.48.48,0,0,1-.37.61.8.8,0,0,0-.64.79,1.77,1.77,0,0,0,.1.4.5.5,0,0,1-.11.51,2.06,2.06,0,0,1-1.47.61,2.14,2.14,0,0,1-1-.22.51.51,0,0,1-.24-.6.44.44,0,0,0,0-.2.42.42,0,0,0-.41-.34.48.48,0,0,1-.36-.16.5.5,0,0,1-.12-.38V33a.44.44,0,0,0-.49-.34.47.47,0,0,0-.27.18.39.39,0,0,0-.07.31s0,.08,0,.12a.43.43,0,0,1,0,.4.45.45,0,0,1-.26.28.42.42,0,0,0-.26.46.46.46,0,0,0,.1.21.49.49,0,0,1,0,.65,1.5,1.5,0,0,1-1.18.62l-.25,0a.76.76,0,0,1-.18-.06m-1.72-5.62a35.57,35.57,0,0,0,1.83,4.08,1.67,1.67,0,0,1,.23.23,1.64,1.64,0,0,1,.22.39s0,0,.07,0a1.11,1.11,0,0,1-.07-.26A1.38,1.38,0,0,1,88,33.3a1.39,1.39,0,0,1,.23-1,1.3,1.3,0,0,1,.88-.58l.07,0h.19a1.38,1.38,0,0,1,1.34,1.07,1.41,1.41,0,0,1,.9,1.06.75.75,0,0,1,0,.21.75.75,0,0,0,.21,0,1.15,1.15,0,0,0,.57-.15,3.1,3.1,0,0,1-.06-.39,1.81,1.81,0,0,1,1-1.6v0a1.75,1.75,0,1,1,3.5,0v0a1.81,1.81,0,0,1,1,1.6,2,2,0,0,1-.06.39,1.15,1.15,0,0,0,.57.15.65.65,0,0,0,.2,0,1.52,1.52,0,0,1,0-.21,1.39,1.39,0,0,1,.9-1.06,1.38,1.38,0,0,1,1.34-1.07h.19l.07,0a1.4,1.4,0,0,1,1.11,1.57,1.41,1.41,0,0,1,.46,1.32,1,1,0,0,1-.08.25.17.17,0,0,0,.07,0,1.47,1.47,0,0,1,.22-.39,1.73,1.73,0,0,1,.24-.23,40.11,40.11,0,0,0,1.82-4.07,27.4,27.4,0,0,0-4.5-.84,45,45,0,0,0-5.31-.3,46.81,46.81,0,0,0-5.3.29,29.59,29.59,0,0,0-4.51.84m-1.59-2.95a19.15,19.15,0,0,1,.93,2.12A38.62,38.62,0,0,1,95,28.1a38.86,38.86,0,0,1,10.48,1.28,16,16,0,0,1,.92-2.12.9.9,0,0,0-.51.26,2.51,2.51,0,0,0-.24.57.48.48,0,0,1-.4.35,2.15,2.15,0,0,1-1.94-.7.49.49,0,0,1,0-.66.74.74,0,0,0,.16-.32.66.66,0,0,0-.4-.74.55.55,0,0,1-.28-.28.48.48,0,0,1,0-.39.7.7,0,0,0,.06-.19.64.64,0,0,0-.1-.5.66.66,0,0,0-.42-.27.64.64,0,0,0-.76.52.45.45,0,0,0,0,.2.51.51,0,0,1-.13.37.46.46,0,0,1-.35.16.65.65,0,0,0-.64.54.62.62,0,0,0,0,.33.5.5,0,0,1-.27.61,2.61,2.61,0,0,1-1.11.25,2.5,2.5,0,0,1-1.77-.74.49.49,0,0,1-.1-.56,1.08,1.08,0,0,0,.12-.5,1.13,1.13,0,0,0-.91-1.12.52.52,0,0,1-.32-.22.45.45,0,0,1,0-.39,1.24,1.24,0,0,0,0-.33,1.12,1.12,0,1,0-2.2.32.53.53,0,0,1,0,.39.55.55,0,0,1-.33.23,1.13,1.13,0,0,0-.91,1.12,1,1,0,0,0,.1.47.55.55,0,0,1,.07.25.52.52,0,0,1-.16.36,2.52,2.52,0,0,1-2.9.45.5.5,0,0,1-.24-.59.53.53,0,0,0,0-.33.65.65,0,0,0-.64-.54.44.44,0,0,1-.35-.16.47.47,0,0,1-.13-.37,1.34,1.34,0,0,0,0-.2.66.66,0,0,0-.77-.52.64.64,0,0,0-.42.28.71.71,0,0,0-.1.5.76.76,0,0,0,.06.18.48.48,0,0,1,0,.39A.44.44,0,0,1,87,26a.67.67,0,0,0-.4.74.65.65,0,0,0,.16.32.49.49,0,0,1,0,.67,2,2,0,0,1-1.59.71l-.33,0a.48.48,0,0,1-.4-.35,2.71,2.71,0,0,0-.24-.57.9.9,0,0,0-.51-.26m8.43-7.13a57.15,57.15,0,0,0-9,1,32,32,0,0,0,.9,5.22,1.68,1.68,0,0,1,.89.58,2.52,2.52,0,0,1,.3.56,1,1,0,0,0,.54-.17,1.9,1.9,0,0,1-.12-.36,1.68,1.68,0,0,1,.59-1.6h0a1.62,1.62,0,0,1,.26-1.23,1.52,1.52,0,0,1,1-.69,1.63,1.63,0,0,1,.31,0,1.61,1.61,0,0,1,1.58,1.33h0A1.61,1.61,0,0,1,90.51,26a.88.88,0,0,1,0,.17,1,1,0,0,1,0,.18,1.61,1.61,0,0,0,.39,0,1.44,1.44,0,0,0,.85-.26,2.1,2.1,0,0,1-.07-.56A2.14,2.14,0,0,1,93,23.63s0-.07,0-.12a2.09,2.09,0,1,1,4.18,0,.41.41,0,0,1,0,.12,2.14,2.14,0,0,1,1.25,1.94,2.1,2.1,0,0,1-.08.56,1.51,1.51,0,0,0,.86.26,1.58,1.58,0,0,0,.38,0,1,1,0,0,1,0-.18.88.88,0,0,1,0-.17,1.63,1.63,0,0,1,1.13-1.27h0a1.62,1.62,0,0,1,1.58-1.33l.31,0a1.64,1.64,0,0,1,1.29,1.93,1.68,1.68,0,0,1,.59,1.6,1.9,1.9,0,0,1-.12.36,1,1,0,0,0,.54.17,2.17,2.17,0,0,1,.3-.56,1.72,1.72,0,0,1,.89-.58,32.07,32.07,0,0,0,.91-5.22,56.11,56.11,0,0,0-9-1c-2-.08-4-.08-6,0m-9.42.09a67.9,67.9,0,0,1,24.78,0,12.45,12.45,0,0,1,.69-2.54.8.8,0,0,0-.34.32l-.44.91a.44.44,0,0,1-.32.26,1.83,1.83,0,0,1-1.93-.63.49.49,0,0,1,0-.65.86.86,0,0,0,.19-.46.91.91,0,0,0-.62-.95.5.5,0,0,1-.29-.26.41.41,0,0,1,0-.39,2.5,2.5,0,0,0,.07-.26.89.89,0,0,0-1.77-.19.7.7,0,0,0,0,.25.5.5,0,0,1-.1.39.45.45,0,0,1-.34.18.89.89,0,0,0-.8.8.78.78,0,0,0,.06.43.79.79,0,0,1,0,.2.49.49,0,0,1-.32.46,2.79,2.79,0,0,1-3.28-.62.49.49,0,0,1,0-.55,1.49,1.49,0,0,0-1-2.06.5.5,0,0,1-.32-.23.53.53,0,0,1,0-.39,1.4,1.4,0,0,0,.06-.41A1.46,1.46,0,0,0,95,12.36a1.44,1.44,0,0,0-1.33.88,1.4,1.4,0,0,0-.12.58,1.52,1.52,0,0,0,.06.42.45.45,0,0,1,0,.23.34.34,0,0,1-.06.16.5.5,0,0,1-.32.23,1.46,1.46,0,0,0-1.13,1.07,2.33,2.33,0,0,0,0,.37,1.39,1.39,0,0,0,.14.64.47.47,0,0,1,0,.53,2.8,2.8,0,0,1-3.29.62L88.81,18a.49.49,0,0,1-.17-.6A1,1,0,0,0,88.7,17a.89.89,0,0,0-.81-.79.47.47,0,0,1-.34-.19.44.44,0,0,1-.09-.38,1.13,1.13,0,0,0,0-.26.89.89,0,1,0-1.76.2.78.78,0,0,0,.07.25.53.53,0,0,1,0,.39.51.51,0,0,1-.3.26.89.89,0,0,0-.61.95.85.85,0,0,0,.18.46.49.49,0,0,1,0,.65,1.82,1.82,0,0,1-1.92.63.47.47,0,0,1-.34-.26L82.29,18a.7.7,0,0,0-.33-.31,12.83,12.83,0,0,1,.68,2.53m.69-4a9.4,9.4,0,0,0-.23,1.27l.06.11c.08.17.23.47.32.68a.63.63,0,0,0,.55-.18,1.88,1.88,0,0,1,.72-2.33.13.13,0,0,0,0-.06,1.85,1.85,0,1,1,3.68-.42s0,0,0,.07a1.85,1.85,0,0,1,1.23,1.55,2.06,2.06,0,0,1,0,.43,2,2,0,0,0,1.6-.26,2.42,2.42,0,0,1-.12-.76,2.15,2.15,0,0,1,.08-.62A2.47,2.47,0,0,1,92.62,14v-.21a2.45,2.45,0,0,1,.19-1,2.51,2.51,0,0,1,1.42-1.33,2.37,2.37,0,0,1,.8-.15,2.52,2.52,0,0,1,.81.15,2.46,2.46,0,0,1,1.61,2.3c0,.08,0,.15,0,.22a2.46,2.46,0,0,1,1.49,2.26,2.31,2.31,0,0,1-.12.75,1.93,1.93,0,0,0,1.6.27,1.55,1.55,0,0,1,0-.43,1.83,1.83,0,0,1,1.23-1.55v-.07a1.85,1.85,0,1,1,3.68.41s0,.05,0,.07a1.88,1.88,0,0,1,.72,2.33.67.67,0,0,0,.54.18c.11-.21.25-.51.33-.69a.33.33,0,0,0,.06-.1,9.4,9.4,0,0,0-.23-1.27c-1-3.65-5-7.32-11.57-7.37h-.25c-6.63.05-10.6,3.72-11.58,7.37M95,5.16a1.31,1.31,0,1,0,1.29,1.3A1.3,1.3,0,0,0,95,5.16m7.64,37.46A7.66,7.66,0,0,1,101,39.47v0l-.05-.3a30.62,30.62,0,0,0-5.35-.52,17.82,17.82,0,0,0,.49,2.21,12.23,12.23,0,0,0,2,3.86l4.56-2.05m-5.46,2.46a13.12,13.12,0,0,1-2-4,3.72,3.72,0,0,1-.11-.38l-.11.39a13.51,13.51,0,0,1-2,4l2.12,1Zm-7.34,4.38,1.33,3,19.15-8.64a40.07,40.07,0,0,0,1.41-4.29Zm23.44-12a46.84,46.84,0,0,1-2.21,7.14,10.29,10.29,0,0,1-3.6,4.33c3.77-.08,5.69-.94,6.51-1.46,2.95-1.88,3.88-6.07,4.45-9.51l-1.72-.36-.37,1.75L114.86,39l.37-1.76-1.79-.37c0,.2-.08.37-.13.56m.47-2.17a.25.25,0,0,0,0,.08l1.77.38.35-1.76,1.52.32-.36,1.75,1.65.35c0-.28.09-.57.13-.88a81.5,81.5,0,0,1,1.57-8.47A9.86,9.86,0,0,1,123.55,22h-.68a8,8,0,0,0-4,.86c-3.33,1.59-4.15,6.7-4.75,10.43-.11.71-.22,1.37-.33,1.95v.05m11-13c-.21.18-.48.37-.79.63a16.58,16.58,0,0,0-2.27,3.91H122a2.41,2.41,0,0,1,1.39.52l.07,0A2.75,2.75,0,0,0,125,28a1.77,1.77,0,0,0,.59-.11,4.36,4.36,0,0,1-1.25-.85,3.46,3.46,0,0,0-.85-.61.52.52,0,0,1-.33-.58c0-.19.17-.41.62-.41a5.71,5.71,0,0,1,1.29.17,4.9,4.9,0,0,0,1.66.32h0a2,2,0,0,0,.35,0,5.49,5.49,0,0,1-1-.68,4.66,4.66,0,0,0-.89-.58.53.53,0,0,1-.35-.59c0-.15.15-.41.62-.41a5.75,5.75,0,0,1,1.32.18,4.3,4.3,0,0,0,1.47.29,2.57,2.57,0,0,0,.5-.05,5.21,5.21,0,0,1-1.39-.85l-.51-.38a3.45,3.45,0,0,0-1.88-.67l-.2.16m-5,13.71c0,.35-.11.68-.16,1-.14.92-.3,1.93-.51,3l14.22-6.41,0-.12L132,30.48Zm12.87-7.09a1,1,0,0,0,0,.73l1.73,3.94a.92.92,0,0,0,.85.56,1,1,0,0,0,.38-.08.88.88,0,0,0,.49-.53.9.9,0,0,0,0-.72l-1.73-3.94a1,1,0,0,0-.86-.57.88.88,0,0,0-.38.09.94.94,0,0,0-.5.52m3-.87a1,1,0,0,0-.42.38s0,0,0,.05L137,32.4a.11.11,0,0,1,0,.06h.18a.77.77,0,0,0,.37-.08,1,1,0,0,0,.48-1.25l-1.15-2.63A.94.94,0,0,0,136,28a1,1,0,0,0-.38.08m2.26.21h-.08l1,2.36a1.41,1.41,0,0,0,.28-1.54,1.37,1.37,0,0,0-1.24-.83M133.32,38a.52.52,0,0,1,.25-.65l.6-.26-1-2.43L119.3,40.9l1.06,2.4L121,43a.52.52,0,0,1,.37,0,.47.47,0,0,1,.26.26l.94,2.11a.51.51,0,0,1-.26.65l-.6.27,1,2.2,5.42-2.43-1-2.2-.61.28a.48.48,0,0,1-.64-.25l-.92-2.13a.4.4,0,0,1,0-.37.46.46,0,0,1,.26-.27l.6-.28-.27-.61a.5.5,0,0,1,0-.38.49.49,0,0,1,.26-.27l2.1-1a.48.48,0,0,1,.63.26l.29.62.6-.27a.47.47,0,0,1,.63.25l.93,2.1a.48.48,0,0,1,0,.37.45.45,0,0,1-.26.28l-.6.27,1,2.2,5.43-2.42-1-2.2-.62.27a.49.49,0,0,1-.64-.24ZM105.49,48.88a8.66,8.66,0,0,0,4-3.41,3.92,3.92,0,0,1-.51.07L103,48.28a10.34,10.34,0,0,0,2.54.6m-1.95,5.49a1,1,0,0,0,.48,1.25.78.78,0,0,0,.37.09l.18,0,0,0,1.73-3.94s0,0,0,0a.86.86,0,0,0-.42-.38.85.85,0,0,0-.38-.09.92.92,0,0,0-.85.56ZM105.48,56a.95.95,0,0,0,.47,1.25,1,1,0,0,0,.38.08.93.93,0,0,0,.86-.56l1.73-3.94a1,1,0,0,0,0-.72,1,1,0,0,0-.49-.53,1.09,1.09,0,0,0-.39-.08.94.94,0,0,0-.85.56Zm2.58,1.17a.08.08,0,0,1,0,0,.93.93,0,0,0,.43.38.92.92,0,0,0,.38.08.94.94,0,0,0,.85-.56l1.16-2.63a1,1,0,0,0,0-.72,1,1,0,0,0-.5-.53,1,1,0,0,0-.38-.08l-.18,0a.08.08,0,0,0,0,0Zm2.59.18a.26.26,0,0,1,0,.1l0,.06h0a0,0,0,0,0,0,0,5,5,0,0,0,1.06,5.32,4,4,0,0,0,2.87,1.18,5.8,5.8,0,0,0,1.13-.12,2.75,2.75,0,0,1,.34,0,.54.54,0,0,1,.4.18.75.75,0,0,1,.15.2,2.69,2.69,0,0,0,2.09,1.32,3,3,0,0,0,2.47-1.32,1.89,1.89,0,0,1,.39-.91,1.85,1.85,0,0,1,1-.63,1.79,1.79,0,0,1,0-1.4,1.83,1.83,0,0,1,1-1,1.89,1.89,0,0,1-.19-1.15,1.85,1.85,0,0,1,.4-.9,3.06,3.06,0,0,0-.67-2.75,2.5,2.5,0,0,0-1.81-.72,3.75,3.75,0,0,0-.57,0h-.24c-.3,0-.44-.21-.6-.47a4.24,4.24,0,0,0-3.45-2.3,4.81,4.81,0,0,0-4.55,2.6,1.34,1.34,0,0,1-.07.18v0a.17.17,0,0,0,0,.05.31.31,0,0,1,0,.1Zm5.65-7.58a3.87,3.87,0,0,0-3.94,2.71,6,6,0,0,1,3.71-1.35h.34a4.93,4.93,0,0,1,3.64,1.93,3.18,3.18,0,0,0-.58-1.6,4.3,4.3,0,0,0-3.17-1.7m6.74,4a3.09,3.09,0,0,0-1,.17,3.31,3.31,0,0,1,1.68.91,3.64,3.64,0,0,1,1,2.82l.08,0a2.66,2.66,0,0,0-.06-3.12,2,2,0,0,0-1.69-.76m3.46,5.94a3.69,3.69,0,0,0-1.25-1.1h-.14a.89.89,0,0,0-.87.75.94.94,0,0,0,.16.67.88.88,0,0,0,.58.35h0a4,4,0,0,0,1.48-.66M124.08,63a4.92,4.92,0,0,0,1.36-.28,3.44,3.44,0,0,0-.92-1.38.9.9,0,0,0-.36-.08.89.89,0,0,0-.82,1.21.84.84,0,0,0,.47.49.66.66,0,0,0,.27,0m5.16,4.84a30.09,30.09,0,0,0-4.39-3c.09.44.15.84.17,1a.5.5,0,0,1-.24.48c5.89,3.49,9.11,7.84,9.11,12.41a10.69,10.69,0,0,1-1.72,5.67,6.32,6.32,0,0,1,2.08-1.06,11.47,11.47,0,0,0,1-4.61,12.43,12.43,0,0,0-2.55-7.34,9.83,9.83,0,0,1-2.19-1.84,9.06,9.06,0,0,1-1.25-1.76m5.29-.54a13,13,0,0,1-5.66-4.51,9.76,9.76,0,0,0,2.33,6.16,10.71,10.71,0,0,0,5.94,3.17v-3a6.36,6.36,0,0,0-2.61-1.83m-4.61-10.33a16.51,16.51,0,0,1,2.56,6.34,6.81,6.81,0,0,0,1,2.36,15.28,15.28,0,0,0,1.46.73,8.53,8.53,0,0,1,2.23,1.34V66.51a12.78,12.78,0,0,0-.58-2.51,11.88,11.88,0,0,0-6.64-7.08M134,51.1a18,18,0,0,0-.68,6.75,12.53,12.53,0,0,1,3.83,5v-3l-.08-.13A19.78,19.78,0,0,1,134,51.1m3.23,23.22a.5.5,0,0,1-.08-.27v-1a13,13,0,0,1-2.73-.8,12.88,12.88,0,0,1,1.79,6.46,12.31,12.31,0,0,1-.8,4.35,7,7,0,0,1,.83-.1,30.11,30.11,0,0,0,8.17-1.51.46.46,0,0,1,.56.15,0,0,0,0,1,0,0,8.27,8.27,0,0,0,2.42-3.56,7.52,7.52,0,0,0,.37-3.44,6.29,6.29,0,0,0-.29-1.19,5.42,5.42,0,0,0-2-2.4v3.47a1.28,1.28,0,0,1,0,.21h0a3.66,3.66,0,0,1-3.95,3,4.12,4.12,0,0,1-4.27-3.46m6.16-2a3.88,3.88,0,0,1,1.1.54V70.51A6.71,6.71,0,0,0,142,70v2.14a3.52,3.52,0,0,1,1.38.18m-2.13.81a.5.5,0,0,1-.22-.4V70.09a1.91,1.91,0,0,0-.41.11,3.56,3.56,0,0,0-2.52,3.33,3.21,3.21,0,0,0,3.39,3.28c2.6,0,2.95-1.93,3-2.18v-.11c0-.24-.21-.88-1.39-1.27a2.32,2.32,0,0,0-1.41-.07.44.44,0,0,1-.43-.05m-3.15-2.35a5.31,5.31,0,0,1,2.19-1.5,4,4,0,0,1,.9-.21,6.17,6.17,0,0,1,4,.67l.28.13v0A7,7,0,0,1,147.8,72V59.19c-.4-.54-2.24-2.77-4.84-2.77a7.59,7.59,0,0,0-4.86,1.88ZM138.72,49a8.63,8.63,0,0,0,.12,7c.07.16.16.3.24.45a8.31,8.31,0,0,1,1.55-.65,9,9,0,0,1-.24-3A25.21,25.21,0,0,1,138.72,49m3,1.48a10.3,10.3,0,0,0-.14,5.07,7.74,7.74,0,0,1,1.39-.12c.23,0,.47,0,.7,0a10.05,10.05,0,0,1,.79-2.53c.37-.82.7-1.58,1-2.3a21.14,21.14,0,0,0-2.82-9.93,31.63,31.63,0,0,1-.9,9.77m6.21-4.08a45.8,45.8,0,0,1-2.6,7,9.23,9.23,0,0,0-.72,2.33,7.27,7.27,0,0,1,2.58,1.44c.12-.21.23-.42.34-.65,1.44-3.12,1.12-6.94.4-10.07M122.22,64a.91.91,0,0,0,.12,1.25,2.54,2.54,0,0,0,1.3.21H124a3.52,3.52,0,0,0-.54-1.59.88.88,0,0,0-1.23.14m-.92,1.48a3.49,3.49,0,0,1-2.75,1.11,3.37,3.37,0,0,1-1.81-.66,3.6,3.6,0,0,0,.52.85,2.16,2.16,0,0,0,1.75.82,2.65,2.65,0,0,0,2.33-2.06l0-.06M80.83,59.63a6.13,6.13,0,0,1-1.73,3.94A4.83,4.83,0,0,1,75.56,65h-.3a3.1,3.1,0,0,0,1.95.65,4.29,4.29,0,0,0,3-1.28,3.9,3.9,0,0,0,.65-4.77M111,63.57a6.17,6.17,0,0,1-1.72-3.94,3.89,3.89,0,0,0,.65,4.77,4.29,4.29,0,0,0,3,1.28,3.14,3.14,0,0,0,2-.65h-.31A4.88,4.88,0,0,1,111,63.57M107.39,58h0a0,0,0,0,0,0,0m-7.22-6.08-.54,1.23a2.32,2.32,0,0,0,1.22,1.26,2.36,2.36,0,0,0,1.55.13l.26-.58h0l.53-1.21.88-2a2.37,2.37,0,0,0-1.13-1.08,2.33,2.33,0,0,0-1.74-.08Zm0-2.41-4,1.79,2.65,1.19ZM87.4,54h0l.26.58a2.4,2.4,0,0,0,1.56-.13,2.33,2.33,0,0,0,1.21-1.26l-.28-.64L88.87,49.6a2.33,2.33,0,0,0-1.74.08A2.39,2.39,0,0,0,86,50.76l.35.79Zm0,1.53a1.88,1.88,0,0,1-1,1,1.91,1.91,0,0,1-.77.17h-.06a1.83,1.83,0,0,1-.42,1,78.4,78.4,0,0,1,19.68,0,1.86,1.86,0,0,1-.31-.55,2.17,2.17,0,0,1-.11-.42h-.06a1.8,1.8,0,0,1-.76-.17,1.83,1.83,0,0,1-1-1,3.54,3.54,0,0,1-.85.11,3.31,3.31,0,0,1-1.35-.29,3.37,3.37,0,0,1-1.72-1.8L95,51.85l-3.7,1.67a3.37,3.37,0,0,1-1.72,1.8,3.31,3.31,0,0,1-1.35.29,3.54,3.54,0,0,1-.85-.11M82.66,58a0,0,0,0,0,0,0h0a0,0,0,0,0,0,0M95,58a75.82,75.82,0,0,0-13.35,1.15,6.06,6.06,0,0,1,.47,1.3,76.64,76.64,0,0,1,25.76,0,6.58,6.58,0,0,1,.46-1.3A75.7,75.7,0,0,0,95,58m-29,7.42h.35a2.46,2.46,0,0,0,1.29-.21A.89.89,0,0,0,67.84,64a.88.88,0,0,0-1.23-.14,3.52,3.52,0,0,0-.54,1.59m5.44,1.14a3.47,3.47,0,0,1-2.74-1.11l0,.06a2.65,2.65,0,0,0,2.33,2.06h.14a2.16,2.16,0,0,0,1.61-.82,3.6,3.6,0,0,0,.52-.85,3.37,3.37,0,0,1-1.81.66m1,26.87a1.3,1.3,0,0,0-.16-.31,1.57,1.57,0,0,0-.19-.26,2.63,2.63,0,0,0-1-.65,5.52,5.52,0,0,0-.66,0,6.7,6.7,0,0,0-.93.07c.94.42,1.92.82,2.93,1.19m11.16,2.8a5.37,5.37,0,0,0-2.35-2,7.54,7.54,0,0,0-1.71-.61,2.42,2.42,0,0,0-2.19.91,3,3,0,0,0-.24.32,61.54,61.54,0,0,0,6.49,1.34m29.13-1.34a2,2,0,0,0-.24-.32,2.42,2.42,0,0,0-2.19-.91,7.54,7.54,0,0,0-1.71.61,5.31,5.31,0,0,0-2.35,2,61.54,61.54,0,0,0,6.49-1.34m7.6-2.65a6.51,6.51,0,0,0-.94-.07,5.46,5.46,0,0,0-.65,0,2.49,2.49,0,0,0-1,.66,1.57,1.57,0,0,0-.2.25,1.51,1.51,0,0,0-.16.31c1-.37,2-.77,2.93-1.19m-1.82-1c1.59-.64,6.42-2.62,9.58-5.26a2.92,2.92,0,0,1,1.72-.55h.28a10.49,10.49,0,0,0,2.73-6.74c0-4.54-3.56-8.9-10-12.34a3.16,3.16,0,0,1-.8-.18,3.44,3.44,0,0,1-3,2.35h-.2a3,3,0,0,1-2.33-1.16,4.63,4.63,0,0,1-.92-1.79,4.09,4.09,0,0,1-2.76,1,5.33,5.33,0,0,1-3.65-1.55,4.72,4.72,0,0,1-1.45-3.67,74.82,74.82,0,0,0-25.45,0,4.72,4.72,0,0,1-1.46,3.67,5.33,5.33,0,0,1-3.64,1.55,4.1,4.1,0,0,1-2.77-1,4.5,4.5,0,0,1-.92,1.79,3,3,0,0,1-2.33,1.16H71a3.46,3.46,0,0,1-3-2.35,3.16,3.16,0,0,1-.8.18c-6.46,3.44-10,7.8-10,12.34a10.49,10.49,0,0,0,2.73,6.74h.28a2.84,2.84,0,0,1,1.71.55c3.17,2.63,8,4.61,9.58,5.26l0,0,.07,0a3,3,0,0,1,2.06,2.5c.86.3,1.74.57,2.64.83a3.47,3.47,0,0,1,3.52-1.94h0c.67.11,2.83.51,3.51.64l.25.06A52.11,52.11,0,0,0,95,94.62h.06a52,52,0,0,0,11.45-1.21l.25-.06c.69-.13,2.83-.53,3.51-.64h0a3.47,3.47,0,0,1,3.52,1.94c.9-.26,1.78-.53,2.64-.83a3,3,0,0,1,2.09-2.51h0l.08,0m19.71-4.42a13.83,13.83,0,0,0,4.94-4,40.54,40.54,0,0,1-7,1.1,5.63,5.63,0,0,0-4.41,2.13,9.88,9.88,0,0,1,1.68,1,10.26,10.26,0,0,1,3-.37c.55,0,1.15,0,1.76.09m12.88.54A.5.5,0,0,1,151,88a21,21,0,0,1-10.5,4.34,12.49,12.49,0,0,1,3.81,5.3.5.5,0,0,1,.06.24.48.48,0,0,1-.48.49h0a.48.48,0,0,1-.34-.14s-1.17-1-5.77-2.1a7.61,7.61,0,0,1-2.16-.83,21.52,21.52,0,0,1-4.31,3.21,30.05,30.05,0,0,1-6.88,3.37,3.51,3.51,0,0,1-1.15.23,2.3,2.3,0,0,1-1-.23,3,3,0,0,1-1.46-1.79,2.87,2.87,0,0,1,.45-3,.54.54,0,0,1,.15-.09c1.16-.48,1.89-.8,3-1.38-.07-.14-.14-.3-.22-.45a6.65,6.65,0,0,0-.49-.79l-.06,0c-.71.36-1.44.71-2.19,1a13.27,13.27,0,0,1-4.47,4.76,10.35,10.35,0,0,1,1.49.82,13.09,13.09,0,0,0,6.8,1.9c.4,0,.63,0,.63,0a.48.48,0,0,1,.53.42.49.49,0,0,1-.38.54,47.73,47.73,0,0,1-9.26,1c-.37,0-.72,0-1.06,0a11.69,11.69,0,0,1,2.09,5.84.34.34,0,0,1,0,.1.49.49,0,0,1-.48.49h0A.49.49,0,0,1,117,111s-.91-1.93-4.56-3.56a20.58,20.58,0,0,1-3.12-1.73,24,24,0,0,1-7.5,1c-1.14,0-2.22-1.08-2.92-2a8.11,8.11,0,0,0,.87,4.29,5.48,5.48,0,0,0,1.92-.25c.22-.06.43-.13.69-.18h.13a3.19,3.19,0,0,1,2,.8,1.7,1.7,0,0,1,0,2.51h0l-.05,0,0,0,0,0,0,0a7,7,0,0,1-2.4.39,7.49,7.49,0,0,1-3.32-.77A7.72,7.72,0,0,1,95,108.07a7.81,7.81,0,0,1-3.53,3.58,7.49,7.49,0,0,1-3.32.77,6.91,6.91,0,0,1-2.39-.39h0l0,0-.05,0,0,0-.06,0h0a1.71,1.71,0,0,1,0-2.51,3.13,3.13,0,0,1,2-.8h.12c.27.05.48.12.7.18a5.52,5.52,0,0,0,1.92.25,8,8,0,0,0,.87-4.29c-.7.9-1.77,2-2.92,2a24.12,24.12,0,0,1-7.53-1.06,20.7,20.7,0,0,1-3.13,1.74C74,109.07,73.06,111,73,111a.48.48,0,0,1-.44.29l-.12,0a.47.47,0,0,1-.35-.51,11.62,11.62,0,0,1,2.09-5.9c-.34,0-.7,0-1.07,0h0a47.56,47.56,0,0,1-9.25-1,.49.49,0,0,1-.39-.54.49.49,0,0,1,.53-.42s.24,0,.64,0a13.06,13.06,0,0,0,6.79-1.9,12,12,0,0,1,1.61-.88,13.24,13.24,0,0,1-4.51-4.69c-.77-.33-1.5-.68-2.22-1l0,0a5.56,5.56,0,0,0-.49.79,3.84,3.84,0,0,0-.23.45c1.14.58,1.87.9,3,1.38a1.29,1.29,0,0,1,.16.09,2.88,2.88,0,0,1,.44,3,3,3,0,0,1-1.46,1.79,2.3,2.3,0,0,1-1,.23,3.56,3.56,0,0,1-1.15-.23,30.12,30.12,0,0,1-6.87-3.37,21.54,21.54,0,0,1-4.33-3.21,7.42,7.42,0,0,1-2.15.83c-4.65,1.08-5.75,2.09-5.77,2.1a.45.45,0,0,1-.34.15.48.48,0,0,1-.27-.09.49.49,0,0,1-.17-.6,12.58,12.58,0,0,1,3.83-5.35A21,21,0,0,1,39,88a.5.5,0,0,1-.17-.58.48.48,0,0,1,.51-.31s1.81.2,4.69.2h0c2,0,4-.09,5.93-.26a16.08,16.08,0,0,1-3.75-3.34,10,10,0,0,1-4.48-5.27,8.74,8.74,0,0,1-.44-3.62.5.5,0,0,1,0-.12V59a.57.57,0,0,1,.08-.28,11.4,11.4,0,0,1,.78-.94c-.15-.26-.3-.54-.45-.85-1.92-4.07-1.05-9.17,0-12.74a.46.46,0,0,1,.51-.34.48.48,0,0,1,.43.42,22.94,22.94,0,0,0,1.11,4.14A25.39,25.39,0,0,1,47.94,38a.46.46,0,0,1,.6-.18.49.49,0,0,1,.26.58s-1.27,4.46.47,11.87c.07.28.14.56.18.82a10.16,10.16,0,0,0,1.25-3.66.48.48,0,0,1,.92-.23c2.15,4.54,1.35,7.76.17,9.75a6.25,6.25,0,0,1,1,.81.48.48,0,0,1,.12.22,18.24,18.24,0,0,0,2.19-6.78A10.46,10.46,0,0,0,55,48a.48.48,0,0,1,.32-.58.46.46,0,0,1,.59.27,22.71,22.71,0,0,1,1.86,9.43,16.75,16.75,0,0,1,4-1.85.48.48,0,0,1,.58.24.5.5,0,0,1-.15.62,7.11,7.11,0,0,0-1.4,1.6,16,16,0,0,0-2.25,5.74,8.18,8.18,0,0,1-.28,1,11.07,11.07,0,0,0,3-3.73.47.47,0,0,1,.52-.29.46.46,0,0,1,.4.45,13.87,13.87,0,0,1-.55,5A35.47,35.47,0,0,1,65,63.79a9.24,9.24,0,0,1-1.2-.37.49.49,0,0,1-.28-.62,9.46,9.46,0,0,1,.79-1.59,7.85,7.85,0,0,1-1.73-1,.49.49,0,0,1-.1-.68,6,6,0,0,1,1.78-1.75A3.51,3.51,0,0,1,64.57,54,3,3,0,0,1,67,52.81a4.46,4.46,0,0,1,2,.5,4.23,4.23,0,0,1,.78-2.38,5.23,5.23,0,0,1,3.88-2.11h.39c2.21,0,3.86,1.39,4.72,3.89a1.8,1.8,0,0,1,.49-.32,1.92,1.92,0,0,1,.78-.17h.05a2.13,2.13,0,0,1,.1-.42,2,2,0,0,1,1-1.08,2,2,0,0,1,.77-.16,1.84,1.84,0,0,1,1.07.34,1.81,1.81,0,0,1,.67-.52,1.73,1.73,0,0,1,.77-.17,2.07,2.07,0,0,1,.62.11,4.28,4.28,0,0,1,.37-.57,10.77,10.77,0,0,1-1.14.15h-.12l-1,0c-1.89,0-5.36-.21-7.57-1.62s-3.44-4-4.15-6.61l-1.08,2.48a.51.51,0,0,1-.27.25.48.48,0,0,1-.37,0l-.61-.26-.53,1.21.61.28a.48.48,0,0,1,.24.64l-1.35,3.09a.46.46,0,0,1-.64.24l-6.3-2.81a.55.55,0,0,1-.26-.28.52.52,0,0,1,0-.37L62.28,43a.49.49,0,0,1,.64-.25l.6.28.55-1.23-.61-.28a.49.49,0,0,1-.26-.27.5.5,0,0,1,0-.38l.27-.62-1.22-.55-.28.64a.49.49,0,0,1-.63.25l-.61-.28-.53,1.22.61.27a.49.49,0,0,1,.24.64l-1.35,3.09a.48.48,0,0,1-.64.25L52.76,43a.47.47,0,0,1-.25-.27.55.55,0,0,1,0-.38l1.36-3.08a.44.44,0,0,1,.26-.26.44.44,0,0,1,.37,0l.61.27.54-1.23-.61-.27a.5.5,0,0,1-.24-.65l1-2.3a2,2,0,0,1-1,.28,1.91,1.91,0,0,1-1.77-1.24,1.66,1.66,0,0,1-.12-.42H52.9a1.84,1.84,0,0,1-.77-.17A1.94,1.94,0,0,1,51,31.66a2.38,2.38,0,0,1-.95-3,2.33,2.33,0,0,1,2.12-1.4,2.4,2.4,0,0,1,.71.11A2,2,0,0,1,54.06,27a1.88,1.88,0,0,1,.77.17,1.9,1.9,0,0,1,.67.51,2,2,0,0,1,1.07-.34,1.88,1.88,0,0,1,.77.17,1.91,1.91,0,0,1,1,1.08,1.86,1.86,0,0,1,.09,1l11.79,5.32c-.39-2.51-.87-5.53-1.28-7.08h-.2a4.35,4.35,0,0,0-.51,0,1.51,1.51,0,0,0-.92.35l-.06,0a3.65,3.65,0,0,1-2.05.72h0A2.9,2.9,0,0,1,63,27.81a.52.52,0,0,1,0-.54.46.46,0,0,1,.47-.23,1.73,1.73,0,0,0,1.23-.32,5.07,5.07,0,0,1-1.19.14,2.69,2.69,0,0,1-2.15-.81.48.48,0,0,1,.34-.79,2.6,2.6,0,0,0,1-.27,4.56,4.56,0,0,1-.72.06A3.34,3.34,0,0,1,59.44,24a.5.5,0,0,1,.44-.8,4.81,4.81,0,0,0,.49,0,2.83,2.83,0,0,0,1.91-.86l.53-.39a4.29,4.29,0,0,1,1.16-.6l0,0,.42-.09a4.39,4.39,0,0,1,.69-.11A15.25,15.25,0,0,1,66.61,21h1.64l.22,0a.25.25,0,0,1,.12,0l.25,0h.06l.3,0h.08l.2,0,.11,0,.17,0,.11,0,.16,0,.11,0,.15.05.11,0,.15,0,.1,0,.15,0,.11.05.15.06.1,0,.18.08.09,0,.25.13c4.47,2.13,4.9,9.45,5.62,13.07.15.77.29,1.5.46,2.18.11.41.21.81.3,1.18l8.46,3.83a7,7,0,0,0,1.64-2.89l-.46.12h-.2l-.07,0h0a1.63,1.63,0,0,1-1-.86,2.29,2.29,0,0,1,0-1.56,15.33,15.33,0,0,0-1.78-2.89.49.49,0,0,1,0-.53.47.47,0,0,1,.46-.26,1.56,1.56,0,0,1,.49.13,31.91,31.91,0,0,1-1.27-3h-.06a.49.49,0,0,1-.48-.41.17.17,0,0,1,0-.07,23.44,23.44,0,0,0-2-4.16.48.48,0,0,1,.06-.58.47.47,0,0,1,.57-.11s.2.1.41.24c-.07-.27-.12-.53-.17-.78a30.73,30.73,0,0,1-.46-3.3.46.46,0,0,1-.23-.09.55.55,0,0,1-.2-.36,14.19,14.19,0,0,0-1.4-4.51.51.51,0,0,1,0-.52.48.48,0,0,1,.48-.18,1.58,1.58,0,0,1,1.16,1,1.19,1.19,0,0,1,.22.08c0-.28.1-.55.17-.8,1.18-4.38,5.47-7.47,10.91-8a2.31,2.31,0,0,1-.53-1.48,2.26,2.26,0,0,1,1.63-2.19V2.32H93.29V1.07h1.12V0h1.24V1.07h1.12V2.32H95.65V4.27a2.26,2.26,0,0,1,1.63,2.19,2.31,2.31,0,0,1-.53,1.48c5.44.53,9.72,3.62,10.92,8,.06.24.11.52.17.8a1,1,0,0,1,.22-.08,1.61,1.61,0,0,1,1.14-1,.48.48,0,0,1,.48.19.49.49,0,0,1,0,.52,14.2,14.2,0,0,0-1.4,4.5.53.53,0,0,1-.2.36.43.43,0,0,1-.22.1,33.94,33.94,0,0,1-.64,4.09,3.4,3.4,0,0,1,.42-.25.48.48,0,0,1,.57.11.5.5,0,0,1,0,.58,23.34,23.34,0,0,0-2,4.29.55.55,0,0,1-.24.3.48.48,0,0,1-.23.05h0c-.36,1-.79,2-1.26,3a1.49,1.49,0,0,1,.49-.13.47.47,0,0,1,.46.26.49.49,0,0,1,0,.53A14.8,14.8,0,0,0,103.62,37a2.41,2.41,0,0,1,0,1.56,1.6,1.6,0,0,1-1,.86h-.06l-.1,0-.12,0h0l-.38-.11a7.14,7.14,0,0,0,1.61,2.85l8.49-3.84q.15-.54.3-1.14c.16-.68.31-1.41.46-2.18.72-3.62,1.14-10.94,5.62-13.07l.26-.13.09,0,.17-.08.1,0,.15-.06.11-.05.14,0,.11,0,.15,0,.11,0,.15-.05.12,0,.15,0,.11,0,.17,0,.11,0,.21,0h.07l.3,0h.06l.26,0a.2.2,0,0,1,.11,0l.21,0h1.64a14.89,14.89,0,0,1,1.53.13,4.32,4.32,0,0,1,1,.18l.13,0h0a4.54,4.54,0,0,1,1.19.62l.53.39a2.87,2.87,0,0,0,1.91.86,4.4,4.4,0,0,0,.49,0,.49.49,0,0,1,.48.25.5.5,0,0,1,0,.54,3.25,3.25,0,0,1-2.52,1.06,4.68,4.68,0,0,1-.73-.06,2.64,2.64,0,0,0,1,.27.48.48,0,0,1,.43.29.46.46,0,0,1-.08.5,2.73,2.73,0,0,1-2.15.81h0a5.13,5.13,0,0,1-1.19-.14,1.74,1.74,0,0,0,1,.33h.23a.47.47,0,0,1,.48.23.52.52,0,0,1,0,.54A2.86,2.86,0,0,1,125,28.92,3.62,3.62,0,0,1,123,28.2l-.07,0a1.48,1.48,0,0,0-.92-.35,4.1,4.1,0,0,0-.5,0h-.28c-.41,1.55-.88,4.54-1.28,7l11.7-5.28a1.87,1.87,0,0,1,.11-1,1.9,1.9,0,0,1,1-1.08,1.84,1.84,0,0,1,.77-.17,1.91,1.91,0,0,1,1.07.34,1.9,1.9,0,0,1,.67-.51A1.88,1.88,0,0,1,136,27a2,2,0,0,1,1.17.41A2.31,2.31,0,0,1,140,28.67a2.37,2.37,0,0,1-.95,3,1.9,1.9,0,0,1-1.12,1.62,1.84,1.84,0,0,1-.77.17h-.06a2.13,2.13,0,0,1-.1.42,1.87,1.87,0,0,1-1,1.07,1.84,1.84,0,0,1-.77.17,2,2,0,0,1-1-.28l1,2.3a.51.51,0,0,1-.24.65l-.61.27.54,1.23.61-.27a.43.43,0,0,1,.37,0,.49.49,0,0,1,.27.26l1.35,3.08a.55.55,0,0,1,0,.38.51.51,0,0,1-.25.27L131,45.81a.47.47,0,0,1-.63-.25L129,42.47a.43.43,0,0,1,0-.37.47.47,0,0,1,.25-.27l.61-.27-.53-1.22-.61.28a.49.49,0,0,1-.63-.25l-.28-.64-1.22.55.27.62a.55.55,0,0,1,0,.38.47.47,0,0,1-.25.27l-.61.28.54,1.23.61-.28a.48.48,0,0,1,.63.25l1.36,3.09a.43.43,0,0,1,0,.37.53.53,0,0,1-.25.28l-6.31,2.81a.46.46,0,0,1-.64-.24l-1.35-3.09a.48.48,0,0,1,.24-.64l.62-.28-.54-1.21-.61.26a.48.48,0,0,1-.37,0,.49.49,0,0,1-.26-.25l-1-2.37c-.71,2.59-1.89,5.08-4.12,6.5S108.83,49.9,107,49.9l-1.06,0h-.12a12.15,12.15,0,0,1-1.23-.16,3,3,0,0,1,.37.58,2.25,2.25,0,0,1,.63-.11,1.76,1.76,0,0,1,.77.17,1.85,1.85,0,0,1,.68.52,1.81,1.81,0,0,1,1.06-.34,1.91,1.91,0,0,1,1.78,1.24,3.25,3.25,0,0,1,.11.42h0a1.88,1.88,0,0,1,.77.17,1.8,1.8,0,0,1,.49.32c.86-2.5,2.51-3.89,4.72-3.89h.38a5.28,5.28,0,0,1,3.9,2.11,4.37,4.37,0,0,1,.77,2.38,4.43,4.43,0,0,1,2-.5A3,3,0,0,1,125.49,54a3.51,3.51,0,0,1,.31,3.86,6.21,6.21,0,0,1,1.79,1.75.49.49,0,0,1-.12.68,7.48,7.48,0,0,1-1.72,1,8.74,8.74,0,0,1,.79,1.59.48.48,0,0,1-.28.62,9.86,9.86,0,0,1-1.2.37,35.47,35.47,0,0,1,3.4,2.16,13.87,13.87,0,0,1-.55-5,.45.45,0,0,1,.4-.45.47.47,0,0,1,.52.29,11.23,11.23,0,0,0,3,3.73,8.18,8.18,0,0,1-.28-1,16,16,0,0,0-2.25-5.74,6.82,6.82,0,0,0-1.4-1.6.48.48,0,0,1-.14-.62.46.46,0,0,1,.57-.24,16.67,16.67,0,0,1,4,1.85,22.87,22.87,0,0,1,1.87-9.43.47.47,0,0,1,.6-.27.49.49,0,0,1,.31.58,10.88,10.88,0,0,0-.08,3.2A18.43,18.43,0,0,0,137.16,58a.48.48,0,0,1,.12-.22,6.87,6.87,0,0,1,1-.81c-1.18-2-2-5.21.17-9.75a.48.48,0,0,1,.57-.26.47.47,0,0,1,.35.5,10.16,10.16,0,0,0,1.25,3.65c.06-.26.11-.54.17-.82a31.5,31.5,0,0,0,.91-8.75,16.43,16.43,0,0,0-.42-3.12.48.48,0,0,1,.86-.4,25.47,25.47,0,0,1,4.14,10.45,21.57,21.57,0,0,0,1.12-4.14.48.48,0,0,1,.44-.42.46.46,0,0,1,.5.34c1.08,3.57,1.95,8.67,0,12.74a8.37,8.37,0,0,1-.44.85,11.4,11.4,0,0,1,.78.94.69.69,0,0,1,.08.28V74.67s0,.09,0,.13a9.41,9.41,0,0,1-4.92,8.88A16.24,16.24,0,0,1,140.09,87c2,.17,4,.26,5.92.26,2.89,0,4.68-.2,4.7-.2a.47.47,0,0,1,.5.31"/><path class="cls-1" d="M7.58,197c.25,0,.88.06,1.49.06l1.49,0c.17,0,.3.06.3.14s-.09.2-.31.27c-.56.15-.55.32-.45.68.19.61,1.53,3.95,1.83,4.56,0,0,.1,0,.11,0,.1-.2,1.43-3.3,1.81-4.29.27-.74-.07-.79-.57-1-.14-.05-.27-.14-.27-.21s.13-.19.33-.19c.39,0,.65,0,1.07,0s.86,0,1.13,0,.37.07.37.17-.12.2-.33.24c-.57.14-.83.41-1.15,1.06s-1,2.13-1.8,4c-.42,1-.69,1.69-.94,2.46,0,.14-.22.32-.34.32s-.25-.21-.27-.3a17,17,0,0,0-.66-1.91c-.42-1.14-1.39-3.45-1.86-4.59-.27-.59-.46-.87-1-1-.15,0-.32-.09-.32-.23S7.39,197,7.58,197Z"/><path class="cls-1" d="M17.7,198.34c0-.6,0-.79-.65-.94-.3-.08-.38-.17-.38-.25s.18-.18.4-.18c.37,0,1,0,1.43,0,.62,0,1.06,0,1.49,0,.22,0,.39.05.39.18s-.17.21-.39.25c-.62.11-.66.44-.69.76s0,.76,0,2.91c0,1.52,0,2.05,0,2.43.05.74.13.89.83,1.08.22,0,.35.14.35.26s-.24.17-.39.17c-.5,0-1.36-.08-1.88-.07-.36,0-.74,0-1.2,0-.3,0-.39-.09-.39-.21s.11-.18.38-.24c.57-.14.66-.4.68-.94s.07-1.77.07-2.83C17.74,200.12,17.74,198.82,17.7,198.34Z"/><path class="cls-1" d="M28.86,197.06a5,5,0,0,0,.57.1c.05,0,.14.11.15.29,0,.36.19,1,.19,1.5,0,.17-.08.32-.21.32s-.17-.14-.24-.33a3.58,3.58,0,0,0-.48-.87,2.72,2.72,0,0,0-2-.86c-1.89,0-3,1.69-3,3.65a4.41,4.41,0,0,0,.52,2.25A3.08,3.08,0,0,0,27,204.75a1.63,1.63,0,0,0,.79-.26,1.17,1.17,0,0,0,.26-.88A7.56,7.56,0,0,0,28,202.5c-.08-.29-.18-.54-1-.61-.19,0-.37-.13-.37-.24s.18-.18.43-.18c.46,0,1.17.05,1.5.05s1-.07,1.46-.07c.24,0,.34.08.34.19s-.14.18-.29.23c-.43.12-.42.27-.44.44s-.06,1-.06,1.56c0,.17.05.22.2.37s.13.13.13.21a.25.25,0,0,1-.18.19c-.22.06-.64.18-1.14.28a14.62,14.62,0,0,1-1.86.25,5.13,5.13,0,0,1-3.36-1.09A4.07,4.07,0,0,1,22.07,201a3.86,3.86,0,0,1,1.39-3,5.18,5.18,0,0,1,3.36-1.14A7.86,7.86,0,0,1,28.86,197.06Z"/><path class="cls-1" d="M33.06,198.34c0-.6,0-.79-.65-.94-.31-.08-.38-.17-.38-.25s.18-.18.4-.18,1,0,1.43,0c.61,0,1,0,1.49,0,.21,0,.39.05.39.18s-.18.21-.39.25c-.63.11-.66.44-.69.76s0,.76,0,2.91c0,1.52,0,2.05,0,2.43.05.74.13.89.83,1.08.22,0,.35.14.35.26s-.24.17-.39.17c-.5,0-1.36-.08-1.88-.07-.36,0-.74,0-1.2,0-.3,0-.39-.09-.39-.21s.11-.18.37-.24c.58-.14.67-.4.69-.94s.07-1.77.07-2.83C33.1,200.12,33.1,198.82,33.06,198.34Z"/><path class="cls-1" d="M37.7,197,39,197c.49,0,1.35,0,1.65,0s.39.06.39.15-.15.2-.28.24c-.67.16-.77.35-.78.5a36.91,36.91,0,0,0-.09,3.75c0,.86,0,1.89.06,2.31s.4.48.45.49a7.62,7.62,0,0,0,1,.07,5,5,0,0,0,.9-.07.73.73,0,0,0,.39-.17,4.36,4.36,0,0,0,.79-1,.53.53,0,0,1,.34-.25c.09,0,.1.14,0,.34-.14.44-.32,1.13-.4,1.48a.64.64,0,0,1-.29.21c-.19,0-1.3-.09-3.85-.09-.6,0-1.46.08-1.85.08-.23,0-.38-.05-.38-.16s.11-.2.32-.24c.69-.13.8-.35.86-.91,0-.31.06-1.62.06-3.43,0-1.22,0-1.7,0-2.12s-.07-.62-.65-.76c-.24-.07-.35-.15-.35-.24S37.48,197,37.7,197Z"/><path class="cls-1" d="M49.78,197.07c.11.3.34.94.5,1.41.69,1.94,1.54,4.21,1.8,4.83.41,1,.68,1.14,1.11,1.27.21.06.33.14.33.23s-.13.18-.42.18-1.25-.05-1.64-.05l-1.23,0c-.25,0-.4-.08-.4-.19s.09-.16.33-.21c.51-.13.52-.33.5-.53a11.14,11.14,0,0,0-.58-1.83.36.36,0,0,0-.3-.18c-1.33,0-1.93,0-2.1,0s-.12.09-.14.13A6.31,6.31,0,0,0,47,204c0,.26.12.43.59.55.25.07.36.14.36.26s-.18.16-.38.16-.53,0-1,0-1,.05-1.24.05-.36-.07-.36-.15.05-.17.31-.25c.64-.17.78-.37,1.14-1.11s1.65-4.18,2.18-5.41a1.25,1.25,0,0,0,.07-.23s0-.08,0-.1a7.87,7.87,0,0,0,.65-.78.3.3,0,0,1,.23-.16C49.63,196.8,49.68,196.82,49.78,197.07Zm0,4.25c-.19-.59-.74-2.1-.92-2.52,0-.09-.1-.06-.14,0-.22.6-.82,2.18-.9,2.48a.12.12,0,0,0,.09.13c.49,0,1.41,0,1.82,0A.11.11,0,0,0,49.81,201.32Z"/><path class="cls-1" d="M62.1,198.11a4,4,0,0,1,1.17,2.74,4.1,4.1,0,0,1-2,3.52,6,6,0,0,1-2.87.68c-.51,0-1.76,0-2.5-.07h-.86c-.27,0-.41-.1-.41-.2s.17-.19.33-.22c.76-.1.84-.27.87-1.41,0-.69,0-1.19,0-1.73s0-2.06,0-2.9-.07-1-.76-1.1c-.14,0-.3-.12-.3-.21s.15-.19.34-.19h.65c.61,0,2-.1,3-.1A4.89,4.89,0,0,1,62.1,198.11Zm-4.57-.62a.21.21,0,0,0-.1.17c0,.31,0,1.11,0,2.21v1.81c0,.87,0,1.51,0,2.06a.81.81,0,0,0,.25.55,1.78,1.78,0,0,0,.84.34,2.89,2.89,0,0,0,1.88-.74,4,4,0,0,0,1.17-3,4,4,0,0,0-1-2.61,3.52,3.52,0,0,0-2.38-.89A1.3,1.3,0,0,0,57.53,197.49Z"/><path class="cls-1" d="M69,197.07c.11.3.33.94.5,1.41.69,1.94,1.54,4.21,1.79,4.83.41,1,.69,1.14,1.11,1.27.22.06.33.14.33.23s-.13.18-.41.18-1.26-.05-1.64-.05-.91,0-1.23,0-.4-.08-.4-.19.08-.16.32-.21c.52-.13.53-.33.5-.53a10.83,10.83,0,0,0-.57-1.83A.38.38,0,0,0,69,202c-1.33,0-1.93,0-2.11,0s-.11.09-.14.13a6.31,6.31,0,0,0-.54,1.81c0,.26.13.43.59.55.25.07.37.14.37.26s-.18.16-.38.16-.54,0-1,0-1.06.05-1.24.05-.37-.07-.37-.15.05-.17.32-.25c.64-.17.77-.37,1.13-1.11s1.66-4.18,2.19-5.41a1.28,1.28,0,0,0,.06-.23s0-.08,0-.1a9.56,9.56,0,0,0,.65-.78.28.28,0,0,1,.22-.16C68.79,196.8,68.84,196.82,69,197.07Zm0,4.25c-.19-.59-.74-2.1-.91-2.52,0-.09-.1-.06-.14,0-.23.6-.83,2.18-.9,2.48a.1.1,0,0,0,.08.13c.49,0,1.42,0,1.82,0A.11.11,0,0,0,69,201.32Z"/><path class="cls-1" d="M77.36,197c.78,0,1,0,2,0a.3.3,0,0,1,.14.18,7.43,7.43,0,0,0,.48,1.12c.62,1.29,1.8,3.76,2,4.08,0,0,.1.05.11,0,.29-.53,1.69-3.29,2.1-4.27a9,9,0,0,0,.36-1s.12-.19.15-.19c.87,0,1.88,0,2,0s.34,0,.34.15-.14.19-.36.24a2.63,2.63,0,0,0-.57.21c-.21.1-.3.36-.3,1,0,2.1.08,4.57.15,5.2.06.41.18.62.8.78.22,0,.34.18.34.27s-.19.19-.37.19-1.32-.07-1.77-.07l-1.19,0c-.2,0-.36,0-.36-.17s.17-.23.35-.27c.51-.12.55-.51.59-1s.07-3.85.06-4.48c0-.12-.08-.19-.13-.09-.41.82-1.46,3-1.83,3.88s-.59,1.39-.75,1.79-.29.39-.35.39-.18-.14-.24-.27-.23-.69-.46-1.28c-.66-1.61-1.75-3.95-2-4.42,0-.07-.08-.05-.08,0-.1.84-.21,3-.2,4.38,0,.71.13.87.77,1.07.26.09.36.16.36.28s-.15.17-.36.17c-.38,0-.85-.05-1.16-.05s-.83.05-1.11.05-.39,0-.39-.17.12-.16.34-.24c.69-.24.82-.4.94-1.28s.4-3.93.41-5.05c0-.16,0-.64-.47-.75a4.44,4.44,0,0,0-.52-.15c-.09,0-.26-.12-.26-.23S77.09,197,77.36,197Z"/><path class="cls-1" d="M89.74,198.34c0-.6,0-.79-.65-.94-.31-.08-.38-.17-.38-.25s.18-.18.4-.18,1,0,1.43,0c.61,0,1,0,1.49,0,.21,0,.39.05.39.18s-.18.21-.39.25c-.63.11-.66.44-.69.76s0,.76,0,2.91c0,1.52,0,2.05,0,2.43,0,.74.13.89.83,1.08.22,0,.35.14.35.26s-.24.17-.39.17c-.5,0-1.36-.08-1.88-.07-.37,0-.74,0-1.2,0s-.39-.09-.39-.21.11-.18.37-.24c.58-.14.67-.4.69-.94s.06-1.77.06-2.83C89.77,200.12,89.77,198.82,89.74,198.34Z"/><path class="cls-1" d="M94.12,197c.28,0,1.27,0,1.9,0a.71.71,0,0,1,.28.16l1,1.22c.62.75,3.07,3.29,3.74,4,.06.06.11,0,.11-.08.06-.36,0-1.78,0-2.83a13.06,13.06,0,0,0-.08-1.34c0-.25-.15-.54-.78-.71-.25-.06-.41-.13-.41-.28s.14-.15.36-.15h.86c.6,0,1.11-.06,1.44-.06s.3.07.3.16-.09.19-.31.25c-.66.22-.72.44-.78.94s-.13,3.62-.13,4.69c0,.52.08,1.63.08,1.95a.3.3,0,0,1-.2.24c-.27,0-.56-.32-.68-.48s-.48-.6-.81-1c-1.18-1.44-3.22-3.6-4.34-4.91-.06-.08-.14,0-.14.06,0,.34,0,.62-.06,1.62,0,1.74,0,2.69,0,3.31,0,.4.18.61.78.8.27.07.35.16.35.24s-.17.18-.41.18-.65-.05-1.09-.05L94,205c-.18,0-.33-.06-.33-.16s.15-.19.28-.23c.58-.17.88-.27.92-1.21.06-1.41.22-3.81.22-4.71A1.65,1.65,0,0,0,95,198a1.33,1.33,0,0,0-1-.61c-.14,0-.33-.13-.33-.21S93.89,197,94.12,197Z"/><path class="cls-1" d="M108.78,197a8.35,8.35,0,0,0,1.1-.08c.05,0,.14.08.15.17s0,1.09,0,1.34-.09.35-.21.35-.21-.19-.23-.31c-.17-.7-.52-.89-.81-.94a11,11,0,0,0-1.74-.08s-.15,0-.16.35-.06,2.06-.05,2.75a.14.14,0,0,0,.12.12h1c.89,0,.86-.05,1.1-.6.07-.19.16-.33.27-.33s.14.22.13.36c0,.35,0,.57,0,.86s0,.54,0,.85-.06.38-.16.38-.2-.15-.24-.28c-.16-.55-.33-.64-.81-.67s-.87,0-1.26,0c-.05,0-.16.12-.16.15a16.54,16.54,0,0,0,0,1.74c0,.3,0,.77.05,1a.49.49,0,0,0,.28.3,6.05,6.05,0,0,0,1,.07,3.91,3.91,0,0,0,1.16-.11,1.92,1.92,0,0,0,1-.92c.17-.33.29-.44.38-.44s.12.26.11.36a10.62,10.62,0,0,1-.48,1.45.46.46,0,0,1-.3.17c-.14,0-3.23-.07-4.18-.07s-1,.07-1.42.07c-.24,0-.43,0-.43-.17s.16-.2.38-.25c.64-.15.8-.27.85-1,0-.53.1-1.48.1-3s0-2.06,0-2.42-.13-.7-.67-.81c-.26,0-.4-.09-.4-.22s.21-.19.39-.19c.59,0,1.62,0,2.27,0Z"/><path class="cls-1" d="M119.59,198.11a4,4,0,0,1,1.18,2.74,4.12,4.12,0,0,1-2,3.52,6.05,6.05,0,0,1-2.87.68c-.52,0-1.77,0-2.51-.07h-.85c-.28,0-.42-.1-.42-.2s.18-.19.33-.22c.77-.1.84-.27.88-1.41,0-.69,0-1.19,0-1.73s0-2.06,0-2.9-.07-1-.76-1.1c-.14,0-.3-.12-.3-.21s.15-.19.34-.19h.65c.61,0,2.06-.1,3-.1A4.89,4.89,0,0,1,119.59,198.11Zm-4.56-.62a.19.19,0,0,0-.1.17c0,.31-.05,1.11-.05,2.21v1.81c0,.87,0,1.51.05,2.06a.77.77,0,0,0,.25.55,1.74,1.74,0,0,0,.84.34,2.91,2.91,0,0,0,1.88-.74,4.05,4.05,0,0,0,1.16-3,4,4,0,0,0-1-2.61,3.48,3.48,0,0,0-2.38-.89A1.26,1.26,0,0,0,115,197.49Z"/><path class="cls-1" d="M122.74,197c.53,0,1,0,1.47,0s1.17,0,1.44,0,.36.09.36.19-.13.2-.37.25c-.45.09-.6.24-.68.72s0,1.62,0,3.39c0,1.45.3,1.89.71,2.32a2.65,2.65,0,0,0,1.52.55,2,2,0,0,0,2.2-1.64,17.21,17.21,0,0,0,.23-3.45,6.35,6.35,0,0,0-.06-1.21c0-.38-.25-.58-.83-.72-.12,0-.34-.14-.34-.25s.13-.15.34-.15.76,0,1.16,0,.81,0,1.16,0c.2,0,.32.09.32.19s-.15.17-.33.21c-.61.15-.8.39-.81,1.18,0,.59-.08,2.08-.11,2.73-.08,2.12-.72,3-1.61,3.5a4,4,0,0,1-4.07-.38c-.71-.65-1-1.4-1-3.41,0-.94,0-2.89,0-3s-.15-.46-.62-.57c-.14,0-.34-.12-.34-.24S122.53,197,122.74,197Z"/><path class="cls-1" d="M139.11,197c.3.07.61.15.9.19.09,0,.19.14.19.33,0,.36,0,.79.06,1.16s-.08.47-.21.47-.18-.15-.24-.33a2,2,0,0,0-.53-.9,3,3,0,0,0-1.85-.72c-2,0-2.94,1.58-2.94,3.48a4.73,4.73,0,0,0,.43,2.12,3.11,3.11,0,0,0,2.81,1.87,2.68,2.68,0,0,0,1.21-.29,2.73,2.73,0,0,0,1.09-1.14c.15-.28.24-.39.34-.39s.14.33.1.46a5.56,5.56,0,0,1-.37,1.09,1,1,0,0,1-.46.41,6.79,6.79,0,0,1-2.19.36,5,5,0,0,1-3.68-1.42,4.09,4.09,0,0,1-1.06-2.82,4,4,0,0,1,1.38-3,5.35,5.35,0,0,1,3.39-1.12A7.34,7.34,0,0,1,139.11,197Z"/><path class="cls-1" d="M146.51,197.07c.11.3.33.94.5,1.41.69,1.94,1.54,4.21,1.79,4.83.41,1,.69,1.14,1.12,1.27.21.06.32.14.32.23s-.12.18-.41.18-1.26-.05-1.64-.05-.91,0-1.23,0-.4-.08-.4-.19.08-.16.32-.21c.52-.13.53-.33.5-.53a10,10,0,0,0-.57-1.83.38.38,0,0,0-.3-.18c-1.33,0-1.93,0-2.11,0s-.11.09-.14.13a6.31,6.31,0,0,0-.54,1.81c0,.26.13.43.59.55.25.07.37.14.37.26s-.18.16-.38.16-.54,0-1,0-1.06.05-1.24.05-.37-.07-.37-.15.05-.17.32-.25c.64-.17.77-.37,1.14-1.11s1.65-4.18,2.18-5.41a1.28,1.28,0,0,0,.06-.23s0-.08,0-.1a9.56,9.56,0,0,0,.65-.78.28.28,0,0,1,.22-.16C146.36,196.8,146.41,196.82,146.51,197.07Zm0,4.25c-.19-.59-.74-2.1-.91-2.52,0-.09-.1-.06-.14,0-.23.6-.83,2.18-.9,2.48a.11.11,0,0,0,.08.13c.49,0,1.42,0,1.82,0A.11.11,0,0,0,146.53,201.32Z"/><path class="cls-1" d="M157.67,197c.3.07.61.15.9.19.09,0,.19.14.19.33,0,.36,0,.79.06,1.16s-.07.47-.21.47-.18-.15-.24-.33a1.86,1.86,0,0,0-.53-.9,3,3,0,0,0-1.85-.72c-2,0-2.93,1.58-2.93,3.48a4.88,4.88,0,0,0,.42,2.12,3.11,3.11,0,0,0,2.81,1.87,2.71,2.71,0,0,0,1.22-.29,2.86,2.86,0,0,0,1.09-1.14c.15-.28.23-.39.33-.39s.14.33.11.46a6.28,6.28,0,0,1-.38,1.09,1.07,1.07,0,0,1-.45.41,6.85,6.85,0,0,1-2.19.36,5,5,0,0,1-3.69-1.42,4.09,4.09,0,0,1-1.05-2.82,4,4,0,0,1,1.37-3A5.35,5.35,0,0,1,156,196.8,7.27,7.27,0,0,1,157.67,197Z"/><path class="cls-1" d="M161.74,198.34c0-.6,0-.79-.66-.94-.3-.08-.37-.17-.37-.25s.17-.18.4-.18,1,0,1.43,0c.61,0,1.05,0,1.49,0,.21,0,.39.05.39.18s-.18.21-.39.25c-.63.11-.66.44-.69.76s-.05.76-.05,2.91c0,1.52,0,2.05,0,2.43,0,.74.12.89.83,1.08.22,0,.35.14.35.26s-.24.17-.39.17c-.5,0-1.36-.08-1.88-.07s-.74,0-1.21,0c-.3,0-.38-.09-.38-.21s.11-.18.37-.24c.58-.14.67-.4.69-.94s.06-1.77.06-2.83C161.77,200.12,161.77,198.82,161.74,198.34Z"/><path class="cls-1" d="M174.78,200.86a4.14,4.14,0,0,1-1.58,3.41,4.73,4.73,0,0,1-2.74.9,4.41,4.41,0,0,1-3.26-1.34,4.14,4.14,0,0,1-1.08-2.87,3.93,3.93,0,0,1,1.62-3.26,4.69,4.69,0,0,1,2.67-.9A4.14,4.14,0,0,1,174.78,200.86Zm-6.09-3a3.86,3.86,0,0,0-.88,2.8c0,1.93,1.18,4,3,4a1.81,1.81,0,0,0,1.28-.51,4.26,4.26,0,0,0,1-2.94,4.86,4.86,0,0,0-1.3-3.34,2.78,2.78,0,0,0-1.65-.68A2.2,2.2,0,0,0,168.69,197.88Zm3-3.44c.22.1.52.34.52.49s-.15.26-.29.33c-.68.32-1.47.67-2,.86-.07,0-.31.1-.43,0s0-.22.15-.33a20.84,20.84,0,0,1,1.67-1.26A.58.58,0,0,1,171.67,194.44Z"/><path class="cls-1" d="M176.63,197c.28,0,1.26,0,1.91,0a.74.74,0,0,1,.27.16l1.05,1.22c.62.75,3.08,3.29,3.74,4,.06.06.11,0,.11-.08.06-.36,0-1.78,0-2.83a13.06,13.06,0,0,0-.08-1.34c0-.25-.15-.54-.77-.71-.25-.06-.42-.13-.42-.28s.14-.15.36-.15h.86c.6,0,1.11-.06,1.44-.06s.3.07.3.16-.09.19-.32.25c-.65.22-.71.44-.77.94s-.13,3.62-.13,4.69c0,.52.08,1.63.08,1.95a.3.3,0,0,1-.2.24c-.26,0-.57-.32-.68-.48s-.47-.6-.81-1c-1.18-1.44-3.23-3.6-4.34-4.91-.06-.08-.14,0-.14.06,0,.34-.05.62-.06,1.62,0,1.74,0,2.69,0,3.31,0,.4.18.61.78.8.27.07.35.16.35.24s-.17.18-.41.18-.65-.05-1.09-.05l-1.19,0c-.18,0-.33-.06-.33-.16s.15-.19.28-.23c.58-.17.88-.27.91-1.21.06-1.41.23-3.81.23-4.71a1.65,1.65,0,0,0-.07-.7,1.33,1.33,0,0,0-1-.61c-.14,0-.33-.13-.33-.21S176.4,197,176.63,197Z"/><rect class="cls-1" y="193.18" width="1.9" height="14.5"/><rect class="cls-1" x="192.52" y="193.18" width="1.9" height="14.5"/><path class="cls-1" d="M75.64,170.22a20.71,20.71,0,0,1-.86,2.39,14.51,14.51,0,0,1-2.87.38c-3.82,0-5.7-2.53-5.7-5.22,0-3.2,2.44-5.4,6-5.4a16.36,16.36,0,0,1,3,.36c.07.71.17,1.69.3,2.45l-.51.11a2.68,2.68,0,0,0-1.51-2,4.08,4.08,0,0,0-1.6-.29c-2.52,0-3.84,1.91-3.84,4.47,0,3,1.55,4.93,4,4.93,1.54,0,2.34-.73,3.15-2.32Z"/><path class="cls-1" d="M80.52,165.69a3.37,3.37,0,0,1,3.44,3.5,3.51,3.51,0,0,1-3.45,3.75A3.46,3.46,0,0,1,77,169.43,3.6,3.6,0,0,1,80.52,165.69Zm-.19.54c-.9,0-1.73.89-1.73,2.72,0,2,.84,3.43,2.07,3.43.9,0,1.68-.65,1.68-2.82C82.35,167.67,81.64,166.23,80.33,166.23Z"/><path class="cls-1" d="M84.83,172.75v-.45c1-.1,1.09-.18,1.09-1.21v-7.42c0-.93-.08-1-1-1.16v-.42a12.83,12.83,0,0,0,2.42-.53v9.53c0,1,.09,1.11,1.08,1.21v.45Z"/><path class="cls-1" d="M92.76,165.69a3.38,3.38,0,0,1,3.45,3.5,3.52,3.52,0,0,1-3.46,3.75,3.45,3.45,0,0,1-3.51-3.51A3.59,3.59,0,0,1,92.76,165.69Zm-.19.54c-.9,0-1.72.89-1.72,2.72,0,2,.83,3.43,2.06,3.43.9,0,1.69-.65,1.69-2.82C94.6,167.67,93.88,166.23,92.57,166.23Z"/><path class="cls-1" d="M105.8,172.75v-.45c.87-.1,1-.16,1-1.23v-2.63c0-1.14-.42-1.76-1.3-1.76a2.68,2.68,0,0,0-1.63.75c0,.19,0,.39,0,.67v3.06c0,1,.12,1,1,1.14v.45h-3.38v-.45c.92-.1,1-.16,1-1.17v-2.71c0-1.15-.38-1.74-1.26-1.74a2.82,2.82,0,0,0-1.63.75v3.7c0,1,.11,1.07.94,1.17v.45h-3.4v-.45c1-.1,1.09-.16,1.09-1.18v-3.25c0-1-.06-1.05-.91-1.2v-.41a9.68,9.68,0,0,0,2.28-.62v1.25a11.16,11.16,0,0,1,1.12-.78,2.18,2.18,0,0,1,1.25-.42,1.81,1.81,0,0,1,1.72,1.26c.42-.33.81-.59,1.2-.86a2.5,2.5,0,0,1,1.24-.4c1.25,0,2,.88,2,2.42v3c0,1,.09,1.07,1,1.17v.45Z"/><path class="cls-1" d="M113.22,165.87a1.92,1.92,0,0,1,.76-.18,3.2,3.2,0,0,1,3.1,3.31,4,4,0,0,1-3.91,3.94,6.13,6.13,0,0,1-2.47-.56v-8.73c0-1-.06-1.06-1-1.13v-.43a14,14,0,0,0,2.41-.53v4.8ZM112.07,171a1.58,1.58,0,0,0,.08.54,1.72,1.72,0,0,0,1.47.82c1.26,0,1.92-1.11,1.92-2.91s-1.06-2.82-2.3-2.82a2.89,2.89,0,0,0-1.17.26Z"/><path class="cls-1" d="M118.06,172.75v-.45c1-.1,1.07-.17,1.07-1.25v-3.19c0-1,0-1-.95-1.19v-.4a11.51,11.51,0,0,0,2.33-.61v5.39c0,1.07.1,1.15,1.1,1.25v.45Zm1.67-8.52a.91.91,0,0,1-.89-.88.9.9,0,0,1,.9-.91.87.87,0,0,1,.86.91A.89.89,0,0,1,119.73,164.23Z"/><path class="cls-1" d="M127.39,172.94a1.18,1.18,0,0,1-.77-.3,1.36,1.36,0,0,1-.38-.68,5.2,5.2,0,0,1-1.84,1,1.94,1.94,0,0,1-2-1.94,1.57,1.57,0,0,1,1.27-1.56,12.25,12.25,0,0,0,2.48-1V168c0-1.06-.52-1.66-1.3-1.66a.87.87,0,0,0-.72.35,2.93,2.93,0,0,0-.41,1,.48.48,0,0,1-.5.39.8.8,0,0,1-.73-.71c0-.23.2-.42.52-.65a6.75,6.75,0,0,1,2.3-1.09,2.32,2.32,0,0,1,1.37.42,2.17,2.17,0,0,1,.81,1.84v3c0,.72.26.94.54.94a1.17,1.17,0,0,0,.55-.17l.15.46ZM126.2,169c-.34.17-1,.46-1.35.62-.58.27-.92.56-.92,1.13a1.12,1.12,0,0,0,1.09,1.2,1.85,1.85,0,0,0,1.18-.51Z"/></g></g></svg>