<svg xmlns="http://www.w3.org/2000/svg" viewBox="0 0 329.17 147.02"><defs><style>.cls-1{fill:#333;}</style></defs><g id="Capa_2" data-name="Capa 2"><g id="Capa_1-2" data-name="Capa 1"><path class="cls-1" d="M65.19,18.75c0,.61-.58,1.54-1.29,1.54s-1.29-.93-1.29-1.54.58-1.53,1.29-1.53,1.29.93,1.29,1.53m8,2.23c.5.06,1-.56,1-1s-.29-1.14-.8-1.2-1,.56-1,1,.3,1.14.8,1.19M54.43,18.8c-.5.06-.84.77-.79,1.2s.53,1,1,1,.84-.76.79-1.19-.52-1.05-1-1M291.1,99.51a2.22,2.22,0,0,0-1.11-2,4.76,4.76,0,0,0-2.29-.48c-.65,0-2.6.11-3.11.11h-1c-.2,0-.44.09-.44.21s.2.28.41.31c.83.16.92.29,1,.64a17.36,17.36,0,0,1,.1,2.41c0,3.17-.1,4.78-.13,5.12-.06.54-.13.78-1.1,1-.17,0-.44.13-.44.28s.22.25.51.25.63,0,1.21,0l2.91,0a5.77,5.77,0,0,0,2.85-.71,2.74,2.74,0,0,0-.56-5s-.06-.13,0-.15A2.37,2.37,0,0,0,291.1,99.51Zm-1.86.19a1.81,1.81,0,0,1-.76,1.52,3.78,3.78,0,0,1-1.86.39c-.1,0-.18-.13-.18-.21,0-2.69,0-3.16.06-3.42a.56.56,0,0,1,.15-.25,2.9,2.9,0,0,1,.56-.1A1.93,1.93,0,0,1,289.24,99.7Zm.43,4.8a2.2,2.2,0,0,1-1.94,2.36,1.69,1.69,0,0,1-1-.55,1.23,1.23,0,0,1-.21-.51c0-.48-.08-2.41-.06-2.83,0-.62.08-.7.12-.75a1.18,1.18,0,0,1,.54-.11,2.7,2.7,0,0,1,1.37.3A2.31,2.31,0,0,1,289.67,104.5Zm7.23-3.71a4,4,0,0,0-2.54.93,3.22,3.22,0,0,0-1.1,2.49,3.44,3.44,0,0,0,1.19,2.47,3.68,3.68,0,0,0,2.2.83,3.89,3.89,0,0,0,2.2-.65,3.34,3.34,0,0,0-2-6.07Zm-.3.53a1.51,1.51,0,0,1,1.15.64,4.58,4.58,0,0,1,.63,2.43,3.9,3.9,0,0,1-.58,2.19,1.09,1.09,0,0,1-.7.41c-.67,0-1.41-.55-1.74-1.67a5.55,5.55,0,0,1-.19-1.54,2.92,2.92,0,0,1,.65-2.11A1.13,1.13,0,0,1,296.6,101.32Zm8-.59a3.15,3.15,0,0,0-1.92.58,2.21,2.21,0,0,0-1,1.81,2.27,2.27,0,0,0,1.29,2c.07,0,.07.14,0,.16a9.57,9.57,0,0,1-1.29.91.39.39,0,0,0-.12.2,1.48,1.48,0,0,0,.62,1.26,2.71,2.71,0,0,0,.66.31c.06,0,0,.08,0,.11-.21.15-.7.45-1,.66a1,1,0,0,0-.49,1,1.85,1.85,0,0,0,.84,1.44,3.38,3.38,0,0,0,2,.55,4.52,4.52,0,0,0,2.43-.71,3.21,3.21,0,0,0,1.64-2.57,2,2,0,0,0-.69-1.47,2.14,2.14,0,0,0-.81-.39c-.46-.06-2.29-.11-3-.14-.2,0-.59-.29-.59-.6a.69.69,0,0,1,.3-.41c.05-.05.11-.05.22,0l.64,0a3.4,3.4,0,0,0,1.93-.61,2.36,2.36,0,0,0,.9-2,3.22,3.22,0,0,0-.09-.69.1.1,0,0,1,.09-.13c.39,0,.83,0,.93,0a1,1,0,0,0,.35-.61.22.22,0,0,0-.16-.19c-.27,0-1.44-.11-1.8-.11l-.43-.11A4.89,4.89,0,0,0,304.64,100.73Zm.37,10.19a2.45,2.45,0,0,1-1.54-.47,1.44,1.44,0,0,1-.56-1.14,1.42,1.42,0,0,1,.48-1,1.41,1.41,0,0,1,.76-.19,9.79,9.79,0,0,1,1.66.08,1.44,1.44,0,0,1,.89.42,1.24,1.24,0,0,1,.27.79,1.45,1.45,0,0,1-.72,1.26A2.6,2.6,0,0,1,305,110.92Zm-.52-9.74a1.11,1.11,0,0,1,.86.59,3.17,3.17,0,0,1,.35,1.32,2.62,2.62,0,0,1-.43,1.62,1.06,1.06,0,0,1-.5.24c-.76,0-1.27-1-1.27-2.07a2.21,2.21,0,0,1,.37-1.37A.78.78,0,0,1,304.49,101.18Zm8.26-.39a4,4,0,0,0-2.55.93,3.24,3.24,0,0,0-1.09,2.49,3.44,3.44,0,0,0,1.19,2.47,3.68,3.68,0,0,0,2.2.83,3.89,3.89,0,0,0,2.2-.65,3.39,3.39,0,0,0,1.41-2.73A3.35,3.35,0,0,0,312.75,100.79Zm-.3.53a1.51,1.51,0,0,1,1.15.64,4.58,4.58,0,0,1,.63,2.43,3.81,3.81,0,0,1-.59,2.19,1.07,1.07,0,0,1-.7.41c-.67,0-1.4-.55-1.73-1.67a5.55,5.55,0,0,1-.19-1.54,2.88,2.88,0,0,1,.65-2.11A1.11,1.11,0,0,1,312.45,101.32Zm7.49-.3a.19.19,0,0,1-.15-.15v-.8c0-.11-.2-.27-.32-.27s-.17.13-.36.35a10.25,10.25,0,0,1-1.67,1.28.15.15,0,0,0-.08.15.3.3,0,0,0,.19.27c.33.13.6.24.6.35,0,.56-.06,2.89-.06,3.49a1.57,1.57,0,0,0,.29,1.13,1.86,1.86,0,0,0,1.48.69,2.47,2.47,0,0,0,1.81-.75.92.92,0,0,0,.26-.47c0-.17-.07-.25-.12-.25a.57.57,0,0,0-.27.11,1.94,1.94,0,0,1-.7.22,1.34,1.34,0,0,1-.78-.27.9.9,0,0,1-.25-.75c0-.95,0-2.44,0-3.24A.18.18,0,0,1,320,102h1.52c.11,0,.41,0,.41-.19s-.05-.7-.05-.66c0-.11-.17-.17-.24-.17S320.29,101,319.94,101Zm6-.23a4.07,4.07,0,0,0-1.59.59c-1,.65-1.34,1.08-1.34,1.54a.26.26,0,0,0,.21.23,8.62,8.62,0,0,0,1.4-.64.21.21,0,0,0,.06-.15c0-.54,0-.7.1-.73a.8.8,0,0,1,.51-.12,1.09,1.09,0,0,1,1.06,1,12.37,12.37,0,0,1,0,1.24c0,.06-.09.17-.28.24-.37.11-1.82.51-2.17.65a1.32,1.32,0,0,0-.57.39,1.48,1.48,0,0,0-.29.82,1.53,1.53,0,0,0,1.23,1.62,2.71,2.71,0,0,0,.7-.13,9,9,0,0,0,1.26-.67s.12,0,.14.06a1.15,1.15,0,0,0,1.19.77,1.81,1.81,0,0,0,1.64-1.09.7.7,0,0,0,0-.23s-.05,0-.1,0a3.7,3.7,0,0,1-.56.19.59.59,0,0,1-.59-.64c0-.18.07-2.09.07-2.71a2.21,2.21,0,0,0-.35-1.38A1.87,1.87,0,0,0,325.94,100.79Zm-.45,5.75a1,1,0,0,1-.87-1c0-.42.09-.5.29-.64a3.61,3.61,0,0,1,1.29-.42s.11.1.11.16c0,.53,0,1.2-.07,1.43a.49.49,0,0,1-.14.3A1.42,1.42,0,0,1,325.49,106.54Zm.86-9.39c-.24.48-.87,2-1.06,2.55-.1.29-.08.5.06.5a.72.72,0,0,0,.43-.26,21.16,21.16,0,0,0,1.61-2.39.71.71,0,0,0,.11-.45c0-.21-.48-.24-.68-.24A.57.57,0,0,0,326.35,97.15ZM149,46.39a1,1,0,0,0-.55.18,1.2,1.2,0,0,0-.18.73c0,.4,0,2.82,0,5,0,1.75,0,3.3,0,3.78,0,1.24.16,1.44,1.17,1.73.36.09.5.21.5.38s-.35.23-.62.23c-.49,0-1.26-.07-2.1-.07-.56,0-1.39.07-2,.07-.37,0-.59-.09-.59-.29s.22-.25.42-.3c1-.24,1.26-.61,1.3-1.42s.1-2.45.1-3.42c0-.63,0-4.77-.06-5.37s0-1-1.09-1.14c-.37,0-.56-.18-.56-.29s.17-.23.42-.25.46,0,.63,0c.87,0,2.38-.16,3.31-.16a5,5,0,0,1,3.64,1.14,3.87,3.87,0,0,1-.19,5.61,3.85,3.85,0,0,1-2.23.85,4.27,4.27,0,0,1-1-.14c-.2-.09-.32-.21-.32-.33s.09-.17.25-.17h.42c1,0,2.36-.93,2.36-3.09a3.15,3.15,0,0,0-3-3.27m8.25,5.26a1.93,1.93,0,0,1,1.19-.52,2.35,2.35,0,0,1,1.57.75,4.74,4.74,0,0,1,.9,3,4.4,4.4,0,0,1-.82,2.57,1.72,1.72,0,0,1-1.1.6,2.72,2.72,0,0,1-2.4-2.11,5.44,5.44,0,0,1-.23-1.74,3.66,3.66,0,0,1,.89-2.51m5.44,2.84a3.91,3.91,0,0,0-3.89-4,4.32,4.32,0,0,0-2.88,1.08,3.78,3.78,0,0,0-1.34,3,4.13,4.13,0,0,0,4,4,4.09,4.09,0,0,0,2.46-.77,4.16,4.16,0,0,0,1.66-3.33m1.86-3.38a9.27,9.27,0,0,0,1.35-.56,1.28,1.28,0,0,1,.51-.23c.08,0,.18.21.18.29,0,.29-.06.77-.06,1s.11,0,.11,0a5,5,0,0,1,2.56-1.06,2.2,2.2,0,0,1,1.74.73,3.7,3.7,0,0,1,.67,2.36c0,.39,0,3.25.06,3.52s.23.54.71.68.48.21.48.32-.27.24-.56.24c-.46,0-1,0-1.49,0s-1.12,0-1.37,0-.48-.06-.48-.24.22-.25.47-.32c.44-.18.55-.35.59-1s0-3,0-3.54a2,2,0,0,0-.52-1.37,2.41,2.41,0,0,0-1.21-.37,2.29,2.29,0,0,0-1.61.56.78.78,0,0,0-.19.47c0,.25,0,4.41,0,4.63s.09.43.69.61c.19,0,.35.19.35.31s-.22.23-.5.23l-1.23,0c-.71,0-1.31,0-1.63,0s-.5-.09-.5-.26.19-.24.4-.29c.63-.2.73-.39.79-1.09s.11-2.24.11-4.19c0-.21-.07-.41-.48-.76-.25-.19-.32-.26-.32-.33s.19-.32.32-.38m14-.39s.21.1.23.18a6.87,6.87,0,0,1,.06.73c0,.19-.37.23-.5.23h-2.06a.2.2,0,0,0-.15.14c0,.5-.06,3.13-.06,4.1a1.19,1.19,0,0,0,.35.94,1.61,1.61,0,0,0,1.11.37,2,2,0,0,0,.92-.29.54.54,0,0,1,.31-.11s.09,0,.09.21a.84.84,0,0,1-.26.5,2.87,2.87,0,0,1-2.08.87,2.13,2.13,0,0,1-1.72-.89,2.21,2.21,0,0,1-.25-1.29c0-.72.08-3.62.08-4.3,0-.13-.35-.27-.75-.36a.35.35,0,0,1-.25-.26.26.26,0,0,1,.11-.21,10.23,10.23,0,0,0,1.63-1.37c.23-.25.37-.43.45-.43a.45.45,0,0,1,.28.24v.92a.22.22,0,0,0,.17.16c.43,0,2.21-.08,2.29-.08m4-3.13c0-.37-.31-1-.87-1a1.19,1.19,0,0,0-.8.3,1.2,1.2,0,0,0-.25.71,1,1,0,0,0,.31.74,1.16,1.16,0,0,0,.65.25,1.08,1.08,0,0,0,1-1m-2.29,3.54c-.21.06-.4.21-.4.35s.06.13.17.23c.54.38.75.56.77.69s0,2.63,0,2.75a20.57,20.57,0,0,1-.08,2.2c-.05.2-.32.43-.76.56s-.47.18-.47.29.22.23.51.23,1.05-.07,1.68-.07c.41,0,1.36,0,1.5,0s.48-.07.48-.21-.12-.23-.42-.33c-.48-.15-.87-.21-.89-.81s0-1.45,0-2.43.09-3.66.11-4c0,0-.1-.21-.19-.21-.29.08-1.25.5-2,.66m9-.33a6.49,6.49,0,0,0,2.42-.25,2.38,2.38,0,0,1,.59-.12c.13,0,.08.53.08,1.65,0,3.49,0,4.31,0,5.1,0,.4.25.5.8.68.38.13.43.19.43.32s-.24.23-.47.23c-.42,0-1,0-1.51,0-.65,0-1.23.07-1.65.07-.21,0-.38,0-.38-.23s.11-.19.42-.33c.47-.19.67-.37.69-.69.06-1.22.08-4.33.08-5.16a.4.4,0,0,0-.24-.29,22.81,22.81,0,0,0-3.1,0,.3.3,0,0,0-.2.25c0,.56,0,3.86.06,4.91,0,.61.12.71,1,1,.31.1.4.19.4.31s-.13.23-.42.23-1.19,0-1.8,0-1.38.1-1.63.1-.38-.12-.38-.24.13-.23.38-.29c.65-.19.75-.33.82-1,0-.43,0-3.5,0-4.91,0-.06-.09-.24-.19-.26l-.69-.07c-.1,0-.17-.14-.15-.22s.27-.34.86-.65c.1-.08.19-.18.19-.27a7.29,7.29,0,0,1,.54-2.88,5.59,5.59,0,0,1,1.7-2.19,4.11,4.11,0,0,1,2.48-.91,2.35,2.35,0,0,1,2,.85.7.7,0,0,1,.17.49c0,.46-.74,1-1,1s-.41-.23-.75-.58a2.39,2.39,0,0,0-1.61-.73,1.38,1.38,0,0,0-1.15.54c-.44.52-.86,1.86-.86,4.47a.25.25,0,0,0,.24.19c.29,0,1.58,0,1.73,0m11.54.23a.89.89,0,0,1,.29.62c0,.31-.57.79-.65.79a1.63,1.63,0,0,1-.77-.38c-.61-.45-1-.78-1.6-.78a1.83,1.83,0,0,0-1.12.6,3.54,3.54,0,0,0-.79,2.28,3.36,3.36,0,0,0,.54,1.94A2.67,2.67,0,0,0,199,57.33a3,3,0,0,0,1.73-.58c.19-.13.34-.08.34,0a.84.84,0,0,1-.26.58,3.92,3.92,0,0,1-2.8,1.22A3.39,3.39,0,0,1,195.15,57a4.57,4.57,0,0,1-.62-2.26,4,4,0,0,1,1.88-3.34,5.38,5.38,0,0,1,2.54-.81,3.7,3.7,0,0,1,1.81.42m4.3-3.44c0-.37-.31-1-.86-1a1,1,0,0,0-1.06,1,1.08,1.08,0,0,0,.31.74,1.19,1.19,0,0,0,.65.25,1.07,1.07,0,0,0,1-1m-2.28,3.54c-.21.06-.4.21-.4.35s.05.13.17.23c.54.38.75.56.77.69s0,2.63,0,2.75a20.57,20.57,0,0,1-.08,2.2,1.09,1.09,0,0,1-.77.56c-.33.08-.46.18-.46.29s.21.23.5.23,1.06-.07,1.69-.07c.4,0,1.36,0,1.49,0s.48-.07.48-.21-.11-.23-.42-.33c-.48-.15-.86-.21-.88-.81s0-1.45,0-2.43.1-3.66.12-4c0,0-.1-.21-.19-.21-.29.08-1.25.5-2,.66m8.11,6.07a2.08,2.08,0,0,1-1,.3,1.16,1.16,0,0,1-1.15-1.15c0-.49.16-.62.37-.74A5,5,0,0,1,211,55c.05,0,.13.1.13.16,0,.44,0,1.14,0,1.55,0,0-.11.4-.23.46m1.38-5.72a2,2,0,0,0-1.78-.95,4.17,4.17,0,0,0-1.8.73c-1,.64-1.48,1.18-1.48,1.72a.29.29,0,0,0,.23.27,7.94,7.94,0,0,0,1.34-.67.39.39,0,0,0,.1-.19c0-.45,0-.76.13-.82a1.39,1.39,0,0,1,.75-.19,1.44,1.44,0,0,1,1.46,1.27c0,.24,0,1.4,0,1.57s-.11.21-.52.35-2,.56-2.3.69a1.81,1.81,0,0,0-.77.47,1.75,1.75,0,0,0-.36,1c0,1,.67,1.81,1.37,1.81a3.16,3.16,0,0,0,.78-.12,7.88,7.88,0,0,0,1.69-.87s.11,0,.13.08a1.27,1.27,0,0,0,1.25,1,2,2,0,0,0,1.78-1.22.47.47,0,0,0,0-.21c0-.06-.06-.08-.11-.06a3.23,3.23,0,0,1-.73.29c-.19,0-.75-.12-.75-.93,0-.21.08-2.61.08-3.36a2.51,2.51,0,0,0-.41-1.62m6.93-5.57c.8,0,1.34.06,2.05.06s1.5,0,1.92,0,.57.08.57.23-.19.27-.55.35c-.69.13-1,.35-1.15,1.12S222,50.24,222,53c0,2.21.48,3,1.09,3.68a4.11,4.11,0,0,0,2.67,1A3.38,3.38,0,0,0,229.27,55a23.75,23.75,0,0,0,.4-4.93,22.3,22.3,0,0,0-.08-2.37c-.05-.71-.22-1-1.26-1.24-.19,0-.44-.19-.44-.33s.13-.21.48-.21,1,.06,1.65.06c.78,0,1.2,0,1.74,0,.31,0,.48.08.48.23s-.17.23-.44.33c-.85.25-1.23.58-1.25,1.78,0,.87-.13,3-.17,4-.12,3.36-1,5-2.4,5.75a5.5,5.5,0,0,1-2.74.61,5.3,5.3,0,0,1-3.49-1.15c-1.08-1-1.55-2.39-1.55-5.6,0-2.51,0-4.35-.06-4.6s-.31-.68-1-.83c-.23-.06-.44-.18-.44-.35s.23-.23.54-.23m13.58,5.2a9.62,9.62,0,0,0,1.34-.56,1.31,1.31,0,0,1,.52-.23c.07,0,.17.21.17.29,0,.29-.06.77-.06,1s.12,0,.12,0a4.93,4.93,0,0,1,2.55-1.06,2.2,2.2,0,0,1,1.74.73,3.71,3.71,0,0,1,.68,2.36c0,.39,0,3.25,0,3.52s.23.54.71.68.48.21.48.32-.27.24-.56.24c-.46,0-1,0-1.49,0s-1.11,0-1.36,0-.48-.06-.48-.24.21-.25.46-.32c.44-.18.56-.35.6-1s0-3,0-3.54a2,2,0,0,0-.52-1.37,2.37,2.37,0,0,0-1.2-.37,2.3,2.3,0,0,0-1.62.56.85.85,0,0,0-.19.47c0,.25,0,4.41,0,4.63s.1.43.69.61c.2,0,.35.19.35.31s-.21.23-.5.23l-1.23,0c-.71,0-1.3,0-1.63,0s-.5-.09-.5-.26.19-.24.4-.29c.64-.2.74-.39.79-1.09s.12-2.24.12-4.19c0-.21-.08-.41-.48-.76-.25-.19-.33-.26-.33-.33s.2-.32.33-.38m12.31-3.52c0-.37-.31-1-.87-1a1.19,1.19,0,0,0-.8.3,1.2,1.2,0,0,0-.25.71,1.08,1.08,0,0,0,.31.74,1.19,1.19,0,0,0,.65.25,1.08,1.08,0,0,0,1-1m-2.28,3.54c-.21.06-.41.21-.41.35s.06.13.18.23c.54.38.75.56.77.69s0,2.63,0,2.75a21.14,21.14,0,0,1-.07,2.2,1.09,1.09,0,0,1-.77.56c-.33.08-.46.18-.46.29s.21.23.5.23,1.05-.07,1.68-.07c.41,0,1.37,0,1.5,0s.48-.07.48-.21-.11-.23-.42-.33c-.48-.15-.86-.21-.88-.81s0-1.45,0-2.43.1-3.66.11-4c0,0-.09-.21-.19-.21-.29.08-1.25.5-2,.66m4-.43c.32,0,1.45.1,1.67.1.5,0,1,0,1.22,0s.45.08.45.21-.18.23-.43.31c-.54.16-.5.41-.4.66a27.84,27.84,0,0,0,1.65,4c.06.06.11,0,.15-.07.25-.55,1.25-3.18,1.44-3.77s0-.62-.6-.83c-.17-.06-.32-.14-.32-.27s.13-.22.39-.22.59.06,1,.06.94-.1,1.3-.1c.18,0,.39.1.39.22s-.12.19-.43.31a2.06,2.06,0,0,0-1,.79c-.33.52-1,2.28-1.58,3.63s-.56,1.57-.88,2.57c-.1.29-.31.5-.46.5s-.21-.13-.27-.34c-.19-.6-.27-.88-.71-2a43.25,43.25,0,0,0-2-4.49,1.24,1.24,0,0,0-.82-.66c-.29-.11-.38-.19-.38-.32s.29-.22.48-.22m10,1.84a2.08,2.08,0,0,1,1.9-1.49,1.28,1.28,0,0,1,1.22,1.18c0,.41-.23.52-.65.52-1,0-1.88,0-2.37,0-.07,0-.14-.11-.1-.21m4-1.23a2.83,2.83,0,0,0-1.94-.74,3.85,3.85,0,0,0-1.5.33,4.16,4.16,0,0,0-2.32,3.8c0,2.25,1.36,3.85,3.46,3.85a3.3,3.3,0,0,0,2.85-1.49,1.23,1.23,0,0,0,.15-.48c0-.08-.05-.23-.16-.23s-.18.13-.25.23a1.94,1.94,0,0,1-1.73.69,2.77,2.77,0,0,1-2.17-1,4,4,0,0,1-.69-2.11,2.28,2.28,0,0,1,.08-.67.21.21,0,0,1,.17-.15h4.34a.46.46,0,0,0,.38-.37,2.28,2.28,0,0,0-.67-1.63m2.2-.06a15,15,0,0,0,1.54-.66c.23-.16.34-.22.4-.22s.19.16.19.22c0,.34,0,.69,0,1.06,0,.08.1.12.12.08a3.77,3.77,0,0,1,2.16-1.2c.81,0,1,.5,1,.67a.88.88,0,0,1-.11.29,4.78,4.78,0,0,1-.82.95.65.65,0,0,1-.3,0,1.87,1.87,0,0,0-1.09-.45,1,1,0,0,0-.75.23.64.64,0,0,0-.19.43c0,.38.08,3.85.1,4.13,0,.57.17.93.49,1a8.38,8.38,0,0,1,.87.21c.31.1.36.23.36.31s-.17.2-.47.2c-.5,0-1.25-.1-2.36-.1-.54,0-.81.07-1.27.07-.21,0-.41-.07-.41-.25s.26-.19.39-.25c.73-.25.79-.44.8-1.6v-3.6a.71.71,0,0,0-.19-.62c-.42-.33-.67-.48-.67-.55a.39.39,0,0,1,.25-.31m10-.61a3.67,3.67,0,0,1,.62.22.5.5,0,0,1,.17.29c0,.33.06,1,.06,1.16s-.1.36-.23.36-.23-.15-.33-.36c-.42-.89-.92-1.28-1.55-1.28a1.19,1.19,0,0,0-1.1,1.14c0,.68.64,1.16,1.85,1.84s1.57,1.35,1.57,2.22a2.36,2.36,0,0,1-1.14,1.9,3.37,3.37,0,0,1-1.66.46,3.84,3.84,0,0,1-1.88-.43,4.71,4.71,0,0,1-.31-1.49c0-.25.06-.42.15-.42s.31.23.43.45c.55,1,1.11,1.39,1.76,1.39a1.24,1.24,0,0,0,.77-.3,1.34,1.34,0,0,0,.44-1,1.47,1.47,0,0,0-.84-1.23c-.48-.34-.62-.45-1.23-.82a2.44,2.44,0,0,1-1.21-2,2.1,2.1,0,0,1,1.07-1.8,3.1,3.1,0,0,1,1.59-.4,5.15,5.15,0,0,1,1,.11m5.2-3c0-.37-.31-1-.86-1a1,1,0,0,0-1.06,1,1.08,1.08,0,0,0,.31.74,1.16,1.16,0,0,0,.65.25,1.08,1.08,0,0,0,1-1M276,51.13c-.21.06-.41.21-.41.35s.07.13.18.23c.53.38.75.56.77.69s0,2.63,0,2.75a21.14,21.14,0,0,1-.07,2.2,1.09,1.09,0,0,1-.77.56c-.32.08-.46.18-.46.29s.21.23.5.23,1-.07,1.69-.07c.4,0,1.36,0,1.49,0s.48-.07.48-.21-.11-.23-.42-.33c-.48-.15-.86-.21-.88-.81s0-1.45,0-2.43.1-3.66.12-4c0,0-.1-.21-.2-.21a20.71,20.71,0,0,1-2,.66m6.75.71a2.05,2.05,0,0,1,1.42-.64,2.56,2.56,0,0,1,1.63.76,1.81,1.81,0,0,1,.4.76c.08.86.08,2.1.06,3.22a3.15,3.15,0,0,1-.31,1.2,2,2,0,0,1-1.3.42c-1.61,0-2.69-1.73-2.69-3.3a3.93,3.93,0,0,1,.79-2.42M286,50.61a7.57,7.57,0,0,0-1.19-.06,5.25,5.25,0,0,0-2.53.73,4,4,0,0,0-2.06,3.56,3.88,3.88,0,0,0,1,2.66,3.17,3.17,0,0,0,2.37,1,3.84,3.84,0,0,0,2.46-1,.13.13,0,0,1,.11.14c0,.27,0,.6,0,.77s.14.26.21.26a2.58,2.58,0,0,0,.73-.2,14,14,0,0,1,1.79-.39.85.85,0,0,0,.34-.5.14.14,0,0,0-.12-.11c-.18,0-.8.13-1,.13s-.27-.1-.31-.91c0-.36-.05-.36-.05-4.27,0-5.58.09-6.61.17-7.58a.34.34,0,0,0-.13-.3.62.62,0,0,0-.27.05,15.31,15.31,0,0,1-2.07.56c-.12,0-.33.23-.33.31s0,.1.21.2c.86.44.86.67.88.79a31.31,31.31,0,0,1,0,3.88c0,.08-.08.21-.15.2m7.71,6.59a2.15,2.15,0,0,1-1,.3,1.16,1.16,0,0,1-1.15-1.15c0-.49.15-.62.36-.74a5,5,0,0,1,1.9-.58c.06,0,.14.1.14.16,0,.44,0,1.14,0,1.55,0,0-.12.4-.23.46m1.38-5.72a2,2,0,0,0-1.78-.95,4.25,4.25,0,0,0-1.81.73c-1,.64-1.47,1.18-1.47,1.72,0,.12.11.27.22.27a8,8,0,0,0,1.35-.67.37.37,0,0,0,.09-.19c0-.45,0-.76.14-.82a1.34,1.34,0,0,1,.75-.19,1.44,1.44,0,0,1,1.46,1.27c0,.24,0,1.4,0,1.57s-.12.21-.52.35-2,.56-2.3.69a1.81,1.81,0,0,0-.77.47,1.75,1.75,0,0,0-.36,1c0,1,.67,1.81,1.36,1.81a3.09,3.09,0,0,0,.78-.12,7.88,7.88,0,0,0,1.69-.87.17.17,0,0,1,.14.08,1.26,1.26,0,0,0,1.24,1,2,2,0,0,0,1.79-1.22.47.47,0,0,0,0-.21c0-.06-.06-.08-.12-.06a3.06,3.06,0,0,1-.73.29c-.19,0-.75-.12-.75-.93,0-.21.08-2.61.08-3.36a2.51,2.51,0,0,0-.4-1.62m4.95.36a2.05,2.05,0,0,1,1.42-.64,2.58,2.58,0,0,1,1.63.76,1.81,1.81,0,0,1,.4.76c.08.86.08,2.1.06,3.22a3.15,3.15,0,0,1-.31,1.2,2,2,0,0,1-1.31.42c-1.6,0-2.68-1.73-2.68-3.3a3.86,3.86,0,0,1,.79-2.42m3.32-1.23a7.57,7.57,0,0,0-1.19-.06,5.31,5.31,0,0,0-2.54.73,4,4,0,0,0-2.05,3.56,3.92,3.92,0,0,0,1,2.66,3.21,3.21,0,0,0,2.38,1,3.84,3.84,0,0,0,2.46-1,.13.13,0,0,1,.11.14c0,.27,0,.6,0,.77s.14.26.21.26a2.58,2.58,0,0,0,.73-.2,13.8,13.8,0,0,1,1.78-.39.82.82,0,0,0,.35-.5s0-.11-.11-.11-.81.13-1,.13-.27-.1-.31-.91c0-.36-.06-.36-.06-4.27,0-5.58.1-6.61.18-7.58a.32.32,0,0,0-.14-.3.58.58,0,0,0-.26.05,15.43,15.43,0,0,1-2.08.56c-.11,0-.33.23-.33.31s.05.1.22.2c.86.44.86.67.88.79a33.38,33.38,0,0,1,0,3.88c0,.08-.08.21-.15.2M142.06,91.16a2.24,2.24,0,0,1,.94-.49,2.44,2.44,0,0,1,1,.36,4.36,4.36,0,0,0,2,.94,1,1,0,0,0,.87-.39,4.22,4.22,0,0,0,.65-2.12c.13-1.85.09-6.09.09-10.78s-.09-7.93-.16-9.3c0-.62-.35-1.3-1.81-1.66-.71-.16-1-.46-1-.72s.25-.46,1-.46c1,0,2.3.14,3.69.14,1.78,0,2.94-.1,3.95-.1.48,0,.9.12.9.39s-.2.52-1,.71c-1.1.27-1.52.69-1.55,2.29,0,2.67-.17,11.25-.23,14a11.22,11.22,0,0,1-4.08,8.62,7.89,7.89,0,0,1-4,1.66c-1,0-2.33-.56-2.33-1.47a4,4,0,0,1,1-1.63m25.81-13.27a.26.26,0,0,1-.13.26c-1,0-3.44,0-4.7.07a.28.28,0,0,1-.22-.33c.19-.78,1.74-4.89,2.32-6.46.11-.26.3-.32.36-.09.46,1.07,1.88,5,2.37,6.55m-.07-11c-.26-.65-.39-.72-.55-.72a.8.8,0,0,0-.58.42,21.83,21.83,0,0,1-1.68,2c-.1.06-.07.16-.07.26a2.53,2.53,0,0,1-.16.58c-1.36,3.23-4.86,12.52-5.63,14.09-.94,1.92-1.29,2.44-2.95,2.9-.67.2-.8.42-.8.65s.19.39.93.39c.49,0,1.95-.13,3.21-.13s2,.07,2.59.07,1-.16,1-.42-.29-.5-.94-.66c-1.2-.32-1.52-.78-1.52-1.43A16.31,16.31,0,0,1,162,80.14c.06-.1.26-.33.36-.33.45,0,2-.13,5.43-.09a1,1,0,0,1,.78.48A28.26,28.26,0,0,1,170.06,85c.07.52,0,1-1.29,1.36-.62.13-.84.39-.84.56s.39.49,1,.49c.84,0,2.1-.07,3.16-.07s3.44.13,4.24.13,1.07-.26,1.07-.48-.29-.43-.84-.59c-1.1-.33-1.81-.66-2.88-3.3-.65-1.63-2.85-7.53-4.63-12.58-.42-1.21-1-2.87-1.29-3.65m8.28-.33c.65,0,2.26.17,3.85.17,1.1,0,3.1-.07,3.85-.07.42,0,.77.16.77.39s-.22.52-.8.68c-1.46.4-1.43.85-1.17,1.77.49,1.59,3.95,10.27,4.73,11.87.06.09.25.09.29,0,.26-.53,3.69-8.58,4.65-11.16.72-1.93-.16-2-1.45-2.54-.36-.13-.71-.36-.71-.56s.35-.48.87-.48c1,0,1.68.1,2.75.1s2.23-.14,2.91-.14,1,.2,1,.46-.32.52-.87.62c-1.46.36-2.13,1-2.95,2.74s-2.71,5.54-4.65,10.37c-1.07,2.57-1.78,4.4-2.43,6.39-.13.36-.55.85-.87.85s-.65-.56-.72-.79a41.17,41.17,0,0,0-1.68-5c-1.1-3-3.59-9-4.82-11.93-.68-1.53-1.16-2.25-2.62-2.67-.39-.1-.84-.23-.84-.59s.45-.49.94-.49m36.21.17a25.88,25.88,0,0,0,2.85-.2c.12,0,.35.2.38.42,0,.59,0,2.84,0,3.49,0,.46-.23.91-.52.91s-.55-.48-.62-.81c-.42-1.83-1.32-2.32-2.07-2.45a30.61,30.61,0,0,0-4.49-.19c-.13,0-.39.13-.42.91s-.17,5.35-.13,7.14c0,.1.13.33.32.33h2.59c2.3,0,2.23-.13,2.85-1.57.19-.49.41-.85.71-.85s.35.56.32.92c-.06.91-.13,1.5-.13,2.25s.07,1.4.13,2.21c0,.59-.16,1-.42,1s-.52-.39-.61-.72c-.43-1.43-.85-1.66-2.11-1.76-1-.09-2.23-.09-3.23-.09-.13,0-.42.32-.42.39a39.64,39.64,0,0,0-.07,4.53,22.74,22.74,0,0,0,.13,2.67,1.24,1.24,0,0,0,.71.79,15.83,15.83,0,0,0,2.62.19,9.87,9.87,0,0,0,3-.29,5,5,0,0,0,2.55-2.41c.46-.85.75-1.15,1-1.15s.29.69.26,1a26.89,26.89,0,0,1-1.23,3.78,1.19,1.19,0,0,1-.78.43c-.35,0-8.35-.17-10.77-.17-2.17,0-2.52.17-3.69.17-.62,0-1.1-.1-1.1-.43s.42-.52,1-.65c1.65-.39,2.07-.72,2.2-2.48.09-1.37.26-3.85.26-7.89,0-3.85,0-5.34,0-6.29-.07-1.17-.33-1.83-1.72-2.09-.68-.13-1-.26-1-.59s.55-.48,1-.48c1.52,0,4.17.1,5.86.1Zm19.2,2a5.21,5.21,0,0,1,1.39,3.45,4.47,4.47,0,0,1-1.81,3.66,8.51,8.51,0,0,1-3.5.71.51.51,0,0,1-.42-.39c-.13-.85,0-6.55.1-7.66a1.34,1.34,0,0,1,.39-.68,4.57,4.57,0,0,1,1.23-.23,3.7,3.7,0,0,1,2.62,1.14M234.62,76a5.16,5.16,0,0,0,2.27-4.18,5.27,5.27,0,0,0-1.75-3.88c-1.55-1.3-4.14-1.43-5.63-1.43-1.74,0-4.43.16-5.63.16h-2.36c-.55,0-.94.23-.94.46s.36.49.81.62c1.52.36,1.81.85,1.88,1.63s.16,3.65.16,7.14c0,2.77,0,5.51-.2,8-.09,1-.45,1.43-1.93,1.89-.42.13-.78.32-.78.52s.23.52,1,.52c.36,0,2-.13,3.11-.13,1.59,0,3,.2,4.14.2.39,0,1-.13,1-.49s-.22-.46-.77-.62c-1.49-.39-1.72-.72-1.82-2.12s-.16-5.83-.09-6.49a.45.45,0,0,1,.35-.32,2.94,2.94,0,0,1,1.56.42,6.1,6.1,0,0,1,1,1.37c1.35,2.35,3,5,3.91,6.26.68.94,1.94,2.12,4.88,2.12a9,9,0,0,0,2.17-.26c.23-.07.52-.3.52-.49s-.26-.39-.59-.46a4.59,4.59,0,0,1-2.78-1.63,51.25,51.25,0,0,1-4.88-7.69c-.07-.13-.1-.4.06-.46.45-.22,1.13-.59,1.26-.68M247,70.13c-.1-1.56-.1-2-1.68-2.45-.78-.19-1-.42-1-.65s.46-.45,1-.45c.94,0,2.62.1,3.69.1,1.58,0,2.71-.1,3.85-.1.55,0,1,.12,1,.45s-.45.56-1,.65c-1.62.3-1.72,1.15-1.78,2s-.13,2-.13,7.57c0,3.94,0,5.34.1,6.32.13,1.93.32,2.32,2.13,2.81.58.12.9.35.9.68s-.61.43-1,.43c-1.3,0-3.5-.2-4.86-.17-.94,0-1.91.1-3.1.1-.78,0-1-.23-1-.56s.29-.45,1-.61c1.49-.36,1.72-1,1.78-2.45.1-1.24.16-4.6.16-7.36,0-1.67,0-5.06-.09-6.3m22.51,7.76a.23.23,0,0,1-.13.26c-1,0-3.43,0-4.69.07a.27.27,0,0,1-.22-.33c.19-.78,1.75-4.89,2.33-6.46.09-.26.29-.32.35-.09.46,1.07,1.88,5,2.36,6.55m-.06-11c-.26-.65-.39-.72-.55-.72a.8.8,0,0,0-.58.42,21.83,21.83,0,0,1-1.68,2c-.1.06-.07.16-.07.26a2.53,2.53,0,0,1-.16.58c-1.36,3.23-4.86,12.52-5.63,14.09-.94,1.92-1.3,2.44-2.95,2.9-.67.2-.8.42-.8.65s.19.39.93.39c.49,0,1.94-.13,3.21-.13s2,.07,2.59.07,1-.16,1-.42-.3-.5-.94-.66c-1.2-.32-1.52-.78-1.52-1.43a16.67,16.67,0,0,1,1.39-4.73c.06-.1.26-.33.35-.33.46,0,2-.13,5.44-.09a.94.94,0,0,1,.77.48A27.62,27.62,0,0,1,271.74,85c.07.52,0,1-1.29,1.36-.61.13-.84.39-.84.56s.39.49,1,.49c.85,0,2.11-.07,3.17-.07s3.43.13,4.24.13,1.07-.26,1.07-.48-.29-.43-.84-.59c-1.1-.33-1.81-.66-2.88-3.3-.65-1.63-2.85-7.53-4.63-12.58-.42-1.21-1-2.87-1.29-3.65m13.76-.3c.71,0,3.26.14,4.91.14a1.89,1.89,0,0,1,.71.42c.49.58,1.39,1.6,2.72,3.16,1.59,1.95,7.93,8.58,9.64,10.4.16.16.29-.13.29-.2.16-.94.07-4.62.07-7.36,0-1.11-.1-2.64-.2-3.49-.06-.65-.38-1.4-2-1.83-.65-.16-1.07-.36-1.07-.75,0-.23.36-.39.94-.39.81,0,1.55,0,2.2,0,1.55,0,2.88-.17,3.72-.17.55,0,.78.19.78.42s-.23.49-.81.66c-1.68.55-1.85,1.14-2,2.45s-.32,9.41-.32,12.18c0,1.37.19,4.24.19,5.09a.74.74,0,0,1-.52.62c-.67,0-1.45-.85-1.74-1.24-.62-.81-1.23-1.56-2.11-2.64-3-3.75-8.31-9.36-11.19-12.78-.16-.19-.36.07-.36.16-.06.88-.13,1.63-.16,4.21,0,4.53-.09,7,.07,8.61.13,1,.48,1.59,2,2.08.67.2.9.43.9.62,0,.36-.45.49-1.07.49-.93,0-1.68-.13-2.81-.13-.71,0-2.52.1-3.07.1s-.85-.16-.85-.43.39-.48.71-.58c1.5-.46,2.27-.72,2.36-3.16.17-3.65.59-9.92.59-12.26,0-1.31-.1-1.7-.2-1.83a3.39,3.39,0,0,0-2.49-1.56c-.36-.07-.84-.33-.84-.56s.39-.49,1-.49M319.6,77.89a.26.26,0,0,1-.13.26c-1,0-3.43,0-4.69.07a.28.28,0,0,1-.23-.33c.19-.78,1.75-4.89,2.33-6.46.1-.26.29-.32.35-.09.46,1.07,1.88,5,2.37,6.55m-.07-11c-.26-.65-.39-.72-.55-.72a.8.8,0,0,0-.58.42,21.83,21.83,0,0,1-1.68,2c-.1.06-.07.16-.07.26a2.11,2.11,0,0,1-.16.58c-1.36,3.23-4.85,12.52-5.63,14.09-.94,1.92-1.29,2.44-2.94,2.9-.68.2-.81.42-.81.65s.19.39.94.39c.48,0,1.94-.13,3.2-.13s2,.07,2.59.07,1-.16,1-.42-.29-.5-.94-.66c-1.2-.32-1.52-.78-1.52-1.43a16.67,16.67,0,0,1,1.39-4.73c.06-.1.26-.33.36-.33.45,0,2-.13,5.43-.09a1,1,0,0,1,.78.48A29.58,29.58,0,0,1,321.8,85c.06.52,0,1-1.3,1.36-.61.13-.84.39-.84.56s.39.49,1,.49c.84,0,2.1-.07,3.17-.07s3.42.13,4.23.13,1.07-.26,1.07-.48-.29-.43-.84-.59c-1.1-.33-1.81-.66-2.88-3.3-.65-1.63-2.84-7.53-4.62-12.58-.42-1.21-1-2.87-1.3-3.65m-274.85,33c.37.09.54.21.54.34s-.33.33-.66.33c-1.1,0-2.9-.17-4.33-.17s-2.86.21-4.09.21a.76.76,0,0,1-.69-.33c0-.21.28-.29.65-.38,1.35-.33,1.64-.91,1.68-2.63s0-10,0-10.81c0-1.58,0-2.88-.08-3.42-.17-1-.78-1.25-1.64-1.46-.24-.09-.61-.29-.61-.42s.24-.29.69-.29C37,80.83,39,81,40,81c.7,0,3.27-.17,4.34-.17.49,0,.69.08.69.25s-.25.37-.65.46c-1.31.33-1.47.79-1.52,2.08v6.23c0,4.71,0,7.88.13,8.55.12.88.65,1.21,1.71,1.46M89.07,89.47C90.58,90.55,92.38,92,92.38,95c0,3.75-3.51,6-7.68,6a17.66,17.66,0,0,1-4.78-1,.61.61,0,0,1-.37-.46c-.12-.58-.17-1.88-.37-3.09-.16-.62.08-.88.2-.88s.29.3.45.76a6.35,6.35,0,0,0,1.88,2.75,4.91,4.91,0,0,0,3.11,1.25,3.13,3.13,0,0,0,3.44-3.25c0-1.55-1.31-2.88-3.56-4.3-3.48-2.26-4.87-4.09-4.87-6.72a5.2,5.2,0,0,1,2.5-4.68,9,9,0,0,1,4.25-1,15.67,15.67,0,0,1,4.13.54.45.45,0,0,1,.32.42,16.6,16.6,0,0,0,.29,2.84c.08.41,0,.62-.21.62s-.28-.21-.4-.54A6.82,6.82,0,0,0,89.28,82a4.14,4.14,0,0,0-2.58-1,2.91,2.91,0,0,0-3,3.09c0,1.13.49,2,2,3.17,1.27,1,2.58,1.72,3.35,2.26M74.62,99.86c.37.09.65.17.65.38a.76.76,0,0,1-.69.33c-1.23,0-2.78-.21-4.09-.21s-3.23.17-4.33.17c-.33,0-.66-.08-.66-.33s.17-.25.53-.34c1.07-.25,1.6-.58,1.72-1.46.07-.58.11-3.05.12-6.79,0-.26-.08-.48-.28-.51s-9.26,0-9.63,0c0,0-.08.08-.12.21,0,3.88,0,6.46.12,7.05.13.88.66,1.21,1.72,1.46.37.09.53.21.53.34s-.33.33-.65.33c-1.11,0-2.9-.17-4.34-.17s-2.86.21-4.08.21a.78.78,0,0,1-.7-.33c0-.21.29-.29.66-.38,1.35-.33,1.63-.91,1.67-2.63s0-10,0-10.81c0-1.58,0-2.88-.08-3.42-.16-1-.77-1.25-1.63-1.46-.25-.09-.62-.29-.62-.42s.25-.29.7-.29C52,80.83,54,81,55,81c.7,0,3.27-.17,4.33-.17.49,0,.7.08.7.25s-.25.37-.66.46c-1.3.33-1.47.79-1.51,2.08v5.43c0,.59,0,.8.21.84s1.72,0,3.6,0V78.32H58V75.86h3.63V72.6h2.41v3.26H67.7v2.46H64.06v11.6c1.9,0,3.52,0,3.57,0s.23-.1.24-.34V83.62c0-1.29-.2-1.75-1.51-2.08-.41-.09-.65-.34-.65-.46s.2-.25.69-.25c1.07,0,3.64.17,4.34.17,1,0,3-.17,3.8-.17.45,0,.69.17.69.29s-.37.33-.61.42c-.86.21-1.47.5-1.64,1.46,0,.54-.08,1.84-.08,3.42,0,.79,0,9.06,0,10.81s.33,2.3,1.68,2.63M84.79,65.59a1.17,1.17,0,0,0,.57,1.54,1.12,1.12,0,0,0,.42.08,4.19,4.19,0,0,0,1.32-.31.29.29,0,0,0,.18-.18.31.31,0,0,0,0-.25c-.11-.29-.5-1.24-1-1.47a1.06,1.06,0,0,0-.46-.1,1.15,1.15,0,0,0-1,.69M87.5,68.8a2.94,2.94,0,0,0-1.68.51A1.2,1.2,0,0,0,85.9,71a1.13,1.13,0,0,0,1.62-.09,3,3,0,0,0,.32-1.75.36.36,0,0,0-.11-.23.29.29,0,0,0-.22-.09Zm.6-1.71a1,1,0,0,0,.47,1.27,1,1,0,0,0,.38.08h.19l.12,0h0l.13-.07h0l.13-.1,0,0a.39.39,0,0,0,.08-.1l0,0,0,0h0l.06-.12a1,1,0,0,0-.48-1.26.64.64,0,0,0-.18-.06h-.39l-.12,0,0,0h0a1.18,1.18,0,0,0-.19.11h0l-.08.06,0,0-.08.09,0,0a1.09,1.09,0,0,0-.08.15m.09-3.21a3,3,0,0,0,.75,1.62.3.3,0,0,0,.22.12h0a.29.29,0,0,0,.2-.07c.24-.19,1-.87,1.07-1.42a1.16,1.16,0,0,0-1-1.28h-.12a1.15,1.15,0,0,0-1.13,1m2.62,3a.33.33,0,0,0,.09.46,3.43,3.43,0,0,0,1.5.61l.16,0a1.15,1.15,0,0,0,.87-1.38,1.13,1.13,0,0,0-1.11-.92,1,1,0,0,0-.24,0c-.53.12-1.11,1-1.27,1.23m.44,4.68a1.18,1.18,0,0,0,.42-1.59c-.28-.48-1.25-.77-1.54-.86h-.08a.34.34,0,0,0-.17.05.35.35,0,0,0-.15.2,3.07,3.07,0,0,0,0,1.79,1.13,1.13,0,0,0,1,.58,1.1,1.1,0,0,0,.57-.16m-6.33-3.38a2.23,2.23,0,0,1-1.18-1.27,2.33,2.33,0,0,1,0-1.74,2.25,2.25,0,0,1,2-1.36,2.19,2.19,0,0,1,.91.2,1.57,1.57,0,0,1,.37.22,1.56,1.56,0,0,1,0-.43,2.25,2.25,0,0,1,2.22-2.05h.24a2.28,2.28,0,0,1,2,2.52,2.13,2.13,0,0,1-.1.42,2.12,2.12,0,0,1,.4-.14,1.88,1.88,0,0,1,.47,0,2.26,2.26,0,0,1,2.19,1.81A2.37,2.37,0,0,1,94.2,68a2.26,2.26,0,0,1-1.42,1,1.58,1.58,0,0,1-.38,0h0a2.11,2.11,0,0,1,.26.35,2.34,2.34,0,0,1,.22,1.74,2.28,2.28,0,0,1-1,1.38,2.21,2.21,0,0,1-3.06-.83,2.09,2.09,0,0,1-.17-.41,1.51,1.51,0,0,1-.24.36,2.22,2.22,0,0,1-1.66.76,2.2,2.2,0,0,1-1.5-.59A2.33,2.33,0,0,1,85,68.56a3,3,0,0,1,.33-.28,1.64,1.64,0,0,1-.41-.13M71.4,60.4a1,1,0,0,1-.51-1.15,1,1,0,0,1,1.19-.33,1,1,0,0,1,.52,1.15,1,1,0,0,1-1.2.33m-37,6.12a1.17,1.17,0,0,0,.88,1.38l.16,0a3.38,3.38,0,0,0,1.49-.61.35.35,0,0,0,.15-.21.37.37,0,0,0,0-.25c-.16-.26-.74-1.11-1.27-1.23a1,1,0,0,0-.24,0,1.15,1.15,0,0,0-1.12.92m4-3.67a1.16,1.16,0,0,0-1,1.28c.06.55.83,1.22,1.06,1.42a.35.35,0,0,0,.21.07h0a.3.3,0,0,0,.22-.12,3,3,0,0,0,.75-1.62,1.15,1.15,0,0,0-1.13-1h-.12m1.34,4.24a1.09,1.09,0,0,0-.08-.15l0,0-.08-.09,0,0-.08,0h0a1.18,1.18,0,0,0-.19-.11h0l0,0-.12,0h-.39a.64.64,0,0,0-.18.06A1,1,0,0,0,38,67.87a.75.75,0,0,0,.07.12h0l0,0,0,0a.39.39,0,0,0,.08.1l0,0,.13.1h0l.13.07h0l.12,0h.19a1,1,0,0,0,.38-.08,1,1,0,0,0,.47-1.27m.26,2a3,3,0,0,0,.32,1.75,1.13,1.13,0,0,0,.85.39,1.11,1.11,0,0,0,.76-.3A1.19,1.19,0,0,0,42,69.31a2.94,2.94,0,0,0-1.68-.51h0a.29.29,0,0,0-.22.09.36.36,0,0,0-.11.23m.55-2.65a.31.31,0,0,0,0,.25.29.29,0,0,0,.18.18,4.23,4.23,0,0,0,1.32.3,1.12,1.12,0,0,0,.42-.07A1.17,1.17,0,0,0,43,65.59a1.15,1.15,0,0,0-1-.69,1.06,1.06,0,0,0-.46.1c-.5.23-.89,1.18-1,1.47m-2.4,4.64a3.07,3.07,0,0,0,0-1.79.31.31,0,0,0-.15-.2.34.34,0,0,0-.17-.05H37.7c-.29.09-1.27.38-1.54.86a1.19,1.19,0,0,0,.42,1.59,1.1,1.1,0,0,0,.57.16,1.15,1.15,0,0,0,1-.58M35.05,69a2.26,2.26,0,0,1-1.42-1,2.37,2.37,0,0,1-.31-1.72,2.26,2.26,0,0,1,2.19-1.81,1.75,1.75,0,0,1,.46,0,1.53,1.53,0,0,1,.41.14,2.07,2.07,0,0,1-.1-.43,2.28,2.28,0,0,1,2-2.51h.24a2.25,2.25,0,0,1,2.22,2.05,1.63,1.63,0,0,1,0,.44,1.33,1.33,0,0,1,.37-.23,2.19,2.19,0,0,1,.91-.2,2.22,2.22,0,0,1,2,1.36,2.28,2.28,0,0,1,.05,1.74,2.23,2.23,0,0,1-1.18,1.27,1.79,1.79,0,0,1-.41.13,2.28,2.28,0,0,1,.33.29,2.32,2.32,0,0,1-.17,3.22,2.2,2.2,0,0,1-1.5.59,2.22,2.22,0,0,1-1.66-.76,1.74,1.74,0,0,1-.24-.36,3,3,0,0,1-.17.41,2.23,2.23,0,0,1-4.1-.55,2.3,2.3,0,0,1,.22-1.74,2.63,2.63,0,0,1,.26-.35h0a2.33,2.33,0,0,1-.38,0m21.37-8.6a1,1,0,0,1-1.19-.33,1,1,0,0,1,.52-1.15,1,1,0,0,1,1.19.33,1,1,0,0,1-.52,1.15M65,29.59c0,.5-.48,1.28-1.07,1.28s-1.07-.78-1.07-1.28.48-1.28,1.07-1.28S65,29.09,65,29.59m6.6,1.92c-.41-.08-.64-.69-.58-1s.51-.83.93-.74.64.69.57,1-.51.83-.92.74M55.91,29.73c.42-.09.86.39.92.74s-.16,1-.57,1-.86-.39-.92-.74.16-1,.57-1m8.84,8.91c0,.39-.38,1-.84,1s-.85-.62-.85-1,.38-1,.85-1,.84.61.84,1M70,40.15c-.33-.06-.51-.54-.45-.82s.4-.65.72-.59a.77.77,0,0,1,.46.83c-.06.27-.4.65-.73.58M57.6,38.74c.32-.06.67.31.72.59s-.13.76-.45.82-.68-.31-.73-.58a.77.77,0,0,1,.46-.83m56.79,66c3.44,0,7.08-1.23,10.87-3.65-.88,0-2,.08-3.39.08a77.65,77.65,0,0,1-8.46-.47,20.42,20.42,0,0,0-2.26-.14,12.38,12.38,0,0,0-2.43.22,7.61,7.61,0,0,1,1.72,3,10,10,0,0,1,3.52,1h.43m3.87,6c-1.32-2.49-3.68-5.43-7.56-5.88a9.27,9.27,0,0,1-.11,3.29,7.56,7.56,0,0,0,2.22.87,29.24,29.24,0,0,1,5.45,1.72m-8.83-2.46c.25-.83,1.68-6.37-5-9.08a2.05,2.05,0,0,0-.81-.16,2.2,2.2,0,0,0-1.26.37,40,40,0,0,1-9,5.27,6.94,6.94,0,0,1,4.76,3.8c1.47,2.8,1.27,4.84.83,6.06a3.14,3.14,0,0,1-.18.46,47.06,47.06,0,0,0,5.88-3.12,23.6,23.6,0,0,0,4.79-3.6M97,115.67c.34-.3,1.9-1.91.86-5.09-1.25.64-2.08,1-3.33,1.52a2.32,2.32,0,0,0-.18,2.19,2.44,2.44,0,0,0,1.09,1.4,2,2,0,0,0,1.56,0m-8.63-5.36a53.07,53.07,0,0,0,7.51-3.07,5.49,5.49,0,0,0-1.46-1,63.71,63.71,0,0,1-18.14,5.28,6.82,6.82,0,0,0-.28,1.61l.53-.08a14.47,14.47,0,0,1,7.26-2.2,36.88,36.88,0,0,0,4.58-.53m-6.17,5.23A11.7,11.7,0,0,0,92,110.47l0,0A27.52,27.52,0,0,1,83.82,112a14,14,0,0,0-6.09,1.64,9.08,9.08,0,0,0-1.26.84,16,16,0,0,0,5.69,1.1h0m7.9,1.12a14.44,14.44,0,0,0-2.34-1.21,13,13,0,0,1-5.56,1.21,16.75,16.75,0,0,1-4.35-.59c1.69,1.41,4.9,3,10.92,3a44,44,0,0,0,6-.44,14.35,14.35,0,0,1-4.7-2m-1.57,8.28a11.82,11.82,0,0,0-2.44-4.88,16.61,16.61,0,0,1-8.26-2.58,16.44,16.44,0,0,0,6.33,4.59,15.06,15.06,0,0,1,4.37,2.87M71.6,121.2a26.66,26.66,0,0,0,7.28-.89,7.33,7.33,0,0,1-4-5.76c-.24-3.39,1-5.28,2.37-6.43h0A59.75,59.75,0,0,1,64,109.54h-.06a59.78,59.78,0,0,1-13.25-1.41h0c1.41,1.15,2.61,3,2.37,6.43a7.33,7.33,0,0,1-4,5.76,26.66,26.66,0,0,0,7.28.89c1.26,0,2.83-2.27,3.28-3.07a.56.56,0,0,1,.47-.28h.11a.56.56,0,0,1,.44.49c.34,3.21-.06,5.71-1.19,7.45h0a6.79,6.79,0,0,1-.51.66,5.17,5.17,0,0,1-1.32,1.11,7.28,7.28,0,0,0,1.91-.64,7.74,7.74,0,0,0,4-4.78.54.54,0,0,1,.52-.42.56.56,0,0,1,.54.42,7.67,7.67,0,0,0,4,4.78,7.28,7.28,0,0,0,1.91.64A5.17,5.17,0,0,1,69,126.46c-1.52-1.73-2.09-4.46-1.7-8.11a.56.56,0,0,1,.44-.49.54.54,0,0,1,.58.27c.45.8,2,3.07,3.28,3.07m.15,4.56a7.21,7.21,0,0,1-1.59.31,5.14,5.14,0,0,0,3.46,1.26H74a.86.86,0,0,0-.15-1.17,2.49,2.49,0,0,0-1.41-.56c-.24,0-.45.11-.65.17m-17.54,1.57a5.15,5.15,0,0,0,3.46-1.26,7.21,7.21,0,0,1-1.59-.31c-.2-.06-.41-.12-.65-.17a2.46,2.46,0,0,0-1.41.56.86.86,0,0,0-.15,1.17h.34m-10.55-5.26A16.44,16.44,0,0,0,50,117.48a16.6,16.6,0,0,1-8.3,2.59,11.62,11.62,0,0,0-2.41,4.87,15.21,15.21,0,0,1,4.38-2.87m-4.62-3c6.15,0,9.37-1.61,11-3a17,17,0,0,1-4.27.57,13.21,13.21,0,0,1-5.58-1.2,14.31,14.31,0,0,0-2.49,1.28,14.35,14.35,0,0,1-4.7,2,44,44,0,0,0,6,.44h0M36,110.53a11.92,11.92,0,0,0,9.83,4.93,16.24,16.24,0,0,0,5.51-1,8.33,8.33,0,0,0-1.25-.84A14,14,0,0,0,44,112a26.73,26.73,0,0,1-8-1.43m-4-3.29a53.42,53.42,0,0,0,7.57,3.09,35.77,35.77,0,0,0,4.46.51,14.33,14.33,0,0,1,7.25,2.2l.6.08a7.37,7.37,0,0,0-.28-1.61,63.62,63.62,0,0,1-18.14-5.28,5.49,5.49,0,0,0-1.46,1m-2.28,1.25a7,7,0,0,1,4.77-3.8,40,40,0,0,1-9-5.27,2.23,2.23,0,0,0-1.26-.37,2.05,2.05,0,0,0-.81.16c-6.71,2.71-5.28,8.25-5,9.08a22.91,22.91,0,0,0,4.79,3.6,47.4,47.4,0,0,0,5.9,3.13c-.62-1.34-1-3.5.62-6.53m3.63,3.61c-1.25-.52-2.08-.88-3.33-1.52,0,.15-.09.3-.12.45a4.8,4.8,0,0,0,.57,4.18,3.12,3.12,0,0,0,.41.46,2,2,0,0,0,1.57,0,2.46,2.46,0,0,0,1.08-1.4,2.3,2.3,0,0,0-.18-2.19m-16-8.38a7.71,7.71,0,0,1,1.71-3,12.26,12.26,0,0,0-2.42-.22,20.42,20.42,0,0,0-2.26.14,77.65,77.65,0,0,1-8.46.47H6c-1.36,0-2.51,0-3.39-.08a20.36,20.36,0,0,0,10.87,3.65h.43a10,10,0,0,1,3.52-1M15,109a7.56,7.56,0,0,0,2.22-.87,9.27,9.27,0,0,1-.11-3.29c-3.88.45-6.24,3.39-7.56,5.88A29,29,0,0,1,15,109M9.07,94.94a15.75,15.75,0,0,0,5.6,4.58c.71-.07,1.38-.11,2-.11a12,12,0,0,1,3.4.43A11.42,11.42,0,0,1,22,98.63c-.64-.92-2-2.19-5-2.43a45.58,45.58,0,0,1-7.92-1.26M7.78,93.36s2.9,1.19,9.29,1.72l.94.11a14.19,14.19,0,0,1-.9-5,14.8,14.8,0,0,1,2-7.39,14.87,14.87,0,0,1-3.11.91v1.12a.54.54,0,0,1-.09.31,4.69,4.69,0,0,1-4.85,4,4.17,4.17,0,0,1-4.49-3.5h0a1.7,1.7,0,0,1,0-.24v-4a5.73,5.73,0,0,0-2.3,2.79A5.89,5.89,0,0,0,4,85.52a9.28,9.28,0,0,0,3.16,8h0a.53.53,0,0,1,.64-.17m-4-40.18c-1.43,6.16-.42,10,.84,12.28a8.44,8.44,0,0,1,2.93-1.65,10.17,10.17,0,0,0-.82-2.66,54.2,54.2,0,0,1-3-8m6-6.53c-1.57,3-3.29,7.2-3.22,11.4.33.81.7,1.68,1.13,2.63a11.11,11.11,0,0,1,.89,2.9,7,7,0,0,1,.8,0,8.65,8.65,0,0,1,1.57.14,11.61,11.61,0,0,0-.16-5.81,36.3,36.3,0,0,1-1-11.21M7.69,83.49a4.34,4.34,0,0,1,1.24-.62,3.84,3.84,0,0,1,1.58-.2V80.21a7.55,7.55,0,0,0-2.82.59v2.69m1.58.45c-1.36.44-1.56,1.19-1.58,1.46v.12c0,.28.47,2.49,3.4,2.49a3.64,3.64,0,0,0,3.84-3.75,4,4,0,0,0-2.86-3.82c-.14,0-.3-.09-.46-.13v3a.55.55,0,0,1-.24.46.52.52,0,0,1-.51.06,2.67,2.67,0,0,0-1.59.08m5.67-17.13a8.57,8.57,0,0,0-5.52-2.16c-3,0-5,2.56-5.51,3.17V82.53a8.23,8.23,0,0,1,2.68-2.45v0l.24-.1a7.09,7.09,0,0,1,4.57-.82,4.75,4.75,0,0,1,1,.25,5.91,5.91,0,0,1,2.49,1.72V66.81m-2.59-6.33a10.33,10.33,0,0,1-.28,3.45,10.47,10.47,0,0,1,1.77.75c1.05-1.78,1.79-4.57.39-8.51a28.08,28.08,0,0,1-1.88,4.31M16,82.58a12.11,12.11,0,0,0,6.76-3.64,11.23,11.23,0,0,0,2.65-7A14.89,14.89,0,0,1,19,77.07a7.39,7.39,0,0,0-3,2.07Zm0-5A9.44,9.44,0,0,1,18.58,76a15.87,15.87,0,0,0,1.65-.83,7.79,7.79,0,0,0,1.1-2.71,18.94,18.94,0,0,1,2.92-7.26,13.55,13.55,0,0,0-7.57,8.15A14.91,14.91,0,0,0,16,76.21ZM16,72a14.49,14.49,0,0,1,4.36-5.71,20.89,20.89,0,0,0-.77-7.74,22.75,22.75,0,0,1-3.5,9.9l-.09.16Zm14,2.25a33.55,33.55,0,0,0-5,3.43,11,11,0,0,1-1.42,2,11.79,11.79,0,0,1-2.49,2.11,14.23,14.23,0,0,0-2.91,8.4,13.23,13.23,0,0,0,1.12,5.29,7.14,7.14,0,0,1,2.36,1.22,12.39,12.39,0,0,1-1.95-6.51C19.73,85,23.39,80,30.1,76a.55.55,0,0,1-.28-.54,9.93,9.93,0,0,1,.19-1.2m-.67-2.43a5.84,5.84,0,0,0,1.55.31.93.93,0,0,0,.31,0,1,1,0,0,0,.52-.56,1,1,0,0,0,0-.78,1,1,0,0,0-.91-.61.93.93,0,0,0-.4.09,4,4,0,0,0-1.05,1.59m-1.2-3.37a4.34,4.34,0,0,0,1.68.75h.05a1,1,0,0,0,.65-.41,1,1,0,0,0-1-1.6,4,4,0,0,0-1.42,1.26m2-5.94a3.08,3.08,0,0,0-.06,3.58l.09,0a4.14,4.14,0,0,1,1.16-3.23,3.73,3.73,0,0,1,1.92-1.05,3.57,3.57,0,0,0-1.18-.2,2.35,2.35,0,0,0-1.93.88m4.65.39c-.15,0-.37,0-.64,0a2.8,2.8,0,0,0-2.06.83,3.48,3.48,0,0,0-.76,3.15,2.14,2.14,0,0,1,.45,1,2.21,2.21,0,0,1-.21,1.32,2.1,2.1,0,0,1,1.14,1.11,2.18,2.18,0,0,1,0,1.61,2.11,2.11,0,0,1,1.1.72,2.29,2.29,0,0,1,.44,1,3.33,3.33,0,0,0,2.8,1.53,3.09,3.09,0,0,0,2.38-1.53,1.63,1.63,0,0,1,.17-.22.59.59,0,0,1,.46-.21,2.57,2.57,0,0,1,.39,0,6.26,6.26,0,0,0,1.28.14A4.47,4.47,0,0,0,45,72.05,5.66,5.66,0,0,0,46.24,66v0h0l0-.07s0-.07,0-.11L45,63.13,45,63a.14.14,0,0,0,0-.06v0c0-.06-.05-.13-.08-.2a5.42,5.42,0,0,0-5.16-3,4.82,4.82,0,0,0-3.93,2.63c-.18.29-.33.55-.67.55h0a1.1,1.1,0,0,1-.24,0M36.13,59a3.68,3.68,0,0,0-.67,1.83,5.66,5.66,0,0,1,4.15-2.21,6.74,6.74,0,0,1,4.6,1.53c-.85-2-2.26-3.11-4.11-3.11h-.37a4.81,4.81,0,0,0-3.6,2m9.77,2.63a1.13,1.13,0,0,0,0,.83l1.31,3a1.08,1.08,0,0,0,1,.64,1,1,0,0,0,.91-.53l0,0-2-4.52,0-.06-.21,0a1.11,1.11,0,0,0-.43.09,1.08,1.08,0,0,0-.56.61m2.2-1.91a1.11,1.11,0,0,0,0,.84l2,4.51a1.06,1.06,0,0,0,2,0,1.16,1.16,0,0,0,0-.84l-2-4.51a1.06,1.06,0,0,0-1-.64,1,1,0,0,0-.43.09,1.08,1.08,0,0,0-.57.6m3.42-1a1.08,1.08,0,0,0-.48.44l0,.06,2,4.51s0,0,0,.06l.21,0a1.07,1.07,0,0,0,.43-.09,1.1,1.1,0,0,0,.54-1.44l-1.31-3a1.07,1.07,0,0,0-1-.64,1.12,1.12,0,0,0-.44.09m.6-2.73A11.24,11.24,0,0,0,55,55.34l-7-3.16-.48-.07A9.92,9.92,0,0,0,52.12,56m-9.69-1.63c.93.6,3.11,1.59,7.39,1.68a11.66,11.66,0,0,1-4.08-5,53.65,53.65,0,0,1-2.52-8.18l-.15-.64-2,.43.4,2-1.71.37-.41-2-2,.42c.65,3.94,1.7,8.74,5.06,10.89M39,41.32l-.41-2L40.28,39l.41,2,2-.43,0-.14c-.13-.67-.26-1.43-.39-2.24-.68-4.28-1.62-10.14-5.39-12a9.14,9.14,0,0,0-4.55-1h-.78A11.27,11.27,0,0,1,35.16,31a92.11,92.11,0,0,1,1.78,9.71c.05.35.11.69.15,1Zm-2.29,4.49c-.25-1.2-.43-2.36-.59-3.43-.06-.34-.11-.71-.17-1.1l-14-6.36-.7,1.59-.83,1.9Zm-.37,1.06-15.7-7.14-1.2,2.76.69.32a.56.56,0,0,1,.28.74L19.32,46a.56.56,0,0,1-.73.29L17.9,46l-1.1,2.52L23,51.25l1.1-2.52-.7-.31a.6.6,0,0,1-.29-.32.58.58,0,0,1,0-.43l1.06-2.41a.53.53,0,0,1,.72-.28l.69.31.32-.72a.55.55,0,0,1,.72-.29L29,45.37a.55.55,0,0,1,.29.31.58.58,0,0,1,0,.43l-.31.71.69.31a.52.52,0,0,1,.29.31.58.58,0,0,1,0,.43l-1.06,2.44a.54.54,0,0,1-.72.28l-.7-.31-1.09,2.51,6.16,2.78,1.1-2.52-.69-.31a.56.56,0,0,1-.28-.74l1.05-2.42a.55.55,0,0,1,.31-.29.53.53,0,0,1,.41,0l.7.32ZM21.16,34a1.13,1.13,0,0,0,0-.83,1.06,1.06,0,0,0-.56-.6,1.11,1.11,0,0,0-.43-.09,1.07,1.07,0,0,0-1,.64l-2,4.51a1.09,1.09,0,0,0,0,.83,1.06,1.06,0,0,0,1,.7,1.06,1.06,0,0,0,1-.64Zm-2.95-1.33,0-.06a1,1,0,0,0-.91-.53,1.06,1.06,0,0,0-1,.64l-1.32,3a1.12,1.12,0,0,0,.54,1.44,1.11,1.11,0,0,0,.43.09l.21,0a.14.14,0,0,0,0-.06Zm-2.92-.25H15.2a1.54,1.54,0,0,0-1.41.94,1.6,1.6,0,0,0,.32,1.76Zm18.09-1.62.37,0a20.19,20.19,0,0,0-2.34-4.17c-.47-.46-.9-.76-1.22-1a1.84,1.84,0,0,0-.22-.17,3.85,3.85,0,0,0-2,.76c-.22.15-.41.3-.59.43a6.53,6.53,0,0,1-1.58,1,3.4,3.4,0,0,0,.57,0A4.8,4.8,0,0,0,28,27.25a6.62,6.62,0,0,1,1.5-.21c.53,0,.67.3.7.48a.59.59,0,0,1-.39.67,4.84,4.84,0,0,0-1,.67,6.34,6.34,0,0,1-1.16.78,2.75,2.75,0,0,0,.41,0,5.58,5.58,0,0,0,1.89-.37,6.26,6.26,0,0,1,1.47-.2c.5,0,.66.26.7.48a.58.58,0,0,1-.37.66,3.72,3.72,0,0,0-1,.7,4.94,4.94,0,0,1-1.43,1A2,2,0,0,0,30,32a3.07,3.07,0,0,0,1.72-.63l.07-.05a2.87,2.87,0,0,1,1.59-.59M45,45.41a47.38,47.38,0,0,0,1.61,4.91L58,55.49l4.6-2.09Zm12.21-.18a9,9,0,0,1-1.9,3.64l5.18,2.35a14.1,14.1,0,0,0,2.31-4.46,21.88,21.88,0,0,0,.56-2.53,35.06,35.06,0,0,0-6.1.59l0,.41m-1.73-1.14c.26-.08.53-.14.81-.21h0a38,38,0,0,1,15.36,0h0l.72.19h0a.63.63,0,0,0,.29-.31,1.49,1.49,0,0,0,0-.91,30.06,30.06,0,0,0-8.75-1.16,30,30,0,0,0-8.74,1.16,1.49,1.49,0,0,0,0,.91.63.63,0,0,0,.29.31h0m-.76-3c.12.23.24.45.34.67a31.93,31.93,0,0,1,8.86-1.14,31.61,31.61,0,0,1,8.87,1.15c.1-.22.21-.45.33-.67a.43.43,0,0,1-.22.06,1.32,1.32,0,0,1-.27,0,1.7,1.7,0,0,1-1.33-.69.56.56,0,0,1,0-.75.44.44,0,0,0,.11-.24.48.48,0,0,0-.28-.54.49.49,0,0,1-.31-.32.54.54,0,0,1,0-.45.69.69,0,0,0,0-.13.5.5,0,0,0-.38-.57.47.47,0,0,0-.55.39.61.61,0,0,0,0,.14.54.54,0,0,1-.14.43.55.55,0,0,1-.4.18.46.46,0,0,0-.46.39.48.48,0,0,0,0,.24.57.57,0,0,1-.23.66l-.07,0a2.38,2.38,0,0,1-2.72-.45.59.59,0,0,1-.13-.59,2.4,2.4,0,0,0,.12-.46.91.91,0,0,0-.73-.9.53.53,0,0,1-.36-.26.59.59,0,0,1-.06-.45.75.75,0,0,0,0-.26.9.9,0,1,0-1.79,0,.75.75,0,0,0,0,.26.59.59,0,0,1-.06.45.53.53,0,0,1-.36.26.91.91,0,0,0-.73.9,2.62,2.62,0,0,0,.12.46.59.59,0,0,1-.13.59,2.34,2.34,0,0,1-1.67.69,2.45,2.45,0,0,1-1.08-.25.57.57,0,0,1-.27-.68.48.48,0,0,0,0-.24.47.47,0,0,0-.46-.39.55.55,0,0,1-.4-.18.54.54,0,0,1-.14-.43.61.61,0,0,0,0-.14.48.48,0,0,0-.55-.39.49.49,0,0,0-.3.21A.5.5,0,0,0,57,38a.69.69,0,0,0,0,.13.54.54,0,0,1,0,.45.49.49,0,0,1-.31.32.5.5,0,0,0-.29.54.55.55,0,0,0,.12.24.56.56,0,0,1,0,.75,1.7,1.7,0,0,1-1.33.69,1.46,1.46,0,0,1-.29,0,.58.58,0,0,1-.21-.07m-2-6.43a40.45,40.45,0,0,0,2.08,4.68,1.52,1.52,0,0,1,.26.25,2,2,0,0,1,.25.45s0,0,.08,0a1.67,1.67,0,0,1-.08-.3,1.63,1.63,0,0,1,.51-1.51A1.66,1.66,0,0,1,56.12,37a1.55,1.55,0,0,1,1-.68h.3A1.58,1.58,0,0,1,59,37.56a1.6,1.6,0,0,1,1,1.21A1,1,0,0,1,60,39a.86.86,0,0,0,.23,0,1.19,1.19,0,0,0,.65-.18,2.22,2.22,0,0,1-.06-.44,2,2,0,0,1,1.11-1.83v0a2,2,0,1,1,4,0s0,0,0,0A2,2,0,0,1,67,38.41a2.22,2.22,0,0,1-.06.44,1.19,1.19,0,0,0,.65.18.86.86,0,0,0,.23,0,2,2,0,0,1,0-.24,1.6,1.6,0,0,1,1-1.21,1.58,1.58,0,0,1,1.53-1.23h.3A1.6,1.6,0,0,1,72,38.16a1.6,1.6,0,0,1,.52,1.51c0,.1,0,.2-.08.3l.08,0a2,2,0,0,1,.25-.45,2.13,2.13,0,0,1,.26-.26,42.31,42.31,0,0,0,2.08-4.67,34.19,34.19,0,0,0-5.12-1,53.73,53.73,0,0,0-12.07,0,33,33,0,0,0-5.12,1M51,31.24A21.23,21.23,0,0,1,52,33.67,43.42,43.42,0,0,1,63.9,32.2a43.6,43.6,0,0,1,11.92,1.47,20.28,20.28,0,0,1,1.06-2.43.93.93,0,0,0-.58.31,2.64,2.64,0,0,0-.28.65.55.55,0,0,1-.45.39,2.41,2.41,0,0,1-2.21-.81.58.58,0,0,1,0-.75.62.62,0,0,0,.18-.36.76.76,0,0,0-.45-.85.61.61,0,0,1-.31-.32.63.63,0,0,1,0-.45.9.9,0,0,0,.08-.21.82.82,0,0,0-.12-.57.73.73,0,0,0-.48-.32.75.75,0,0,0-.87.6,1.55,1.55,0,0,0,0,.22.53.53,0,0,1-.14.43.52.52,0,0,1-.4.18.76.76,0,0,0-.73.62,1,1,0,0,0,0,.38.56.56,0,0,1-.3.69,2.89,2.89,0,0,1-1.27.29,2.8,2.8,0,0,1-2-.84.57.57,0,0,1-.11-.64,1.32,1.32,0,0,0-.9-1.86.56.56,0,0,1-.36-.26.59.59,0,0,1-.06-.45,1.5,1.5,0,0,0,0-.37,1.28,1.28,0,1,0-2.55,0,1.14,1.14,0,0,0,0,.37.59.59,0,0,1-.06.45.56.56,0,0,1-.36.26,1.31,1.31,0,0,0-1,1.28,1.33,1.33,0,0,0,.12.55.53.53,0,0,1,.07.28.58.58,0,0,1-.17.41,2.89,2.89,0,0,1-3.3.52.57.57,0,0,1-.28-.68.81.81,0,0,0,0-.38.77.77,0,0,0-.73-.62.52.52,0,0,1-.4-.18.53.53,0,0,1-.14-.43,1.62,1.62,0,0,0,0-.22.75.75,0,0,0-.87-.6.73.73,0,0,0-.48.32.82.82,0,0,0-.12.57.9.9,0,0,0,.08.21.58.58,0,0,1,0,.45.57.57,0,0,1-.31.32.76.76,0,0,0-.45.85.62.62,0,0,0,.18.36.58.58,0,0,1,0,.77,2.41,2.41,0,0,1-2.19.79.53.53,0,0,1-.45-.4,2.93,2.93,0,0,0-.28-.64.93.93,0,0,0-.58-.31m9.58-8.17a62.23,62.23,0,0,0-10.19,1.14,37,37,0,0,0,1,6,2,2,0,0,1,1,.66,2.51,2.51,0,0,1,.34.65,1.37,1.37,0,0,0,.61-.19,2.13,2.13,0,0,1-.13-.43,1.9,1.9,0,0,1,.67-1.83h0a1.93,1.93,0,0,1,.28-1.41,1.82,1.82,0,0,1,1.18-.79,2.07,2.07,0,0,1,.35,0,1.86,1.86,0,0,1,1.81,1.52h0a1.9,1.9,0,0,1,1.28,1.45,1.23,1.23,0,0,1,0,.19,1.48,1.48,0,0,1,0,.21,1.61,1.61,0,0,0,.44.06,1.71,1.71,0,0,0,1-.3,2.82,2.82,0,0,1-.08-.65,2.42,2.42,0,0,1,1.4-2.21v-.15a2.38,2.38,0,1,1,4.75,0v.15a2.43,2.43,0,0,1,1.4,2.21,2.82,2.82,0,0,1-.08.65,1.71,1.71,0,0,0,1,.3,1.61,1.61,0,0,0,.44-.06A1.48,1.48,0,0,1,69,30a1.23,1.23,0,0,1,0-.19,1.88,1.88,0,0,1,1.28-1.45h0a1.85,1.85,0,0,1,1.8-1.53,2.09,2.09,0,0,1,.35,0,1.82,1.82,0,0,1,1.18.79A1.93,1.93,0,0,1,74,29.05a1.89,1.89,0,0,1,.67,1.83,2.35,2.35,0,0,1-.13.43,1.37,1.37,0,0,0,.61.19,2.51,2.51,0,0,1,.34-.65,2,2,0,0,1,1-.66,37,37,0,0,0,1-6A62.23,62.23,0,0,0,67.3,23.07c-2.24-.09-4.53-.09-6.77,0m-10.71.11a75.91,75.91,0,0,1,28.19,0,14.35,14.35,0,0,1,.77-2.92.85.85,0,0,0-.38.37l-.49,1a.54.54,0,0,1-.38.3,2.06,2.06,0,0,1-2.19-.72.58.58,0,0,1,0-.75,1.07,1.07,0,0,0,.2-.52,1,1,0,0,0-.7-1.09.6.6,0,0,1-.33-.3.54.54,0,0,1,0-.45,1,1,0,1,0-1.93-.52,1,1,0,0,0,0,.3.58.58,0,0,1-.1.44.57.57,0,0,1-.4.21,1,1,0,0,0-.91.91,1.06,1.06,0,0,0,.06.5.59.59,0,0,1,0,.23.56.56,0,0,1-.35.52A3.16,3.16,0,0,1,67.14,20a.59.59,0,0,1,0-.64A1.69,1.69,0,0,0,65.92,17a.55.55,0,0,1-.42-.71,1.84,1.84,0,0,0,.06-.47,1.64,1.64,0,0,0-3.16-.68,1.7,1.7,0,0,0-.13.67,2,2,0,0,0,.06.48.62.62,0,0,1,0,.27,1.34,1.34,0,0,1-.07.18.57.57,0,0,1-.37.26,1.67,1.67,0,0,0-1.28,1.23,2,2,0,0,0-.05.42,1.66,1.66,0,0,0,.16.73.57.57,0,0,1-.05.61,3.17,3.17,0,0,1-3.75.71l-.1-.05a.57.57,0,0,1-.2-.68,1,1,0,0,0-.85-1.43.56.56,0,0,1-.49-.65,1,1,0,0,0,0-.29,1,1,0,1,0-2,.22,1,1,0,0,0,.07.29.59.59,0,0,1,0,.45.6.6,0,0,1-.33.3,1,1,0,0,0-.7,1.09,1.07,1.07,0,0,0,.2.52.58.58,0,0,1,0,.75A2.09,2.09,0,0,1,50.3,22a.59.59,0,0,1-.38-.31l-.49-1a.78.78,0,0,0-.38-.36,14.25,14.25,0,0,1,.77,2.91m.79-4.61A9.91,9.91,0,0,0,50.35,20a.6.6,0,0,1,.06.11c.1.2.27.55.38.79a.81.81,0,0,0,.62-.2,2,2,0,0,1-.16-.62,2.14,2.14,0,0,1,1-2.06.2.2,0,0,1,0-.07,2.1,2.1,0,1,1,4.18-.48v.07a2.15,2.15,0,0,1,1.4,1.79,1.93,1.93,0,0,1,0,.48,2.15,2.15,0,0,0,1.81-.29,3.16,3.16,0,0,1-.13-.87,2.82,2.82,0,0,1,.09-.71,2.77,2.77,0,0,1,1.61-1.88,1.93,1.93,0,0,1,0-.24,2.94,2.94,0,0,1,.22-1.12A2.82,2.82,0,0,1,63,13.2a2.7,2.7,0,0,1,1.83,0,2.81,2.81,0,0,1,1.83,2.64,2.09,2.09,0,0,1,0,.25,2.8,2.8,0,0,1,1.7,2.59,3.16,3.16,0,0,1-.13.87,2.15,2.15,0,0,0,1.81.29,1.93,1.93,0,0,1,0-.48,2.15,2.15,0,0,1,1.39-1.79.17.17,0,0,0,0-.07,2.1,2.1,0,1,1,4.18.47v.08a2.15,2.15,0,0,1,1,2.05,2.24,2.24,0,0,1-.16.63.81.81,0,0,0,.62.2c.11-.24.28-.59.38-.79a.39.39,0,0,1,.06-.11,9.91,9.91,0,0,0-.26-1.46c-1.12-4.18-5.63-8.4-13.16-8.45h-.29c-7.54.05-12,4.27-13.16,8.45M63.91,5.91a1.5,1.5,0,1,0,1.47,1.5,1.48,1.48,0,0,0-1.47-1.5M72.6,48.84a8.83,8.83,0,0,1-1.88-3.61v-.06l0-.34a35.7,35.7,0,0,0-6.09-.6,21.42,21.42,0,0,0,.56,2.53,14.11,14.11,0,0,0,2.29,4.43l5.18-2.35m-6.21,2.82a15.42,15.42,0,0,1-2.31-4.56c0-.12-.08-.27-.12-.43,0,.16-.09.31-.12.43a15.51,15.51,0,0,1-2.33,4.59l2.4,1.09Zm-8.35,5,1.52,3.49,21.78-9.9a47.23,47.23,0,0,0,1.6-4.91ZM84.7,42.92a54.06,54.06,0,0,1-2.52,8.18,11.73,11.73,0,0,1-4.08,5c4.28-.09,6.46-1.08,7.39-1.68,3.36-2.15,4.41-7,5.06-10.89l-2-.42-.41,2-1.71-.37.4-2-2-.43-.15.64m.53-2.49s0,.06,0,.09l2,.43.41-2,1.72.36-.41,2,1.87.39c.05-.31.11-.65.16-1A92.11,92.11,0,0,1,92.76,31a11.27,11.27,0,0,1,3.59-5.79h-.78a9.12,9.12,0,0,0-4.55,1c-3.78,1.82-4.71,7.68-5.4,12-.12.81-.25,1.57-.38,2.24v0m12.5-14.9c-.24.2-.55.43-.89.73a18.67,18.67,0,0,0-2.59,4.47l.38,0a2.86,2.86,0,0,1,1.58.59l.08.05A3,3,0,0,0,98,32a1.94,1.94,0,0,0,.66-.11,5,5,0,0,1-1.42-1,3.93,3.93,0,0,0-1-.7.59.59,0,0,1-.37-.66c0-.22.2-.48.71-.48a6.33,6.33,0,0,1,1.47.2,5.57,5.57,0,0,0,1.88.37h0a2.68,2.68,0,0,0,.41,0,6.71,6.71,0,0,1-1.16-.78,5.05,5.05,0,0,0-1-.67.6.6,0,0,1-.4-.67c0-.18.17-.48.7-.48a6.79,6.79,0,0,1,1.51.21,4.8,4.8,0,0,0,1.67.33,4.75,4.75,0,0,0,.56,0,6.53,6.53,0,0,1-1.58-1l-.58-.43A3.75,3.75,0,0,0,98,25.36l-.22.17M92,41.24q-.09.6-.18,1.14c-.16,1-.34,2.21-.58,3.38l16.17-7.35-.07-.14-1.46-3.35Zm14.64-8.12a1.13,1.13,0,0,0,0,.83l2,4.52a1.06,1.06,0,0,0,1,.64A1,1,0,0,0,110,39a1.07,1.07,0,0,0,.57-.61,1.11,1.11,0,0,0,0-.82l-2-4.52a1.06,1.06,0,0,0-2,0m3.42-1a1.08,1.08,0,0,0-.48.44l0,.06,2,4.51s0,0,0,.06l.2,0a1.07,1.07,0,0,0,1-1.53l-1.32-3a1.06,1.06,0,0,0-1-.64,1.07,1.07,0,0,0-.43.09m2.56.25h-.09l1.18,2.7a1.6,1.6,0,0,0,.32-1.76,1.54,1.54,0,0,0-1.41-.94m-5.18,11.18a.56.56,0,0,1,.28-.74l.69-.32-1.2-2.76-15.7,7.14,1.19,2.75.7-.32a.53.53,0,0,1,.41,0,.55.55,0,0,1,.31.29L95.18,52a.56.56,0,0,1-.28.74l-.69.31,1.1,2.52,6.16-2.78-1.09-2.51-.7.31a.54.54,0,0,1-.72-.28L97.9,47.87a.58.58,0,0,1,0-.43.52.52,0,0,1,.29-.31l.69-.31-.31-.71a.58.58,0,0,1,0-.43.55.55,0,0,1,.29-.31l2.39-1.09a.55.55,0,0,1,.72.29l.32.72L103,45a.53.53,0,0,1,.72.28l1.06,2.41a.58.58,0,0,1,0,.43.6.6,0,0,1-.29.32l-.7.31,1.1,2.52L111,48.47,109.93,46l-.69.32a.56.56,0,0,1-.73-.29ZM75.8,56a10,10,0,0,0,4.61-3.9l-.59.08-6.9,3.13A11.65,11.65,0,0,0,75.8,56M73.59,62.3a1.1,1.1,0,0,0,.54,1.44,1.07,1.07,0,0,0,.43.09l.21,0,0-.06,2-4.51,0-.06a1.08,1.08,0,0,0-.48-.44,1.12,1.12,0,0,0-.44-.09,1.07,1.07,0,0,0-1,.64Zm2.2,1.9a1.16,1.16,0,0,0,0,.84,1.06,1.06,0,0,0,2,0l2-4.51a1.11,1.11,0,0,0,0-.84,1.14,1.14,0,0,0-.56-.6,1.12,1.12,0,0,0-.44-.09,1.06,1.06,0,0,0-1,.64Zm2.95,1.35,0,0a1.06,1.06,0,0,0,1.89-.11l1.31-3a1.13,1.13,0,0,0,0-.83,1.08,1.08,0,0,0-.56-.61,1.11,1.11,0,0,0-.43-.09l-.21,0a.14.14,0,0,0,0,.06Zm2.94.2a.36.36,0,0,1,0,.11l0,.08h0a5.65,5.65,0,0,0,1.2,6.1,4.47,4.47,0,0,0,3.26,1.36,6.46,6.46,0,0,0,1.29-.14,2.33,2.33,0,0,1,.38,0,.59.59,0,0,1,.46.21,1.63,1.63,0,0,1,.17.22,3.07,3.07,0,0,0,2.38,1.53,3.33,3.33,0,0,0,2.8-1.53,2.25,2.25,0,0,1,.44-1,2.07,2.07,0,0,1,1.1-.72,2.14,2.14,0,0,1,.06-1.61,2,2,0,0,1,1.13-1.11,2.21,2.21,0,0,1-.21-1.32,2.14,2.14,0,0,1,.45-1,3.48,3.48,0,0,0-.76-3.15,2.8,2.8,0,0,0-2.06-.83c-.27,0-.49,0-.64,0a1.1,1.1,0,0,1-.24,0h0c-.34,0-.49-.26-.67-.55a4.82,4.82,0,0,0-3.93-2.63,5.42,5.42,0,0,0-5.16,3c0,.07,0,.14-.08.2v0a.14.14,0,0,0,0,.06.54.54,0,0,0,0,.11Zm6.41-8.68c-2-.15-3.57.94-4.47,3.1a6.8,6.8,0,0,1,4.22-1.55l.38,0a5.66,5.66,0,0,1,4.15,2.21A3.78,3.78,0,0,0,91.7,59a4.82,4.82,0,0,0-3.61-2m7.67,4.56a3.57,3.57,0,0,0-1.18.2,3.73,3.73,0,0,1,1.92,1.05,4.18,4.18,0,0,1,1.16,3.23l.09,0a3.08,3.08,0,0,0-.06-3.58,2.35,2.35,0,0,0-1.93-.88m3.93,6.82a4,4,0,0,0-1.42-1.26h-.15a1,1,0,0,0-.81,1.61,1,1,0,0,0,.65.41H98a4.34,4.34,0,0,0,1.68-.75m-2.75,3.68a5.84,5.84,0,0,0,1.55-.31,4.1,4.1,0,0,0-1-1.59.93.93,0,0,0-.4-.09,1,1,0,0,0-.92.61,1.05,1.05,0,0,0,0,.78,1,1,0,0,0,.52.56.93.93,0,0,0,.31,0m5.87,5.55a34.08,34.08,0,0,0-5-3.43,9.93,9.93,0,0,1,.19,1.2.55.55,0,0,1-.28.54c6.71,4,10.37,9,10.37,14.22a12.39,12.39,0,0,1-1.95,6.51,7.14,7.14,0,0,1,2.36-1.22,13.23,13.23,0,0,0,1.12-5.29,14.23,14.23,0,0,0-2.91-8.4,11.55,11.55,0,0,1-2.49-2.11,11,11,0,0,1-1.42-2m6-.61a14.83,14.83,0,0,1-6.44-5.18A11.31,11.31,0,0,0,105,79a12.14,12.14,0,0,0,6.76,3.63V79.15a7.3,7.3,0,0,0-3-2.08m-5.25-11.84a18.94,18.94,0,0,1,2.92,7.26,7.79,7.79,0,0,0,1.1,2.71,14.11,14.11,0,0,0,1.65.83,9.7,9.7,0,0,1,2.55,1.53V76.22a14.84,14.84,0,0,0-.67-2.89,13.6,13.6,0,0,0-7.55-8.1m4.63-6.68a20.68,20.68,0,0,0-.77,7.74A14.52,14.52,0,0,1,111.8,72V68.61l-.09-.16a22.75,22.75,0,0,1-3.5-9.9m3.68,26.61a.54.54,0,0,1-.09-.31V83.73a14.87,14.87,0,0,1-3.11-.91,14.8,14.8,0,0,1,2,7.39,14.19,14.19,0,0,1-.9,5l.94-.11c6.42-.53,9.26-1.71,9.29-1.72a.53.53,0,0,1,.64.17s0,0,0,0a9.78,9.78,0,0,0,2.74-4.07,8.74,8.74,0,0,0,.42-4,6.45,6.45,0,0,0-.33-1.36,6.33,6.33,0,0,0-2.3-2.75v4c0,.13,0,.22,0,.24h0a4.17,4.17,0,0,1-4.49,3.5,4.69,4.69,0,0,1-4.85-4m7-2.29a4.47,4.47,0,0,1,1.24.62V80.8a7.55,7.55,0,0,0-2.82-.59v2.46a3.86,3.86,0,0,1,1.58.2m-2.44.93a.57.57,0,0,1-.24-.46v-3c-.16,0-.32.08-.46.13a4.05,4.05,0,0,0-2.87,3.82A3.65,3.65,0,0,0,116.74,88c3,0,3.36-2.2,3.4-2.49v-.13c0-.27-.23-1-1.58-1.45a2.57,2.57,0,0,0-1.6-.07.56.56,0,0,1-.5-.07m-3.57-2.69a5.91,5.91,0,0,1,2.49-1.72,4.48,4.48,0,0,1,1-.25,7,7,0,0,1,4.51.78l.33.14v0a8.21,8.21,0,0,1,2.68,2.44V67.82c-.46-.61-2.55-3.17-5.52-3.17a8.56,8.56,0,0,0-5.51,2.16Zm.71-25a9.93,9.93,0,0,0,.12,8c.09.19.18.36.28.53a9.6,9.6,0,0,1,1.76-.75,10.33,10.33,0,0,1-.28-3.45,27.67,27.67,0,0,1-1.88-4.32m3.4,1.7a11.73,11.73,0,0,0-.16,5.81,8.62,8.62,0,0,1,1.56-.14,7,7,0,0,1,.81,0,11.11,11.11,0,0,1,.89-2.9c.43-1,.8-1.82,1.12-2.63.08-4.2-1.64-8.44-3.21-11.4a36.3,36.3,0,0,1-1,11.21m7-4.68a53.79,53.79,0,0,1-3,8,10.17,10.17,0,0,0-.82,2.66,8.12,8.12,0,0,1,2.93,1.66c.14-.24.26-.49.39-.75,1.64-3.57,1.27-7.95.45-11.54M94.83,73.32A1,1,0,0,0,95,74.76a2.91,2.91,0,0,0,1.47.24h.4a4.25,4.25,0,0,0-.61-1.82A1,1,0,0,0,95.6,73a1,1,0,0,0-.77.37m-1,1.7a4,4,0,0,1-3.12,1.28,3.81,3.81,0,0,1-2.06-.76,3.7,3.7,0,0,0,.6,1,2.38,2.38,0,0,0,2,.94,3,3,0,0,0,2.64-2.36.25.25,0,0,0,0-.07m-46-6.69a7.06,7.06,0,0,1-2,4.52,5.55,5.55,0,0,1-4,1.68h-.35a3.53,3.53,0,0,0,2.22.74A4.9,4.9,0,0,0,47,73.8c1.48-1.44,1.72-3.34.74-5.47M82,72.85a7.06,7.06,0,0,1-2-4.52c-1,2.13-.74,4,.74,5.47a4.9,4.9,0,0,0,3.38,1.46,3.56,3.56,0,0,0,2.22-.74h-.35a5.55,5.55,0,0,1-4-1.68m-4-6.37h0m-8.21-7-.62,1.42a2.67,2.67,0,0,0,3.16,1.59l.29-.67h0l.6-1.39,1-2.29a2.7,2.7,0,0,0-1.29-1.25,2.63,2.63,0,0,0-2-.08Zm0-2.75-4.5,2,3,1.37ZM55.24,61.85h0l.29.67a2.67,2.67,0,0,0,3.16-1.59l-.32-.73L56.9,56.84a2.63,2.63,0,0,0-2,.08,2.7,2.7,0,0,0-1.29,1.25l.39.9Zm0,1.75a2.2,2.2,0,0,1-1.11,1.16,2.08,2.08,0,0,1-.88.19H53.2a2.19,2.19,0,0,1-.12.49,2,2,0,0,1-.36.62,89.87,89.87,0,0,1,22.39,0,2,2,0,0,1-.36-.62,2.19,2.19,0,0,1-.12-.49h-.07a2.08,2.08,0,0,1-.88-.19,2.2,2.2,0,0,1-1.11-1.16,3.83,3.83,0,0,1-1,.13,3.67,3.67,0,0,1-1.53-.34,3.8,3.8,0,0,1-2-2.06l-4.21-1.91-4.2,1.91a3.8,3.8,0,0,1-2,2.06,3.71,3.71,0,0,1-1.53.34,3.83,3.83,0,0,1-1-.13m-5.41,2.88h0m14.06,0A85.64,85.64,0,0,0,48.74,67.8a7.46,7.46,0,0,1,.53,1.49,86.42,86.42,0,0,1,29.29,0,7.69,7.69,0,0,1,.53-1.49,85.67,85.67,0,0,0-15.18-1.32M31,75h.4a2.91,2.91,0,0,0,1.47-.24A1,1,0,0,0,33,73.33a1,1,0,0,0-.77-.38,1,1,0,0,0-.63.22A4.25,4.25,0,0,0,31,75m6.18,1.31A4,4,0,0,1,34.05,75l0,.07a3,3,0,0,0,2.64,2.36h.16a2.4,2.4,0,0,0,1.82-.94,3.7,3.7,0,0,0,.6-1,3.81,3.81,0,0,1-2.06.76m1.19,30.78a2.09,2.09,0,0,0-.19-.36,1.48,1.48,0,0,0-.22-.29,2.93,2.93,0,0,0-1.12-.74,4.51,4.51,0,0,0-.75,0,6.13,6.13,0,0,0-1.06.09c1.07.48,2.19.93,3.34,1.35m12.69,3.22a6,6,0,0,0-2.68-2.25,8.26,8.26,0,0,0-1.94-.7,2.74,2.74,0,0,0-2.5,1,3.69,3.69,0,0,0-.26.38,74.57,74.57,0,0,0,7.38,1.54m33.11-1.54a3.69,3.69,0,0,0-.26-.38,2.74,2.74,0,0,0-2.5-1,8.26,8.26,0,0,0-1.94.7,6,6,0,0,0-2.68,2.25,74.57,74.57,0,0,0,7.38-1.54m8.65-3a6.13,6.13,0,0,0-1.06-.09,4.51,4.51,0,0,0-.75,0,2.93,2.93,0,0,0-1.12.74,1.85,1.85,0,0,0-.22.29,2.09,2.09,0,0,0-.19.36c1.15-.42,2.27-.87,3.34-1.35m-2.07-1.14c1.81-.75,7.3-3,10.9-6a3.22,3.22,0,0,1,2-.62l.32,0A12.11,12.11,0,0,0,107,90.21c0-5.2-4-10.2-11.39-14.13a3.32,3.32,0,0,1-.9-.21,3.93,3.93,0,0,1-3.46,2.69H91a3.43,3.43,0,0,1-2.65-1.33,5.18,5.18,0,0,1-1-2,4.59,4.59,0,0,1-3.15,1.19A6,6,0,0,1,80,74.61a5.4,5.4,0,0,1-1.65-4.21,85.11,85.11,0,0,0-28.95,0,5.4,5.4,0,0,1-1.65,4.21,6,6,0,0,1-4.14,1.77,4.59,4.59,0,0,1-3.15-1.19,5.18,5.18,0,0,1-1,2,3.43,3.43,0,0,1-2.65,1.33h-.23a3.92,3.92,0,0,1-3.46-2.69,3.3,3.3,0,0,1-.91.21C24.86,80,20.83,85,20.83,90.21A12.11,12.11,0,0,0,23.92,98l.32,0a3.22,3.22,0,0,1,2,.62c3.6,3,9.09,5.29,10.89,6l.06,0,.08,0a3.45,3.45,0,0,1,2.34,2.87c1,.34,2,.65,3,.94a3.91,3.91,0,0,1,4-2.21h0c.78.12,3.22.58,4,.74l.28,0a58.18,58.18,0,0,0,13,1.39H64A58.15,58.15,0,0,0,77,107l.28,0c.78-.16,3.22-.62,4-.74h0a3.91,3.91,0,0,1,4,2.21c1-.29,2-.6,3-.94a3.44,3.44,0,0,1,2.38-2.88h0l.09,0m22.42-5.07a15.75,15.75,0,0,0,5.6-4.58,45.78,45.78,0,0,1-7.91,1.26c-2.95.24-4.36,1.51-5,2.44a10.8,10.8,0,0,1,1.91,1.2,12,12,0,0,1,3.4-.43c.63,0,1.3,0,2,.11m14.63.63a.56.56,0,0,1-.19.65c-4.12,3-8.13,4.67-11.94,5a14.41,14.41,0,0,1,4.33,6.07.53.53,0,0,1,.07.28.55.55,0,0,1-.54.56h0a.55.55,0,0,1-.38-.16s-1.33-1.19-6.57-2.41a8.63,8.63,0,0,1-2.44-1,24.81,24.81,0,0,1-4.92,3.68c-5,3.05-7.55,3.79-7.81,3.86a3.78,3.78,0,0,1-1.31.25,2.65,2.65,0,0,1-1.15-.25,3.42,3.42,0,0,1-1.65-2,3.29,3.29,0,0,1,.5-3.43.66.66,0,0,1,.17-.12c1.33-.54,2.16-.91,3.45-1.57l-.25-.52a7.09,7.09,0,0,0-.56-.91l-.06,0c-.81.41-1.64.81-2.49,1.19A15.18,15.18,0,0,1,89,114.78a14.12,14.12,0,0,1,1.69.94,14.75,14.75,0,0,0,7.72,2.18c.46,0,.73,0,.73,0a.55.55,0,0,1,.59.48.56.56,0,0,1-.43.63,53.85,53.85,0,0,1-10.53,1.19c-.41,0-.82,0-1.21,0a13.32,13.32,0,0,1,2.38,6.69.37.37,0,0,1,0,.11.55.55,0,0,1-.54.56h0a.54.54,0,0,1-.5-.33s-1-2.21-5.19-4.08a22.46,22.46,0,0,1-3.54-2,27.31,27.31,0,0,1-8.53,1.2c-1.3,0-2.52-1.23-3.32-2.27a9.24,9.24,0,0,0,1,4.91,6,6,0,0,0,2.19-.28c.24-.07.48-.14.78-.2l.15,0a3.62,3.62,0,0,1,2.22.92,2,2,0,0,1,0,2.87h0l-.06.05,0,0,0,0,0,0a7.74,7.74,0,0,1-2.71.45,8.5,8.5,0,0,1-3.78-.88,8.84,8.84,0,0,1-4-4.1,8.76,8.76,0,0,1-4,4.1,8.53,8.53,0,0,1-3.78.88,7.74,7.74,0,0,1-2.71-.45h0l0,0-.06,0,0,0-.06-.05h0a2,2,0,0,1,0-2.87,3.62,3.62,0,0,1,2.22-.92l.15,0c.3.06.54.13.78.2a6,6,0,0,0,2.19.28,9.24,9.24,0,0,0,1-4.91c-.8,1-2,2.27-3.32,2.27a27.27,27.27,0,0,1-8.56-1.21,23.55,23.55,0,0,1-3.56,2c-4.16,1.88-5.18,4.06-5.19,4.08a.54.54,0,0,1-.5.33.32.32,0,0,1-.14,0,.55.55,0,0,1-.41-.58,13.35,13.35,0,0,1,2.38-6.76c-.39,0-.79,0-1.21,0h0A53.76,53.76,0,0,1,28.52,119a.56.56,0,0,1-.44-.63.56.56,0,0,1,.6-.48s.27,0,.73,0a14.75,14.75,0,0,0,7.72-2.18,14.18,14.18,0,0,1,1.82-1,15.3,15.3,0,0,1-5.13-5.37c-.86-.38-1.71-.78-2.52-1.2l-.06,0a7.09,7.09,0,0,0-.56.91l-.25.52c1.29.66,2.12,1,3.45,1.57a.66.66,0,0,1,.17.12,3.29,3.29,0,0,1,.5,3.43,3.42,3.42,0,0,1-1.65,2,2.65,2.65,0,0,1-1.15.25,3.78,3.78,0,0,1-1.31-.25c-.25-.07-2.82-.81-7.81-3.86a24.39,24.39,0,0,1-4.92-3.68,8.63,8.63,0,0,1-2.44,1c-5.3,1.23-6.56,2.4-6.57,2.41a.52.52,0,0,1-.38.17.6.6,0,0,1-.31-.1.58.58,0,0,1-.2-.69,14.38,14.38,0,0,1,4.36-6.13c-3.81-.31-7.82-2-11.94-5a.56.56,0,0,1-.19-.65.54.54,0,0,1,.57-.36S2.68,100,6,100H6c2.22,0,4.48-.11,6.72-.31a18.6,18.6,0,0,1-4.26-3.82,11.43,11.43,0,0,1-5.08-6,10.17,10.17,0,0,1-.51-4.16.59.59,0,0,1,0-.13V67.64a.57.57,0,0,1,.1-.31,7.54,7.54,0,0,1,.88-1.08c-.17-.3-.35-.62-.51-1-2.19-4.67-1.19-10.52,0-14.61a.54.54,0,0,1,.57-.39.55.55,0,0,1,.5.49A25.69,25.69,0,0,0,5.65,55.5a29.19,29.19,0,0,1,4.71-12,.54.54,0,0,1,.69-.2.56.56,0,0,1,.29.67s-1.44,5.09.55,13.6c.08.32.14.63.2.93,1.43-3,1.42-4.18,1.42-4.19a.54.54,0,0,1,1-.27c2.45,5.2,1.54,8.89.2,11.18a8.19,8.19,0,0,1,1.13.93.6.6,0,0,1,.13.25,21.1,21.1,0,0,0,2.49-7.76A12.54,12.54,0,0,0,18.41,55a.56.56,0,0,1,.36-.67.55.55,0,0,1,.68.32,26.4,26.4,0,0,1,2.12,10.81,18.93,18.93,0,0,1,4.49-2.13.56.56,0,0,1,.66.28.57.57,0,0,1-.17.71A7.44,7.44,0,0,0,25,66.15a18.3,18.3,0,0,0-2.56,6.57,8.89,8.89,0,0,1-.32,1.18,12.41,12.41,0,0,0,3.4-4.27.54.54,0,0,1,1.05.18,16.08,16.08,0,0,1-.63,5.77,37.87,37.87,0,0,1,3.87-2.48,10.82,10.82,0,0,1-1.36-.42.55.55,0,0,1-.32-.72,9.53,9.53,0,0,1,.9-1.81A9.27,9.27,0,0,1,27,69a.57.57,0,0,1-.12-.78,7.22,7.22,0,0,1,2-2,4.07,4.07,0,0,1,.36-4.42,3.41,3.41,0,0,1,2.79-1.31,5,5,0,0,1,2.29.58,4.85,4.85,0,0,1,.87-2.72A5.94,5.94,0,0,1,39.66,56h.44c2.5,0,4.39,1.59,5.36,4.45A2,2,0,0,1,46,60a2,2,0,0,1,.87-.19H47a2.17,2.17,0,0,1,1.26-1.71,2.05,2.05,0,0,1,.88-.19,2.14,2.14,0,0,1,1.21.38,2.08,2.08,0,0,1,2.35-.65,3.7,3.7,0,0,1,.42-.66c-.43.08-.86.13-1.3.17h-.13c-.28,0-.7,0-1.21,0-2.13,0-6.08-.25-8.6-1.86s-3.91-4.57-4.71-7.58l-1.24,2.83a.5.5,0,0,1-.3.3.55.55,0,0,1-.42,0l-.69-.32-.61,1.39.7.32a.56.56,0,0,1,.27.74L33.3,56.54a.56.56,0,0,1-.5.33.59.59,0,0,1-.22,0l-7.17-3.23a.55.55,0,0,1-.29-.31.58.58,0,0,1,0-.43l1.54-3.54A.55.55,0,0,1,27.4,49l.69.31.62-1.41-.7-.32a.55.55,0,0,1-.27-.74l.3-.7-1.38-.63-.32.72a.54.54,0,0,1-.72.28l-.69-.31-.61,1.39.7.31a.58.58,0,0,1,.27.74l-1.54,3.54a.55.55,0,0,1-.72.29l-7.17-3.24a.52.52,0,0,1-.29-.31.54.54,0,0,1,0-.43L17.12,45a.54.54,0,0,1,.72-.29l.7.32.61-1.42-.69-.31a.57.57,0,0,1-.28-.74l1.15-2.64a2.11,2.11,0,0,1-2,.13,2.17,2.17,0,0,1-1.26-1.71H16a2,2,0,0,1-.87-.19,2.21,2.21,0,0,1-1.28-1.86,2.75,2.75,0,0,1-1.08-3.43,2.66,2.66,0,0,1,2.42-1.6,2.36,2.36,0,0,1,.8.13,2.14,2.14,0,0,1,1.33-.47,2.08,2.08,0,0,1,.88.19,2.11,2.11,0,0,1,.76.59,2.15,2.15,0,0,1,1.22-.38,2,2,0,0,1,.87.19,2.17,2.17,0,0,1,1.14,1.22,2.27,2.27,0,0,1,.12,1.15L35.72,40c-.45-2.88-1-6.33-1.46-8.11H34a5.43,5.43,0,0,0-.57,0,1.84,1.84,0,0,0-1.05.39l-.08.06a4.08,4.08,0,0,1-2.33.82h0a3.24,3.24,0,0,1-2.52-1.27.56.56,0,0,1,0-.61A.55.55,0,0,1,28,31a2,2,0,0,0,1.4-.36,6.09,6.09,0,0,1-1.36.17,3.11,3.11,0,0,1-2.45-.93.54.54,0,0,1-.08-.58.53.53,0,0,1,.47-.34,2.72,2.72,0,0,0,1.17-.31,4.62,4.62,0,0,1-.82.07,3.69,3.69,0,0,1-2.87-1.2.56.56,0,0,1,.5-.91,3.78,3.78,0,0,0,.56,0,3.24,3.24,0,0,0,2.17-1l.6-.45a5.1,5.1,0,0,1,1.32-.69l-.06,0,.48-.1a4,4,0,0,1,.79-.13,16.25,16.25,0,0,1,1.8-.16h1.86l.24,0h.14l.28,0h.07l.34,0h.09l.24,0,.11,0,.2,0,.12,0,.18.05.13,0,.17.05.13,0,.17.06.12,0,.17.07.12,0,.17.07.12,0L37,25l.1,0,.3.14c5.08,2.45,5.56,10.84,6.38,15,.18.88.34,1.71.53,2.49.12.48.23.93.34,1.36l9.62,4.37a8,8,0,0,0,1.86-3.3l-.52.14h-.23l-.07,0h0a1.81,1.81,0,0,1-1.1-1,2.65,2.65,0,0,1,0-1.79,17.21,17.21,0,0,0-2-3.3.55.55,0,0,1-.06-.61.54.54,0,0,1,.53-.3,1.66,1.66,0,0,1,.54.14c-.56-1.18-1-2.33-1.44-3.43h-.07a.55.55,0,0,1-.54-.47.22.22,0,0,1,0-.08,27.61,27.61,0,0,0-2.26-4.76.56.56,0,0,1,.06-.67.52.52,0,0,1,.64-.13,3.21,3.21,0,0,1,.47.28c-.07-.31-.13-.61-.18-.89a35.52,35.52,0,0,1-.53-3.79.47.47,0,0,1-.26-.11.61.61,0,0,1-.23-.41,16.13,16.13,0,0,0-1.59-5.16.57.57,0,0,1,0-.6.56.56,0,0,1,.55-.21,1.81,1.81,0,0,1,1.3,1.17l.26.09c0-.33.12-.64.19-.92,1.35-5,6.22-8.56,12.41-9.17a2.64,2.64,0,0,1,1.25-4.21V2.67H61.93V1.22h1.28V0h1.41V1.22H65.9V2.67H64.62V4.89A2.64,2.64,0,0,1,65.87,9.1c6.19.61,11.06,4.14,12.41,9.17.07.28.13.58.19.92l.26-.1A1.79,1.79,0,0,1,80,17.93a.54.54,0,0,1,.55.21.59.59,0,0,1,0,.6A16.21,16.21,0,0,0,79,23.9a.56.56,0,0,1-.22.41.46.46,0,0,1-.26.1,38.81,38.81,0,0,1-.72,4.7,3.13,3.13,0,0,1,.48-.29A.52.52,0,0,1,79,29a.56.56,0,0,1,.06.67,26.26,26.26,0,0,0-2.31,4.91.55.55,0,0,1-.27.34.58.58,0,0,1-.26.06h0c-.42,1.13-.9,2.28-1.44,3.43a1.65,1.65,0,0,1,.55-.14.55.55,0,0,1,.53.29.58.58,0,0,1-.05.62,16.53,16.53,0,0,0-2,3.3,2.71,2.71,0,0,1,0,1.79,1.81,1.81,0,0,1-1.1,1h-.07l-.11,0-.14,0h0l-.43-.12a8,8,0,0,0,1.83,3.26L83.31,44c.1-.42.22-.86.33-1.32.19-.78.35-1.61.53-2.49.82-4.15,1.3-12.54,6.38-15l.3-.14.1,0,.19-.09.11,0,.18-.07.12,0,.17-.07.12,0,.17-.06.13,0,.17-.05.12,0,.18-.05.13,0,.2,0,.11,0,.24,0h.09l.34,0h.07l.28,0h.13l.25,0h1.86a15.72,15.72,0,0,1,1.74.15,4.31,4.31,0,0,1,1.18.21l.15,0h0a5.4,5.4,0,0,1,1.36.71l.6.45a3.24,3.24,0,0,0,2.17,1,3.91,3.91,0,0,0,.57,0,.56.56,0,0,1,.54.28.58.58,0,0,1,0,.63,3.7,3.7,0,0,1-2.86,1.2,4.73,4.73,0,0,1-.83-.07,2.76,2.76,0,0,0,1.17.31.54.54,0,0,1,.48.34.58.58,0,0,1-.08.58,3.17,3.17,0,0,1-2.46.93h0a6,6,0,0,1-1.35-.17,1.92,1.92,0,0,0,1.13.38l.27,0a.56.56,0,0,1,.54.28.56.56,0,0,1,0,.61A3.26,3.26,0,0,1,98,33.14a4.11,4.11,0,0,1-2.34-.82l-.08-.06a1.83,1.83,0,0,0-1-.39,5.43,5.43,0,0,0-.57,0h-.33c-.46,1.77-1,5.2-1.44,8.07l13.3-6.05a2.27,2.27,0,0,1,.12-1.15,2.17,2.17,0,0,1,1.14-1.22,2,2,0,0,1,.87-.19,2.15,2.15,0,0,1,1.22.38,2.11,2.11,0,0,1,.76-.59,2.08,2.08,0,0,1,.88-.19,2.14,2.14,0,0,1,1.33.47,2.36,2.36,0,0,1,.8-.13,2.66,2.66,0,0,1,2.42,1.6A2.75,2.75,0,0,1,114,36.28a2.21,2.21,0,0,1-1.28,1.86,2.05,2.05,0,0,1-.88.19h-.06A2.17,2.17,0,0,1,110.49,40a2.11,2.11,0,0,1-2-.13l1.15,2.64a.57.57,0,0,1-.28.74l-.69.31.61,1.42.7-.32a.54.54,0,0,1,.72.29l1.54,3.53a.58.58,0,0,1,0,.43.55.55,0,0,1-.29.31L104.8,52.5a.55.55,0,0,1-.72-.29l-1.54-3.54a.51.51,0,0,1,0-.42.54.54,0,0,1,.29-.32l.69-.31-.61-1.39-.69.31a.54.54,0,0,1-.72-.28l-.32-.72-1.38.63.3.7a.57.57,0,0,1-.27.74l-.7.32.62,1.41.69-.31a.55.55,0,0,1,.73.28l1.54,3.54a.58.58,0,0,1,0,.43.55.55,0,0,1-.29.31l-7.17,3.23a.59.59,0,0,1-.22,0,.56.56,0,0,1-.5-.33L93,53a.57.57,0,0,1,.28-.74l.7-.32-.61-1.39-.69.32a.56.56,0,0,1-.42,0,.5.5,0,0,1-.3-.3l-1.18-2.7c-.81,3-2.14,5.82-4.68,7.45s-6.47,1.86-8.61,1.86c-.5,0-.92,0-1.2,0h-.13c-.47,0-.94-.1-1.4-.18a3.83,3.83,0,0,1,.43.67,2.11,2.11,0,0,1,2.35.65,2.14,2.14,0,0,1,1.21-.38,2.05,2.05,0,0,1,.88.19,2.17,2.17,0,0,1,1.26,1.71h.07a2,2,0,0,1,.87.19,2,2,0,0,1,.56.37c1-2.86,2.85-4.45,5.36-4.45h.44a5.91,5.91,0,0,1,4.42,2.42,4.79,4.79,0,0,1,.88,2.72,5,5,0,0,1,2.29-.58,3.41,3.41,0,0,1,2.79,1.31,4,4,0,0,1,.35,4.42,7.14,7.14,0,0,1,2,2,.57.57,0,0,1-.12.78,9.27,9.27,0,0,1-2,1.12,9.53,9.53,0,0,1,.9,1.81.55.55,0,0,1-.32.72,10.82,10.82,0,0,1-1.36.42,37.87,37.87,0,0,1,3.87,2.48,16.08,16.08,0,0,1-.63-5.77.55.55,0,0,1,.45-.52.56.56,0,0,1,.6.34,12.41,12.41,0,0,0,3.4,4.27,8.89,8.89,0,0,1-.32-1.18,18.12,18.12,0,0,0-2.56-6.57,7.44,7.44,0,0,0-1.59-1.84.57.57,0,0,1-.17-.71.56.56,0,0,1,.66-.28,18.93,18.93,0,0,1,4.49,2.13,26.4,26.4,0,0,1,2.12-10.81.55.55,0,0,1,.68-.32.56.56,0,0,1,.36.67,12.12,12.12,0,0,0-.09,3.68,21.29,21.29,0,0,0,2.48,7.76.62.62,0,0,1,.14-.25,8.68,8.68,0,0,1,1.13-.94c-1.34-2.28-2.25-6,.2-11.17a.54.54,0,0,1,.63-.3.55.55,0,0,1,.41.58s0,1.15,1.42,4.18c.06-.3.12-.61.2-.93a36.76,36.76,0,0,0,1-10,16.61,16.61,0,0,0-.49-3.57.57.57,0,0,1,.3-.67.54.54,0,0,1,.69.2,29.19,29.19,0,0,1,4.71,12,25.69,25.69,0,0,0,1.27-4.73.55.55,0,0,1,.5-.49.54.54,0,0,1,.57.39c1.22,4.09,2.22,9.94,0,14.61-.17.35-.34.67-.51,1a8.45,8.45,0,0,1,.88,1.08.56.56,0,0,1,.09.31V85.56a.39.39,0,0,1,0,.15,10.81,10.81,0,0,1-5.58,10.18,18.63,18.63,0,0,1-4.26,3.82c2.24.2,4.5.31,6.72.31,3.29,0,5.33-.23,5.35-.23a.54.54,0,0,1,.57.36"/><path class="cls-1" d="M215,136.53c.67.05,1.34.08,2,.15.26,0,.26.33.35.52.68,1.38,1.34,2.76,2,4.13.08.17.14.44.36.42s.27-.27.36-.44a39.69,39.69,0,0,0,1.88-4,.82.82,0,0,1,1-.66c.47.05,1-.16,1.53.12-1.29.11-1.15,1-1.14,1.82,0,1.17,0,2.33,0,3.49,0,.83-.07,1.76,1,2.1h-3.21a1.54,1.54,0,0,0,.81-1.4c.08-1.31.06-2.62,0-3.93a.21.21,0,0,0-.15-.24c-.26,0-.27.31-.36.49-.74,1.5-1.45,3-2.08,4.58-.07.19-.08.5-.37.49s-.28-.32-.35-.51c-.63-1.71-1.38-3.36-2.17-5-.32.1-.27.34-.28.51-.06,1.11-.11,2.22-.16,3.33a1.52,1.52,0,0,0,1,1.67h-2.55c1.28-.43,1.09-1.56,1.18-2.56s.24-1.92.25-2.88C216,137.11,216.32,137.44,215,136.53Z"/><path class="cls-1" d="M248.73,144.1c1.21-.25,1.07-1.15,1.07-2,0-1.29,0-2.58,0-3.86,0-1-.07-1.06-1-1.57,1.85,0,3.54-.42,5.22,0a3.71,3.71,0,0,1,2.84,3.9,4,4,0,0,1-3.23,3.57A19.34,19.34,0,0,1,248.73,144.1Zm2.47-3.84v2.23c0,1.28.78,1.79,2,1.34a3.22,3.22,0,0,0,2-2.62,3.37,3.37,0,0,0-3.09-4.34c-.63,0-1,.16-.93.87S251.2,139.42,251.2,140.26Z"/><path class="cls-1" d="M193.64,136.75c1.59-.06,3.16-.44,4.74-.1a3.65,3.65,0,0,1,3.15,3.56,3.81,3.81,0,0,1-3,3.89c-1.67.46-3.33.09-5.07,0,1.2-.2,1-1.14,1-1.88a40.12,40.12,0,0,0,0-4.52C194.44,137.12,194.06,137,193.64,136.75Zm2.25,3.46c0,.74,0,1.48,0,2.22,0,1.33.79,1.86,2,1.38,1.54-.59,2-1.88,2.08-3.36a3.2,3.2,0,0,0-3.18-3.58c-.65,0-1,.21-.94.89S195.89,139.39,195.89,140.21Z"/><path class="cls-1" d="M304.53,144.39a3.83,3.83,0,0,1-4-4.16,4.11,4.11,0,0,1,8.21.29A3.93,3.93,0,0,1,304.53,144.39Zm2.68-3.7a4.87,4.87,0,0,0-1-3,2.13,2.13,0,0,0-3.81.64,4.39,4.39,0,0,0-.29,1.67,4.19,4.19,0,0,0,1.6,3.64,1.92,1.92,0,0,0,3.1-.85A4.66,4.66,0,0,0,307.21,140.69Z"/><path class="cls-1" d="M237,136.75c.92-.11,1.75-.1,2.65-.16-1.38.6-1,1.8-1.08,2.82-.06,1.41,0,2.83,0,4.24,0,.23.13.56-.15.66s-.47-.2-.63-.41c-1.4-1.79-3-3.44-4.46-5.15-.14-.16-.26-.45-.49-.39s-.17.42-.18.64c0,1.07,0,2.13,0,3.2,0,.8-.13,1.64.93,2h-2.46c1-.41,1-1.25,1-2.11,0-1.09.09-2.18.15-3.26s.1-1.87-1.33-2a2.76,2.76,0,0,1,2.69.27c1.24,1.44,2.51,2.85,3.85,4.19.16.16.27.52.56.37s.12-.45.12-.68c0-.72,0-1.44,0-2.16C238.14,137.94,238.25,137,237,136.75Z"/><path class="cls-1" d="M327.49,139.9c0,2.15,0,4.31,0,6.46,0,.64-.27.64-.74.65s-.68-.09-.68-.64q0-6.47,0-12.92c0-.64.27-.64.74-.65s.69.09.68.64C327.47,135.59,327.49,137.75,327.49,139.9Z"/><path class="cls-1" d="M310.46,144.16c.85-.33.88-1,.91-1.78,0-1.11.12-2.22.21-3.33s.21-2.07-1.38-2.26a2.73,2.73,0,0,1,2.88.47c1.19,1.42,2.48,2.75,3.75,4.09.13.14.26.38.46.32s.2-.37.2-.57a31,31,0,0,0-.1-3.34c-.06-.66-.61-.75-1.06-1,.86-.07,1.7-.07,2.63-.11-1.28.46-1,1.49-1,2.4a33.08,33.08,0,0,0,0,4.67c0,.22.14.56-.15.67s-.48-.2-.64-.4c-1.37-1.78-2.92-3.41-4.4-5.1-.17-.19-.3-.45-.63-.53a3.6,3.6,0,0,0-.19,1.52c0,.77,0,1.54,0,2.3,0,1.3,0,1.31,1.14,2Z"/><path class="cls-1" d="M169.25,138.66a.85.85,0,0,1-.33-.45,2.62,2.62,0,0,0-4.37-.58c-1.74,2-1,5.59,1.39,6.34a1.46,1.46,0,0,0,1.64-.24,3.15,3.15,0,0,0,.06-2.08c-.25-.41-.75-.3-1.21-.63h3.38c-.93.72-.73,1.65-.47,2.56.08.31-.12.37-.29.41a7.92,7.92,0,0,1-4.42.15,3.73,3.73,0,0,1-2.61-3.51,3.89,3.89,0,0,1,2.09-3.64,6.35,6.35,0,0,1,4.73-.26c.17.05.32.12.33.34C169.18,137.58,169.45,138.07,169.25,138.66Z"/><path class="cls-1" d="M142.31,140c0,2.13,0,4.26,0,6.39,0,.54-.18.64-.67.65s-.59-.2-.59-.65q0-6.47,0-12.93c0-.54.18-.64.67-.65s.6.2.6.65C142.3,135.62,142.31,137.8,142.31,140Z"/><path class="cls-1" d="M258.55,136.65c1.12,0,2.17,0,3.27,0-1.11.36-1,1.24-1,2.07a16.11,16.11,0,0,0,.13,3.4,2.1,2.1,0,0,0,2.16,1.65,2,2,0,0,0,2-1.67,17.1,17.1,0,0,0,.27-4,1.49,1.49,0,0,0-1.08-1.48c.87,0,1.71,0,2.6,0-1.26.4-1.08,1.4-1.1,2.31a12.75,12.75,0,0,1-.28,3.32c-.45,1.63-1.57,2.29-3.54,2.09a2.66,2.66,0,0,1-2.5-2.7c-.1-1.11-.12-2.22-.11-3.34C259.41,137.63,259.49,136.93,258.55,136.65Z"/><path class="cls-1" d="M246.3,138.22c-.27-1.34-1.27-1.27-2.2-1.3-.35,0-.57.08-.58.49,0,.74-.08,1.48-.11,2.22a.47.47,0,0,0,.32.52,1.85,1.85,0,0,0,2.13-.79v2.08c-.3-.3-.4-.72-.84-.81-1.3-.28-1.61,0-1.61,1.29a.75.75,0,0,0,0,.15c.1.59-.32,1.37.48,1.71a2.61,2.61,0,0,0,2.86-.76c.11-.16.15-.37.37-.43.18,1.09-.28,1.65-1.32,1.65-1.61,0-3.22,0-4.86-.08.37-.31.95-.35,1-.94s.1-1,.11-1.47c0-1.22.05-2.43.05-3.64,0-.62-.12-1.2-.93-1.33a3.69,3.69,0,0,1,1.73-.15,21.25,21.25,0,0,0,3.09,0c.37-.05.51,0,.5.41v1.09Z"/><path class="cls-1" d="M205.29,144.17h-2.83c1.77-.8,1.77-2.56,2.45-3.91.43-.88.72-1.83,1.08-2.75a1,1,0,0,1,.21-.38c.23-.22.35-.67.68-.61s.26.5.36.77c.65,1.75,1.28,3.52,1.94,5.27a2.24,2.24,0,0,0,1.3,1.58H207.3c.86-.34.64-1,.44-1.58s-.44-1.3-1.43-1.23c-1.43.1-1.83.4-2,1.84C204.29,143.76,204.78,143.81,205.29,144.17Zm.81-6c-.33.92-.61,1.66-.88,2.41a.23.23,0,0,0,.18.34,5.1,5.1,0,0,0,1.46,0,.22.22,0,0,0,.19-.32A12.29,12.29,0,0,0,206.1,138.13Z"/><path class="cls-1" d="M285,144.16h-3.31c.39-.32,1-.38.77-1a10.31,10.31,0,0,0-.41-1.26c-.47-1-1.38-.51-2.09-.52-.93,0-.79.94-1,1.5s-.05.77.88,1.23h-2.66c.93-.34,1.2-1.17,1.52-2,.6-1.51,1.19-3,1.79-4.54.18-.47.44-1,.89-1.08s.36.67.5,1.05c.59,1.57,1.16,3.14,1.73,4.72A2.83,2.83,0,0,0,285,144.16Zm-4.34-3.23c1.08,0,1.08,0,.71-1.05a10.09,10.09,0,0,0-.34-1c-.09-.19-.08-.52-.32-.53s-.26.3-.33.5l-.4,1C279.63,140.91,279.64,140.93,280.68,140.93Z"/><path class="cls-1" d="M186.7,144.17h-2.45c1.15-.52,1.33-1.68,1.75-2.66.52-1.25,1-2.52,1.5-3.79a2,2,0,0,1,.13-.34c.2-.34.41-.84.76-.84s.36.57.48.89c.63,1.69,1.24,3.39,1.86,5.08a2.44,2.44,0,0,0,1.32,1.64h-3.29c.45-.31.94-.52.69-1.13-.18-.45-.31-.93-.5-1.38a.55.55,0,0,0-.5-.27h-.66c-1.31,0-1.82.52-1.85,1.85C185.93,143.62,186,143.69,186.7,144.17Zm1.07-6.07a16.66,16.66,0,0,0-1,2.41.26.26,0,0,0,.08.33,4,4,0,0,0,1.66,0c.13-.09.11-.19.07-.32C188.36,139.78,188.1,139.05,187.77,138.1Z"/><path class="cls-1" d="M293.37,138.63c-.43-.48-.52-1-.89-1.28a2.69,2.69,0,0,0-4.29,1.07,4.51,4.51,0,0,0,.44,4.32,2.68,2.68,0,0,0,4.64-.09c.05-.08.07-.2.2-.19a1.35,1.35,0,0,1-1.05,1.74,6.25,6.25,0,0,1-3.35,0,3.86,3.86,0,0,1-2.82-4.1,4,4,0,0,1,3.36-3.54,8.47,8.47,0,0,1,2.84.09c.81.13,1,.53,1,1.26C293.39,138.06,293.39,138.25,293.37,138.63Z"/><path class="cls-1" d="M275.43,138.51c-.35-.35-.43-.87-.83-1.19a2.68,2.68,0,0,0-4.2,1,4.38,4.38,0,0,0,.28,4.25c1.24,2,3.44,1.91,4.9-.12a1.29,1.29,0,0,1-.82,1.7,6.4,6.4,0,0,1-3.42,0,3.83,3.83,0,0,1-2.94-4,4,4,0,0,1,3.39-3.67,7.92,7.92,0,0,1,2.83.1c.74.12,1.05.42.93,1.16C275.52,138,275.64,138.27,275.43,138.51Z"/><path class="cls-1" d="M153.46,136.7c.87-.07,1.68,0,2.54-.06-1.12.32-1.37,1.27-1.77,2.1q-1.18,2.47-2.13,5c-.09.23-.13.53-.43.51s-.24-.33-.31-.53c-.7-2-1.53-4-2.33-5.92-.23-.57-.7-.84-1.28-1.24H151c-1,.52-.5,1.21-.26,1.83.45,1.19.94,2.37,1.44,3.61a1.28,1.28,0,0,0,.53-.78c.42-1,.8-2,1.24-2.93C154.27,137.65,154.37,137.07,153.46,136.7Z"/><path class="cls-1" d="M176.84,136.75c1.09-.17,2.12,0,3.14-.25,0,.38-.17.37-.32.42a.79.79,0,0,0-.59.83c0,1.73,0,3.46,0,5.19,0,.57.31.84.88.87,1.33.09,1.35.09,2.91-1.3a5,5,0,0,1-.34,1.51.4.4,0,0,1-.46.28,40.21,40.21,0,0,0-5.15-.07.86.86,0,0,1-.38-.13c1.28-.18,1.12-1.09,1.12-1.93,0-1.36,0-2.72,0-4.08C177.68,137.47,177.63,136.93,176.84,136.75Z"/><path class="cls-1" d="M171.77,136.68h3.16c-1,.22-.9,1-.9,1.72,0,1.33,0,2.67,0,4,0,1.16,0,1.16,1.11,1.75h-3.44c1.18-.48.9-1.53.92-2.44,0-1.13,0-2.27,0-3.41C172.65,137.6,172.59,137,171.77,136.68Z"/><path class="cls-1" d="M160.21,144.16h-3.29c1-.37.94-1.15.94-1.93,0-1.29,0-2.57,0-3.86,0-.73,0-1.38-.88-1.7h3.32c-.41.3-.91.31-1,.74a6.89,6.89,0,0,0-.06,1.11c0,1.34,0,2.68,0,4C159.25,143.28,159.4,143.87,160.21,144.16Z"/><path class="cls-1" d="M226.3,136.68h3.08c-1,.34-.89,1.21-.89,2,0,1.17,0,2.33,0,3.5,0,.81-.1,1.69,1,2h-3.35L226,144c1.27-.11,1.12-1,1.13-1.72,0-1.34.09-2.67,0-4C227.06,137.6,227.09,137,226.3,136.68Z"/><path class="cls-1" d="M298.72,144.18h-3.33c1.47-.58.83-1.9.95-2.86a19.16,19.16,0,0,0,0-3.63c0-.55-.38-.73-.78-1h3.06c-.92.33-.88,1.11-.88,1.87,0,1.29,0,2.58,0,3.87C297.71,143.19,297.82,143.88,298.72,144.18Z"/><path class="cls-1" d="M303.77,135.57a7.85,7.85,0,0,1,1.59-1.31.5.5,0,0,1,.77.13c.21.36-.17.46-.38.55A4.14,4.14,0,0,1,303.77,135.57Z"/></g></g></svg>