<svg xmlns="http://www.w3.org/2000/svg" viewBox="0 0 37.15 33.92"><defs><style>.cls-1{fill:#1c3180;}</style></defs><g id="Capa_2" data-name="Capa 2"><g id="Capa_1-2" data-name="Capa 1"><path class="cls-1" d="M8.57,27.21a21.42,21.42,0,0,1-3.64-2.47,13.58,13.58,0,0,1-4.79-9.5C.07,14.39,0,13.54,0,12.69c0-.15,0-.34.1-.42s.34.08.44.2a2.21,2.21,0,0,0,.53.57c-.26-2.85.48-5.49,1-8.22.58.23.48.87.94,1.21A12.55,12.55,0,0,1,5.72.4c.12-.16.2-.43.43-.4s.26.35.3.57A26.09,26.09,0,0,0,8.2,6.42c1.58,3.29,3.94,5.66,7.64,6.44.91.2.91.19.92-.73a8.47,8.47,0,0,1,8.73-8.56,8.16,8.16,0,0,1,7.65,5.26,1.59,1.59,0,0,0,1.14,1c.82.22,1.63.51,2.44.75.52.16.58.36.14.71-.73.57-1.41,1.22-2.17,1.74a2.1,2.1,0,0,0-.93,1.84,18.1,18.1,0,0,1-4.28,11.38,21.09,21.09,0,0,1-13.62,7.45,16.66,16.66,0,0,1-8.75-.9A17.49,17.49,0,0,1,.37,27.48c-.1-.11-.26-.25-.15-.4S.61,27,.8,27a28,28,0,0,0,5.7.55A8.33,8.33,0,0,0,8.57,27.21Z"/></g></g></svg>