<svg xmlns="http://www.w3.org/2000/svg" viewBox="0 0 48.93 33.98"><defs><style>.cls-1{fill:#1c3180;}</style></defs><g id="Capa_2" data-name="Capa 2"><g id="Capa_1-2" data-name="Capa 1"><path class="cls-1" d="M24.59,0h16.3a7.82,7.82,0,0,1,8,8q0,9,0,18A7.86,7.86,0,0,1,41,34Q24.52,34,8,34A7.77,7.77,0,0,1,.18,26.51Q-.18,16.9.18,7.28A7.8,7.8,0,0,1,7.68,0C13.31,0,19,0,24.59,0ZM18.8,7.51V26.32a1.28,1.28,0,0,0,.27-.05q6.76-4.45,13.52-8.89c.67-.44.28-.63-.12-.89-3.15-2.07-6.3-4.16-9.46-6.23C21.67,9.37,20.31,8.49,18.8,7.51Z"/></g></g></svg>