<svg xmlns="http://www.w3.org/2000/svg" viewBox="0 0 220.48 163.13"><defs><style>.cls-1{fill:#e7e7e7;}.cls-2{fill:#fff;}.cls-3{fill:#e9c330;}.cls-4{fill:#333;}</style></defs><g id="Capa_2" data-name="Capa 2"><g id="Capa_1-2" data-name="Capa 1"><path class="cls-1" d="M15.22,95.34c0,6.66-.89,11.51-10,11.51a30.09,30.09,0,0,1-4.06-.29v-7c.49,0,1.25.11,2,.11,2.35,0,3-.73,3-3.36V62.17h9Z" transform="translate(-1.16)"/><path class="cls-1" d="M28.64,95.78l-1.15,10.49H18.31l6.62-44.1H38.34l6.78,44.1H35.76L34.47,95.78ZM33.7,88.3c-.66-5.64-1.59-14.23-2-18.45h-.36c-.16,3.07-1.27,13-1.89,18.45Z" transform="translate(-1.16)"/><path class="cls-1" d="M51.39,106.27l-7-44.1h9.57l1.67,16.34c.58,5.67,1.32,12.06,1.64,17.68h.36c.3-5.61,1.06-11.65,1.56-17.62l1.46-16.4H70l-6.91,44.1Z" transform="translate(-1.16)"/><path class="cls-1" d="M91.68,86.8H82v12H93.34l-1.08,7.45H73V62.17H92.19v7.5H82v9.67h9.65Z" transform="translate(-1.16)"/><path class="cls-1" d="M105.54,87.1v19.17h-9V62.17h11.68c7.84,0,11.72,3.25,11.72,11v1.59c0,6.28-2.67,8.15-4.67,9,2.91,1.33,4.27,3.35,4.27,9.5,0,4.26-.07,10.69.33,13h-8.71c-.58-2-.54-7.73-.54-13.36,0-5-.6-5.81-4-5.81Zm0-6.68h1.12c3,0,4.23-.9,4.23-5V73.29c0-3-.63-4.43-3.94-4.43h-1.41Z" transform="translate(-1.16)"/><path class="cls-1" d="M133.82,62.17v44.1h-9V62.17Z" transform="translate(-1.16)"/><path class="cls-1" d="M147.54,95.78l-1.15,10.49h-9.18l6.62-44.1h13.42l6.77,44.1h-9.36l-1.29-10.49Zm5.07-7.48c-.67-5.64-1.6-14.23-2-18.45h-.35c-.17,3.07-1.28,13-1.9,18.45Z" transform="translate(-1.16)"/><path class="cls-1" d="M167.22,106.27V62.17h10c1.48,5.39,6.17,25.36,6.54,27.29h.22c-.5-5.86-.82-13.88-.82-20V62.17h8.36v44.1h-10c-1-4.19-6.09-27-6.39-28.42h-.24c.35,5.19.62,14,.62,20.89v7.53Z" transform="translate(-1.16)"/><path class="cls-1" d="M205.17,95.78,204,106.27h-9.18l6.62-44.1h13.41l6.78,44.1h-9.36L211,95.78Zm5.06-7.48c-.66-5.64-1.59-14.23-2-18.45h-.36c-.16,3.07-1.27,13-1.89,18.45Z" transform="translate(-1.16)"/><path class="cls-1" d="M1.51,113.78h5c3.55,0,5.36,1.65,5.36,5.38v1.24c0,3.48-1.31,5.79-5.55,5.79H5v8.67H1.51ZM5,123.53H5.9c2.15,0,2.52-1.18,2.52-3.24v-1c0-1.54-.29-2.8-2.21-2.8H5Z" transform="translate(-1.16)"/><path class="cls-1" d="M38,119.37v9.84c0,4-1.82,5.95-5.61,5.95-3.63,0-5.27-2-5.27-5.89v-9.92c0-4,2.16-5.88,5.49-5.88S38,115.31,38,119.37Zm-7.37-.32v10.6c0,1.76.68,2.58,1.92,2.58s1.94-.77,1.94-2.62V119c0-1.67-.55-2.6-1.95-2.6C31.28,116.43,30.61,117.27,30.61,119.05Z" transform="translate(-1.16)"/><path class="cls-1" d="M56.5,128.65V130c0,1.57.49,2.45,1.8,2.45s1.7-1.2,1.7-2.57c0-2.27-.52-3-2.92-4.76s-3.69-2.93-3.69-6c0-2.78.89-5.58,4.93-5.58s4.76,2.78,4.76,5.06v1.13H59.66v-1c0-1.47-.26-2.35-1.41-2.35s-1.41.91-1.41,2.31.3,2.22,2.26,3.58c3.35,2.33,4.37,3.68,4.37,7.21,0,3-1.11,5.82-5.28,5.82s-5.14-2.48-5.14-5.26v-1.25Z" transform="translate(-1.16)"/><path class="cls-1" d="M89.39,134.86H86.7a12.59,12.59,0,0,1-.19-1.59,3.35,3.35,0,0,1-3.36,1.89c-3.29,0-4.34-2.24-4.34-5.81v-9.9c0-3.45,1.42-6,5.3-6,4.7,0,5.19,3.25,5.19,5.52v.68H85.85v-.84c0-1.12-.17-2.4-1.74-2.4-1.26,0-1.79.82-1.79,2.5v10.79c0,1.68.51,2.56,1.76,2.56,1.49,0,1.86-1.18,1.86-3.34v-3.08H84v-2.79h5.41Z" transform="translate(-1.16)"/><path class="cls-1" d="M109,125.43v9.43h-3.45V113.78h4.78c3.4,0,5.41,1.28,5.41,5.08v.8c0,3.24-1.41,4.06-2.28,4.4,1.31.57,2.05,1.46,2.05,4.32a54.66,54.66,0,0,0,.21,6.48h-3.33a42.45,42.45,0,0,1-.24-6.27c0-2.57-.35-3.16-2.35-3.16Zm0-2.68h.79c1.83,0,2.5-.65,2.5-3v-.72c0-1.63-.36-2.62-2.32-2.62h-1Z" transform="translate(-1.16)"/><path class="cls-1" d="M134.93,129.22l-.78,5.64h-3.51l3.6-21.08h4.87l3.74,21.08h-3.6l-.88-5.64Zm3-3c-.51-3.58-1-7-1.25-9.36h-.13c-.1,1.73-.77,6.25-1.21,9.36Z" transform="translate(-1.16)"/><path class="cls-1" d="M157.89,113.78h4.78c4.74,0,5.9,2.31,5.9,6.23v8.08c0,3.22-.59,6.77-5.91,6.77h-4.77Zm3.45,18.31h1.1c2.27,0,2.61-1.38,2.61-3.56v-8.78c0-1.94-.36-3.18-2.63-3.18h-1.08Z" transform="translate(-1.16)"/><path class="cls-1" d="M195.06,119.37v9.84c0,4-1.82,5.95-5.61,5.95-3.63,0-5.27-2-5.27-5.89v-9.92c0-4,2.16-5.88,5.49-5.88S195.06,115.31,195.06,119.37Zm-7.37-.32v10.6c0,1.76.67,2.58,1.92,2.58s1.94-.77,1.94-2.62V119c0-1.67-.55-2.6-2-2.6C188.36,116.43,187.69,117.27,187.69,119.05Z" transform="translate(-1.16)"/><path class="cls-1" d="M213.57,128.65V130c0,1.57.5,2.45,1.81,2.45s1.7-1.2,1.7-2.57c0-2.27-.52-3-2.92-4.76s-3.69-2.93-3.69-6c0-2.78.89-5.58,4.93-5.58s4.76,2.78,4.76,5.06v1.13h-3.42v-1c0-1.47-.26-2.35-1.41-2.35s-1.41.91-1.41,2.31.3,2.22,2.26,3.58c3.35,2.33,4.37,3.68,4.37,7.21,0,3-1.11,5.82-5.28,5.82s-5.14-2.48-5.14-5.26v-1.25Z" transform="translate(-1.16)"/><path class="cls-2" d="M27.55,30.36H16V44.8H29.54l-1.3,9H5.14V.79h23v9H16V21.41H27.55Z" transform="translate(-1.16)"/><path class="cls-2" d="M81.4,53.76c-.15-1.9-3.72-16-3.9-18.22h-.29c-.09,1.73-4,16.63-4.17,18.22H62.15l8.46-26.41L62.46.79H74c.09,1.2,3.38,15.4,3.44,16.79h.32C77.87,16.13,81.37,2,81.46.79H92.32L84.16,25.64,93,53.76Z" transform="translate(-1.16)"/><path class="cls-2" d="M126.43.79h14.4c9.33,0,14,4.66,14,14v3.23c0,9.28-3.71,14.88-14.37,14.88h-3.17V53.76H126.43Zm10.82,23.89H139c4.1,0,5-2.16,5-6.57V14.45c0-3.42-.85-5.63-4.46-5.63h-2.26Z" transform="translate(-1.16)"/><path class="cls-2" d="M218.62,15V39.53c0,10.51-5.24,15-15.06,15-9.32,0-14.11-4.62-14.11-14.91v-25c0-10.23,6-14.69,14.61-14.69S218.62,4.39,218.62,15Zm-18.25-1.14V40.89c0,3.27,1.19,5,3.61,5s3.66-1.55,3.66-5V13.74c0-3.31-1-5-3.69-5C201.65,8.74,200.37,10.3,200.37,13.82Z" transform="translate(-1.16)"/><rect class="cls-3" x="68.74" y="143.12" width="84.75" height="20.01" rx="10"/><path class="cls-4" d="M81.31,160.07l-2.56-13.15h2.44l.78,5.35c.25,1.77.57,3.63.7,5.14h0c.13-1.42.47-3.3.71-5.1l.73-5.39h2.42l-2.5,13.15Z" transform="translate(-1.16)"/><path class="cls-4" d="M92.49,146.92v13.15H90.23V146.92Z" transform="translate(-1.16)"/><path class="cls-4" d="M99.37,154.19v5.88H97.11V146.92h3.14c2.23,0,3.54.8,3.54,3.17v.5c0,2-.92,2.53-1.49,2.74.85.36,1.34.92,1.34,2.7a31.85,31.85,0,0,0,.14,4h-2.19a26,26,0,0,1-.15-3.91c0-1.6-.23-2-1.54-2Zm0-1.67h.52c1.2,0,1.64-.41,1.64-1.84v-.45c0-1-.24-1.64-1.52-1.64h-.64Z" transform="translate(-1.16)"/><path class="cls-4" d="M109.6,148.8h-2.35v-1.88h7v1.88h-2.37v11.27H109.6Z" transform="translate(-1.16)"/><path class="cls-4" d="M120,146.92v10c0,1,.35,1.51,1.22,1.51s1.19-.62,1.19-1.51v-10h2.26v10c0,2.08-1,3.38-3.49,3.38s-3.44-1.13-3.44-3.37v-10Z" transform="translate(-1.16)"/><path class="cls-4" d="M131.13,156.55l-.51,3.52h-2.3l2.36-13.15h3.2l2.45,13.15H134l-.58-3.52Zm2-1.86c-.33-2.24-.65-4.36-.82-5.84h-.08c-.07,1.08-.51,3.9-.8,5.84Z" transform="translate(-1.16)"/><path class="cls-4" d="M140,146.92h2.26v11.34H146l-.19,1.81H140Z" transform="translate(-1.16)"/></g></g></svg>