<svg xmlns="http://www.w3.org/2000/svg" viewBox="0 0 524.34 133.99"><defs><style>.cls-1{fill:#2a4a7f;}</style></defs><g id="Capa_2" data-name="Capa 2"><g id="Capa_1-2" data-name="Capa 1"><path class="cls-1" d="M55,74.58H26.57V110H59.92l-3.18,22H0V2H56.53V24.07h-30V52.58H55Z"/><path class="cls-1" d="M187.29,132c-.37-4.66-9.13-39.21-9.57-44.75H177c-.22,4.24-9.87,40.84-10.24,44.75H140L160.8,67.17,140.77,2H169.1c.22,2.94,8.3,37.82,8.45,41.24h.78c.29-3.56,8.9-38.23,9.11-41.24h26.67l-20,61L215.69,132Z"/><path class="cls-1" d="M297.89,2h35.39c22.91,0,34.27,11.43,34.27,34.47v7.94c0,22.78-9.12,36.54-35.3,36.54h-7.78V132H297.89Zm26.58,58.67h4.3c10.07,0,12.2-5.31,12.2-16.15v-9c0-8.41-2.09-13.83-10.93-13.83h-5.57Z"/><path class="cls-1" d="M524.34,36.75V97.1c0,25.82-12.89,36.89-37,36.89-22.89,0-34.66-11.35-34.66-36.63V36.08C452.67,11,467.31,0,488.56,0S524.34,10.78,524.34,36.75Zm-44.83-2.81v66.49c0,8,2.93,12.22,8.86,12.22,6.18,0,9-3.8,9-12.35V33.74c0-8.12-2.38-12.28-9.06-12.28C482.64,21.46,479.51,25.31,479.51,33.94Z"/></g></g></svg>