<svg xmlns="http://www.w3.org/2000/svg" viewBox="0 0 53.65 53.65"><defs><style>.cls-1{fill:#f7f7f7;}</style></defs><g id="Capa_2" data-name="Capa 2"><g id="Capa_1-2" data-name="Capa 1"><path class="cls-1" d="M44.85,43.21A1.77,1.77,0,0,0,44,41.58V36.94a.88.88,0,0,0-1.76,0v4.64a1.77,1.77,0,0,0-.88,1.52,2.3,2.3,0,0,0,0,.26l-2.53,2a.88.88,0,0,0-.13,1.24.86.86,0,0,0,1.23.13l2.53-2a1.69,1.69,0,0,0,1.18,0A1.8,1.8,0,0,0,44.85,43.21Z"/><path class="cls-1" d="M11.43,17.59H6.15a.89.89,0,0,0-.88.88v5.28a.88.88,0,0,0,.88.88h5.28a.87.87,0,0,0,.88-.88V18.47A.88.88,0,0,0,11.43,17.59Zm-.88,5.28H7V19.35h3.52Z"/><path class="cls-1" d="M21.11,17.59H15.83a.88.88,0,0,0-.88.88v5.28a.87.87,0,0,0,.88.88h5.28a.87.87,0,0,0,.87-.88V18.47A.88.88,0,0,0,21.11,17.59Zm-.88,5.28H16.71V19.35h3.52Z"/><path class="cls-1" d="M30.78,17.59H25.5a.89.89,0,0,0-.88.88v5.28a.88.88,0,0,0,.88.88h5.28a.87.87,0,0,0,.88-.88V18.47A.88.88,0,0,0,30.78,17.59Zm-.88,5.28H26.38V19.35H29.9Z"/><path class="cls-1" d="M35.18,24.63h5.27a.87.87,0,0,0,.88-.88V18.47a.88.88,0,0,0-.88-.88H35.18a.88.88,0,0,0-.88.88v5.28A.87.87,0,0,0,35.18,24.63Zm.88-5.28h3.51v3.52H36.06Z"/><path class="cls-1" d="M11.43,27.27H6.15a.88.88,0,0,0-.88.88v5.27a.88.88,0,0,0,.88.88h5.28a.87.87,0,0,0,.88-.88V28.15A.87.87,0,0,0,11.43,27.27Zm-.88,5.27H7V29h3.52Z"/><path class="cls-1" d="M21.11,27.27H15.83a.87.87,0,0,0-.88.88v5.27a.87.87,0,0,0,.88.88h5.28a.87.87,0,0,0,.87-.88V28.15A.87.87,0,0,0,21.11,27.27Zm-.88,5.27H16.71V29h3.52Z"/><path class="cls-1" d="M30.78,27.27H25.5a.88.88,0,0,0-.88.88v5.27a.88.88,0,0,0,.88.88h5.28a.87.87,0,0,0,.88-.88V28.15A.87.87,0,0,0,30.78,27.27Zm-.88,5.27H26.38V29H29.9Z"/><path class="cls-1" d="M11.43,36.94H6.15a.88.88,0,0,0-.88.88V43.1a.89.89,0,0,0,.88.88h5.28a.88.88,0,0,0,.88-.88V37.82A.87.87,0,0,0,11.43,36.94Zm-.88,5.28H7V38.7h3.52Z"/><path class="cls-1" d="M21.11,36.94H15.83a.87.87,0,0,0-.88.88V43.1a.88.88,0,0,0,.88.88h5.28A.88.88,0,0,0,22,43.1V37.82A.87.87,0,0,0,21.11,36.94Zm-.88,5.28H16.71V38.7h3.52Z"/><path class="cls-1" d="M30.78,36.94H25.5a.88.88,0,0,0-.88.88V43.1a.89.89,0,0,0,.88.88h5.28a.88.88,0,0,0,.88-.88V37.82A.87.87,0,0,0,30.78,36.94Zm-.88,5.28H26.38V38.7H29.9Z"/><path class="cls-1" d="M49.92,51.13a10.78,10.78,0,0,0,3.73-8,10.55,10.55,0,0,0-6.16-9.57V8.8a4.4,4.4,0,0,0-4.4-4.4H41.34V2.64a2.64,2.64,0,0,0-5.28,0V4.4h-4.4V2.64a2.64,2.64,0,0,0-5.28,0V4.4H21.1V2.64a2.64,2.64,0,1,0-5.27,0V4.4h-4.4V2.64a2.64,2.64,0,1,0-5.27,0V4.4H4.39A4.4,4.4,0,0,0,0,8.8V44a4.4,4.4,0,0,0,4.39,4.4H34a10.52,10.52,0,0,0,9.12,5.27,10.26,10.26,0,0,0,2.3-.26A11.08,11.08,0,0,0,49.92,51.13ZM37.81,2.64a.88.88,0,0,1,.89-.88.87.87,0,0,1,.87.88V7.92a.88.88,0,0,1-.87.88.89.89,0,0,1-.89-.88Zm-9.67,0a.88.88,0,0,1,1.76,0V7.92a.88.88,0,0,1-1.76,0Zm-10.55,0a.88.88,0,1,1,1.75,0V7.92a.88.88,0,1,1-1.75,0Zm-9.68,0a.88.88,0,0,1,1.76,0V7.92a.88.88,0,0,1-1.76,0ZM1.76,8.8A2.64,2.64,0,0,1,4.39,6.16H6.16V7.92a2.64,2.64,0,0,0,5.27,0V6.16h4.4V7.92a2.64,2.64,0,0,0,5.27,0V6.16h5.28V7.92a2.64,2.64,0,0,0,5.28,0V6.16h4.4V7.92a2.64,2.64,0,0,0,5.28,0V6.16h1.75A2.64,2.64,0,0,1,45.73,8.8v4.39h-44ZM33.15,46.62H4.39A2.64,2.64,0,0,1,1.76,44V15h44V32.89a10.5,10.5,0,0,0-2.64-.34,10.08,10.08,0,0,0-1.75.15V28.15a.88.88,0,0,0-.89-.88H35.18a.87.87,0,0,0-.88.88v5.27a.87.87,0,0,0,.88.88h2.09a10.53,10.53,0,0,0-4.12,12.32ZM39.57,29v3.53H36.06V29ZM34.3,43.09a8.79,8.79,0,1,1,8.79,8.8A8.8,8.8,0,0,1,34.3,43.09Z"/></g></g></svg>