<svg xmlns="http://www.w3.org/2000/svg" viewBox="0 0 39.05 39.03"><defs><style>.cls-1{fill:#1c3180;}</style></defs><g id="Capa_2" data-name="Capa 2"><g id="Capa_1-2" data-name="Capa 1"><path class="cls-1" d="M19.52,39A19.51,19.51,0,1,1,39.05,19.55,19.54,19.54,0,0,1,19.52,39ZM37.57,19.56a18,18,0,1,0-18.1,18A18,18,0,0,0,37.57,19.56Z"/><path class="cls-1" d="M19.5,31.27c-2.71,0-5.42,0-8.13,0a3.31,3.31,0,0,1-3.58-3.61q0-8.13,0-16.25a3.32,3.32,0,0,1,3.64-3.63H27.61a3.33,3.33,0,0,1,3.66,3.69q0,8,0,16.1c0,2.39-1.31,3.7-3.72,3.7Zm0-22h-8c-1.54,0-2.24.7-2.24,2.23q0,8.05,0,16.1c0,1.53.7,2.24,2.22,2.24h16.1c1.54,0,2.24-.7,2.24-2.23V11.48a2,2,0,0,0-2.22-2.24Z"/><path class="cls-1" d="M26.1,19.54A6.57,6.57,0,1,1,19.54,13,6.62,6.62,0,0,1,26.1,19.54Zm-6.54-5.12a5.11,5.11,0,1,0,5.08,5.18A5.19,5.19,0,0,0,19.56,14.42Z"/><path class="cls-1" d="M28.68,12.38a2,2,0,0,1-2,2,2,2,0,0,1-2-2,2,2,0,0,1,2-2A2.06,2.06,0,0,1,28.68,12.38Z"/></g></g></svg>