<svg xmlns="http://www.w3.org/2000/svg" viewBox="0 0 39.18 39.16"><defs><style>.cls-1{fill:#1c3180;}</style></defs><g id="Capa_2" data-name="Capa 2"><g id="Capa_1-2" data-name="Capa 1"><path class="cls-1" d="M39.17,19.42A19.58,19.58,0,0,1,22.12,39a19.28,19.28,0,0,1-12-2.27,1.48,1.48,0,0,0-1.29-.12c-2.18.69-4.37,1.35-6.55,2-.44.13-.9.31-1.28-.11a1.17,1.17,0,0,1-.11-1.22c.6-2.18,1.19-4.36,1.82-6.53a1.85,1.85,0,0,0-.19-1.57A19.59,19.59,0,1,1,39,16.53,15.1,15.1,0,0,1,39.17,19.42Zm-1.63-.22c0-.47-.07-1.32-.2-2.14A17.92,17.92,0,0,0,1.68,19.27a17.24,17.24,0,0,0,2.6,9.57,2,2,0,0,1,.23,1.79c-.52,1.7-1,3.42-1.44,5.13-.06.24-.28.51-.08.72s.54,0,.79-.07c1.67-.5,3.35-1,5-1.56a2,2,0,0,1,1.8.19A17.68,17.68,0,0,0,22,37.34,18.11,18.11,0,0,0,37.54,19.2Z"/><path class="cls-1" d="M7,15.1A10.58,10.58,0,0,1,9.84,7.92a2.89,2.89,0,0,1,4,.35,40.27,40.27,0,0,1,2.08,3.89,3.18,3.18,0,0,1-.55,3.73c-1,1.19-1,1.36-.07,2.59A22,22,0,0,0,22,24.1a.9.9,0,0,0,1.23-.21A21,21,0,0,0,25,21.78a1.74,1.74,0,0,1,2.62-.62c1.6.93,3.16,1.94,4.74,2.91a1,1,0,0,1,.42,1.06c-.55,3.39-2.53,5.79-6,6.22A15.28,15.28,0,0,1,15.37,28,23.61,23.61,0,0,1,7.64,17.78,7.06,7.06,0,0,1,7,15.1Zm18,14.64c.38,0,.76,0,1.14,0a5,5,0,0,0,4.7-3.87.7.7,0,0,0-.32-.9c-1.15-.7-2.29-1.4-3.41-2.15-.49-.32-.74-.21-1,.24a10.63,10.63,0,0,1-2.07,2.32,2.17,2.17,0,0,1-2.6.29,24,24,0,0,1-6.58-5A8.94,8.94,0,0,1,13,17.82a1.85,1.85,0,0,1,.45-2.33,5.69,5.69,0,0,0,.73-.88,1.49,1.49,0,0,0,.18-1.77c-.57-1.07-1.11-2.16-1.7-3.23a1.12,1.12,0,0,0-1.92-.16C8.82,12,8,14.69,9.43,17.76A24.09,24.09,0,0,0,15,25.55,14.56,14.56,0,0,0,25.05,29.74Z"/></g></g></svg>