<svg xmlns="http://www.w3.org/2000/svg" viewBox="0 0 164.35 164.35"><defs><style>.cls-1{fill:#fff;}.cls-2{fill:#3a4d7f;fill-rule:evenodd;}</style></defs><g id="Capa_2" data-name="Capa 2"><g id="Capa_1-2" data-name="Capa 1"><rect class="cls-1" width="164.35" height="164.35"/><path class="cls-2" d="M81.66,39.29c-.11-1.71-.11-1.71-.17-1.79-1.26,0-1.26,0-1.34,0v-.75c1.33-.12,1.33-.12,1.4-.18,0-.49.06-1,.09-1.45.38,0,.78,0,1.18,0,0,.48.07,1,.1,1.47a4.28,4.28,0,0,0,1.36.08v.81l-1.31.1c0,.1-.1,1.67-.16,1.73-.39,0-.77,0-1.15,0Zm0,2a10.94,10.94,0,0,1-1.11-.41v-.1h-.11c0-.17,0-.35,0-.5.61-.6,3.48-.66,3.49.48-.32.63-1.63.51-2.25.53Zm.49,6.19c-.86-.84,1-1.2.45-.08l-.45.08Zm-.09.43c.86-.13,1.07-.28,1.06-1.12-.64-1.28-2.47,0-1.06,1.12Zm-5.36.23a.68.68,0,0,1,0-.76h.42c.4.46,0,.71-.39.76Zm10.75,0c-.72-.47.43-1.48.44-.17a.62.62,0,0,1-.44.17Zm-10.75.46c2.13-.21.11-2.79-.61-1,0,.56.15.69.61,1Zm10.85,0a1.45,1.45,0,0,0,.7-.35c.32-1.05-.07-1.29-1-1.35-.86.5-.52,1.36.26,1.7ZM74.19,49a3.09,3.09,0,0,0,.86-.26,1.59,1.59,0,0,1,0-1.85c.38-.16.41-.63.47-1a1.37,1.37,0,0,1,2.51.24c1,.48,1.12.81,1,1.91A3.69,3.69,0,0,0,80.25,48c0-.12,0-.12-.32-.84a1.46,1.46,0,0,1,.77-1.33,1.64,1.64,0,0,0,.11-.67c.28-.93.73-1,1.64-1.08.86.18,1.1.7,1.34,1.49a1.53,1.53,0,0,1,.91,1.56c-.14.27-.38.52-.38.84a1.86,1.86,0,0,0,1.1.16c0-.14-.1-.33-.15-.77a1.41,1.41,0,0,1,1.24-1.29,1.63,1.63,0,0,1,1.08-.89,1.48,1.48,0,0,1,1.56,1.16,1.53,1.53,0,0,0,.4.55,1.24,1.24,0,0,1-.12,1.6v.14a1.52,1.52,0,0,0,.88.26,1.26,1.26,0,0,1,.52-.88c.72-1.18-1.26-3.45-2.11-4.28-.7-.42-1.41-.82-2.11-1.23l-1.7-.46A19.51,19.51,0,0,0,80.08,42c-.61.13-1.2.27-1.79.42A9.35,9.35,0,0,0,74.62,45c-.53.87-1.42,2-1.09,3.12a1.4,1.4,0,0,1,.66,1ZM91,50.24a1.4,1.4,0,0,0,.69-.14c.4-.53-.42-.72-.18-1.37a1.62,1.62,0,0,0,.69-1.59,1.56,1.56,0,0,0-.78-.2,2.8,2.8,0,0,1,0,.93c-.41.64-.76.71-.55,1.56a3.86,3.86,0,0,1-1.1,0c-.23-.1-1-.42-1-.69h-.11c0-.13,0-.25-.05-.36l.57-.21a.88.88,0,0,0-.44-1.27c-.13-.63-.14-.89-.74-1.14-.68,0-.82.25-1.08.82-.7.21-.91.24-1,1a6.65,6.65,0,0,1,.35.83l-.84.33a3.58,3.58,0,0,1-1.63-.38v-.09c-.22-.19-.39-.24-.39-.54,1-.41,1-1.57-.18-1.63,0-.88-.1-1.48-1.16-1.47-.86.27-.73.71-.77,1.43-.94.5-1.24,1.09-.31,1.8,0,.07,0,.17,0,.26l-.53.38c-.44.13-2.33.47-2.27-.39.48-.78.24-1.32-.68-1.46-.06-.72-.45-1.09-1.21-.86-.48.33-.46.66-.46,1.23-.59.38-.78.57-.44,1.24.45.23.45.23.51.33a2.05,2.05,0,0,1-2.29.87,2.84,2.84,0,0,0-.13-1C73,48,73,47.69,72.92,47c-.82.05-.86.15-.86.89.19.65.9.73.9,1.43-.74,1.06.2,1,.93.64a11.55,11.55,0,0,1,1.77,0c.67-.41,1.21-1,2.06-1a5.11,5.11,0,0,0,2.73.3c.79-.43,2.07-1.27,2.88-.46a3.17,3.17,0,0,0,3.18.07c1.23,0,1.28.54,2.37,1l1.26,0,.89.39Zm-.29,1.4a38.69,38.69,0,0,0-15.64-.36c-.45.1-1.49.53-1.92.21v-.2a4.66,4.66,0,0,1,1.59-.53l2.51-.43a44.63,44.63,0,0,1,13.79.76l.16.11a2.35,2.35,0,0,0,0,.35c-.12.06-.12.06-.53.09ZM82.2,54.12,82,53.89c0-.57,0-.63.6-.64.34.44.15.79-.37.87Zm0,.41c.81-.16,1-.39,1-1.23l-.37-.41c-1.33-.31-1.72,1-.6,1.64Zm5.35.13a.64.64,0,0,1,0-.82,2.23,2.23,0,0,1,.36,0c.35.45.1.7-.38.8Zm-10.86.21c-.38-.38-.33-.8.22-.8.28.36.21.66-.22.8Zm10.86.2a5.58,5.58,0,0,1,.57-.08c.7-.7.42-1.58-.63-1.57-.62.53-.73,1.16.06,1.65Zm-15,.18c-.19-.37-.14-.55.24-.55,0,.36.13.49-.24.55Zm19.2,0-.09,0c0-.23,0-.3.07-.51.47,0,.39.47,0,.55Zm-15.21.08a1.17,1.17,0,0,0,.91-.4c.61-1.53-2.16-1.75-1.37,0,.11.14.11.14.46.36Zm15.06.28c.15,0,.33,0,.51-.06.54-.35.3-.85,0-1.21h-.46c-.36.41-.58.87,0,1.27Zm-19,.1c1.15-.32.48-1.9-.42-1.19-.21.61-.13.86.42,1.19Zm1.52.4a4.22,4.22,0,0,0,1.11-.29l-.08-.26a1.34,1.34,0,0,1,.07-2.06c.26-1.42,2-2.09,2.63-.47.11.14.11.14.45.3A1.69,1.69,0,0,1,78.77,55a2.39,2.39,0,0,0,1.4-.27v-.19c-.5-.8-.24-1.41.58-1.83.25-.61.51-.93.54-1.05-.67,0-.67,0-3,0-1.6.21-3.61.24-5,1.17-.13.63.14.83.51,1.37a3,3,0,0,1,.2,1.76l.12,0ZM90,56.19a4,4,0,0,1,.48-.09c0-.06,0-.06-.15-.55,0-1.08.47-1.35,1-2.32a1.22,1.22,0,0,0-.28-.54,29.06,29.06,0,0,0-7.66-1c0,.23.37.69.48.91a1.33,1.33,0,0,1,.84,1.37,1.63,1.63,0,0,0-.25.76,2.05,2.05,0,0,0,1.36.4c0-.14,0-.14-.2-.53-.07-1,.3-1.34,1.19-1.74a2,2,0,0,1,.4-.49,1.35,1.35,0,0,1,1.92.89c.85.75,1.07,1.6.06,2.32v.21c.29.19.57.28.86.44Zm14.25,1.12a3.59,3.59,0,0,1,2.06-2.73l.68,0c0,.44-.52.76-.85,1a6.19,6.19,0,0,0-1.05,1.67,7.48,7.48,0,0,0-.84.08ZM73,57.47c.9-.15,2,0,2.79-.52.84-1.22,1.8-1,3-.46a5.25,5.25,0,0,0,1.27,0c.51-.32.78-.6,1.5-1.09,1.37-.45,2,.68,3.23,1,1.44.13,2.53-1.14,3.72.22a3,3,0,0,0,1.37.57c1.39,0,2.37.51,2.18-1.35.12-.09.12-.09.37-.15.89-.62-.12-1.76-.12-2.56.15-.46.31-.9.47-1.34,0-.62-.57-1.52-1.22-.88.4.44.56.69,0,1.12,0,.12,0,.12.21.64,0,.87-.6,1.37-1,2a3.18,3.18,0,0,0,0,1,1.39,1.39,0,0,1,.32.71l-.58.28c-1,0-1.93-.26-2.06-1.34a.81.81,0,0,1,.12-.14c.91-.34,1-1,.16-1.56-.36-1-1-1.13-1.71-.37-.66.27-1.26.79-.7,1.53.42.2.42.2.51.33-.56,1-3.25.64-3.25-.6.62-.46.6-.88.13-1.43-.51-.09-.45-.63-.77-1-1.09-.4-1.39-.12-1.77,1-.67.13-.74.52-.69,1.11.09.15.45.39.53.54-.69.86-2.33,1.39-3.21.53.62-.79.65-1.31-.26-1.79a5.49,5.49,0,0,1-.21-.51c-.9-.74-1.39-.17-1.53.72-.88.68-.84,1.22.18,1.7l.1.14c-.08.14-.14.28-.21.43-.6.6-1.82,1.14-2.52.4V56.1c.58-1,.25-1.67-.54-2.4l-.21-.49c0-.68.36-.9-.11-1.37,0-.14,0-.28,0-.42.21-.24.32-.35.32-.65a1.24,1.24,0,0,0-.56-.06c-1,.64-.67,1.08-.12,2a4.49,4.49,0,0,1,.05,1c-.4,1-.72,1.48.27,2.13,0,.87-.11,1,.58,1.61Zm-13.18.06-.56-.11a5.49,5.49,0,0,0-.5-1.16c-.22-.25-.22-.25-.26-.37h-.11c-.32-.53-1.06-.78-1.2-1.39,1.67,0,2.38,1.41,2.91,2.76a1.93,1.93,0,0,0,0,.24,2,2,0,0,0-.27,0Zm-4.41.39.63-.09a13.12,13.12,0,0,1,2.16-1.29c0-.07,0-.07-.11-.26-1.2-.38-1.42.62-2.33.93l-.56,0a.32.32,0,0,1,0-.14,1.5,1.5,0,0,0,.57-.3,2.26,2.26,0,0,1,1.61-1c-.08-.62-1.28-.1-1.55,0-.14.3-1.53,1-1.53.32a2.24,2.24,0,0,0,.73-.23,1.93,1.93,0,0,1,1.5-.91c-.28-1.4-3,.61-3.43.87.31.91,1.59,1.47,2.29,2.08Zm53.13-.07a1.58,1.58,0,0,1,.32,0,14.53,14.53,0,0,0,2.41-2c-.7-.42-2.53-1.93-3.47-1.24v.21a2.88,2.88,0,0,1,1.48.9c.29.23.54.33.64.42a.18.18,0,0,0,0,.11h-.54c-.73-.34-1.13-.92-1.94-1-.14.11-.29.24-.43.37v.09a3.5,3.5,0,0,1,1,.37c.24.19,1,.77,1,1-1-.13-1.59-1.21-2.73-.88-.13.19-.13.19-.11.3.92.25,1.5,1.09,2.4,1.37Zm-61,.62c-.6-.28-.33-.78,0-1.25,1.08-.81,1.2,1,0,1.25Zm68.92,0c-.59-.52-1.22-1.8.12-1.59.45.52.85,1.43-.12,1.59ZM56.81,59a2.46,2.46,0,0,0,.93-.8,5,5,0,0,0,1-.64.67.67,0,0,0-.11-.45c-.91,0-1.53.71-2.29,1.16,0,.22.37.53.5.73Zm50.55-.19a.66.66,0,0,1,.21,0,1.43,1.43,0,0,1,.43-.54.58.58,0,0,1,0-.19c-.73-.38-1.3-1.18-2.16-1.18a1.27,1.27,0,0,0-.17.53,8.74,8.74,0,0,1,1.73,1.41Zm-17.43.14a24.87,24.87,0,0,0-6.32-.84,64.29,64.29,0,0,0-6.79.24c-1.26.21-2.15.44-2.6.49-.06-.08-.06-.08-.06-.32.57-.61,1.85-.57,2.64-.69,4.42-.27,9-.45,13.4.52l.22.15c0,.33-.15.37-.49.45Zm-41.2.52c.93-.08,1.2-.84,1.19-1.71C49,56.94,48,59,48.73,59.46Zm66.3-.09c.14,0,.28,0,.44,0,.7-.58.12-1.54-.42-2-1.41,0-.76,1.53,0,2Zm-32.8,1.41c-.59-.37-.44-.8.11-1,.72.29.45.78-.11,1Zm-.09.32a2.59,2.59,0,0,1,.41,0c2.07-1.19-1.77-2.61-.91-.31l.5.35Zm4.54,0a1.2,1.2,0,0,1-.13-.6,1,1,0,0,1,.51-.16c.23.44.12.7-.38.76ZM113.36,61c-.79-.43-1.26-1.83-1.67-2.55,0-.77.23-.93,1-.93,1.1.35,2.34,2.63,1.2,3.45-.19,0-.39,0-.56,0Zm-35.53.18c-.35-.28-.5-.8.12-.8.22.28.23.63-.12.8Zm-27.09.2c-1.7-.54-.43-2.48.27-3.35.63-.31,1-.49,1.56,0,.29.73-.6,1.59-.93,2.23s-.23,1-.9,1.16Zm40.26.1-.17,0a1.86,1.86,0,0,1,0-.34C91,61,91,61,91.2,61a.61.61,0,0,1,0,.42l-.2,0Zm-13.43.07c.7-.06,1-.15,1.07-.91A.88.88,0,0,0,77.47,60c-.61.6-.51,1.08.1,1.58Zm9.12,0a1.51,1.51,0,0,1,.32,0c.95-.45.77-1.67-.35-1.66-.82.53-.87,1.13,0,1.69Zm-13.11.07c-.17-.11-.18-.24-.19-.44a.84.84,0,0,1,.21-.13,2.71,2.71,0,0,0,.25.19.35.35,0,0,1-.27.38Zm-12.81.2a1.3,1.3,0,0,1,.22,0,14.15,14.15,0,0,0-.64-3.7c-1.43-.83-2.7,1-3.55,1.73V60c.19.13,1.58.73,1.76.86.51.18.68.31,2.21,1Zm23.56,0-.45-.3v-.14a1.33,1.33,0,0,0-.13-2.15v-.17a19.5,19.5,0,0,1,2,.06c0,.32-.35.45-.59.6-.63.76-.52,1.11-.15,1.95-.17.18-.46.13-.71.15Zm-4.76,0a.47.47,0,0,1,.17-.33,1.38,1.38,0,0,0-.58-1.86.92.92,0,0,1-.13-.49c.64,0,1.27,0,1.93-.07a.7.7,0,0,1-.13.44,1.15,1.15,0,0,0-.19,1.93c0,.06,0,.13,0,.19a3.18,3.18,0,0,1-1,.19Zm23.86,0c0-.92.07-3.23.7-4,1.58-.35,2.45.82,3.46,1.86a.6.6,0,0,0,0,.2l-4.13,1.91Zm-12.64.12c.69-.06,1.12-.57.59-1.23-.85-.07-1,.2-.89,1a2.37,2.37,0,0,0,.3.23Zm-17.32.14a.83.83,0,0,0,.7-.34c.36-1.46-2.09-1-.7.34Zm-11.76.06,1.07-.2a12.15,12.15,0,0,0-.32-2.08,5,5,0,0,1,2.12-.34,10.75,10.75,0,0,1,.57,2.05,5.44,5.44,0,0,0,1.2-.16c-.77-4.26-3.41-7.09-7.89-7.22a.3.3,0,0,0,0,.11c2.5,1.26,2.85,5.42,3.22,7.84ZM102.38,62l.43,0c.29-2.41.59-6.31,3-7.73-4.06-.14-6.69,2.58-7.65,6.24-.09.68-.09.68,0,.82a4.7,4.7,0,0,0,1.24.17,9.88,9.88,0,0,1,.59-2,10,10,0,0,1,2,.26,14.92,14.92,0,0,0-.32,2.12c.08.08.08.08.75.2Zm-50.07.41c.21,0,.21,0,.33-.13a10.07,10.07,0,0,1,1.63-3.4.73.73,0,0,1,0-.22c-.86-.06-1.1.27-1.66.87-.33.66-1.42,2.35-.33,2.88Zm59.54-.19-.15-.09a10.59,10.59,0,0,0-1.76-3.42,1,1,0,0,1,0-.24c1.46-1,3.4,3.5,1.89,3.75Zm-23.16.37-.71-.3a1.22,1.22,0,0,1,0-.17l.37-.14a.13.13,0,0,1,.16-.16c.06-.19.14-.38.22-.57A2,2,0,0,0,88.34,60c0-.21-.07-.41-.09-.6.47.09,1.31.12,1.6.51,0,.17,0,.35,0,.52a3.54,3.54,0,0,0-.9,2.08l-.27.05Zm-13.11.11a2.63,2.63,0,0,0-.84-2c-.5-1.24.87-1.18,1.77-1.3-.14,1-1.19,2.1.13,2.83v.13a2.53,2.53,0,0,1-1.06.3Zm-21.69.9c-1.64-1,.19-3.67,1.11-4.58.72-.26.87-.32,1.36.3,0,.62-.62,1-1,1.41a4.79,4.79,0,0,0-.79,2.63,1.21,1.21,0,0,1-.7.24ZM110,63.33l.55,0c1.28-.88,0-2.95-.58-3.84s-1.88-1.36-1.84.23A4,4,0,0,1,109.6,63l.4.32Zm-21.15.47a2.6,2.6,0,0,0,1.8-1.21c.32-.22.65-.44,1-.65a1.32,1.32,0,0,0-.22-1.79c-.18-.75.63-1.21-.47-1.57a1.22,1.22,0,0,1-.47.73v.85a13.64,13.64,0,0,1-1,1.69,7.82,7.82,0,0,0,.15,1c-.75.32-2.49,0-2.49-1,.15,0,.33-.09.5-.13.61-.42.81-1.13.14-1.62,0-.21,0-.43,0-.65a.87.87,0,0,0-1.15-.41c-.41.48-.31.73-1,1-.51.71-.25,1.09.36,1.57,0,.1,0,.19,0,.3-.23.11-.47.22-.71.35-.74,0-2-.21-2-1.12,1.48-.83.2-1.29,0-2.23-.11,0-.19-.16-.51-.36H82c-.18.05-.26.18-.37.21-.27.44-.28.77-.71,1.09-.43.77-.25,1,.51,1.41.18,1-2.85,1.63-2.85.41a3.08,3.08,0,0,1,.38-.16c.87-1.23-.13-1.12-.47-2.2L78.2,59c-.91-.23-1.31.32-1.31,1.12-.68.93-.53,1.69.64,2-.16,1-1.72,1.22-2.53,1a1,1,0,0,1,0-.24c.68-1.22-.81-1.7-.93-2.87.07-.18.13-.37.19-.56-.54-.13-.69-.3-.74-.86-.76.38-.63.67-.39,1.4-.3,1-.89,1.35-.13,2.26.64.39,1.1.45,1.52,1.09a2.05,2.05,0,0,0,1.5.51l.7-.32c.86-.79,1.29-1.16,2.41-.57a3.74,3.74,0,0,0,1.25,0c1.16-.55,1.57-1.22,2.85-.66a2.4,2.4,0,0,0,2.75.32,2.9,2.9,0,0,1,.88,0c.68.42,1.28.91,2,1.27ZM61.52,65.49c-4.9-2.22-5.26-2.44-5.81-2.64-.38-.22-.38-.22-.48-.33.08-.71.5-2,1.41-1.8l4.46,2.1a22.49,22.49,0,0,1,.63,2.67Zm41.19-.11c2.36-1,2.36-1,6-2.69.75-.58,0-1.65-.41-2.21a1.88,1.88,0,0,0-.34,0c-1.54.73-3.2,1.43-4.66,2.3l-.57,2.62ZM63.93,66c-.1-.76-.18-1.49-.27-2.23L62,63.93c-.07-.37-.13-.75-.2-1.11.18-.52,1.16-.18,1.61-.43,0-.74-.34-1.48-.3-2.2l1.12-.2c.15.71.31,1.42.47,2.14.45,0,1.65-.2,1.81,0,0,.39.07.8.1,1.21l-1.69.29A21.35,21.35,0,0,1,65,65.84a4.68,4.68,0,0,1-1.05.16Zm-11.54,0a.31.31,0,0,1-.19-.28c.28-.28.28-.28.44-.34,0,.2,0,.4,0,.62Zm47.51-.19c-.33-.07-.33-.07-.45-.15,0-.68.08-1.86.06-2.23-.16-.08-.16-.08-1.63-.29A2.82,2.82,0,0,1,98,61.93c.91,0,1.48.13,1.8.1a7.82,7.82,0,0,1,.5-2.08,4.79,4.79,0,0,1,1.07.09,9.2,9.2,0,0,0-.27,2.2c.54.08,1.08.15,1.64.25a4.47,4.47,0,0,1-.25,1.3c-.27,0-1.26-.13-1.64-.12-.06.23-.22,1.92-.3,2.14l-.61,0Zm11.86,0c0-.21,0-.4,0-.59h.21a3.58,3.58,0,0,0,.27.29.78.78,0,0,1-.44.3Zm-24.63.18c-.2-.47-.2-.47-.29-.57A18.39,18.39,0,0,0,79,65.17c-.62.14-1.21.14-1.38.82a1.48,1.48,0,0,1-1.15-.34c0-2.28,7.73-1.59,9-1.51.57.08,3.27.46,2.7,1.59a4.55,4.55,0,0,1-1.06.35ZM48.82,67.52c0-.46,0-.91,0-1.35a2.58,2.58,0,0,1,.92.39v.14c-.31.27-.61.53-.91.82Zm66.57-.24c-.23-.22-.82-.63-.83-1,.93-.43.93-.43,1-.4,0,.44,0,.88,0,1.33a.43.43,0,0,0-.17,0Zm-10.71.52a4.08,4.08,0,0,1-.73-2.15c1.17-.63,4.47-2.49,5.24-2.3.11.33.79,1.86.63,2.12-4.93,2.3-4.93,2.3-5.14,2.33ZM59.58,68a.52.52,0,0,1,.18,0,7.69,7.69,0,0,0,.93-2.07c-1.75-.8-3.47-1.61-5.2-2.41h-.22c-.3.94-.73,2-.71,2.11,1.55.9,3.36,1.64,5,2.39Zm45,1.27c.28-.08.28-.08.42-.2-.08-.31-.4-.53-.64-.76-.56-1.24-.56-1.24-1-2.26a.7.7,0,0,0-.45.1,5.88,5.88,0,0,0,1.62,3.12Zm-44.73.22a2.52,2.52,0,0,0-.34-.15c0-.38.33-.38.41-.65.55,0,1-2,1.38-2.49l.4.12c0,.65-1.23,2.93-1.85,3.17Zm43.83.14c.29-.08.29-.08.35-.17a14.88,14.88,0,0,1-1.56-2.74l-.13,0c-.06,0-.57,1.31-1.34,2.93.67-.13,1.22-.64,1.93-.72l.75.75Zm-43,.22-.16,0c.48-.88.69-1.15,1.59-2.88h.15a30.2,30.2,0,0,0,1.26,2.87c-.64,0-1.27-.75-1.91-.75a5.4,5.4,0,0,1-.93.81Zm24,.6c.34-.08,2.76-1,2.76-1.36l-.48-.8a16.23,16.23,0,0,0-.81-2.26,17.35,17.35,0,0,0-2.86-.3,12.92,12.92,0,0,0,1.39,4.72Zm-5,.09.16-.08a14.63,14.63,0,0,0,1.65-4.74,9.1,9.1,0,0,0-3,.5,19.66,19.66,0,0,1-.71,2.19c-.21.3-.51.6-.51,1,1.36.67,2.4,1.09,2.45,1.17Zm29.5.31a6.15,6.15,0,0,0-.1-1.14c-.37-.47-.37-.47-.37-.56a3.55,3.55,0,0,1,1-.49,8.85,8.85,0,0,1,0,1.93c-.21.08-.41.16-.62.26Zm-54,.33c-.17-.11-.35-.2-.51-.3,0-.65,0-1.32,0-2a2.47,2.47,0,0,1,1.12.44c0,.2-.19.35-.32.49,0,.42-.06.86-.09,1.3l-.18,0Zm-6.46.44c-.3-.45-.13-1.41-.09-2a4,4,0,0,1,.95.35c0,.27-.4.56-.57.75a7.91,7.91,0,0,0-.06.86,1.6,1.6,0,0,0-.23,0Zm66.73-.24c0-.32-.07-.63-.1-.93-.18-.18-.52-.42-.52-.69a3.5,3.5,0,0,1,.94-.41,8.36,8.36,0,0,1,.06,1.81.71.71,0,0,1-.38.22Zm-33.33.23a7,7,0,0,0-1.14-.54c0-.07,0-.13,0-.19.49-1.2,1-2.41,1.36-3.64h.09c.41,1.22.93,2.42,1.33,3.62-.16.32-1.21.68-1.59.75ZM53.15,72c0-1.08,0-1.08,0-2.83l.47.17c0,.85.39,2.18-.49,2.66Zm-5.57,0c0-.5-.28-1.82.31-2v-.12a1.29,1.29,0,0,1,.21-.06c0,.84.23,1.76-.52,2.19Zm63.52-.23c-.34-.28-.34-.28-.45-.44,0-.73,0-1.46,0-2.18.18-.12.35-.33.57-.29,0,1,0,1.89,0,2.85a.26.26,0,0,0-.13.06Zm5.52,0c-.63-.66-.5-1.34-.41-2.2h.21c.5.58.32,1.38.31,2.1l-.11.1Zm-56.75.28V72h.05v.11ZM47,72.23c-.43-.21-.86-.41-1.3-.59,0-.68,0-1.36,0-2a2.54,2.54,0,0,1,1.48.73c0,.59-.05,1.19-.06,1.78a.36.36,0,0,0-.11.1Zm70.19-.2c0-.64,0-1.29,0-1.92.15-.33,1.16-.71,1.54-.78l-.09,2.13c-.51.11-1,.44-1.46.57Zm-24.38.12a3.94,3.94,0,0,1-1.56-.56c.22-.44,4.31-2.14,5.54-2.55a6.32,6.32,0,0,1-1.55,2.65,5.23,5.23,0,0,1-2.43.46Zm-22,.21A5.66,5.66,0,0,1,69.58,72a4.39,4.39,0,0,1-1.74-2.74l5.7,2.53s0,.1-.05.14a8.22,8.22,0,0,1-2.69.46Zm28.12.37a1.49,1.49,0,0,1,.73-.88c0,.24,0,.47,0,.71-.17.09-.17.09-.7.17Zm-33.63.17-.43-.09c0-.28-.12-.63,0-.86a3.4,3.4,0,0,1,.53.7h.11l.06.25Zm13.6.3c.75-.35,1.5-.69,2.26-1V72c-.35-.22-5.87-2.68-5.89-2.72-4.24-1.9-4.57-2.1-7.75-3.54a1.38,1.38,0,0,0-.26,0c-.27.46.14,1.89.24,2.47l10.35,4.73a2.58,2.58,0,0,1,1,.26Zm-27.51.61c0-.38-.25-2.28.35-2.28,0-.19.35-.4.48-.51.22.44.15,2.26-.44,2.46a.42.42,0,0,0,0,.12.5.5,0,0,0-.13,0,.42.42,0,0,0,0,.13l-.2,0Zm61.52-.16-.82-.82c0-.7,0-1.39,0-2.06.34,0,.81.57,1,.87,0,.66,0,1.32,0,2a.42.42,0,0,0-.12,0ZM50.69,74a.42.42,0,0,1,.13,0c0-.67,0-1.35,0-2-.5-.12-.9-.56-1.43-.56,0,.65,0,1.31,0,2l1.3.63Zm62.84-.16c1.28-.6,1.28-.6,1.37-.71a15.7,15.7,0,0,0,0-2l-.13-.05c-.43.2-.86.41-1.27.63a20.8,20.8,0,0,0,0,2.09ZM88.74,74a9.12,9.12,0,0,0,5-1.17A8.49,8.49,0,0,1,90.32,72a13.28,13.28,0,0,0-2.49,1.12c-.3.61.52.79.91.84Zm-14.47.18c.46,0,2.79.13,2.79-.75a8.35,8.35,0,0,0-2.69-1.15,7.09,7.09,0,0,1-3.45.74l0,.08a8.54,8.54,0,0,0,3.39,1.08Zm-11.13.2c0-.68,0-1.34,0-2,0,0,.79-.75.79-.9a3.76,3.76,0,0,1,.31-.25c.14.5.37,2.33-.43,2.52-.24.23-.39.53-.7.63Zm38.11-.13c-.39-.41-.78-.8-1.14-1.19,0-1.35,0-1.35,0-2,.29,0,1,.83,1.19,1.07,0,.68,0,1.36,0,2a.31.31,0,0,0-.11.08Zm.62.09a10.44,10.44,0,0,1,0-1.93,3.42,3.42,0,0,1,.84-.4c0,.63,0,1.26-.06,1.89a2.82,2.82,0,0,1-.82.44Zm-39.36.2-.71-.34c0-.65,0-1.29,0-1.92,1.23,0,.87,1.3.87,2.13a.49.49,0,0,0-.12.13ZM41,74.94c.37-1.44.37-1.44.78-3.52.33-1,1-3.51,2.17-3.94-.07,2.78,0,6.07-3,7.46Zm82.11-.26A5.9,5.9,0,0,1,120.46,71c-.1-1-.1-1-.24-4,.8,0,1.74,2.65,2,3.29.82,3,.82,3,1.14,4.41a1.18,1.18,0,0,0-.21,0Zm-64,.74c.51-.1,1.21-1,1.57-1.39a.67.67,0,0,1,0-.18l-.88-.48c-.1-.31,1.46-1.66,1.57-1.75.48.06.91.39,1.39.38.13-.11,1.26-1,1.25-1.37a8.64,8.64,0,0,0-2.35-1c-.71.72-.71.72-.85.79l-2.06-1c0-.36.39-.58.62-.82a1.21,1.21,0,0,0,0-.19c-1.1-.56-4.67-2.21-4.88-2.35-.57.07-.67.3-1.08.71A3.72,3.72,0,0,1,51.51,66c.21-.32.62-.57.72-.93a7.17,7.17,0,0,1-1.51-.7c-.48,0-1.29,1-1.57,1.38.06.07.06.07,1.37.68-.09.41-1.35,1.67-1.81,1.67a8.64,8.64,0,0,0-1.36-.62,11.54,11.54,0,0,0-1.54,1.47,2,2,0,0,0,0,.24,4.79,4.79,0,0,0,1.57.57c.13,0,.13,0,.81-.73a5.69,5.69,0,0,1,2.05.9,2.46,2.46,0,0,1-.68.93c0,.08,0,.08,1.2.66.41-.07,1.27-.82,1.27-1.26L51.64,70c0-.52.77-1,1.11-1.37.27-.13.66.15,1,.15.24-.24.38-.47.74-.47.59.45,1.61.44,2,1-.18.21-.46.37-.46.65l.62.33v.14L55.4,71.68c-.16,0-.16,0-.73-.25a2.21,2.21,0,0,0-1.29,1.25l1.79.87c.61-.06.8-.73,1.34-.73a16,16,0,0,1,2,1c-.2.33-.7.54-.69.94l1.36.66Zm45.92-.17c-.3-.3-1.39-1.16-1.4-1.55a2.61,2.61,0,0,0,.94-.56A9.76,9.76,0,0,0,103,71.41c-.22,0-.22,0-1.16.46a7.78,7.78,0,0,1-1.39-1.36,5.11,5.11,0,0,1,2.42-1.06c.16.12.61.46.67.67a6.14,6.14,0,0,0,2.17-.85c0-.43-.64-.53-.65-1,1.69-.84,1.69-.84,5.1-2.42.29,0,.72.58.91.79a5.71,5.71,0,0,0,1.8-.82c0-.26-.5-.65-.69-.84a3.43,3.43,0,0,1,1.84-.89c.33.28,1.21,1,1.21,1.38a10,10,0,0,1-1.3.66v.21c.51.48,1,1,1.56,1.45.6-.11,1.08-.56,1.7-.62a18.34,18.34,0,0,1,1.43,1.45c0,.07,0,.13,0,.19a4.64,4.64,0,0,1-1.74.69l-.65-.66a3.65,3.65,0,0,0-2.07.88c.19.24.67.54.67.87l-1.24.62c-.48,0-1.27-.92-1.27-1.27.46-.23.46-.23.53-.31-.12-.39-1.06-1.35-1.53-1.35-.74.59-.76-.24-1.35-.24-.62.3-1.25.6-1.87.92.07.33.4.41.34.74l-.64.33s0,.09,0,.16L109,71.46a6.6,6.6,0,0,1,1-.24c.34.32.68.67,1,1,0,.07,0,.13,0,.21a6.81,6.81,0,0,1-2.15.89c-.33-.33-.53-.66-1-.72-.62.3-1.23.6-1.83.92.07.46.64.61.61,1l-1.53.72Zm2.2,0a1.85,1.85,0,0,0,.61-.31c0-.62,0-1.21,0-1.81a4.4,4.4,0,0,0-1.24.59c.08.15.08.15.5.58.08.18.08.18.11,1ZM57,75.54l-.42-.27c0-.42-.15-1.49.07-1.83a4.58,4.58,0,0,1,1.09.46c0,.27-.35.52-.53.71s0,.6-.05.9a.35.35,0,0,0-.16,0Zm27.23.27-.83-.41a.34.34,0,0,1,0-.12,4.78,4.78,0,0,1,1.55-.65c-.16.38-.32.75-.46,1.15a.73.73,0,0,0-.22,0Zm-3.77,0a1.67,1.67,0,0,1,.32-.08l5-2.43a2.3,2.3,0,0,1,1-.45l10.26-4.81a6.64,6.64,0,0,0,.26-2.56,3,3,0,0,0-.31,0c-5.86,2.72-11.72,5.5-17.54,8.26V74a10.59,10.59,0,0,1,.93,1.84ZM39.3,76a.48.48,0,0,1,.18,0c1.38-1.73,1.42-3.89,2.12-5.91.27-.62.56-1.23.84-1.85a14.44,14.44,0,0,0-.61-4.13h-.11c-.51,1.83-.51,1.83-.91,3a31.44,31.44,0,0,0-2.08,5.65v1.31c.18.64.38,1.3.57,2Zm15.55,0-1.66-.8a14.21,14.21,0,0,1,0-2.06,5.5,5.5,0,0,1,1.89.86c0,.64,0,1.3,0,2a.48.48,0,0,0-.18,0Zm54.48-.17c.62-.32,1.24-.62,1.86-.92a8.87,8.87,0,0,0,0-2,12,12,0,0,0-1.89.91,6.08,6.08,0,0,0,0,2ZM72.49,76a1.38,1.38,0,0,0-1.29-.14,6.36,6.36,0,0,1-3.32-1.58c-.12-.19-.25-.26-.32-.38a6.73,6.73,0,0,1-2.79-3.46l-.45-.22a16.09,16.09,0,0,1-2.18-5.8,3.19,3.19,0,0,1,1-.13,10.86,10.86,0,0,1,.28,2.2,16.27,16.27,0,0,0,2.09-.22A8.21,8.21,0,0,0,65.47,64a3.52,3.52,0,0,1,1.18-.18c0,3,0,5.09,1.7,7.69a8.3,8.3,0,0,0,6.29,3.13c-.16.33-.32.66-.46,1-.82-.17-1.2-.31-1.69.36Zm3,.09c-.66-.42.57-.71.86-.71.48.47-.6.68-.86.71Zm49.29-.2a.23.23,0,0,1,.11,0c.16-.54.57-1.55.79-2.35,0-.41,0-.82,0-1.21-.76-2.84-2.58-5.36-3-8.3-.92.31-.89,3.09-.86,3.92.22.47.43,1,.65,1.44.78,2.2.93,4.62,2.33,6.53Zm-35.61.18c-.32-.16-.61-.31-.61-.69.35-.17.69.06,1,.26,0,.11,0,.22,0,.33s-.06.07-.38.1Zm3.1,0c-.26-.77-1-.51-1.52-.31a2.51,2.51,0,0,0-.61-1.16v-.14a8.3,8.3,0,0,0,6-3c.23-.4.47-.78.72-1.15.21-.55.41-1.11.63-1.66a24.06,24.06,0,0,0,.34-5,3.74,3.74,0,0,1,1.06.07,8.78,8.78,0,0,1,0,2.35,19.49,19.49,0,0,0,2,.22,8.68,8.68,0,0,0,.28-2.17,4.35,4.35,0,0,1,1.13.07,14.91,14.91,0,0,1-2,5.37,2.13,2.13,0,0,1-.56.59c-.26,1.4-1.69,2.61-2.77,3.5a5.45,5.45,0,0,1-3.73,2c-.33.11-.67.22-1,.35Zm6.62.17a7.66,7.66,0,0,1,2.67-.5c.51.09,1.32.42,1.55.45,0-.65,0-1.29,0-1.93-.62.09-1.1.64-1.74.65-.32-.31-.62-.63-.93-.92a3.29,3.29,0,0,0-2.36,1.36c.18.27.57.61.79.89Zm-33.54.17a.43.43,0,0,1,.17,0,2.48,2.48,0,0,1,.63-.93c.08-.4-.49-.71-.72-.93-1.38-.66-1.16-.54-2.28.58-.66,0-1.11-.53-1.78-.6,0,.63,0,1.25,0,1.88a5.26,5.26,0,0,1,3.94,0Zm10,0,.71,0c1.91-.84,0-2.12-1.11-.81v.57l.4.29Zm13.84,0c-.59-.28-1.49-.9-.72-1.47.81,0,1.53.23,1.53,1.18-.26.27-.41.26-.81.29Zm-45.35.39c1.23-.67,3.17-2.58,3.16-4.07a3.15,3.15,0,0,0-1.34-.48,12.84,12.84,0,0,1-2.91,2.48,1.25,1.25,0,0,0,.46.36v.11c.47.13.62,1.16.63,1.6Zm76.55-.19a.36.36,0,0,1,.12-.08,1.84,1.84,0,0,1,1.2-1.92v-.2a10.7,10.7,0,0,1-2.91-2.52,2.42,2.42,0,0,0-1.41.62c0,1.57,1.84,3.25,3,4.1Zm-2,.38a1.05,1.05,0,0,0,.76-.79,1.85,1.85,0,0,0-.49-.47,8.07,8.07,0,0,1-1.79-3.22,6.77,6.77,0,0,1-.85-.85.86.86,0,0,0-.62.2c0,.52-.08,1-.11,1.56a10.16,10.16,0,0,1-1.51.82c.34,1,1.48,1.77,2.28,2.41l.17,0a6.2,6.2,0,0,1,.28-2.88c.24.08.43.76.53,1a23.56,23.56,0,0,1,1.35,2.2Zm-49.29.24h.16a1.36,1.36,0,0,1,.46-.69c.84,0,1,.06,1.08,0a1.37,1.37,0,0,0,0-.25l-2-.84a10.84,10.84,0,0,1,.16,1.6l.22.15Zm-23.3.17a.45.45,0,0,1,.17-.08c.57-1.09,1.25-2.13,1.74-3.26h.11A6.92,6.92,0,0,1,48.13,77a7.57,7.57,0,0,0,2.48-2.46c-.54-.28-1.09-.55-1.63-.81,0-.5-.07-1-.1-1.49-.58-.35-.72,0-1.16.44s-1.23,3.11-1.78,3.11c-.63.79-.65.85-.16,1.68Zm39.77-.14c-1.74-.73.65-4.67,1.69-3.65.33,1.2-.45,2.25-.95,3.3a1.35,1.35,0,0,1-.74.35Zm-6.75.08c0-.08,0-.08-.19-.14-.44-.84-.71-1.75-1.23-2.58,0-.77.22-1.12,1.1-1,.77.81,2.46,3.48.32,3.69Zm16.84.12c-.32-.86-.66-.91-1.55-.85a1,1,0,0,1,0-.55c.64-.18,1.21-.62,1.82-.77a6.92,6.92,0,0,0-.19,1.43,1.61,1.61,0,0,1,.12.65l-.18.09Zm-19.52.1a1.86,1.86,0,0,0-.1-.25,1,1,0,0,1,.91-.4c.11.11.1.19.1.35a1.39,1.39,0,0,1-.91.3Zm28.45,0h.2c0-.67,0-1.35,0-2-.24-.24-.82-1.06-1.19-1.06,0,.69,0,1.38,0,2.08.32.33.64.67,1,1Zm-16.33.09-.4-.35c0-.12,0-.25,0-.36.5,0,1,0,.9.67a4.56,4.56,0,0,0-.54,0Zm-28.49.19c0-.66,0-1.32,0-2a2.38,2.38,0,0,1,1.18-1.18A6.34,6.34,0,0,1,60.8,77h-.12a4.32,4.32,0,0,1-.93.93Zm7.08,0,.56-.07c1-.43.79-1.68.4-2.51-.46-.63-2.32-2.76-3.12-1.7,0,.08.77.43,1.44.84.21.49,1,.77,1,1.41-.2.08-.41.16-.6.25a1,1,0,0,0,.37,1.78ZM59,78a5.41,5.41,0,0,1-1.39-.73c0-.65,0-1.29,0-1.92a4,4,0,0,1,1.56.62,19.58,19.58,0,0,1,0,2Zm46.24-.17c.51-.26,1-.51,1.56-.76,0-.68,0-1.36,0-2a6.45,6.45,0,0,0-1.45.73,8.31,8.31,0,0,0-.09,2.06Zm-8,0c-.22-.13-.43-.24-.64-.34-1.14-2,1.2-3.67,2.81-4.26.2,0,.52.17.44.41-.79.22-2.45,1.11-2.44,2.07.76.34,1.29.93.69,1.74a1.43,1.43,0,0,1-.86.38ZM76.08,78c.25,0,.5-.07.78-.08.49-.27,1.06-.89.34-1.29-.81-.13-1.47.13-1.64.92a1.21,1.21,0,0,0,.52.45Zm12.21,0c.31,0,.67,0,.87-.24.12-1-1.6-1.82-1.81-.64.18.47.51.63.94.88Zm0,.31c-1.92-.66-1.27-2.5-.05-3.63a1.46,1.46,0,0,1,2,1.72,3.72,3.72,0,0,1-1,1.7c-.29.07-.58.13-.86.21Zm-12,.06a1.88,1.88,0,0,0,1.54-1.15,2.57,2.57,0,0,0-1.56-2.56c-2.49.2-1.71,2.9,0,3.71ZM74.24,79a.87.87,0,0,0,.55-.24c0-.35,0-.67,0-1-.29-.64-.84-2.19-1.77-1.46a2.85,2.85,0,0,0,.54,1.3A3.78,3.78,0,0,0,74.24,79Zm16,0a2.91,2.91,0,0,1,.32,0,4.89,4.89,0,0,0,1.26-2.74,1.85,1.85,0,0,0-.14-.14c-1.06,0-2.2,2.18-1.44,2.91Zm34.45-.11-.21-.06c0-.39-.14-1.26-.53-1.38a.49.49,0,0,1,0-.11.55.55,0,0,0-.39-.06c-1.21.84-2.46.47-2.58-1.06.08-.23.17-.47.27-.69a.25.25,0,0,1,.13,0c0-.6,1.35-.5,1.72-.4s1.23.73,1.36,1.1l.34.21c.07,1.28.18,2,.17,2.43l-.27,0Zm-85.47.43.45-.09c.27-.76.23-1.5,1.22-1.6,1.29,1.25,3.08-.56,2-2-1.41-1.12-2.37.38-3.42,1.12a22,22,0,0,1-.28,2.56Zm86.46-.18-.1,0a14.35,14.35,0,0,1-.21-2.54c.39-2.27,1.6-3.59,3-5.28l.19,0a23.51,23.51,0,0,1-.22,3.36c-.22.74-.43,1.5-.63,2.25a5.5,5.5,0,0,1-2.06,2.31Zm-87.46.49a10.53,10.53,0,0,1-2.38-7.24A3.39,3.39,0,0,1,36,72a.11.11,0,0,1,.08,0A8.83,8.83,0,0,1,38.91,77c0,.57.12,2.48-.69,2.65Zm36.86-.13a80.3,80.3,0,0,1,14.63-.17c-.08-.23-.14-.47-.21-.69a2.36,2.36,0,0,0-.59.2,2,2,0,0,1-2.3-1.28.93.93,0,0,0-.23,0c-.82,1-1.75-.08-2-.85-.64-.29-1.25-.59-1.87-.89-.66-.09-1.44.51-2,.85-.28.75-.56,1.22-1.41,1.31-.46-.06-.65-.17-.94-.2a1.75,1.75,0,0,1-2.57.88h-.22a5.71,5.71,0,0,0-.28.86ZM73,80.11c0-.08,0-.08-.27-.19-.55-.75-.62-1.79-1.24-2.52-.2-.91.12-1.23.87-.68.42.66,1.88,3,.64,3.39Zm18.68,0c-1.07-.34.35-2.82.74-3.27a1.28,1.28,0,0,1,1-.37,1.11,1.11,0,0,1,.17.53,9.71,9.71,0,0,0-1.2,2.52,1.25,1.25,0,0,1-.69.59Zm-20.35.62c-.48-.31-.58-.86-.78-1.36-.42-.8-1-1.33-.55-2.2a3.93,3.93,0,0,1,.49,0c.9.75,1.87,2.44,1.25,3.55a2.63,2.63,0,0,0-.41,0Zm21.86.11a1,1,0,0,0,.61-.4C94.48,79,94.48,79,95,78c.09-1-.52-1-1.18-.35-.37.56-1.81,2.66-.68,3.2ZM64,81c-.61-.6-1.26-1.32-.41-2,1.62-.46,1.52,1.55.41,2Zm36.47,0a1.56,1.56,0,0,1-.33-1.72c1.64-1,1.68,1.28.33,1.72Zm23,0c-.67-.54-1.37-.17-2.07-.28V80.4a2.22,2.22,0,0,1,2.1.41.84.84,0,0,0,0,.18Zm-53.65.42a5.72,5.72,0,0,1-1.4-3.23c.92-.91,1.59,1.3,1.86,1.94.08.52.23.83-.07,1.26-.13,0-.26,0-.39,0Zm-29.33.2c0-1,3-1.34,2.36-.41a2.76,2.76,0,0,0-2.36.41Zm66.08-.18-.32-.09c0-.14-.25-.38-.34-.52,0-1.27.65-.94,1.63-.95.86-.63.6-1.43.32-2.26h-.1c-.06-.14-.06-.14-.43-.5,0-.25,0-.51,0-.76.69,0,1.24,1.29,1.48,1.82.31,1.65-.15,2.32-1.48,3.18l-.74.08Zm-12.13.06c-.59-.87.67-2.75,1.26-3.33a1.08,1.08,0,0,1,.69,0c.27.73-.17,1.08-.57,1.77s-.49,1.48-1.38,1.61Zm-36.73.25c.56-.13,1-.3,1-1-.39-.77-.82-.69-1.56-.45a1.77,1.77,0,0,1-.39-2.62c.46-.37.41-.57.44-1.14-.82,0-1.51,1.63-1.65,2.26,0,1.71.57,2.4,2.2,2.91Zm-8.94.19a18.09,18.09,0,0,1,0-2.33c-.31-.06-1.14,1.37-1.58,1.47a5.61,5.61,0,0,1,.9-3.15c.71-.71,1.44-1.42,2.17-2.13A18.88,18.88,0,0,1,49,81.71c-.11.16-.11.16-.24.22Zm66.68-.28c-.83-1.33-.94-3.09-1.27-4.59,0-.51-.1-1-.14-1.5a.39.39,0,0,1,.15,0c1.55,1.47,3.24,2.83,2.94,5.15H117c-.4-.39-.87-1.14-1.38-1.34a4.74,4.74,0,0,1-.16,2.26Zm-49.25.25c-.67-.27-.67-.27-.81-.39.12-.72.57-.94,1.14-1.34,1.21,0,1.47,1.24.36,1.7-.24,0-.46,0-.69,0ZM98,81.84a3.51,3.51,0,0,0,1.11-.25,1.55,1.55,0,0,0,0-.23c-.55-1.78-2.75-1.15-1.88.12a2.33,2.33,0,0,0,.72.36Zm20.94,0a17.74,17.74,0,0,1-.14-2.48,10,10,0,0,1-.15-1.84c.27-.21.7-.52.79-.85a1.46,1.46,0,0,1,.85.4v.11l.21,0v.11c.13,0,.13,0,1,.65a2.12,2.12,0,0,0,2.16-.12,1,1,0,0,1,.24,0,2.09,2.09,0,0,1,.11.83,8.23,8.23,0,0,0-3.25.6.62.62,0,0,0-.18,0,5,5,0,0,1-.11-.56.19.19,0,0,0-.1,0,10.71,10.71,0,0,1-1.39,3.13Zm-73.54.37A15.29,15.29,0,0,1,44.09,79H44c-.08.19-.14.38-.21.57a13.52,13.52,0,0,0-3.53-.46c0-.41.17-.8.65-.8a2.37,2.37,0,0,0,2.08,0c.38-.28,1.56-1.39,2-1.39a2.63,2.63,0,0,0,.81,1,30.14,30.14,0,0,0-.27,4.23ZM123.76,82h.1c-.17-.67-1.62-.92-2.13-.63,0,.11,0,.22,0,.34.45,0,.93-.08,1.39,0l.59.34Zm-62.16.47c.44,0,1.41-.12,1.55-.57-.29-.77-.93-1.41-1.79-.9-.37.58-.36,1.08.24,1.47Zm-21.47.22a3.94,3.94,0,0,1,1.2-.67c.62,0,1,.11,1.21.11s.07-.11.07-.41c-.21-.06-.41-.13-.6-.17-.6,0-1.88.4-1.88,1.14Zm62.26-.17c.7-.1,1-.2,1-1-.43-.68-.63-.71-1.36-.34-1,.77-.62.9.33,1.32Zm-38.31.25a1,1,0,0,0,.91-.5c0-1.83-2.47-.51-.91.5Zm36.11.07c-.69-.32-.88-.75-.41-1.41.44-.24,1-.21,1.2.36,0,.69-.11.86-.79,1Zm-28.13.41a4.94,4.94,0,0,0-1.53-1.14.27.27,0,0,1,0-.12,1.92,1.92,0,0,0,.49-.73,6.94,6.94,0,0,0,.89.09,1.3,1.3,0,0,0,.54-.73c.75-.14.9.22,1.53-.41a75.47,75.47,0,0,1,15.18-.34l1.65.21a1.17,1.17,0,0,0,1.58.44c.4.83.56.87,1.46.75.17.52.22.55.22.69a3.8,3.8,0,0,0-1.41,1.09c-1.09,0-1.09,0-4.87-.33a114.48,114.48,0,0,0-15.71.53Zm52.12-.12a3.23,3.23,0,0,0-2.08-.43c-.06-.13-.06-.13,0-.36a1.93,1.93,0,0,1,2.16.7.32.32,0,0,0,0,.09Zm-7.5.1c0-.08,0-.08.16-.11v.11Zm-8.46.4-.86-.24a3.1,3.1,0,0,1,.22-1.12,2.1,2.1,0,0,1,1.82,1.06c-.21.32-.84.29-1.18.3ZM55.83,84c-.22-.1-.43-.17-.64-.25v-.25a2.7,2.7,0,0,1,1.75-.83c.08.31.18.63.28.94-.22.33-1,.35-1.39.39Zm-16,.08c.11,0,.11,0,.38-.35A2.68,2.68,0,0,1,42.27,83c.08-.11.08-.11.08-.35-.73-.46-2.53.5-2.53,1.37Zm78.79-.29a15,15,0,0,1-.37-1.7,3.78,3.78,0,0,0-.2,1.26c-.18-.56-.34-1.13-.51-1.68,0-.34.1-.67.14-1,0-2-1.37-3.25-1-5.32,0,0,0,0,.08-.07a15.93,15.93,0,0,1,1.36,2.54c.33,2,.29,4,.63,6Zm-67.13.48a9.49,9.49,0,0,1,.16-3.19c1.21-2.22,1.21-2.22,1.28-2.22a7.66,7.66,0,0,1-.14,3.72c-.26.35-.92,1.59-1.3,1.69ZM112.79,84A17.2,17.2,0,0,1,111.48,82a13.1,13.1,0,0,1,0-3.7h.11A10.49,10.49,0,0,1,113,81.75c0,.72-.08,1.46-.1,2.2l-.13,0Zm11.55.3.13,0c-.34-.47-1.52-1.52-2.21-1a2.34,2.34,0,0,1,0,.3c.69,0,1.68,0,2,.75Zm-58.63.46a1.42,1.42,0,0,1-.45-2,2,2,0,0,1,1.52.74c0,.82-.23,1.14-1.07,1.22ZM39.78,85a.78.78,0,0,1,.09-.37.24.24,0,0,0,.12,0c0-.48,1.12-1,1.49-1.07h.61a.73.73,0,0,1-.1.46,2.83,2.83,0,0,0-2.21,1Zm58.68-.25c1.16-.21,1.24-.94,1-2a2,2,0,0,0-1.64.88c0,.59.08.78.63,1.08Zm-25.81.29c-.2-1-.2-1-.18-1.17a11.85,11.85,0,0,1,2.26-.32c4.41-.31,8.79-.34,13.22-.29,1.29.1,2.58.22,3.89.34a2.69,2.69,0,0,1,.32.13c0,.17,0,.17-.22,1.1a129.41,129.41,0,0,0-19.29.21Zm-9.77.09c-1.14-.86-.33-1.49.6-2l.35,0c.19.72.32,1.49-.36,2-.21,0-.4,0-.59,0Zm38.26,0c-.71-.45-.59-1.28-.3-2a1.86,1.86,0,0,1,1.37.86c.06.9-.24,1.07-1.07,1.12Zm23.26,0a2.59,2.59,0,0,0-1.92-.74,2.42,2.42,0,0,1,0-.38,2,2,0,0,1,2.07,1.07l-.13,0Zm-84.68.64A3.06,3.06,0,0,1,41.78,85c.06-.11.06-.11.06-.47a2.24,2.24,0,0,0-2.12,1.33Zm68.3-.15a5.58,5.58,0,0,1-1.44-.44c0-.15,0-.15.53-1.26.62,0,2.11.87,2,1.61a4.6,4.6,0,0,1-1.06.09Zm-52.13.38a3.08,3.08,0,0,0-.38-.16c0-.86,1.17-1.64,2-1.64A5.1,5.1,0,0,1,58,85.68a6.2,6.2,0,0,1-2.07.41Zm47.36,0a1.53,1.53,0,0,1-.53-.92c.43-.74.08-1.21-.12-1.92a1.88,1.88,0,0,0,1.49-1.09,2.09,2.09,0,0,1,1.36-.34c.26.76-1.43,4.13-2.2,4.27Zm-42.36.22A17.13,17.13,0,0,1,59,82c0-.09,0-.18,0-.28a1.84,1.84,0,0,1,1.56.45,1.6,1.6,0,0,0,1.46,1s0,.1,0,.16c-.63.94.35,2.62-1.21,2.93Zm63.58-.17h.09c-.24-.5-1.92-1.67-1.91-.65a3,3,0,0,1,1.82.65Zm-65.26.44,1-.14v-.26a17.61,17.61,0,0,1-1.76-3.91,2,2,0,0,0-.78.09c-.14,1.32.94,3.11,1.58,4.22ZM105,86.36c.27-.08.57-.62.74-.85a9.85,9.85,0,0,0,1.23-3.4c-.31,0-.61-.1-.91-.13-.11.14-.11.14-.63,1.75a15.24,15.24,0,0,1-1.36,2.43,2.46,2.46,0,0,1,.93.2Zm-65.35.42A2.74,2.74,0,0,1,41,85.5c.23,0,.47,0,.71-.06-.05.59-.47.5-1,.65a2.87,2.87,0,0,1-1,.69Zm22.79.52-1-.52v-.12a3.78,3.78,0,0,0,1.07-1c.78,0,1.07.17,1.72-.26a2,2,0,0,0,.44-.68h.18c.44,1,1.92.4,2.39-.17.24-.83.33-1.33-.41-1.93V82.5c1.68-.56,1.86-2.49.05-3a2.57,2.57,0,0,0-1.4.51,1.61,1.61,0,0,0-1-1.58c-1.45-.07-1.94.49-2,1.86l-.75,0a1.88,1.88,0,0,0-1.24,1c-.41-.06-.83-.1-1.24-.15-.25-1.3-.92-1.5-2.18-1.43a1.35,1.35,0,0,1,.29-1.92c.75.23,1.63.93,2.37.93.44-.49.9-1,1.36-1.44,1.25-.71,3.3-1.07,4.44,0,.31,1,1.27,1.33,2.34,1.12a20,20,0,0,0,1.24,3,1.6,1.6,0,0,1,.5.67,1.41,1.41,0,0,0-.22,2.67v.14c-.85,1-2.56,2.47-4,2.3a1.5,1.5,0,0,0-2.64.06,1.65,1.65,0,0,0-.32,0Zm39.16-.16a4.78,4.78,0,0,0,1.21-.5,1.15,1.15,0,0,1,0-.19c-.22-.19-.54-.63-.77-.74a1.51,1.51,0,0,1-2-1c-.28,0-.65.38-.9.51H98.4a1.48,1.48,0,0,1-.4-2.68v-.1c-.85-.29-1.16-.5-1.43-1.37C96.56,79.68,98,79.23,99,80l.19,0c.17-1,.31-1.59,1.54-1.69,1.23.36,1.28.86,1.29,2,.76-.1,1.85,0,2,.95a6,6,0,0,0,1.24-.16c0-1.48.47-2,2.08-1.89.42-.66.16-1.14-.26-1.74-.83,0-1.54.94-2.31.94q-.6-.63-1.2-1.23A4,4,0,0,0,99,77a1.83,1.83,0,0,1-1.87,1.39c0,.17-.09.36-.14.55a11.62,11.62,0,0,1-1.75,3v.09a1.41,1.41,0,0,1,0,2.59v.14c.93,1.12,2.22,2.43,3.83,2.42a1.49,1.49,0,0,1,2.57.06Zm22.84-.06a7.68,7.68,0,0,0-.7-.53,3.6,3.6,0,0,0-1-.17c-.07-.11-.07-.11-.07-.3.43-.32,1.84.46,1.78,1Zm-84.74.64c.25-.2.51-.41.78-.6.49-.2,1,0,1-.68-.59-.28-1.69.77-1.78,1.28Zm67.45-.24c.25,0,.5,0,.76,0,.09-.7-1.19-1.53-1.78-1.53-.46.73-.46.73-.48.85.23.39,1.09.58,1.5.72ZM57,87.78l-.48-.14c0-.83,1.21-1.18,1.85-1.45.27.14.39.56.48.83-.39.59-1.14.62-1.85.76Zm60.58-.24.08-.05a15.69,15.69,0,0,0-.23-4.78c-.16-.5-.6-2.18-1.19-2.18a8.31,8.31,0,0,0-.23,1.92c0,.63,0,1.26,0,1.89a6.72,6.72,0,0,0,1.61,3.2Zm-70.81.35A5.87,5.87,0,0,0,48,86.17c.74-1.62.4-3.28.17-5H48c-1.37,1.86-1.22,4.52-1.31,6.7Zm77.49-.09c.21-.44-1-.89-1.35-.89v.3a3.62,3.62,0,0,1,1.35.59Zm-84.32.74c0-.71.94-1.1,1.54-1.17,0,.11,0,.11,0,.41-.27.06-.54.14-.81.22a7.22,7.22,0,0,1-.78.54Zm58.33.07a6.3,6.3,0,0,1-2.94-2.69.75.75,0,0,1,0-.22,8,8,0,0,0,3.6,2c0,.19,0,.37,0,.58a1.15,1.15,0,0,1-.7.35Zm-32,.27a6.65,6.65,0,0,0,2.91-2.62c-.11,0-.11,0-1.21.77a9.6,9.6,0,0,1-2.18.83c-.08.14-.08.14-.08.5.18.18.37.35.56.52Zm58-.2a2.26,2.26,0,0,0-1.29-.59c0-.11,0-.2,0-.3.38,0,1.47.37,1.3.89ZM111,88.81v-.06h.11v.06Zm-71,.52a3.68,3.68,0,0,1,1.53-.61c0-.25,0-.25,0-.36-.55-.06-1.48.35-1.48,1Zm62.09-.27c-.94-.31-.51-.53-.34-1.32l1.07-.4c0,.32,0,.65.08,1,.21.36.21.36.21.48a2.79,2.79,0,0,1-1,.26Zm-40.25.2c-.58-.23-.37-.37-.14-.89,0-.22,0-.44.08-.66,1,0,.83.5,1.28,1.12,0,.46-1,.42-1.22.43Zm33.85-.12c.34,0,1.5.09,1.81-.22-1.67-1.2-3.28-2.67-3.07-4.9a2.13,2.13,0,0,0,.71-.17c.73-.84.31-1.45-.76-1.35-1.5.6-1.75,1.79-1.74,3.29a4.3,4.3,0,0,0,3,3.35Zm-28.33.19c.49,0,1-.07,1.51-.09a4.19,4.19,0,0,0,2.79-5.35c-.52-.91-1.79-1.86-2.54-.71-.08.88.19,1.06,1.06,1.12-.11,2.25-1.36,3.62-3.21,4.81,0,0,0,.08,0,.13l.43.09Zm56.73.29h.11c-.24-.47-.64-1-1.29-1,0,.13,0,.13,0,.38a2.48,2.48,0,0,1,1.2.57Zm-9.5,0h.11a11.19,11.19,0,0,0-1.47-4.46c-.5-.67-1-1.34-1.48-2-.11-.18-.74-1.49-.91-1.49a11.33,11.33,0,0,0,2.05,6.08,22.13,22.13,0,0,0,1.7,1.87ZM49.78,90l.19-.14c2-2.21,3.56-4.58,3.54-7.63-.73,1.2-.73,1.2-2,3.08A13.08,13.08,0,0,0,49.78,90Zm-9.67.25c0-.69.84-1.07,1.48-1,0,.52-.18.44-.64.5l-.84.51ZM102,90a4.59,4.59,0,0,0,2.28-.57c.86-.76,1.7-1.89.37-2.69-1.2,0-1.75,1-.87,1.9a.75.75,0,0,0,0,.2,4.36,4.36,0,0,0-.4.35c-.65.28-2.74.34-2.75-.68,1.28-.84-.25-2.51-1.17-1,0,1.51,1.08,2.24,2.52,2.54Zm-40.21.31a6.1,6.1,0,0,0,1.71-.25c1-.61,2.07-1.69,1.24-2.88-1.19-.43-1.76.61-.9,1.45,0,.39-.5.77-.84,1a2.33,2.33,0,0,1-2.3-.52c0-.33.22-.46.41-.69a1,1,0,0,0-.63-1.35c-1.31,0-1.46.68-1,1.81a4.57,4.57,0,0,0,2.35,1.47Zm-21.53.58a1.78,1.78,0,0,0,.61-.3l.76-.1c.07-.11.07-.11,0-.44a1.53,1.53,0,0,0-1.45.68,1.43,1.43,0,0,0,0,.16Zm83.79-.38a1.7,1.7,0,0,0-1.19-.54V89.6a1.32,1.32,0,0,1,1.3,1Zm-83.67,1c.25-.59.79-.65,1.37-.66v.37a4.93,4.93,0,0,0-1.37.29Zm83.72-.16c0-.08,0-.14,0-.2a1.55,1.55,0,0,0-1.33-.8.54.54,0,0,0,0,.38,4.14,4.14,0,0,1,1.31.62Zm-83.41.82c.07-.41.68-.51,1.06-.48.12.67-.46.39-1.06.48Zm83.05-.16a1.46,1.46,0,0,0-1-.4v-.36a1.12,1.12,0,0,1,1.15.76Zm-6.24.08h.16c0-1.33-.08-2.69-.1-4a8.13,8.13,0,0,1-2.24-3.85c0-.93,0-1.34,0-1.76-.88-1.57-1.13-3.36-2.24-4.81H113c-.08.63-.14,1.26-.2,1.88l.58,1.29c.16,1.26-.21,2.58,0,3.8a14.74,14.74,0,0,1,1.37,2.79,11.57,11.57,0,0,0,2.74,4.7Zm-70.72.45c.15-.08.15-.08.84-.91h.1c.41-.82,1.11-1.52,1.49-2.38a20,20,0,0,1,1.53-4.1h.11c0-.11,0-.11.17-.36a14.8,14.8,0,0,1,0-3.82c.43-1,.54-1.07.62-1.35-.1-.52-.2-1-.28-1.55-1.21.79-1.38,2.56-1.8,3.84-.16.3-.32.6-.46.9a6.91,6.91,0,0,1-.72,3.72c-.61.93-1,1.34-1,1.49h-.09a7.12,7.12,0,0,0-.49.58c0,1.32,0,2.64,0,3.94Zm76.59-.07a2.93,2.93,0,0,0-.73,0c0-.19-.07-.22,0-.38a1.1,1.1,0,0,1,1,.37l-.31,0ZM41.59,93l-.78,0v-.16h.11v-.1a1.37,1.37,0,0,1,.8-.12c.09.11.09.11.14.37l-.27.05Zm79,1.47a3.08,3.08,0,0,1,.26-.24c1.16-3,.78-7.13.3-10.24-.44-2-.44-2-.83-3.41a.42.42,0,0,0-.13,0,10.32,10.32,0,0,0-1.1,4.11c.37.77.37.77.91,2.12a20.41,20.41,0,0,1,.59,7.63Zm-76.85.59a.4.4,0,0,0,.11,0,29.78,29.78,0,0,1,0-6.19c.18-.64.35-1.29.52-1.92s.52-1.15.79-1.71c.26-1.5-.43-2.7-1-4l-.14,0A31.31,31.31,0,0,0,42.76,90c.07.74.13,1.48.22,2.2a8,8,0,0,0,.78,2.84ZM90.11,95c-.34-.55-1.45-.46-1.63-1.19h3.57A4.66,4.66,0,0,1,90.11,95Zm-15.85.18c-.35-.24-1.57-.89-1.68-1.24,1.23,0,2.46,0,3.7,0,0,0,0,0,0,.07a7.45,7.45,0,0,1-2.07,1.2Zm-11.44.05L61.1,94.07a.53.53,0,0,1,0-.12c1.26,0,2.52,0,3.79,0a5.13,5.13,0,0,1-2.06,1.26Zm-25.62.4a25.32,25.32,0,0,0-2.31-8.29L34,85.63a6.14,6.14,0,0,1,1.93-3.34.42.42,0,0,1,.13,0v-.11c2.26-1.62,4.7-2.8,7.52-1.75a1.86,1.86,0,0,1,.05.27c-.28,1.14-.56,2.31-.82,3.47a31,31,0,0,0-.22,8.66,7.07,7.07,0,0,1,.25,1.4,4.44,4.44,0,0,0-3.88,0c-.44.31-.89.63-1.32,1a.72.72,0,0,1-.3.32v.11Zm89.93-.36a.08.08,0,0,1,.07,0c.12-.85.24-1.7.37-2.55a12.91,12.91,0,0,1,.92-3.54,20,20,0,0,1,1.86-3.94c-.18-2.2-2.48-3.77-4.22-4.83-.62-.22-1.25-.42-1.86-.62-.84-.09-3.12-.32-3.66.5a43.35,43.35,0,0,1,1.4,7.3c0,1,0,2,0,3s-.28,2.09-.41,3.14c2.31-.94,3.92-.32,5.51,1.53Zm-18.68,1.33a7.86,7.86,0,0,0-1.56-1.31.35.35,0,0,1,0-.12,4.14,4.14,0,0,0,1.16-.31c.38-.27.38-.27.43-.25,0,.66.06,1.32.09,2Zm-18.58,4a.2.2,0,0,0,.11,0c0-1.66,0-3.32-.06-5a8.59,8.59,0,0,0-1.65-1c0,1.63,0,3.27,0,4.9.52.36,1.06.72,1.6,1.07Zm-15.21.19a6.52,6.52,0,0,0,1.7-1.09c0-1.63,0-3.27,0-4.89-.45.18-1.45.59-1.66,1,0,1.65,0,3.3,0,5ZM44.79,101c-1.2-1-1.2-1-2.13-1.67v-.1c2.71-1,1.9-3.27,1.63-5.66,0-.79,0-1.56,0-2.33.18-2.67,1.29-5,2-7.5,0-.35,0-.69,0-1h-.13a7.33,7.33,0,0,0-.17.74,22.41,22.41,0,0,1,.67-6.12c.14-.31.79-1.65,1.14-1.77q-.09.84-.18,1.65a16.17,16.17,0,0,0-.83,3.83c.26,1-.23,1.85-.4,2.8s-.13,1.88-.19,2.84c0,2.36.12,4.48.13,6.55,0,.13-.07.26-.1.4a10.93,10.93,0,0,0-1.32,7.26l-.08.1Zm74.76-.32c.93-.8.93-.8,2.33-1.86a9.27,9.27,0,0,0-1.12-.69c-1.17-1.5-.78-3.09-.6-4.9,0-1,0-2,0-3.09-.12-.79-.12-.79-.55-2.8-.42-1.3-1-2.55-1.45-3.86h-.07c.23,3.18,0,6.39.13,9.56a10.64,10.64,0,0,1,1.44,4.16c0,2.62-.14,3.35-.1,3.47ZM79,101,77,101c0-.31,0-.63,0-.94,3.54,0,7.08,0,10.64,0,0,.28-.06.58-.09.88L79,101Zm39.26.27q-.06-1-.09-2.07a26.67,26.67,0,0,0-1.66-4.69c-.38-1.15-1.13-2.78-1-4,1.37,1.79,1.37,1.79,2.41,3a8.91,8.91,0,0,1,1.17,4.89c-.1.89,0,2.31-.84,2.85Zm-72.35.37c-1.11-1.52-.62-4.22-.22-5.91.63-1.89,2.1-3.36,3.28-4.89,0,.14,0,.14-.81,3.21a42.1,42.1,0,0,0-1.87,5.06,18.69,18.69,0,0,0-.17,2.53Zm76.66.13c.16-.55.31-1.09.48-1.62s.06-1,.11-1.46a2.44,2.44,0,0,0,1.42-3c.51,0,1,1.43,1.13,1.79a6.89,6.89,0,0,1,.07,1.14,4.65,4.65,0,0,1-2.3,2.78l-.91.4Zm-80.74.56c-1.73-.93-3.15-1.79-3.16-3.88.14-.61.37-2,1.07-2.2a2.87,2.87,0,0,0,.73,2.46,4.14,4.14,0,0,0,1,.56,5.26,5.26,0,0,0,.49,3,.76.76,0,0,0-.08.11Zm35.23.28-.11,0q0-.49,0-1c.22-.05.22-.05,10.58-.1,0,.29,0,.61,0,.92-.06,0-.06,0-10.55.18Zm26.41,4.63c1.76-.29,2.56-.52,3.7-1.92,1.11-3.57-3.06-4.23-5.49-5.08-.27-.16-.54-.31-.82-.45a2.53,2.53,0,0,1-1-3.26c1.54-2.78,4.94-1.63,7.54-2,.21-.12.73-.41.73-.69a6.66,6.66,0,0,1-1.42.13,17.92,17.92,0,0,0-5.27-.13c-2.1.78-4.17,2.11-3.66,4.7.95,2.28,3.17,2.59,5.41,3.06.37.13.74.29,1.1.44,1.22.91,1.87,1.82,1,3.25-2.27,1.46-4.91.45-6.66-1.38h-.11a4.9,4.9,0,0,0,3.64,3.17l1.4.18Zm-5.25.07a19.58,19.58,0,0,0,.1-2.17c.18,0,.82,1,1.11,1.15v.09c.5.34.5.34.5.41a8.26,8.26,0,0,0-1.71.52Zm-6.13.51a.21.21,0,0,1,.11,0c0-4.4,0-8.8,0-13.19a7.82,7.82,0,0,0-1.59.9c0,6.68,0,6.68,0,11.3a12.52,12.52,0,0,0,1.47,1ZM61,108c.16,0,.16,0,1.46-.89a112.43,112.43,0,0,0,.15-11.32l-1.47-1C61,97.63,61,97.63,61,108Zm27.33-.09c0-1.71-.1-3.45,0-5.17l1.63-1c0,1.73,0,3.47,0,5.22l-.48.25v.11l-1.16.57Zm-15.84.15c.39-.24,1.47-.73,1.6-1.11,0-11.17,0-11.17-.06-11.29-.47-.31-.92-.62-1.36-.93l-.21.05c0,6.63,0,6.63,0,13.28Zm-7.77,0,.22,0c0-2.25,0-2.25.11-13.27-.25-.12-1.69.94-1.78,1.14,0,3.6,0,7.22-.06,10.83.15.69.93.95,1.51,1.34Zm11.56,0c-.5-.32-1-.65-1.48-1a35.35,35.35,0,0,1-.1-5.25c.43,0,1.34.75,1.73,1,0,1.73,0,3.46,0,5.2a.86.86,0,0,0-.17,0Zm12,.71a4.52,4.52,0,0,1,2.28-1.22,6.11,6.11,0,0,1,1.66,1.16l-3.94.06Zm-27.16.14v-.16c.49-.32,1.24-1,1.84-1a15.69,15.69,0,0,1,1.57,1v.09l-3.41,0Zm11.33,0a3.9,3.9,0,0,1,2-1.22c.55.36,1.09.73,1.65,1.11a.09.09,0,0,0,0,.06l-3.62.05Zm30.55-.09c2.16-.06,4-.23,5.64-1.82.33-.44.43-.49.48-.65h.11a4.76,4.76,0,0,0,.37-2.8,5.51,5.51,0,0,0-3.08-3.36,11.57,11.57,0,0,0-1.89-.46c-1.58-.32-3.69-1.24-2.55-3.15a3.59,3.59,0,0,1,.39-.39c2.36-1,4.15-.18,5.92,1.45,0,0,0,0,0-.07-1.1-2.6-4.31-2.93-6.7-2.07-1.32.73-1.49,1.34-1.49,2.72.57,1.57,2.71,2,4.13,2.34,1.75.75,3,1.27,3.56,3.16a3.33,3.33,0,0,1-1.37,3.12V107a7.26,7.26,0,0,1-3.51.82c-1.5-.2-3.69-1-4.78.46a15.59,15.59,0,0,1,4.74.61Zm9.61.41c-.44,0-.86-.06-1.32,0,.06-.18.15-.22.31-.31v-.1h.12c0-.18.46-.45.55-.66l1.28-1.62c.48-.84.91-1.72,1.3-2.59a13.79,13.79,0,0,0,.62-4,17.58,17.58,0,0,0-.44-2.07,15,15,0,0,0-4.53-6.29,26.16,26.16,0,0,0-4.74-2.78c-.11-1.27.79-.66,1.56-.41l2.57,1.33c1,.69,1.85,1.38,2.73,2.13a9.53,9.53,0,0,0,1.23,1.42c2.14,3,3.37,6.08,2.69,9.82a21.05,21.05,0,0,1-1.52,3.64c-.6.7-1.45,2.26-2.41,2.58Zm-53,.26c2.23,0,4.48-.05,6.73-.06V109c-.63-.13-.74-.3-.79-.93.06-10.84.06-10.84.14-13.73a.92.92,0,0,1,.73-.44v-.52c-.35,0-6.62,0-6.71,0v.59c.33,0,.62.12.73.45,0,6.93,0,6.93-.14,14.11-.38.6-.78.19-.69,1Zm11.5,0c-.06-.92.11-.45.59-1a2.34,2.34,0,0,1,.11-.4q0-6.93,0-13.83c-.19-.35-.34-.34-.69-.45V93.3c.12,0,.12,0,6.71-.08,0,.06,0,.06,0,.5-.73.34-.77.45-.87,1.19,0,1.49,0,3,0,4.47l4.25,0c.17-2.43,0-5,0-7.41-.24-.24-2.47-.09-2.9-.08,0-.65,0-1.29,0-1.94.73-.36,2.25.21,2.87-.2,0-.71,0-1.41.06-2.1a5.4,5.4,0,0,1,2-.11,9.2,9.2,0,0,1,.15,2.22c.91,0,1.84,0,2.78.05a5,5,0,0,1,0,2l-2.79.1c0,2.48,0,5,.07,7.49l4.13-.06a1,1,0,0,1,.08-.21c0-1.46,0-2.92,0-4.37a2.36,2.36,0,0,0-.24-.8c-.15-.08-1.09-.4-.6-.76l6.7-.09c0,.18,0,.37,0,.55-.41.23-.54.29-.68.71q0,6.81.07,13.65c.13.4.13.4.27.57.54.14.51.11.52.65l-.18.09-6.59,0c-.39-.5.58-.69.73-1.07,0-2,0-2,0-5.11-3.47,0-6.91,0-10.36,0l-.24.08c0,4.34,0,4.34.07,5.22.23.33.34.34.74.43,0,.15,0,.3,0,.46s0,0-.06.06l-6.73.11Zm32.58-.11,2.11-.25a18.59,18.59,0,0,0,2.25-.86s0-.06,0-.09.12,0,.73-.51a4.77,4.77,0,0,0,1.42-4.17c-.17-.45-.35-.9-.51-1.33-1.47-2.15-3.08-2.64-5.67-3.16a8.12,8.12,0,0,1-1.33-.72c-.89-1.16.21-1.79,1.27-2.07a4.92,4.92,0,0,1,4.46,2.29l.7,0a1.11,1.11,0,0,1,.07-.26c-.13-1.79-.13-3.58-.11-5.38l-.56,0c-1.19.91-3.24.27-4.58.11l-2,0c-.49.12-1,.24-1.46.37a6.79,6.79,0,0,0-2.74,2,4.08,4.08,0,0,0-.12,4.07c1.33,1.71,3.59,2.18,5.63,2.57,1.28.62,2.34,1.29,1.48,2.76-2.59,1.28-5.3-.32-6.56-2.66h-.55c0,2.37.3,4.51-.56,6.81a.89.89,0,0,0,0,.14l.53,0c1.38-.92,2.92-.31,4.4,0l1.63.18Zm-51.91.26-.56-.55c-1.7-2.11-3-4-3.38-6.77a15,15,0,0,1,.7-5.16c.34-.72.68-1.43,1-2.14s.94-1.32,1.41-2c2-2.08,4.64-4.28,7.62-4.88.07.28.15.57.23.85a27.63,27.63,0,0,0-4.73,2.62c-.62.55-1.23,1.13-1.84,1.72-.44.55-.89,1.12-1.32,1.69a15,15,0,0,0-1.92,5,12.84,12.84,0,0,0,1.82,6.81,26.69,26.69,0,0,0,2.17,2.6v.1c-.41,0-.83,0-1.23.09Zm63.68.1c.71-2.3,2.68-4,4.49-5.54,1.38-1,1.38-1,1.43-1.09,2-1.25,4.16-2.09,5-4.41,0-1.68-.83-3.72-2.73-3.91a.91.91,0,0,0,0,.17,1.87,1.87,0,0,1-.47,3.11,2,2,0,0,1-2.37-2.84c1.44-1.56,2.72-1.32,4.56-.56,2.32,1.69,2.13,4.31.56,6.44l-4.27,4.4c-1.58,1.49-3.86,4-6.16,4.23Zm-.83.21h.21c.88-3.26,3.63-5.27,6.12-7.42a7,7,0,0,0,1.78-2.71c0-.27,0-.53,0-.8a.26.26,0,0,0-.11,0,17.36,17.36,0,0,0-3.52,2.93c-1.69,1-1.28-1.28-1.3-2.3a29.37,29.37,0,0,0-1.91-5.82c-.43-1.31-.43-1.31-.87-2.89a26.2,26.2,0,0,1-3.37-4.26c-.74-1.83-1.83-4.31-1-6.31h.14a.36.36,0,0,0,.2.22c0-1.56.11-2.74.1-3.79a.11.11,0,0,1,.08,0,10,10,0,0,0,1.08,1.86.28.28,0,0,1,.11,0,9,9,0,0,0,.34-2.19c.56.13.6.85,1.11,1-.12-1-.22-1.92-.32-2.88-.61-.18-1.18-1-1.63-1.48h-.1c0,.69-.07,1.38-.1,2.09a7,7,0,0,1-2.44,1.24,3.53,3.53,0,0,1-1-.94c-.15,0-.15,0-.63.23v.14c1.5,1.23,2.25,2.5,1.71,4.45a4.43,4.43,0,0,1-1.37,1.42.16.16,0,0,0,0,.08c1,.4,1.92.73,2.08,1.86a2.29,2.29,0,0,1-1.14.51l0,.15a2.25,2.25,0,0,1,.76,1.72,6.06,6.06,0,0,1-1.58.25c0,.07,0,.07.37.62a2.23,2.23,0,0,1,.19.84l-.49.22a13.51,13.51,0,0,0,2.74,1.7L113,91.47c.55.61,1.09,1.25,1.64,1.89a14.5,14.5,0,0,1,2.72,8.1,12.89,12.89,0,0,1-3.84,7.81v.17l1.09.58Zm-65.78.38c-3.65-1.49-6.15-4.75-8.94-7.36-1.85-2-3.3-4.16-1.78-6.74,1.59-1.77,4.14-2.3,5.68-.19a1.81,1.81,0,0,1-1.21,2.55h-1a1.84,1.84,0,0,1-.75-3.13.21.21,0,0,0,0-.07c-2.06,0-2.69,2.24-2.68,3.91.5,1.85,2.15,2.64,3.75,3.48C44.59,104.77,47.54,107,49,110a3.27,3.27,0,0,1,0,.35.78.78,0,0,0-.22,0Zm.94.15a6.77,6.77,0,0,0,1.29-.66c-.06-.13-.06-.13-.9-1-1-1.36-1-1.36-2-2.77a18.71,18.71,0,0,1-.85-2.11,13.27,13.27,0,0,1,1.48-8.9,26.23,26.23,0,0,1,1.78-2.46,23.52,23.52,0,0,1,5.69-4.21.75.75,0,0,1,.08-.18l-.57-.18c-.21-.42.26-1.06.48-1.39a3.15,3.15,0,0,1-1.58-.54,2.09,2.09,0,0,1,.89-1.53v-.15a2.54,2.54,0,0,1-1.16-.64c0-.7.87-1.17,1.37-1.49a2.74,2.74,0,0,0,.83-.33,4.07,4.07,0,0,1-1.48-1.49,3.65,3.65,0,0,1,.72-3.58c.31-.27.65-.54,1-.81V76a1.22,1.22,0,0,0-.67-.22c-.62.7-.73.74-.78.85a6,6,0,0,1-2.75-1.26c0-.65,0-1.3-.07-1.94-.18,0-1.05,1.15-1.63,1.36a15.62,15.62,0,0,0-.27,3.06c.23-.31.6-1,1.08-1,.07.75.15,1.51.24,2.26l.13,0,1.23-2c.16,2.73.16,2.73.28,3.67a1.53,1.53,0,0,1,.14-.21l.09.07c0,.42.12.86.18,1.3,0,3.32-1.42,5.59-3.32,8.19-1.08,1.23-1.08,1.23-1.17,1.28-.35,1.13-.68,2.28-1,3.43-.43,1-.85,1.92-1.26,2.89a26.81,26.81,0,0,0-.61,3c0,.6.24,2.78-1.06,2A16.76,16.76,0,0,0,42,99.5c-.63,1,.56,2.54,1.07,3.25,2.42,2,5.3,4.07,6.52,7,.06.25.13.51.19.78Zm66.94,1.36a8.59,8.59,0,0,0,1.91-.76,7.51,7.51,0,0,1,3-1.1c.42-.27,2.15-1.28,2.14-1.74-.78,0-1.56,0-2.33,0l-2.45.53a22.2,22.2,0,0,1-3.47,1.68c0,.07.68.77,1.23,1.41Zm-69,.35.32-.08c.15-.19.9-.84.9-1a12.75,12.75,0,0,1-3.27-1.74l-1-.33a17.76,17.76,0,0,0-4-.37c-.12.39,2.2,1.66,2.34,1.75a44.42,44.42,0,0,1,4.69,1.8Zm70.13,1.25c-.19-.28-.66-.74-.6-1.08,2-1.1,3.82-2.24,6.19-1.61a16.09,16.09,0,0,0,2.28.81,15.4,15.4,0,0,1,2,.41l1.94,1s0,0,0,.08a15.67,15.67,0,0,1-3.42.12l-1.65-.41a18.85,18.85,0,0,0-2.92-.19c-1.29.23-2.55.66-3.84.82ZM36.14,114a4.77,4.77,0,0,1-1.45-.32c.65-.39,1.3-.78,2-1.16a15.9,15.9,0,0,0,4.61-1.37,7.86,7.86,0,0,1,4.11.75c.78.42,2,1,2.07,1l-.49.85c-1.91,0-3.75-.67-5.68-.72a39.3,39.3,0,0,1-5.14.93Zm45.1,1a77.26,77.26,0,0,0,10.49-1l3.73-.85A4.38,4.38,0,0,1,99,114.51a24.31,24.31,0,0,0,2.68-.37c.49-.35.64-1,1.3-1.28a.27.27,0,0,1,0-.09,8,8,0,0,1,2-.67,2.22,2.22,0,0,0,.8-.07,4.86,4.86,0,0,1,2.72-1.4l.67-.49a.27.27,0,0,1,0-.09,8.37,8.37,0,0,0,1.46-1V109a1.2,1.2,0,0,1,.32-.16v-.11a9,9,0,0,0,2.16-2.43,12.15,12.15,0,0,0,1.82-6.17c-.14-.6-.27-1.18-.38-1.76a15.55,15.55,0,0,0-3.77-5.87c-.85-.72-.85-.72-1-.75V91.6l-1.51-1a9.23,9.23,0,0,0-3-1.28,4.49,4.49,0,0,1-2.17,1.18c-1.61,0-2.9-.15-3.84-1.57A1,1,0,0,0,99,89a4.6,4.6,0,0,1-4.88.12c-.15-.13-.8-.58-.8-.76-.72,0-1.23-2.36-1.44-2.8l-.69-.13a107.57,107.57,0,0,0-18.48.32c-.11.17-.42,1.37-.63,1.84a5.48,5.48,0,0,1-3.26,2.31,4.64,4.64,0,0,1-3.37-.77.52.52,0,0,0-.18,0c-1.55,2.13-3.4,2.12-5.63.86-.13-.11-.25-.22-.37-.31a.9.9,0,0,0-.22,0,23.61,23.61,0,0,0-4.66,2.53v.11a4.18,4.18,0,0,0-1.36,1.24h-.11a28.52,28.52,0,0,0-2.33,3.31,11.92,11.92,0,0,0-1,4,13.36,13.36,0,0,0,2.16,6.4h.11c.28,1.06,2.25,2.45,3.13,3a11.31,11.31,0,0,0,1.2.9,4.74,4.74,0,0,1,2.58,1.29,4.57,4.57,0,0,1,4,2,13.18,13.18,0,0,0,2.86.36c2.11-2,4-1.36,6.63-.72a88.91,88.91,0,0,0,8.93,1Zm45.46.4a6.94,6.94,0,0,0,2.69-.31c-2.44-.82-4.72-1.74-7.31-1.72a14.53,14.53,0,0,0-2,.5c1,.16,2.11.35,3.18.53s2.3.76,3.46,1Zm-90.5.55a15.15,15.15,0,0,0,2-.08,28.25,28.25,0,0,1,6.35-1.45v-.11a17.36,17.36,0,0,0-2.37-.48c-2.5,0-4.65,1-7,1.77a1,1,0,0,0,0,.11l1,.24Zm68.24,0a.16.16,0,0,1,0-.08c.44-.77,1.26-.87,2.08-1.16.36.19.9.47,1,.86-1,.18-2,.28-3,.38Zm-44.55.34c-.89-.14-1.79-.28-2.68-.4,0-.28.54-.57.74-.69a2.19,2.19,0,0,1,2.2,1.09Zm34.42,0a.49.49,0,0,1,0-.11,15.25,15.25,0,0,1,1.84-.72,70.1,70.1,0,0,0,7.65-1.26,8.62,8.62,0,0,1,1.76.08v.16a40,40,0,0,1-11.24,1.85Zm-26.13.22a48.47,48.47,0,0,1-7.3-1.17,6.72,6.72,0,0,1-1.72-.65,7.37,7.37,0,0,1,2.92.08c1.84.4,1.84.4,3.06.6a14.66,14.66,0,0,1,5,1v.1ZM117,117c0-.26.07-.52.12-.77a2.65,2.65,0,0,1-.07-1.71h.2c0,.23,0,.47.07.72.29.49.41,1.62-.32,1.76Zm-69.55.51c-.69-.67-.19-1.71.07-2.45h.19a2.33,2.33,0,0,1-.09,1.68c0,.25,0,.5,0,.77Zm78.69-.19A18.79,18.79,0,0,1,124,117a12.44,12.44,0,0,0-3.79-1.47c-.51,0-1,0-1.53,0a5.8,5.8,0,0,1-.36-1.14,28.75,28.75,0,0,1,6,.86c.74.28,3.92,1.62,3.92,2-.73.08-1.48.1-2.22.12Zm-89.83.5a1.28,1.28,0,0,0-.24-.11c0-.08.87-.49,2.35-1.32a21,21,0,0,1,7.93-1.53c.1.28-.13.71-.22,1-.4,0-.65,0-1.79,0a11.13,11.13,0,0,0-3.58,1.36,23.57,23.57,0,0,1-4.45.61Zm79.8-.34c1-.19.47-1.61.46-2.28-.69.16-.41,1.23-.39,1.74s-.11.38-.07.54Zm-.79.36c0-.74-.34-1.83.52-2.17-.05.21-.1.41-.14.63.08.44.24,1.4-.38,1.54Zm-13.59.07a38.26,38.26,0,0,0,6.68-1.37c0-.26-.18-.4-.33-.61-1.4.2-2.81.39-4.21.48-.19.13-2.14,1.41-2.14,1.5Zm-53.24.27h.22a.75.75,0,0,0-.14-.36c0-.54,0-1,0-1.57-.08-.22-.17-.43-.23-.63h-.19c-.06,1-.44,1.7.3,2.56Zm13.76,0c.21,0,.43,0,.65-.07a17.11,17.11,0,0,1-2-1.29c-1.58-.15-1.58-.15-4.36-.52a3.41,3.41,0,0,0-.25.37c.06.07.06.07,1.68.62,1.41.35,2.83.64,4.25.89Zm-12.87.22c-.62-.69-.45-1.41-.39-2.28a.29.29,0,0,1,.1,0c.68.5.29,1.54.45,2.31Zm65.1-.17c.67-.34.41-1.53.58-2.18-.86.21-.58,1.5-.58,2.18Zm-18.85.09c.65,0,1.32,0,2,0a14,14,0,0,0,5.25-1.8v-.11a4.23,4.23,0,0,0,.81-.68,24.71,24.71,0,0,0-3.07.56c-2.34.3-4.69.55-7,.67a3.06,3.06,0,0,0-.39,1l2.46.4Zm-28.65.3a19.64,19.64,0,0,0,4.58-.54,1.44,1.44,0,0,0-.65-1.06c-2.12,0-4.23-.2-6.36-.38a23.31,23.31,0,0,0-3.35-.6,3.48,3.48,0,0,0,.67.65v.09a12.29,12.29,0,0,0,5.11,1.84Zm-16.8.09h.21a3.9,3.9,0,0,0-.41-2.2H49.8a5.56,5.56,0,0,0-.13,1.37,3,3,0,0,0,.46.83Zm63.36-.07a7.48,7.48,0,0,1,.39-1.82.47.47,0,0,1,.17,0c0,.52.06,1.59-.56,1.86ZM105,119c-1.34-.59-1.34-.59-1.35-.64,3.63-.85,3.63-.85,4.73-1.15h.34a2.82,2.82,0,0,1-.19,1.65l-.2,0a2.12,2.12,0,0,0-3,.06,2.09,2.09,0,0,0-.34,0Zm-54.12.38c-.13-.19-.24-.38-.36-.56a9.41,9.41,0,0,1,.06-1.43h.15a3.84,3.84,0,0,1,.37,2,.73.73,0,0,0-.22,0Zm61.79-.2a2.52,2.52,0,0,1,.42-1.78l.21,0c.07.6,0,1.54-.63,1.8Zm-53.49.31A2.18,2.18,0,0,0,57,119c-.68.38-.68.38-.87.42a2.68,2.68,0,0,1-.14-1.9c1.63.41,3.28.84,4.93,1.17a.16.16,0,0,0,0,.09l-1.74.71Zm52.69-.21c.62-.31.55-1,.7-1.63-.69-.09-.76,1.22-.7,1.63Zm-60,.41c-.54-.53-.51-1.08-.55-1.84h.19a2.87,2.87,0,0,1,.49,1.79l-.13,0Zm.74.15a2.44,2.44,0,0,1-.51-1.68c.71,0,.6,1.21.63,1.63l-.12.05Zm-14.34.12a21,21,0,0,0,3-.45c.63-.23.63-.23,2.25-1,1.26-.41,2.31-.62,2.37-.68,0-.36,0-.73,0-1.07-2.87-.54-5.3,1.41-7.48,3,0,.07-.06.13-.08.19Zm87.37-.39h.68v-.1c-2-1.37-4.79-3.86-7.48-3.18,0,.42,0,.86,0,1.3h.44c2.17.53,4.23,1.43,6.41,2Zm-14,1.06a6.15,6.15,0,0,0,3-1c1.3-.45,2.7-.47,3.27-1.81.45-2.41-.53-3.8-1.83-5.73h-.1c-.34-.44-.34-.44-.37-.56h-.11c-.21-.63-1.69-1.26-2.21-1.52a4.6,4.6,0,0,0-3.78.51c0,.6-2.54.85-3,1.68,3.5,1.13,5.77,4.44,4.68,8.1a.42.42,0,0,0,0,.15l.47.15Zm-58.94.5a4,4,0,0,0,.94-.11c-.13-.47-.25-.94-.36-1.4s0-.86,0-1.29a15.42,15.42,0,0,1,1-2.72A7.84,7.84,0,0,1,57,113c.37-.15.73-.27,1.1-.4,0-.08,0-.14-.05-.21H58c-.19-.56-2.06-.9-2.53-1.07v-.09a4.29,4.29,0,0,0-2.16-1,5.48,5.48,0,0,0-3.5,1.13v.11l-.15,0c-2,1.86-4.85,6.24-1.49,8.14a11.73,11.73,0,0,1,2.37.49v.1a8.3,8.3,0,0,0,2.16.82Zm52.28.26h.16a3.46,3.46,0,0,1-.12-1.75c-.88-.38-1.78-.72-2.69-1a24.49,24.49,0,0,0-3.93.27c.18.36,1.56,1,1.94,1.2l1.7.6a18.64,18.64,0,0,1,2.94.7Zm-45.35.43,4.25-1.14c.85-.4,1.63-.89,2.42-1.36v-.1a21.44,21.44,0,0,0-4-.31,23,23,0,0,0-2.6,1.12.9.9,0,0,0,.1.5,6.25,6.25,0,0,1-.17,1.29Zm47.71.17c-1-.24-1.39-.36-1.78-1.28,0-.92.22-1.53,1.19-1.75a1.41,1.41,0,0,1,1.52.9c.59-.1.94-.84,1.13-1.34.18-2.61-1.89-4.17-4.21-4.82a15.28,15.28,0,0,0-2.45.2v-.11c.11,0,.58-.42.65-.47a4.72,4.72,0,0,1,5.19.59,6.34,6.34,0,0,1,2.13,5.22,3.45,3.45,0,0,1-3.37,2.86Zm2.53.14c.46,0,.94,0,1.42,0a.23.23,0,0,1,0-.11c-.9-.65-.74-.69-1.61,0V122a.93.93,0,0,0,.21,0Zm-52.92.27a3.65,3.65,0,0,1-3-3.82,7.49,7.49,0,0,1,1.74-4A5.52,5.52,0,0,1,59.39,113c.63.11,2,.32,2.21,1l-1.88,0a6.7,6.7,0,0,0-3.39,1.81c-.89,1.23-1.33,2.25-.72,3.76.13.22.37.69.66.68.68-.74,1.23-1.13,2.23-.65,1,.84.78,1.91-.32,2.56a4.71,4.71,0,0,1-1.26.2Zm-3.62.17,1.64,0v-.09c-.95-.86-.66-.74-1.68,0a.2.2,0,0,0,0,.08Zm41,.2A4.46,4.46,0,0,1,92,120.6q-.18-.66-.33-1.32c0-2.9,1.32-5.41,4.47-5.58a2.87,2.87,0,0,1,2,.84,11.3,11.3,0,0,0-3.33.4,4.54,4.54,0,0,0-2.15,5.53c.26.38.73.83,1.21.75a1.41,1.41,0,0,1,1.6-1.38l.59.24c1,1,.57,2.11-.69,2.61l-1,0ZM69.68,123c-1.3-.33-2-.94-1.42-2.27h.1a1.39,1.39,0,0,1,2.33.15,4.52,4.52,0,0,0,.18.47c2,0,1.39-3.07,1-4.2-.72-1.16-.72-1.16-.75-1.28a6.57,6.57,0,0,0-2-1,21.72,21.72,0,0,1-2.7-.12v-.1c1.6-1.13,2.93-1,4.59,0,.1.08.42.47.57.47a6.4,6.4,0,0,1,1.21,5.27,4.19,4.19,0,0,1-1.64,2.07v.11a6,6,0,0,1-1.48.42Zm39.32.32h.84c-.1-.3-.64-.56-.9-.75-1.62-.15-1.62-.15-3-.34-1.63-.42-3.26-.82-4.87-1.22A17.22,17.22,0,0,1,97.43,119c-1.51,0-3-.22-4.48-.38a2.47,2.47,0,0,0,.28,1.84h.27c.21-1.4,2.64-1.46,3.3-.38h.11c.15.33.29.66.45,1,2.29.59,4.59,1.33,6.91,1.74,1.56.17,3.18.29,4.73.58Zm-54.27.47a76.24,76.24,0,0,0,7.81-1l2.6-.85a14.75,14.75,0,0,0,2.18-.57,2.71,2.71,0,0,1,1.38-1.66,1.92,1.92,0,0,1,2.51.91h.16a2.31,2.31,0,0,0,.46-1.71l-.45,0a36.47,36.47,0,0,1-4.16.45c-3.41,2.44-7.42,3.27-11.57,3.72-.31.14-.85.47-.92.8Zm51.6,1.66h.27c-.44-.61-.86-1.21-1.27-1.8l-2-.34c-2-.49-3.93-1.15-6-1.58.23.45,1.19.85,1.64,1.13a33.52,33.52,0,0,0,7.36,2.59Zm-48.39.45a46.34,46.34,0,0,0,4.8-1.25,21.66,21.66,0,0,0,4.59-2.3v-.19c-2.16.15-4.32,1.12-6.43,1.64a4.18,4.18,0,0,0-1.59.33,13.72,13.72,0,0,1-1.37,1.77Zm22.84,1.17v0h.06v0Zm24.2.4a32.23,32.23,0,0,1-4.08-2l-2.81-2.13a.15.15,0,0,1,0-.09c.9.4,1.79.81,2.69,1.23,1.15.37,2.3.74,3.45,1.13.1.11.44,1,.84,1.88Zm-45.3.34.75-1.72a35.69,35.69,0,0,0,6.79-2.88.32.32,0,0,0,0,.13,34.41,34.41,0,0,1-5.65,3.75l-1.91.72Zm17.54.84c2.31-2,2.7-4.68,2.15-7.59h-.14c-.46.87-1.17,2.29-2.17,2.62.12-.16.74-.76.65-1h-.32c-.39.19-1,1.28-1.48,1.13.32-.29.75-.62.84-1a4.18,4.18,0,0,0-.51,0c-.27.31-.95,1-1.39.91.21-.17.88-.63.79-1l-.31-.05a2.14,2.14,0,0,1-1.39.78c.3-.22.85-.51.76-.93l-.31,0c-.27.26-.93.87-1.37.76.31-.27.71-.5.77-.88-.52-.31-1.05.74-1.74.62,2.9-1.91,2.45-6.11.31-8.37a2.23,2.23,0,0,1,.37,0,63.42,63.42,0,0,0,9.81.88,66.43,66.43,0,0,0,9.54-1h.3c-1.82,2.15-2.37,4.26-1.23,6.89l.81.94c.69.58.69.58.67.62-.46,0-.76-.4-1.07-.7-.38,0-.38,0-.5.13a2,2,0,0,0,.62.83c-.31,0-.76-.58-1-.8l-.53,0a.28.28,0,0,0-.08.11c.27.38.69.8.67.86-.46,0-.89-.46-1.17-.81a4.73,4.73,0,0,0-.54,0c0,.47.56.64.79,1a.42.42,0,0,0-.15,0,4.84,4.84,0,0,1-1.12-1l-.49,0c-.26.25.5.86.66,1a.37.37,0,0,0-.16,0,7.15,7.15,0,0,1-1-1h-.46c0,.34.56.72.51.89-1.18-.58-1.29-2-2.14-2.79l-.15.1a11.08,11.08,0,0,0,.07,4.37l.63,1.58a12.85,12.85,0,0,0,1.24,1.58.12.12,0,0,0-.08,0,4.76,4.76,0,0,1-1.43-1.5,1.73,1.73,0,0,0-.72,0c0,.15,0,.15.35.79-.4-.32-.86-1.45-1.5-1.24a2.42,2.42,0,0,0,0,.39,12,12,0,0,1-1-1.57c-.23-.69-.39-1.43-.47-1.54a.25.25,0,0,0-.13,0c-.16.92-.6,2.62-1.44,3.18,0-.1.1-.19.27-.63a1.85,1.85,0,0,0-.59.19c-.33.47-.79,1.35-1.4,1.53,0-.14,0-.14.73-1.07a1,1,0,0,0-.68.1,3.52,3.52,0,0,1-2,1.58Zm12.38.41a3,3,0,0,0,.86-.15c1.29-.92.54-2.72-1-2-.73.77-1.76.13-2.57-.21a4.19,4.19,0,0,0,2.74,2.38Zm-15,.12a4.09,4.09,0,0,0,3.46-2.45,8.86,8.86,0,0,1-1.48.65l-.9,0c-.85-.61-1.53-.57-2.12.34,0,.25,0,.52,0,.79a2.31,2.31,0,0,0,1,.7Zm-.2.61a23.12,23.12,0,0,0,5.16-1.09,6.49,6.49,0,0,0,2.85-3.07,4.14,4.14,0,0,1,.45.87,16.29,16.29,0,0,0,1.36,1.61,9.12,9.12,0,0,0,2.6,1.08c1.83.36,4.26,1.18,5-1.09,0-1.92-1.6-2.6-3.14-1.51l-.41,0a4.1,4.1,0,0,1-2.48-3.93h.08a5.81,5.81,0,0,0,2,1.68c1.84.26,3.72-.41,5.5-.77l2.21-.22a3.1,3.1,0,0,1,1-.2,22.87,22.87,0,0,0,10.26,5.51.65.65,0,0,1,0-.19,4,4,0,0,1-1.73-2.6,17.83,17.83,0,0,0,3.19.25,1.8,1.8,0,0,0-.05-.19,11,11,0,0,1-2.21-2.16c.32-.2,1.54,0,2,0a12.57,12.57,0,0,0,4.4.28,1.33,1.33,0,0,1,0-.19,8.2,8.2,0,0,1-2-1.15s0-.07.07-.08c.59,0,2.37.13,2.84-.33-.07-.08-.07-.08-1-.42l-.82-.48s0-.07,0-.08a8.47,8.47,0,0,0,3.61-1.36,16.85,16.85,0,0,1,1.74-.36,4,4,0,0,0,1.8-1.46,3.37,3.37,0,0,1,1.07.09l5,1.64a6.18,6.18,0,0,0,2.9,0v-.15a12.67,12.67,0,0,1-2.48-2,8.76,8.76,0,0,1,1.75.18,12.39,12.39,0,0,0,3.38-.43,1.54,1.54,0,0,0,0-.17,7.76,7.76,0,0,1-2.81-1.34.19.19,0,0,1,0-.08,7.61,7.61,0,0,0,3.27-.89,1.19,1.19,0,0,1,.05-.22,8.09,8.09,0,0,1-2.74-.77c.46-.09,3.16-.49,3.16-1.23l-1.49-.42a8.52,8.52,0,0,0-3.42-1.38c-1.14-.29-2.21-.82-3.36-1a19.42,19.42,0,0,1,2.67-2.12v-.16a48.76,48.76,0,0,0-5.67.19,70.85,70.85,0,0,0,6.64-6.9,10,10,0,0,0,1-2.61c.09-1,.09-1.67.19-3.32.35-3.22,1-6.78,3-9.44a6.34,6.34,0,0,0-1.55-4.17c-.11,0-.11,0-1.12-.94-.82-.55-1.37-.81-1.77-1.08,2.43-2.41,2.43-5.65,2.42-8.89,0-.26.06-.52.11-.77a.42.42,0,0,0-.15,0l-.42.7c-.64.75-1.93,1.7-2.18,2.59a.5.5,0,0,0-.13,0c0-.37,0-.75,0-1.11-.69-3.25-2.94-5.94-3-9.35h-.19a13.13,13.13,0,0,0-1,1.73,22,22,0,0,0-.59,2.52c-.53-.17-1-1-1.62-1,.4,2.49.11,4.74,1.17,7.11a.76.76,0,0,0,0,.16,5.46,5.46,0,0,1-1.67-1.54l-.06-3c-.64-.64-1.29-1.28-1.91-1.92-.42,0-.77.34-1.15.34,0-.49,0-1,0-1.45-.36-.69-1.3-1.3-1.85-1.92a5.9,5.9,0,0,0-2.77,1.14c-.06,1.28-.06,1.28-.12,1.35-.8-.18-1.22-1.62-1.37-2.33a3.5,3.5,0,0,0,1.07,0l.51-.47c.08-.24.11-.65.38-.73.83,0,1-.27,1.24-1,1.37.32,1.82-.57,1.89-1.74.91-.1,1.07,0,1.5-.86.5-.25.82,0,1.06-.74,0-1.07-.49-2.34-1.83-1.89-.35.36-.35.36-.49.43a1,1,0,0,0-1.35.63,1.38,1.38,0,0,0-.2,0c-1-.67-1.89-.76-2.47.5-.62,0-1.25-.37-1.67.26h-.19c.12-.39.44-.48.84-.63a11.47,11.47,0,0,0,1.78-1.7,1.83,1.83,0,0,1,0-.32c-.85-.48-1.65-1.07-2.54-1.48a32,32,0,0,1-3.25-.52h-1.8a24.47,24.47,0,0,0-2.36.69c-3.95,2.21-4.71,6-4.69,10.22l-.09.22c-3.92,1.8-4.07,1.91-9,4.21l-.16,0a5.53,5.53,0,0,1-.81-2.12c.08-.06.08-.06,1.18-.33a2.38,2.38,0,0,0,.65-.57,2.2,2.2,0,0,0,0-.8.81.81,0,0,1-.21-.49c1.07-.19,1.32-.54,1.92-1.44.29-.19.59-.36.9-.54,1-.77.87-1.71.24-2.67v-.3a2.15,2.15,0,0,0,0-1.87,1.65,1.65,0,0,0,.78-1.65c.17-.19.35-.36.52-.54.28-1-.6-1.63-.38-2.64.54-1.07,1-1.71,0-2.57,0-.19,0-.38,0-.57s-.18-.41-.26-.61c1.11-1.44.88-3.08-1.29-2.76a.75.75,0,0,0-.14-.12,8,8,0,0,0-4-4.1,5.81,5.81,0,0,1-1-.42,8,8,0,0,1-1.87-.4c0-.09,0-.09.13-.25.28-.88-.34-1.37-1-1.72,0-1.13,0-1.13,0-1.28l1.32-.05a10.4,10.4,0,0,0,0-2L83.48,36l-.06-1.4H81.14c-.06.06-.12,1.32-.19,1.45-.33,0-1.1-.08-1.34.16,0,.63,0,1.27,0,1.91l1.33,0c0,.34,0,.7,0,1.07-.13.12-.56.3-.9.5a1.16,1.16,0,0,0-.29,1.23.78.78,0,0,1,.27.47c-1.61.38-3.39.79-4.6,2-1,.47-1.83,2-2.35,2.95-1.53-.2-2.47.25-2.05,1.88a8.77,8.77,0,0,0,.68,1,1.72,1.72,0,0,0-.09,1c-1.19.89-.46,1.64,0,2.83v.71c-.49.88-.79,1.65.17,2.32,0,.84,0,1.18.76,1.68a7.35,7.35,0,0,1-.38.74,2.1,2.1,0,0,0,.07.69c.5.85.18.87-.22,1.75,0,1.29.49,1.47,1.56,2.11.71,1,1,1.44,2.21,1.51,0,.13,0,.13-.24.46-.07,1,.18,1,1.11,1.42l.79.19c.19.56-.7,2-1.16,2.35q-4.53-2.1-9.07-4.18c-.07-1.32-.14-2.64-.29-4-.18-.59-.36-1.19-.52-1.78a8.43,8.43,0,0,0-5.61-5.34,14,14,0,0,0-6.67.71c-.42.22-1.77,1-1.77,1.4A6.21,6.21,0,0,0,54.9,58v.19h-.22a2,2,0,0,0-1.4-.15,1.68,1.68,0,0,0-1.8-.92c-.33.11-.76.36-.94.41-.45-.61-.78-.86-1.55-.6-.13-.07-.13-.07-.25-.25A1.4,1.4,0,0,0,47.12,59c.22,0,.45,0,.67.07.2,1,.61,1,1.5,1,0,.3.05.62.09.93.4.89,1,.95,1.87.95A1.42,1.42,0,0,0,52.6,63c.45.83.87,1.39,1.92,1,.15.77-.77,1.86-1.3,2.33a.12.12,0,0,0-.08,0A6.36,6.36,0,0,1,53.07,65a6.37,6.37,0,0,0-2.72-1.16c-.65.63-1.3,1.26-1.94,1.91,0,.49-.07,1-.1,1.46-.4.1-.72-.29-1.14-.29q-1,1-2,2c0,1,0,1.94,0,2.92a4.52,4.52,0,0,1-1.67,1.55c.1-.21.21-.41.32-.62a26.7,26.7,0,0,0,.84-6.62c-.59-.18-1.17,1-1.64,1-.08-.64-.67-4.38-1.7-4.37A15.13,15.13,0,0,1,40.91,65c-1.09,2.74-2.42,5.27-2.8,8.23a.25.25,0,0,0-.13,0c-.93-1.14-2-2-2.41-3.45a.42.42,0,0,0-.15,0c-.06.11-.06.11-.12.77.07.94.07.94.08,3.77a11.76,11.76,0,0,0,2.28,5.36v.16c-2.64,1.51-4.16,2.94-4.26,6a27,27,0,0,1,2.28,5c.21,1.06.42,2.09.63,3.16.24,2.39.29,3.82.39,4.76.15.49.3,1,.44,1.46a25.39,25.39,0,0,0,1.52,2.22c1.78,1.91,3.69,3.8,5.52,5.68a7,7,0,0,1-1.66-.12l-3.65.07s0,0,0,.06c.87.7,1.75,1.4,2.63,2.12,0,0,0,0,0,.06-1.59.38-2.91,1.21-4.57,1.38-1.31.43-2.44,1.26-3.78,1.61a.9.9,0,0,0,0,.23,7,7,0,0,0,3,1,6.67,6.67,0,0,1-2.77.69,1.81,1.81,0,0,0,0,.23,7.67,7.67,0,0,0,3.65,1,8.6,8.6,0,0,1-3,1.4v.25c1.66.74,3.54,0,5.24.08-.88.74-1.75,1.49-2.61,2.23v.14a13.5,13.5,0,0,0,4.64-.52A10.92,10.92,0,0,1,46,118.67c.11.06.11.06.5.7l1,.72a7.33,7.33,0,0,0,1.63.21l.88.29a10.52,10.52,0,0,0,3.18,1.26c-.33.49-1.43.62-2,.88a1.09,1.09,0,0,0,0,.18,25.88,25.88,0,0,0,3.3.21,7.18,7.18,0,0,1-2.13,1.14v.2c2,.55,4.11-.33,6.19-.34-.06.61-1.24,1.45-1.71,1.81-.26.15-.69.26-.82.51l.07.13a13.09,13.09,0,0,0,3.57-.29,4.45,4.45,0,0,1-1.81,2.38c-.07.11-.07.11-.09.35,4-.48,7.44-3.07,10.3-5.6.86,0,1.9.19,2.78.24l2.48.46a9.28,9.28,0,0,0,3,.48,4.3,4.3,0,0,0,2.58-1.86,4.13,4.13,0,0,1-2.36,4,1.08,1.08,0,0,1-.53.05,2,2,0,0,0-2.85.44A1.76,1.76,0,0,0,74.39,129.8Z"/></g></g></svg>